<svg xmlns="http://www.w3.org/2000/svg" xmlns:xlink="http://www.w3.org/1999/xlink" version="1.1" baseProfile="full" width="576" height="227" style="user-select: none; position: absolute; left: 0px; top: 0px;">
<g>
<rect width="576" height="227" x="0" y="0" id="0" fill="rgb(0,0,0)" fill-opacity="0">
</rect>
</g>
<g>
<text xml:space="preserve" fill="#6E7079" fill-opacity="1" stroke="none" transform="matrix(1,0,0,1,558.72,210.46)" dominant-baseline="central" text-anchor="end" x="0" y="6" style="font: 12px sans-serif;">Created Year →</text>
<path d="M 30.8976 187.5 L 558.72 187.5" fill="none" stroke="#ebf2f7" stroke-width="1" paint-order="fill" stroke-opacity="1" stroke-dasharray="none" stroke-linecap="butt" stroke-miterlimit="10">
</path>
<path d="M 30.8976 164.5 L 558.72 164.5" fill="none" stroke="#ebf2f7" stroke-width="1" paint-order="fill" stroke-opacity="1" stroke-dasharray="none" stroke-linecap="butt" stroke-miterlimit="10">
</path>
<path d="M 30.8976 140.5 L 558.72 140.5" fill="none" stroke="#ebf2f7" stroke-width="1" paint-order="fill" stroke-opacity="1" stroke-dasharray="none" stroke-linecap="butt" stroke-miterlimit="10">
</path>
<path d="M 30.8976 117.5 L 558.72 117.5" fill="none" stroke="#ebf2f7" stroke-width="1" paint-order="fill" stroke-opacity="1" stroke-dasharray="none" stroke-linecap="butt" stroke-miterlimit="10">
</path>
<path d="M 30.8976 94.5 L 558.72 94.5" fill="none" stroke="#ebf2f7" stroke-width="1" paint-order="fill" stroke-opacity="1" stroke-dasharray="none" stroke-linecap="butt" stroke-miterlimit="10">
</path>
<path d="M 30.8976 71.5 L 558.72 71.5" fill="none" stroke="#ebf2f7" stroke-width="1" paint-order="fill" stroke-opacity="1" stroke-dasharray="none" stroke-linecap="butt" stroke-miterlimit="10">
</path>
<path d="M 30.8976 48.5 L 558.72 48.5" fill="none" stroke="#ebf2f7" stroke-width="1" paint-order="fill" stroke-opacity="1" stroke-dasharray="none" stroke-linecap="butt" stroke-miterlimit="10">
</path>
<path d="M 30.8976 25.5 L 558.72 25.5" fill="none" stroke="#ebf2f7" stroke-width="1" paint-order="fill" stroke-opacity="1" stroke-dasharray="none" stroke-linecap="butt" stroke-miterlimit="10">
</path>
<path d="M 30.8976 94.5 L 558.72 94.5" fill="none" stroke="#6E7079" stroke-width="1" paint-order="fill" stroke-opacity="1" stroke-dasharray="none" stroke-linecap="round" stroke-miterlimit="10">
</path>
<text xml:space="preserve" fill="#6E7079" fill-opacity="1" stroke="none" transform="matrix(1,0,0,1,26.8976,187)" dominant-baseline="central" text-anchor="end" x="0" y="0" style="font: 12px sans-serif;">-200</text>
<text xml:space="preserve" fill="#6E7079" fill-opacity="1" stroke="none" transform="matrix(1,0,0,1,26.8976,163.8571)" dominant-baseline="central" text-anchor="end" x="0" y="0" style="font: 12px sans-serif;">-150</text>
<text xml:space="preserve" fill="#6E7079" fill-opacity="1" stroke="none" transform="matrix(1,0,0,1,26.8976,140.7143)" dominant-baseline="central" text-anchor="end" x="0" y="0" style="font: 12px sans-serif;">-100</text>
<text xml:space="preserve" fill="#6E7079" fill-opacity="1" stroke="none" transform="matrix(1,0,0,1,26.8976,117.5714)" dominant-baseline="central" text-anchor="end" x="0" y="0" style="font: 12px sans-serif;">-50</text>
<text xml:space="preserve" fill="#6E7079" fill-opacity="1" stroke="none" transform="matrix(1,0,0,1,26.8976,94.4286)" dominant-baseline="central" text-anchor="end" x="0" y="0" style="font: 12px sans-serif;">0</text>
<text xml:space="preserve" fill="#6E7079" fill-opacity="1" stroke="none" transform="matrix(1,0,0,1,26.8976,71.2857)" dominant-baseline="central" text-anchor="end" x="0" y="0" style="font: 12px sans-serif;">50</text>
<text xml:space="preserve" fill="#6E7079" fill-opacity="1" stroke="none" transform="matrix(1,0,0,1,26.8976,48.1429)" dominant-baseline="central" text-anchor="end" x="0" y="0" style="font: 12px sans-serif;">100</text>
<text xml:space="preserve" fill="#6E7079" fill-opacity="1" stroke="none" transform="matrix(1,0,0,1,26.8976,25)" dominant-baseline="central" text-anchor="end" x="0" y="0" style="font: 12px sans-serif;">150</text>
<text xml:space="preserve" fill="#6E7079" fill-opacity="1" stroke="none" transform="matrix(1,0,0,1,68.5992,193)" dominant-baseline="central" text-anchor="middle" x="0" y="6" style="font: 12px sans-serif;">1996</text>
<text xml:space="preserve" fill="#6E7079" fill-opacity="1" stroke="none" transform="matrix(1,0,0,1,144.0024,193)" dominant-baseline="central" text-anchor="middle" x="0" y="6" style="font: 12px sans-serif;">1995</text>
<text xml:space="preserve" fill="#6E7079" fill-opacity="1" stroke="none" transform="matrix(1,0,0,1,219.4056,193)" dominant-baseline="central" text-anchor="middle" x="0" y="6" style="font: 12px sans-serif;">1994</text>
<text xml:space="preserve" fill="#6E7079" fill-opacity="1" stroke="none" transform="matrix(1,0,0,1,294.8088,193)" dominant-baseline="central" text-anchor="middle" x="0" y="6" style="font: 12px sans-serif;">1992</text>
<text xml:space="preserve" fill="#6E7079" fill-opacity="1" stroke="none" transform="matrix(1,0,0,1,370.212,193)" dominant-baseline="central" text-anchor="middle" x="0" y="6" style="font: 12px sans-serif;">1991</text>
<text xml:space="preserve" fill="#6E7079" fill-opacity="1" stroke="none" transform="matrix(1,0,0,1,445.6152,193)" dominant-baseline="central" text-anchor="middle" x="0" y="6" style="font: 12px sans-serif;">1990</text>
<text xml:space="preserve" fill="#6E7079" fill-opacity="1" stroke="none" transform="matrix(1,0,0,1,521.0184,193)" dominant-baseline="central" text-anchor="middle" x="0" y="6" style="font: 12px sans-serif;">1993</text>
<path d="M 38.0609 94.4286 L 51.3384 94.4286 L 51.3384 43.0514 L 38.0609 43.0514 L 38.0609 94.4286 Z" fill="#3e6180" fill-opacity="1" stroke="none">
</path>
<path d="M 113.4641 94.4286 L 126.7416 94.4286 L 126.7416 46.7543 L 113.4641 46.7543 L 113.4641 94.4286 Z" fill="#3e6180" fill-opacity="1" stroke="none">
</path>
<path d="M 188.8673 94.4286 L 202.1448 94.4286 L 202.1448 54.16 L 188.8673 54.16 L 188.8673 94.4286 Z" fill="#3e6180" fill-opacity="1" stroke="none">
</path>
<path d="M 264.2705 94.4286 L 277.548 94.4286 L 277.548 50.4571 L 264.2705 50.4571 L 264.2705 94.4286 Z" fill="#3e6180" fill-opacity="1" stroke="none">
</path>
<path d="M 339.6737 94.4286 L 352.9512 94.4286 L 352.9512 56.0114 L 339.6737 56.0114 L 339.6737 94.4286 Z" fill="#3e6180" fill-opacity="1" stroke="none">
</path>
<path d="M 415.0769 94.4286 L 428.3544 94.4286 L 428.3544 66.6571 L 415.0769 66.6571 L 415.0769 94.4286 Z" fill="#3e6180" fill-opacity="1" stroke="none">
</path>
<path d="M 490.4801 94.4286 L 503.7576 94.4286 L 503.7576 178.6686 L 490.4801 178.6686 L 490.4801 94.4286 Z" fill="#3e6180" fill-opacity="1" stroke="none">
</path>
<path d="M 53.9939 94.4286 L 67.2714 94.4286 L 67.2714 36.5714 L 53.9939 36.5714 L 53.9939 94.4286 Z" fill="#5492c4" fill-opacity="1" stroke="none">
</path>
<path d="M 129.3971 94.4286 L 142.6746 94.4286 L 142.6746 52.7714 L 129.3971 52.7714 L 129.3971 94.4286 Z" fill="#5492c4" fill-opacity="1" stroke="none">
</path>
<path d="M 204.8003 94.4286 L 218.0778 94.4286 L 218.0778 57.4 L 204.8003 57.4 L 204.8003 94.4286 Z" fill="#5492c4" fill-opacity="1" stroke="none">
</path>
<path d="M 280.2035 94.4286 L 293.481 94.4286 L 293.481 62.0286 L 280.2035 62.0286 L 280.2035 94.4286 Z" fill="#5492c4" fill-opacity="1" stroke="none">
</path>
<path d="M 355.6067 94.4286 L 368.8842 94.4286 L 368.8842 72.6743 L 355.6067 72.6743 L 355.6067 94.4286 Z" fill="#5492c4" fill-opacity="1" stroke="none">
</path>
<path d="M 431.0099 94.4286 L 444.2874 94.4286 L 444.2874 113.4057 L 431.0099 113.4057 L 431.0099 94.4286 Z" fill="#5492c4" fill-opacity="1" stroke="none">
</path>
<path d="M 506.4131 94.4286 L 519.6906 94.4286 L 519.6906 64.3429 L 506.4131 64.3429 L 506.4131 94.4286 Z" fill="#5492c4" fill-opacity="1" stroke="none">
</path>
<path d="M 69.9269 94.4286 L 83.2045 94.4286 L 83.2045 55.0857 L 69.9269 55.0857 L 69.9269 94.4286 Z" fill="#91c0e6" fill-opacity="1" stroke="none">
</path>
<path d="M 145.3301 94.4286 L 158.6077 94.4286 L 158.6077 56.0114 L 145.3301 56.0114 L 145.3301 94.4286 Z" fill="#91c0e6" fill-opacity="1" stroke="none">
</path>
<path d="M 220.7333 94.4286 L 234.0109 94.4286 L 234.0109 57.4 L 220.7333 57.4 L 220.7333 94.4286 Z" fill="#91c0e6" fill-opacity="1" stroke="none">
</path>
<path d="M 296.1365 94.4286 L 309.4141 94.4286 L 309.4141 62.9543 L 296.1365 62.9543 L 296.1365 94.4286 Z" fill="#91c0e6" fill-opacity="1" stroke="none">
</path>
<path d="M 371.5397 94.4286 L 384.8173 94.4286 L 384.8173 65.2686 L 371.5397 65.2686 L 371.5397 94.4286 Z" fill="#91c0e6" fill-opacity="1" stroke="none">
</path>
<path d="M 446.9429 94.4286 L 460.2205 94.4286 L 460.2205 66.1943 L 446.9429 66.1943 L 446.9429 94.4286 Z" fill="#91c0e6" fill-opacity="1" stroke="none">
</path>
<path d="M 522.3462 94.4286 L 535.6237 94.4286 L 535.6237 60.64 L 522.3462 60.64 L 522.3462 94.4286 Z" fill="#91c0e6" fill-opacity="1" stroke="none">
</path>
<path d="M 85.86 94.4286 L 99.1375 94.4286 L 99.1375 47.68 L 85.86 47.68 L 85.86 94.4286 Z" fill="#b1b7bd" fill-opacity="1" stroke="none">
</path>
<path d="M 161.2632 94.4286 L 174.5407 94.4286 L 174.5407 58.3257 L 161.2632 58.3257 L 161.2632 94.4286 Z" fill="#b1b7bd" fill-opacity="1" stroke="none">
</path>
<path d="M 236.6664 94.4286 L 249.9439 94.4286 L 249.9439 64.3429 L 236.6664 64.3429 L 236.6664 94.4286 Z" fill="#b1b7bd" fill-opacity="1" stroke="none">
</path>
<path d="M 312.0696 94.4286 L 325.3471 94.4286 L 325.3471 75.9143 L 312.0696 75.9143 L 312.0696 94.4286 Z" fill="#b1b7bd" fill-opacity="1" stroke="none">
</path>
<path d="M 387.4728 94.4286 L 400.7503 94.4286 L 400.7503 79.1543 L 387.4728 79.1543 L 387.4728 94.4286 Z" fill="#b1b7bd" fill-opacity="1" stroke="none">
</path>
<path d="M 462.876 94.4286 L 476.1535 94.4286 L 476.1535 80.5429 L 462.876 80.5429 L 462.876 94.4286 Z" fill="#b1b7bd" fill-opacity="1" stroke="none">
</path>
<path d="M 538.2792 94.4286 L 551.5567 94.4286 L 551.5567 70.36 L 538.2792 70.36 L 538.2792 94.4286 Z" fill="#b1b7bd" fill-opacity="1" stroke="none">
</path>
<path d="M 0 -0.5 L 206.7285 -0.5 L 206.7285 14.5 L 0 14.5 L 0 -0.5 Z" fill="rgb(0,0,0)" fill-opacity="0" stroke="#ccc" stroke-width="0" paint-order="fill" stroke-opacity="1" stroke-dasharray="none" stroke-linecap="butt" stroke-miterlimit="10" transform="matrix(1,0,0,1,184.6357,0.5)">
</path>
<path d="M 19.5 7 A 7 7 0 1 1 19.5 6.9993" fill="#3e6180" fill-opacity="1" stroke="none" transform="matrix(1,0,0,1,179.1357,0.5)">
</path>
<text xml:space="preserve" fill="#6E7079" fill-opacity="1" stroke="none" transform="matrix(1,0,0,1,179.1357,0.5)" dominant-baseline="central" text-anchor="start" x="23" y="7" style="font: 12px sans-serif;">Canada</text>
<path d="M 19.5 7 A 7 7 0 1 1 19.5 6.9993" fill="#5492c4" fill-opacity="1" stroke="none" transform="matrix(1,0,0,1,248.6709,0.5)">
</path>
<text xml:space="preserve" fill="#6E7079" fill-opacity="1" stroke="none" transform="matrix(1,0,0,1,248.6709,0.5)" dominant-baseline="central" text-anchor="start" x="23" y="7" style="font: 12px sans-serif;">US</text>
<path d="M 19.5 7 A 7 7 0 1 1 19.5 6.9993" fill="#91c0e6" fill-opacity="1" stroke="none" transform="matrix(1,0,0,1,292.8408,0.5)">
</path>
<text xml:space="preserve" fill="#6E7079" fill-opacity="1" stroke="none" transform="matrix(1,0,0,1,292.8408,0.5)" dominant-baseline="central" text-anchor="start" x="23" y="7" style="font: 12px sans-serif;">UK</text>
<path d="M 19.5 7 A 7 7 0 1 1 19.5 6.9993" fill="#b1b7bd" fill-opacity="1" stroke="none" transform="matrix(1,0,0,1,337.0107,0.5)">
</path>
<text xml:space="preserve" fill="#6E7079" fill-opacity="1" stroke="none" transform="matrix(1,0,0,1,337.0107,0.5)" dominant-baseline="central" text-anchor="start" x="23" y="7" style="font: 12px sans-serif;">China</text>
<path d="M 0 0 L 0 0 L 0 0 L 0 0 L 0 0 Z" fill="rgb(0,0,0)" fill-opacity="0" stroke="#ccc" stroke-width="0" paint-order="fill" stroke-opacity="1" stroke-dasharray="none" stroke-linecap="butt" stroke-miterlimit="10">
</path>
</g>
</svg>