<svg width="249" height="87" viewBox="0 0 249 87" fill="none" xmlns="http://www.w3.org/2000/svg">
<path d="M36.2 46.55C36.2 47.55 36.1333 48.45 36 49.25H15.75C15.9167 51.25 16.6167 52.8167 17.85 53.95C19.0833 55.0833 20.6 55.65 22.4 55.65C25 55.65 26.85 54.5333 27.95 52.3H35.5C34.7 54.9667 33.1667 57.1667 30.9 58.9C28.6333 60.6 25.85 61.45 22.55 61.45C19.8833 61.45 17.4833 60.8667 15.35 59.7C13.25 58.5 11.6 56.8167 10.4 54.65C9.23333 52.4833 8.65 49.9833 8.65 47.15C8.65 44.2833 9.23333 41.7667 10.4 39.6C11.5667 37.4333 13.2 35.7667 15.3 34.6C17.4 33.4333 19.8167 32.85 22.55 32.85C25.1833 32.85 27.5333 33.4167 29.6 34.55C31.7 35.6833 33.3167 37.3 34.45 39.4C35.6167 41.4667 36.2 43.85 36.2 46.55ZM28.95 44.55C28.9167 42.75 28.2667 41.3167 27 40.25C25.7333 39.15 24.1833 38.6 22.35 38.6C20.6167 38.6 19.15 39.1333 17.95 40.2C16.7833 41.2333 16.0667 42.6833 15.8 44.55H28.95ZM52.8594 54.55L59.8594 33.3H67.3094L57.0594 61H48.5594L38.3594 33.3H45.8594L52.8594 54.55ZM74.791 30C73.5577 30 72.5243 29.6167 71.691 28.85C70.891 28.05 70.491 27.0667 70.491 25.9C70.491 24.7333 70.891 23.7667 71.691 23C72.5243 22.2 73.5577 21.8 74.791 21.8C76.0243 21.8 77.041 22.2 77.841 23C78.6743 23.7667 79.091 24.7333 79.091 25.9C79.091 27.0667 78.6743 28.05 77.841 28.85C77.041 29.6167 76.0243 30 74.791 30ZM78.241 33.3V61H71.241V33.3H78.241ZM83.357 47.05C83.357 44.25 83.907 41.7667 85.007 39.6C86.1404 37.4333 87.6737 35.7667 89.607 34.6C91.5404 33.4333 93.6904 32.85 96.057 32.85C97.857 32.85 99.5737 33.25 101.207 34.05C102.84 34.8167 104.14 35.85 105.107 37.15V24H112.207V61H105.107V56.9C104.24 58.2667 103.024 59.3667 101.457 60.2C99.8904 61.0333 98.0737 61.45 96.007 61.45C93.6737 61.45 91.5404 60.85 89.607 59.65C87.6737 58.45 86.1404 56.7667 85.007 54.6C83.907 52.4 83.357 49.8833 83.357 47.05ZM105.157 47.15C105.157 45.45 104.824 44 104.157 42.8C103.49 41.5667 102.59 40.6333 101.457 40C100.324 39.3333 99.107 39 97.807 39C96.507 39 95.307 39.3167 94.207 39.95C93.107 40.5833 92.207 41.5167 91.507 42.75C90.8404 43.95 90.507 45.3833 90.507 47.05C90.507 48.7167 90.8404 50.1833 91.507 51.45C92.207 52.6833 93.107 53.6333 94.207 54.3C95.3404 54.9667 96.5404 55.3 97.807 55.3C99.107 55.3 100.324 54.9833 101.457 54.35C102.59 53.6833 103.49 52.75 104.157 51.55C104.824 50.3167 105.157 48.85 105.157 47.15ZM144.794 46.55C144.794 47.55 144.727 48.45 144.594 49.25H124.344C124.51 51.25 125.21 52.8167 126.444 53.95C127.677 55.0833 129.194 55.65 130.994 55.65C133.594 55.65 135.444 54.5333 136.544 52.3H144.094C143.294 54.9667 141.76 57.1667 139.494 58.9C137.227 60.6 134.444 61.45 131.144 61.45C128.477 61.45 126.077 60.8667 123.944 59.7C121.844 58.5 120.194 56.8167 118.994 54.65C117.827 52.4833 117.244 49.9833 117.244 47.15C117.244 44.2833 117.827 41.7667 118.994 39.6C120.16 37.4333 121.794 35.7667 123.894 34.6C125.994 33.4333 128.41 32.85 131.144 32.85C133.777 32.85 136.127 33.4167 138.194 34.55C140.294 35.6833 141.91 37.3 143.044 39.4C144.21 41.4667 144.794 43.85 144.794 46.55ZM137.544 44.55C137.51 42.75 136.86 41.3167 135.594 40.25C134.327 39.15 132.777 38.6 130.944 38.6C129.21 38.6 127.744 39.1333 126.544 40.2C125.377 41.2333 124.66 42.6833 124.394 44.55H137.544ZM165.253 32.9C168.553 32.9 171.22 33.95 173.253 36.05C175.286 38.1167 176.303 41.0167 176.303 44.75V61H169.303V45.7C169.303 43.5 168.753 41.8167 167.653 40.65C166.553 39.45 165.053 38.85 163.153 38.85C161.22 38.85 159.686 39.45 158.553 40.65C157.453 41.8167 156.903 43.5 156.903 45.7V61H149.903V33.3H156.903V36.75C157.836 35.55 159.02 34.6167 160.453 33.95C161.92 33.25 163.52 32.9 165.253 32.9ZM181.16 47.15C181.16 44.2833 181.743 41.7833 182.91 39.65C184.076 37.4833 185.693 35.8167 187.76 34.65C189.826 33.45 192.193 32.85 194.86 32.85C198.293 32.85 201.126 33.7167 203.36 35.45C205.626 37.15 207.143 39.55 207.91 42.65H200.36C199.96 41.45 199.276 40.5167 198.31 39.85C197.376 39.15 196.21 38.8 194.81 38.8C192.81 38.8 191.226 39.5333 190.06 41C188.893 42.4333 188.31 44.4833 188.31 47.15C188.31 49.7833 188.893 51.8333 190.06 53.3C191.226 54.7333 192.81 55.45 194.81 55.45C197.643 55.45 199.493 54.1833 200.36 51.65H207.91C207.143 54.65 205.626 57.0333 203.36 58.8C201.093 60.5667 198.26 61.45 194.86 61.45C192.193 61.45 189.826 60.8667 187.76 59.7C185.693 58.5 184.076 56.8333 182.91 54.7C181.743 52.5333 181.16 50.0167 181.16 47.15ZM238.788 46.55C238.788 47.55 238.721 48.45 238.588 49.25H218.338C218.505 51.25 219.205 52.8167 220.438 53.95C221.671 55.0833 223.188 55.65 224.988 55.65C227.588 55.65 229.438 54.5333 230.538 52.3H238.088C237.288 54.9667 235.755 57.1667 233.488 58.9C231.221 60.6 228.438 61.45 225.138 61.45C222.471 61.45 220.071 60.8667 217.938 59.7C215.838 58.5 214.188 56.8167 212.988 54.65C211.821 52.4833 211.238 49.9833 211.238 47.15C211.238 44.2833 211.821 41.7667 212.988 39.6C214.155 37.4333 215.788 35.7667 217.888 34.6C219.988 33.4333 222.405 32.85 225.138 32.85C227.771 32.85 230.121 33.4167 232.188 34.55C234.288 35.6833 235.905 37.3 237.038 39.4C238.205 41.4667 238.788 43.85 238.788 46.55ZM231.538 44.55C231.505 42.75 230.855 41.3167 229.588 40.25C228.321 39.15 226.771 38.6 224.938 38.6C223.205 38.6 221.738 39.1333 220.538 40.2C219.371 41.2333 218.655 42.6833 218.388 44.55H231.538Z" fill="url(#paint0_linear)"/>
<defs>
<linearGradient id="paint0_linear" x1="32.0677" y1="16.1786" x2="233.864" y2="36.8188" gradientUnits="userSpaceOnUse">
<stop stop-color="#048AD6"/>
<stop offset="0.86541" stop-color="#02BB6D"/>
</linearGradient>
</defs>
</svg>
