<svg xmlns="http://www.w3.org/2000/svg" xmlns:xlink="http://www.w3.org/1999/xlink" version="1.1" baseProfile="full" width="576" height="234" style="user-select: none; position: absolute; left: 0px; top: 0px;">
<g>
<rect width="576" height="234" x="0" y="0" id="0" fill="rgb(255,255,255)" fill-opacity="0">
</rect>
</g>
<g>
<text xml:space="preserve" fill="#6E7079" fill-opacity="1" stroke="none" transform="matrix(1,0,0,1,558.72,217.32)" dominant-baseline="central" text-anchor="end" x="0" y="6" style="font: 12px sans-serif;">Region →</text>
<path d="M 30.8976 194.5 L 558.72 194.5" fill="none" stroke="hsla(215, 15%, 91%, 1)" stroke-width="1" paint-order="fill" stroke-opacity="1" stroke-dasharray="none" stroke-linecap="butt" stroke-miterlimit="10">
</path>
<path d="M 30.8976 167.5 L 558.72 167.5" fill="none" stroke="hsla(215, 15%, 91%, 1)" stroke-width="1" paint-order="fill" stroke-opacity="1" stroke-dasharray="none" stroke-linecap="butt" stroke-miterlimit="10">
</path>
<path d="M 30.8976 140.5 L 558.72 140.5" fill="none" stroke="hsla(215, 15%, 91%, 1)" stroke-width="1" paint-order="fill" stroke-opacity="1" stroke-dasharray="none" stroke-linecap="butt" stroke-miterlimit="10">
</path>
<path d="M 30.8976 113.5 L 558.72 113.5" fill="none" stroke="hsla(215, 15%, 91%, 1)" stroke-width="1" paint-order="fill" stroke-opacity="1" stroke-dasharray="none" stroke-linecap="butt" stroke-miterlimit="10">
</path>
<path d="M 30.8976 86.5 L 558.72 86.5" fill="none" stroke="hsla(215, 15%, 91%, 1)" stroke-width="1" paint-order="fill" stroke-opacity="1" stroke-dasharray="none" stroke-linecap="butt" stroke-miterlimit="10">
</path>
<path d="M 30.8976 59.5 L 558.72 59.5" fill="none" stroke="hsla(215, 15%, 91%, 1)" stroke-width="1" paint-order="fill" stroke-opacity="1" stroke-dasharray="none" stroke-linecap="butt" stroke-miterlimit="10">
</path>
<path d="M 30.8976 32.5 L 558.72 32.5" fill="none" stroke="hsla(215, 15%, 91%, 1)" stroke-width="1" paint-order="fill" stroke-opacity="1" stroke-dasharray="none" stroke-linecap="butt" stroke-miterlimit="10">
</path>
<path d="M 30.8976 113.5 L 558.72 113.5" fill="none" stroke="hsla(212, 10%, 53%, 1)" stroke-width="1" paint-order="fill" stroke-opacity="1" stroke-dasharray="none" stroke-linecap="round" stroke-miterlimit="10">
</path>
<text xml:space="preserve" fill="hsla(212, 10%, 53%, 1)" fill-opacity="1" stroke="none" transform="matrix(1,0,0,1,26.8976,194)" dominant-baseline="central" text-anchor="end" x="0" y="0" style="font: 12px sans-serif;">-150</text>
<text xml:space="preserve" fill="hsla(212, 10%, 53%, 1)" fill-opacity="1" stroke="none" transform="matrix(1,0,0,1,26.8976,167)" dominant-baseline="central" text-anchor="end" x="0" y="0" style="font: 12px sans-serif;">-100</text>
<text xml:space="preserve" fill="hsla(212, 10%, 53%, 1)" fill-opacity="1" stroke="none" transform="matrix(1,0,0,1,26.8976,140)" dominant-baseline="central" text-anchor="end" x="0" y="0" style="font: 12px sans-serif;">-50</text>
<text xml:space="preserve" fill="hsla(212, 10%, 53%, 1)" fill-opacity="1" stroke="none" transform="matrix(1,0,0,1,26.8976,113)" dominant-baseline="central" text-anchor="end" x="0" y="0" style="font: 12px sans-serif;">0</text>
<text xml:space="preserve" fill="hsla(212, 10%, 53%, 1)" fill-opacity="1" stroke="none" transform="matrix(1,0,0,1,26.8976,86)" dominant-baseline="central" text-anchor="end" x="0" y="0" style="font: 12px sans-serif;">50</text>
<text xml:space="preserve" fill="hsla(212, 10%, 53%, 1)" fill-opacity="1" stroke="none" transform="matrix(1,0,0,1,26.8976,59)" dominant-baseline="central" text-anchor="end" x="0" y="0" style="font: 12px sans-serif;">100</text>
<text xml:space="preserve" fill="hsla(212, 10%, 53%, 1)" fill-opacity="1" stroke="none" transform="matrix(1,0,0,1,26.8976,32)" dominant-baseline="central" text-anchor="end" x="0" y="0" style="font: 12px sans-serif;">150</text>
<text xml:space="preserve" fill="hsla(212, 10%, 53%, 1)" fill-opacity="1" stroke="none" transform="matrix(1,0,0,1,68.5992,200)" dominant-baseline="central" text-anchor="middle" x="0" y="6" style="font: 12px sans-serif;">South</text>
<text xml:space="preserve" fill="hsla(212, 10%, 53%, 1)" fill-opacity="1" stroke="none" transform="matrix(1,0,0,1,144.0024,200)" dominant-baseline="central" text-anchor="middle" x="0" y="6" style="font: 12px sans-serif;">East</text>
<text xml:space="preserve" fill="hsla(212, 10%, 53%, 1)" fill-opacity="1" stroke="none" transform="matrix(1,0,0,1,219.4056,200)" dominant-baseline="central" text-anchor="middle" x="0" y="6" style="font: 12px sans-serif;">Southwest</text>
<text xml:space="preserve" fill="hsla(212, 10%, 53%, 1)" fill-opacity="1" stroke="none" transform="matrix(1,0,0,1,294.8088,200)" dominant-baseline="central" text-anchor="middle" x="0" y="6" style="font: 12px sans-serif;">West</text>
<text xml:space="preserve" fill="hsla(212, 10%, 53%, 1)" fill-opacity="1" stroke="none" transform="matrix(1,0,0,1,370.212,200)" dominant-baseline="central" text-anchor="middle" x="0" y="6" style="font: 12px sans-serif;">Northwest</text>
<text xml:space="preserve" fill="hsla(212, 10%, 53%, 1)" fill-opacity="1" stroke="none" transform="matrix(1,0,0,1,445.6152,200)" dominant-baseline="central" text-anchor="middle" x="0" y="6" style="font: 12px sans-serif;">Southeast</text>
<text xml:space="preserve" fill="hsla(212, 10%, 53%, 1)" fill-opacity="1" stroke="none" transform="matrix(1,0,0,1,521.0184,200)" dominant-baseline="central" text-anchor="middle" x="0" y="6" style="font: 12px sans-serif;">North</text>
<path d="M 42.5851 113 L 94.6133 113 L 94.6133 51.98 L 42.5851 51.98 L 42.5851 113 Z" fill="hsla(207, 65%, 39%, 1)" fill-opacity="1" stroke="none">
</path>
<path d="M 117.9883 113 L 170.0165 113 L 170.0165 52.52 L 117.9883 52.52 L 117.9883 113 Z" fill="hsla(207, 65%, 39%, 1)" fill-opacity="1" stroke="none">
</path>
<path d="M 193.3915 113 L 245.4197 113 L 245.4197 53.6 L 193.3915 53.6 L 193.3915 113 Z" fill="hsla(207, 65%, 39%, 1)" fill-opacity="1" stroke="none">
</path>
<path d="M 268.7947 113 L 320.8229 113 L 320.8229 57.38 L 268.7947 57.38 L 268.7947 113 Z" fill="hsla(207, 65%, 39%, 1)" fill-opacity="1" stroke="none">
</path>
<path d="M 344.1979 113 L 396.2261 113 L 396.2261 58.46 L 344.1979 58.46 L 344.1979 113 Z" fill="hsla(207, 65%, 39%, 1)" fill-opacity="1" stroke="none">
</path>
<path d="M 419.6011 113 L 471.6293 113 L 471.6293 155.12 L 419.6011 155.12 L 419.6011 113 Z" fill="hsla(207, 65%, 39%, 1)" fill-opacity="1" stroke="none">
</path>
<path d="M 495.0043 113 L 547.0325 113 L 547.0325 169.7 L 495.0043 169.7 L 495.0043 113 Z" fill="hsla(207, 65%, 39%, 1)" fill-opacity="1" stroke="none">
</path>
<path d="M 0 0 L 23.3447 0 L 23.3447 14 L 0 14 L 0 0 Z" fill="rgb(0,0,0)" fill-opacity="0" stroke="#ccc" stroke-width="0" paint-order="fill" stroke-opacity="1" stroke-dasharray="none" stroke-linecap="butt" stroke-miterlimit="10">
</path>
<text xml:space="preserve" fill="hsla(210, 14%, 37%, 1)" fill-opacity="1" stroke="none" dominant-baseline="central" text-anchor="start" x="0" y="7" style="font: bold 14px sans-serif;">Bar</text>
</g>
</svg>