<svg xmlns="http://www.w3.org/2000/svg" xmlns:xlink="http://www.w3.org/1999/xlink" version="1.1" baseProfile="full" width="576" height="231" style="user-select: none; position: absolute; left: 0px; top: 0px;">
<g>
<rect width="576" height="231" x="0" y="0" id="0" fill="rgb(255,255,255)" fill-opacity="0">
</rect>
</g>
<g>
<path d="M 67.5 26 L 67.5 223" fill="none" stroke="hsla(215, 15%, 91%, 1)" stroke-width="1" paint-order="fill" stroke-opacity="1" stroke-dasharray="none" stroke-linecap="butt" stroke-miterlimit="10">
</path>
<path d="M 148.5 26 L 148.5 223" fill="none" stroke="hsla(215, 15%, 91%, 1)" stroke-width="1" paint-order="fill" stroke-opacity="1" stroke-dasharray="none" stroke-linecap="butt" stroke-miterlimit="10">
</path>
<path d="M 229.5 26 L 229.5 223" fill="none" stroke="hsla(215, 15%, 91%, 1)" stroke-width="1" paint-order="fill" stroke-opacity="1" stroke-dasharray="none" stroke-linecap="butt" stroke-miterlimit="10">
</path>
<path d="M 310.5 26 L 310.5 223" fill="none" stroke="hsla(215, 15%, 91%, 1)" stroke-width="1" paint-order="fill" stroke-opacity="1" stroke-dasharray="none" stroke-linecap="butt" stroke-miterlimit="10">
</path>
<path d="M 391.5 26 L 391.5 223" fill="none" stroke="hsla(215, 15%, 91%, 1)" stroke-width="1" paint-order="fill" stroke-opacity="1" stroke-dasharray="none" stroke-linecap="butt" stroke-miterlimit="10">
</path>
<path d="M 472.5 26 L 472.5 223" fill="none" stroke="hsla(215, 15%, 91%, 1)" stroke-width="1" paint-order="fill" stroke-opacity="1" stroke-dasharray="none" stroke-linecap="butt" stroke-miterlimit="10">
</path>
<path d="M 553.5 26 L 553.5 223" fill="none" stroke="hsla(215, 15%, 91%, 1)" stroke-width="1" paint-order="fill" stroke-opacity="1" stroke-dasharray="none" stroke-linecap="butt" stroke-miterlimit="10">
</path>
<path d="M 310.5 26 L 310.5 223" fill="none" stroke="hsla(212, 10%, 53%, 1)" stroke-width="1" paint-order="fill" stroke-opacity="1" stroke-dasharray="none" stroke-linecap="round" stroke-miterlimit="10">
</path>
<text xml:space="preserve" fill="hsla(212, 10%, 53%, 1)" fill-opacity="1" stroke="none" transform="matrix(1,0,0,1,58.9132,40.0714)" dominant-baseline="central" text-anchor="end" x="0" y="0" style="font: 12px sans-serif;">South</text>
<text xml:space="preserve" fill="hsla(212, 10%, 53%, 1)" fill-opacity="1" stroke="none" transform="matrix(1,0,0,1,58.9132,68.2143)" dominant-baseline="central" text-anchor="end" x="0" y="0" style="font: 12px sans-serif;">East</text>
<text xml:space="preserve" fill="hsla(212, 10%, 53%, 1)" fill-opacity="1" stroke="none" transform="matrix(1,0,0,1,58.9132,96.3571)" dominant-baseline="central" text-anchor="end" x="0" y="0" style="font: 12px sans-serif;">Southwest</text>
<text xml:space="preserve" fill="hsla(212, 10%, 53%, 1)" fill-opacity="1" stroke="none" transform="matrix(1,0,0,1,58.9132,124.5)" dominant-baseline="central" text-anchor="end" x="0" y="0" style="font: 12px sans-serif;">West</text>
<text xml:space="preserve" fill="hsla(212, 10%, 53%, 1)" fill-opacity="1" stroke="none" transform="matrix(1,0,0,1,58.9132,152.6429)" dominant-baseline="central" text-anchor="end" x="0" y="0" style="font: 12px sans-serif;">Northwest</text>
<text xml:space="preserve" fill="hsla(212, 10%, 53%, 1)" fill-opacity="1" stroke="none" transform="matrix(1,0,0,1,58.9132,180.7857)" dominant-baseline="central" text-anchor="end" x="0" y="0" style="font: 12px sans-serif;">Southeast</text>
<text xml:space="preserve" fill="hsla(212, 10%, 53%, 1)" fill-opacity="1" stroke="none" transform="matrix(1,0,0,1,58.9132,208.9286)" dominant-baseline="central" text-anchor="end" x="0" y="0" style="font: 12px sans-serif;">North</text>
<text xml:space="preserve" fill="hsla(212, 10%, 53%, 1)" fill-opacity="1" stroke="none" transform="matrix(1,0,0,1,66.9132,22)" dominant-baseline="central" text-anchor="middle" x="0" y="-6" style="font: 12px sans-serif;">-150</text>
<text xml:space="preserve" fill="hsla(212, 10%, 53%, 1)" fill-opacity="1" stroke="none" transform="matrix(1,0,0,1,147.921,22)" dominant-baseline="central" text-anchor="middle" x="0" y="-6" style="font: 12px sans-serif;">-100</text>
<text xml:space="preserve" fill="hsla(212, 10%, 53%, 1)" fill-opacity="1" stroke="none" transform="matrix(1,0,0,1,228.9288,22)" dominant-baseline="central" text-anchor="middle" x="0" y="-6" style="font: 12px sans-serif;">-50</text>
<text xml:space="preserve" fill="hsla(212, 10%, 53%, 1)" fill-opacity="1" stroke="none" transform="matrix(1,0,0,1,309.9366,22)" dominant-baseline="central" text-anchor="middle" x="0" y="-6" style="font: 12px sans-serif;">0</text>
<text xml:space="preserve" fill="hsla(212, 10%, 53%, 1)" fill-opacity="1" stroke="none" transform="matrix(1,0,0,1,390.9444,22)" dominant-baseline="central" text-anchor="middle" x="0" y="-6" style="font: 12px sans-serif;">50</text>
<text xml:space="preserve" fill="hsla(212, 10%, 53%, 1)" fill-opacity="1" stroke="none" transform="matrix(1,0,0,1,471.9522,22)" dominant-baseline="central" text-anchor="middle" x="0" y="-6" style="font: 12px sans-serif;">100</text>
<text xml:space="preserve" fill="hsla(212, 10%, 53%, 1)" fill-opacity="1" stroke="none" transform="matrix(1,0,0,1,552.96,22)" dominant-baseline="central" text-anchor="middle" x="0" y="-6" style="font: 12px sans-serif;">150</text>
<path d="M 309.9366 30.3621 L 493.0142 30.3621 L 493.0142 49.7807 L 309.9366 49.7807 L 309.9366 30.3621 Z" fill="hsla(207, 65%, 39%, 1)" fill-opacity="1" stroke="none">
</path>
<path d="M 309.9366 58.505 L 491.3941 58.505 L 491.3941 77.9236 L 309.9366 77.9236 L 309.9366 58.505 Z" fill="hsla(207, 65%, 39%, 1)" fill-opacity="1" stroke="none">
</path>
<path d="M 309.9366 86.6479 L 488.1538 86.6479 L 488.1538 106.0664 L 309.9366 106.0664 L 309.9366 86.6479 Z" fill="hsla(207, 65%, 39%, 1)" fill-opacity="1" stroke="none">
</path>
<path d="M 309.9366 114.7907 L 476.8127 114.7907 L 476.8127 134.2093 L 309.9366 134.2093 L 309.9366 114.7907 Z" fill="hsla(207, 65%, 39%, 1)" fill-opacity="1" stroke="none">
</path>
<path d="M 309.9366 142.9336 L 473.5724 142.9336 L 473.5724 162.3521 L 309.9366 162.3521 L 309.9366 142.9336 Z" fill="hsla(207, 65%, 39%, 1)" fill-opacity="1" stroke="none">
</path>
<path d="M 309.9366 171.0764 L 183.5644 171.0764 L 183.5644 190.495 L 309.9366 190.495 L 309.9366 171.0764 Z" fill="hsla(207, 65%, 39%, 1)" fill-opacity="1" stroke="none">
</path>
<path d="M 309.9366 199.2193 L 139.8202 199.2193 L 139.8202 218.6379 L 309.9366 218.6379 L 309.9366 199.2193 Z" fill="hsla(207, 65%, 39%, 1)" fill-opacity="1" stroke="none">
</path>
<path d="M 0 0 L 0 0 L 0 0 L 0 0 L 0 0 Z" fill="rgb(0,0,0)" fill-opacity="0" stroke="#ccc" stroke-width="0" paint-order="fill" stroke-opacity="1" stroke-dasharray="none" stroke-linecap="butt" stroke-miterlimit="10">
</path>
</g>
</svg>