<svg xmlns="http://www.w3.org/2000/svg" xmlns:xlink="http://www.w3.org/1999/xlink" version="1.1" baseProfile="full" width="576" height="227" style="user-select: none; position: absolute; left: 0px; top: 0px;">
<g>
<rect width="576" height="227" x="0" y="0" id="0" fill="rgb(255,255,255)" fill-opacity="0">
</rect>
</g>
<g>
<text xml:space="preserve" fill="#6E7079" fill-opacity="1" stroke="none" transform="matrix(1,0,0,1,558.72,210.46)" dominant-baseline="central" text-anchor="end" x="0" y="6" style="font: 12px sans-serif;">Score A →</text>
<path d="M 26.9015 187.5 L 558.72 187.5" fill="none" stroke="hsla(215, 15%, 91%, 1)" stroke-width="1" paint-order="fill" stroke-opacity="1" stroke-dasharray="none" stroke-linecap="butt" stroke-miterlimit="10">
</path>
<path d="M 26.9015 167.5 L 558.72 167.5" fill="none" stroke="hsla(215, 15%, 91%, 1)" stroke-width="1" paint-order="fill" stroke-opacity="1" stroke-dasharray="none" stroke-linecap="butt" stroke-miterlimit="10">
</path>
<path d="M 26.9015 146.5 L 558.72 146.5" fill="none" stroke="hsla(215, 15%, 91%, 1)" stroke-width="1" paint-order="fill" stroke-opacity="1" stroke-dasharray="none" stroke-linecap="butt" stroke-miterlimit="10">
</path>
<path d="M 26.9015 126.5 L 558.72 126.5" fill="none" stroke="hsla(215, 15%, 91%, 1)" stroke-width="1" paint-order="fill" stroke-opacity="1" stroke-dasharray="none" stroke-linecap="butt" stroke-miterlimit="10">
</path>
<path d="M 26.9015 106.5 L 558.72 106.5" fill="none" stroke="hsla(215, 15%, 91%, 1)" stroke-width="1" paint-order="fill" stroke-opacity="1" stroke-dasharray="none" stroke-linecap="butt" stroke-miterlimit="10">
</path>
<path d="M 26.9015 86.5 L 558.72 86.5" fill="none" stroke="hsla(215, 15%, 91%, 1)" stroke-width="1" paint-order="fill" stroke-opacity="1" stroke-dasharray="none" stroke-linecap="butt" stroke-miterlimit="10">
</path>
<path d="M 26.9015 65.5 L 558.72 65.5" fill="none" stroke="hsla(215, 15%, 91%, 1)" stroke-width="1" paint-order="fill" stroke-opacity="1" stroke-dasharray="none" stroke-linecap="butt" stroke-miterlimit="10">
</path>
<path d="M 26.9015 45.5 L 558.72 45.5" fill="none" stroke="hsla(215, 15%, 91%, 1)" stroke-width="1" paint-order="fill" stroke-opacity="1" stroke-dasharray="none" stroke-linecap="butt" stroke-miterlimit="10">
</path>
<path d="M 26.9015 25.5 L 558.72 25.5" fill="none" stroke="hsla(215, 15%, 91%, 1)" stroke-width="1" paint-order="fill" stroke-opacity="1" stroke-dasharray="none" stroke-linecap="butt" stroke-miterlimit="10">
</path>
<path d="M 0 0 L 47.6855 0 L 47.6855 12 L 0 12 L 0 0 Z" fill="white" fill-opacity="1" stroke="none" transform="matrix(1,0,0,1,26.9015,19)">
</path>
<text xml:space="preserve" fill="hsla(212, 10%, 53%, 1)" fill-opacity="1" stroke="none" transform="matrix(1,0,0,1,26.9015,19)" dominant-baseline="central" text-anchor="start" x="0" y="6" style="font: 12px sans-serif;">Score B</text>
<path d="M 26.9015 187.5 L 558.72 187.5" fill="none" stroke="hsla(212, 10%, 53%, 1)" stroke-width="1" paint-order="fill" stroke-opacity="1" stroke-dasharray="none" stroke-linecap="round" stroke-miterlimit="10">
</path>
<text xml:space="preserve" fill="hsla(212, 10%, 53%, 1)" fill-opacity="1" stroke="none" transform="matrix(1,0,0,1,22.9015,187)" dominant-baseline="central" text-anchor="end" x="0" y="0" style="font: 12px sans-serif;">30</text>
<text xml:space="preserve" fill="hsla(212, 10%, 53%, 1)" fill-opacity="1" stroke="none" transform="matrix(1,0,0,1,22.9015,166.75)" dominant-baseline="central" text-anchor="end" x="0" y="0" style="font: 12px sans-serif;">40</text>
<text xml:space="preserve" fill="hsla(212, 10%, 53%, 1)" fill-opacity="1" stroke="none" transform="matrix(1,0,0,1,22.9015,146.5)" dominant-baseline="central" text-anchor="end" x="0" y="0" style="font: 12px sans-serif;">50</text>
<text xml:space="preserve" fill="hsla(212, 10%, 53%, 1)" fill-opacity="1" stroke="none" transform="matrix(1,0,0,1,22.9015,126.25)" dominant-baseline="central" text-anchor="end" x="0" y="0" style="font: 12px sans-serif;">60</text>
<text xml:space="preserve" fill="hsla(212, 10%, 53%, 1)" fill-opacity="1" stroke="none" transform="matrix(1,0,0,1,22.9015,106)" dominant-baseline="central" text-anchor="end" x="0" y="0" style="font: 12px sans-serif;">70</text>
<text xml:space="preserve" fill="hsla(212, 10%, 53%, 1)" fill-opacity="1" stroke="none" transform="matrix(1,0,0,1,22.9015,85.75)" dominant-baseline="central" text-anchor="end" x="0" y="0" style="font: 12px sans-serif;">80</text>
<text xml:space="preserve" fill="hsla(212, 10%, 53%, 1)" fill-opacity="1" stroke="none" transform="matrix(1,0,0,1,22.9015,65.5)" dominant-baseline="central" text-anchor="end" x="0" y="0" style="font: 12px sans-serif;">90</text>
<text xml:space="preserve" fill="hsla(212, 10%, 53%, 1)" fill-opacity="1" stroke="none" transform="matrix(1,0,0,1,22.9015,45.25)" dominant-baseline="central" text-anchor="end" x="0" y="0" style="font: 12px sans-serif;">100</text>
<text xml:space="preserve" fill="hsla(212, 10%, 53%, 1)" fill-opacity="1" stroke="none" transform="matrix(1,0,0,1,22.9015,25)" dominant-baseline="central" text-anchor="end" x="0" y="0" style="font: 12px sans-serif;">110</text>
<text xml:space="preserve" fill="hsla(212, 10%, 53%, 1)" fill-opacity="1" stroke="none" transform="matrix(1,0,0,1,26.9015,193)" dominant-baseline="central" text-anchor="middle" x="0" y="6" style="font: 12px sans-serif;">40</text>
<text xml:space="preserve" fill="hsla(212, 10%, 53%, 1)" fill-opacity="1" stroke="none" transform="matrix(1,0,0,1,133.2652,193)" dominant-baseline="central" text-anchor="middle" x="0" y="6" style="font: 12px sans-serif;">60</text>
<text xml:space="preserve" fill="hsla(212, 10%, 53%, 1)" fill-opacity="1" stroke="none" transform="matrix(1,0,0,1,239.6289,193)" dominant-baseline="central" text-anchor="middle" x="0" y="6" style="font: 12px sans-serif;">80</text>
<text xml:space="preserve" fill="hsla(212, 10%, 53%, 1)" fill-opacity="1" stroke="none" transform="matrix(1,0,0,1,345.9926,193)" dominant-baseline="central" text-anchor="middle" x="0" y="6" style="font: 12px sans-serif;">100</text>
<text xml:space="preserve" fill="hsla(212, 10%, 53%, 1)" fill-opacity="1" stroke="none" transform="matrix(1,0,0,1,452.3563,193)" dominant-baseline="central" text-anchor="middle" x="0" y="6" style="font: 12px sans-serif;">120</text>
<text xml:space="preserve" fill="hsla(212, 10%, 53%, 1)" fill-opacity="1" stroke="none" transform="matrix(1,0,0,1,558.72,193)" dominant-baseline="central" text-anchor="middle" x="0" y="6" style="font: 12px sans-serif;">140</text>
<path d="M 1 0 A 1 1 0 1 1 1 -0.0001" fill="hsla(207, 65%, 39%, 1)" fill-opacity="0.7" stroke="none" transform="matrix(10.562,0,0,10.562,53.4924,168.775)">
</path>
<path d="M 1 0 A 1 1 0 1 1 1 -0.0001" fill="hsla(207, 65%, 39%, 1)" fill-opacity="0.7" stroke="none" transform="matrix(11.221,0,0,11.221,127.947,158.65)">
</path>
<path d="M 1 0 A 1 1 0 1 1 1 -0.0001" fill="hsla(207, 65%, 39%, 1)" fill-opacity="0.7" stroke="none" transform="matrix(10.962,0,0,10.962,127.947,162.7)">
</path>
<path d="M 1 0 A 1 1 0 1 1 1 -0.0001" fill="hsla(207, 65%, 39%, 1)" fill-opacity="0.7" stroke="none" transform="matrix(14.059,0,0,14.059,154.5379,108.025)">
</path>
<path d="M 1 0 A 1 1 0 1 1 1 -0.0001" fill="hsla(207, 65%, 39%, 1)" fill-opacity="0.7" stroke="none" transform="matrix(13.108,0,0,13.108,165.1743,126.25)">
</path>
<path d="M 1 0 A 1 1 0 1 1 1 -0.0001" fill="hsla(207, 65%, 39%, 1)" fill-opacity="0.7" stroke="none" transform="matrix(10.962,0,0,10.962,175.8107,162.7)">
</path>
<path d="M 1 0 A 1 1 0 1 1 1 -0.0001" fill="hsla(207, 65%, 39%, 1)" fill-opacity="0.7" stroke="none" transform="matrix(13.325,0,0,13.325,181.1289,122.2)">
</path>
<path d="M 1 0 A 1 1 0 1 1 1 -0.0001" fill="hsla(207, 65%, 39%, 1)" fill-opacity="0.7" stroke="none" transform="matrix(10.83,0,0,10.83,186.447,164.725)">
</path>
<path d="M 1 0 A 1 1 0 1 1 1 -0.0001" fill="hsla(207, 65%, 39%, 1)" fill-opacity="0.7" stroke="none" transform="matrix(11.721,0,0,11.721,207.7198,150.55)">
</path>
<path d="M 1 0 A 1 1 0 1 1 1 -0.0001" fill="hsla(207, 65%, 39%, 1)" fill-opacity="0.7" stroke="none" transform="matrix(12.434,0,0,12.434,223.6743,138.4)">
</path>
<path d="M 1 0 A 1 1 0 1 1 1 -0.0001" fill="hsla(207, 65%, 39%, 1)" fill-opacity="0.7" stroke="none" transform="matrix(15.79,0,0,15.79,228.9925,71.575)">
</path>
<path d="M 1 0 A 1 1 0 1 1 1 -0.0001" fill="hsla(207, 65%, 39%, 1)" fill-opacity="0.7" stroke="none" transform="matrix(15.607,0,0,15.607,260.9016,75.625)">
</path>
<path d="M 1 0 A 1 1 0 1 1 1 -0.0001" fill="hsla(207, 65%, 39%, 1)" fill-opacity="0.7" stroke="none" transform="matrix(15.515,0,0,15.515,266.2198,77.65)">
</path>
<path d="M 1 0 A 1 1 0 1 1 1 -0.0001" fill="hsla(207, 65%, 39%, 1)" fill-opacity="0.7" stroke="none" transform="matrix(12.776,0,0,12.776,271.538,132.325)">
</path>
<path d="M 1 0 A 1 1 0 1 1 1 -0.0001" fill="hsla(207, 65%, 39%, 1)" fill-opacity="0.7" stroke="none" transform="matrix(11.221,0,0,11.221,282.1744,158.65)">
</path>
<path d="M 1 0 A 1 1 0 1 1 1 -0.0001" fill="hsla(207, 65%, 39%, 1)" fill-opacity="0.7" stroke="none" transform="matrix(10.83,0,0,10.83,292.8107,164.725)">
</path>
<path d="M 1 0 A 1 1 0 1 1 1 -0.0001" fill="hsla(195, 49%, 51%, 1)" fill-opacity="0.7" stroke="none" transform="matrix(10.287,0,0,10.287,58.8106,172.825)">
</path>
<path d="M 1 0 A 1 1 0 1 1 1 -0.0001" fill="hsla(195, 49%, 51%, 1)" fill-opacity="0.7" stroke="none" transform="matrix(10.562,0,0,10.562,80.0833,168.775)">
</path>
<path d="M 1 0 A 1 1 0 1 1 1 -0.0001" fill="hsla(195, 49%, 51%, 1)" fill-opacity="0.7" stroke="none" transform="matrix(11.474,0,0,11.474,80.0833,154.6)">
</path>
<path d="M 1 0 A 1 1 0 1 1 1 -0.0001" fill="hsla(195, 49%, 51%, 1)" fill-opacity="0.7" stroke="none" transform="matrix(9.413,0,0,9.413,80.0833,184.975)">
</path>
<path d="M 1 0 A 1 1 0 1 1 1 -0.0001" fill="hsla(195, 49%, 51%, 1)" fill-opacity="0.7" stroke="none" transform="matrix(11.843,0,0,11.843,122.6288,148.525)">
</path>
<path d="M 1 0 A 1 1 0 1 1 1 -0.0001" fill="hsla(195, 49%, 51%, 1)" fill-opacity="0.7" stroke="none" transform="matrix(9.413,0,0,9.413,122.6288,184.975)">
</path>
<path d="M 1 0 A 1 1 0 1 1 1 -0.0001" fill="hsla(195, 49%, 51%, 1)" fill-opacity="0.7" stroke="none" transform="matrix(11.843,0,0,11.843,127.947,148.525)">
</path>
<path d="M 1 0 A 1 1 0 1 1 1 -0.0001" fill="hsla(195, 49%, 51%, 1)" fill-opacity="0.7" stroke="none" transform="matrix(12.201,0,0,12.201,138.5834,142.45)">
</path>
<path d="M 1 0 A 1 1 0 1 1 1 -0.0001" fill="hsla(195, 49%, 51%, 1)" fill-opacity="0.7" stroke="none" transform="matrix(11.598,0,0,11.598,138.5834,152.575)">
</path>
<path d="M 1 0 A 1 1 0 1 1 1 -0.0001" fill="hsla(195, 49%, 51%, 1)" fill-opacity="0.7" stroke="none" transform="matrix(12.083,0,0,12.083,149.2197,144.475)">
</path>
<path d="M 1 0 A 1 1 0 1 1 1 -0.0001" fill="hsla(195, 49%, 51%, 1)" fill-opacity="0.7" stroke="none" transform="matrix(10.004,0,0,10.004,181.1289,176.875)">
</path>
<path d="M 1 0 A 1 1 0 1 1 1 -0.0001" fill="hsla(195, 49%, 51%, 1)" fill-opacity="0.7" stroke="none" transform="matrix(12.434,0,0,12.434,181.1289,138.4)">
</path>
<path d="M 1 0 A 1 1 0 1 1 1 -0.0001" fill="hsla(195, 49%, 51%, 1)" fill-opacity="0.7" stroke="none" transform="matrix(11.721,0,0,11.721,191.7652,150.55)">
</path>
<path d="M 1 0 A 1 1 0 1 1 1 -0.0001" fill="hsla(195, 49%, 51%, 1)" fill-opacity="0.7" stroke="none" transform="matrix(9.859,0,0,9.859,197.0834,178.9)">
</path>
<path d="M 1 0 A 1 1 0 1 1 1 -0.0001" fill="hsla(207, 69%, 79%, 1)" fill-opacity="0.7" stroke="none" transform="matrix(15.97,0,0,15.97,213.038,67.525)">
</path>
<path d="M 1 0 A 1 1 0 1 1 1 -0.0001" fill="hsla(207, 69%, 79%, 1)" fill-opacity="0.7" stroke="none" transform="matrix(12.201,0,0,12.201,218.3562,142.45)">
</path>
<path d="M 1 0 A 1 1 0 1 1 1 -0.0001" fill="hsla(207, 69%, 79%, 1)" fill-opacity="0.7" stroke="none" transform="matrix(13.645,0,0,13.645,223.6743,116.125)">
</path>
<path d="M 1 0 A 1 1 0 1 1 1 -0.0001" fill="hsla(207, 69%, 79%, 1)" fill-opacity="0.7" stroke="none" transform="matrix(13.956,0,0,13.956,250.2653,110.05)">
</path>
<path d="M 1 0 A 1 1 0 1 1 1 -0.0001" fill="hsla(207, 69%, 79%, 1)" fill-opacity="0.7" stroke="none" transform="matrix(16.93,0,0,16.93,287.4926,45.25)">
</path>
<path d="M 1 0 A 1 1 0 1 1 1 -0.0001" fill="hsla(207, 69%, 79%, 1)" fill-opacity="0.7" stroke="none" transform="matrix(17.182,0,0,17.182,303.4471,39.175)">
</path>
<path d="M 1 0 A 1 1 0 1 1 1 -0.0001" fill="hsla(207, 69%, 79%, 1)" fill-opacity="0.7" stroke="none" transform="matrix(14.161,0,0,14.161,345.9926,106)">
</path>
<path d="M 1 0 A 1 1 0 1 1 1 -0.0001" fill="hsla(207, 69%, 79%, 1)" fill-opacity="0.7" stroke="none" transform="matrix(15.88,0,0,15.88,356.629,69.55)">
</path>
<path d="M 1 0 A 1 1 0 1 1 1 -0.0001" fill="hsla(207, 69%, 79%, 1)" fill-opacity="0.7" stroke="none" transform="matrix(15.328,0,0,15.328,367.2653,81.7)">
</path>
<path d="M 1 0 A 1 1 0 1 1 1 -0.0001" fill="hsla(207, 69%, 79%, 1)" fill-opacity="0.7" stroke="none" transform="matrix(14.853,0,0,14.853,372.5835,91.825)">
</path>
<path d="M 1 0 A 1 1 0 1 1 1 -0.0001" fill="hsla(207, 69%, 79%, 1)" fill-opacity="0.7" stroke="none" transform="matrix(14.56,0,0,14.56,377.9017,97.9)">
</path>
<path d="M 1 0 A 1 1 0 1 1 1 -0.0001" fill="hsla(207, 69%, 79%, 1)" fill-opacity="0.7" stroke="none" transform="matrix(13.956,0,0,13.956,393.8563,110.05)">
</path>
<path d="M 1 0 A 1 1 0 1 1 1 -0.0001" fill="hsla(207, 69%, 79%, 1)" fill-opacity="0.7" stroke="none" transform="matrix(15.235,0,0,15.235,404.4926,83.725)">
</path>
<path d="M 1 0 A 1 1 0 1 1 1 -0.0001" fill="hsla(207, 69%, 79%, 1)" fill-opacity="0.7" stroke="none" transform="matrix(13.853,0,0,13.853,436.4017,112.075)">
</path>
<path d="M 1 0 A 1 1 0 1 1 1 -0.0001" fill="hsla(207, 69%, 79%, 1)" fill-opacity="0.7" stroke="none" transform="matrix(14.059,0,0,14.059,452.3563,108.025)">
</path>
<path d="M 0 0 L 154.9941 0 L 154.9941 14 L 0 14 L 0 0 Z" fill="rgb(0,0,0)" fill-opacity="0" stroke="#ccc" stroke-width="0" paint-order="fill" stroke-opacity="1" stroke-dasharray="none" stroke-linecap="butt" stroke-miterlimit="10" transform="matrix(1,0,0,1,210.5029,0)">
</path>
<path d="M 19.5 7 A 7 7 0 1 1 19.5 6.9993" fill="hsla(207, 65%, 39%, 1)" fill-opacity="0.7" stroke="none" transform="matrix(1,0,0,1,205.0029,0)">
</path>
<text xml:space="preserve" fill="hsla(212, 10%, 53%, 1)" fill-opacity="1" stroke="none" transform="matrix(1,0,0,1,205.0029,0)" dominant-baseline="central" text-anchor="start" x="23" y="7" style="font: 12px sans-serif;">East</text>
<path d="M 19.5 7 A 7 7 0 1 1 19.5 6.9993" fill="hsla(195, 49%, 51%, 1)" fill-opacity="0.7" stroke="none" transform="matrix(1,0,0,1,256.5146,0)">
</path>
<text xml:space="preserve" fill="hsla(212, 10%, 53%, 1)" fill-opacity="1" stroke="none" transform="matrix(1,0,0,1,256.5146,0)" dominant-baseline="central" text-anchor="start" x="23" y="7" style="font: 12px sans-serif;">West</text>
<path d="M 19.5 7 A 7 7 0 1 1 19.5 6.9993" fill="hsla(207, 69%, 79%, 1)" fill-opacity="0.7" stroke="none" transform="matrix(1,0,0,1,311.1377,0)">
</path>
<text xml:space="preserve" fill="hsla(212, 10%, 53%, 1)" fill-opacity="1" stroke="none" transform="matrix(1,0,0,1,311.1377,0)" dominant-baseline="central" text-anchor="start" x="23" y="7" style="font: 12px sans-serif;">South</text>
<path d="M 0 0 L 0 0 L 0 0 L 0 0 L 0 0 Z" fill="rgb(0,0,0)" fill-opacity="0" stroke="#ccc" stroke-width="0" paint-order="fill" stroke-opacity="1" stroke-dasharray="none" stroke-linecap="butt" stroke-miterlimit="10">
</path>
</g>
</svg>