<svg xmlns="http://www.w3.org/2000/svg" xmlns:xlink="http://www.w3.org/1999/xlink" version="1.1" baseProfile="full" width="576" height="234" style="user-select: none; position: absolute; left: 0px; top: 0px;">
<g>
<rect width="576" height="234" x="0" y="0" id="0" fill="rgb(255,255,255)" fill-opacity="0">
</rect>
</g>
<g>
<text xml:space="preserve" fill="#6E7079" fill-opacity="1" stroke="none" transform="matrix(1,0,0,1,558.72,217.32)" dominant-baseline="central" text-anchor="end" x="0" y="6" style="font: 12px sans-serif;">Daily Calls →</text>
<path d="M 30.9015 194.5 L 558.72 194.5" fill="none" stroke="hsla(215, 15%, 91%, 1)" stroke-width="1" paint-order="fill" stroke-opacity="1" stroke-dasharray="none" stroke-linecap="butt" stroke-miterlimit="10">
</path>
<path d="M 30.9015 171.5 L 558.72 171.5" fill="none" stroke="hsla(215, 15%, 91%, 1)" stroke-width="1" paint-order="fill" stroke-opacity="1" stroke-dasharray="none" stroke-linecap="butt" stroke-miterlimit="10">
</path>
<path d="M 30.9015 147.5 L 558.72 147.5" fill="none" stroke="hsla(215, 15%, 91%, 1)" stroke-width="1" paint-order="fill" stroke-opacity="1" stroke-dasharray="none" stroke-linecap="butt" stroke-miterlimit="10">
</path>
<path d="M 30.9015 124.5 L 558.72 124.5" fill="none" stroke="hsla(215, 15%, 91%, 1)" stroke-width="1" paint-order="fill" stroke-opacity="1" stroke-dasharray="none" stroke-linecap="butt" stroke-miterlimit="10">
</path>
<path d="M 30.9015 101.5 L 558.72 101.5" fill="none" stroke="hsla(215, 15%, 91%, 1)" stroke-width="1" paint-order="fill" stroke-opacity="1" stroke-dasharray="none" stroke-linecap="butt" stroke-miterlimit="10">
</path>
<path d="M 30.9015 78.5 L 558.72 78.5" fill="none" stroke="hsla(215, 15%, 91%, 1)" stroke-width="1" paint-order="fill" stroke-opacity="1" stroke-dasharray="none" stroke-linecap="butt" stroke-miterlimit="10">
</path>
<path d="M 30.9015 55.5 L 558.72 55.5" fill="none" stroke="hsla(215, 15%, 91%, 1)" stroke-width="1" paint-order="fill" stroke-opacity="1" stroke-dasharray="none" stroke-linecap="butt" stroke-miterlimit="10">
</path>
<path d="M 30.9015 32.5 L 558.72 32.5" fill="none" stroke="hsla(215, 15%, 91%, 1)" stroke-width="1" paint-order="fill" stroke-opacity="1" stroke-dasharray="none" stroke-linecap="butt" stroke-miterlimit="10">
</path>
<path d="M 30.9015 194.5 L 558.72 194.5" fill="none" stroke="hsla(212, 10%, 53%, 1)" stroke-width="1" paint-order="fill" stroke-opacity="1" stroke-dasharray="none" stroke-linecap="round" stroke-miterlimit="10">
</path>
<text xml:space="preserve" fill="hsla(212, 10%, 53%, 1)" fill-opacity="1" stroke="none" transform="matrix(1,0,0,1,22.9015,194)" dominant-baseline="central" text-anchor="end" x="0" y="0" style="font: 12px sans-serif;">0</text>
<text xml:space="preserve" fill="hsla(212, 10%, 53%, 1)" fill-opacity="1" stroke="none" transform="matrix(1,0,0,1,22.9015,170.8571)" dominant-baseline="central" text-anchor="end" x="0" y="0" style="font: 12px sans-serif;">50</text>
<text xml:space="preserve" fill="hsla(212, 10%, 53%, 1)" fill-opacity="1" stroke="none" transform="matrix(1,0,0,1,22.9015,147.7143)" dominant-baseline="central" text-anchor="end" x="0" y="0" style="font: 12px sans-serif;">100</text>
<text xml:space="preserve" fill="hsla(212, 10%, 53%, 1)" fill-opacity="1" stroke="none" transform="matrix(1,0,0,1,22.9015,124.5714)" dominant-baseline="central" text-anchor="end" x="0" y="0" style="font: 12px sans-serif;">150</text>
<text xml:space="preserve" fill="hsla(212, 10%, 53%, 1)" fill-opacity="1" stroke="none" transform="matrix(1,0,0,1,22.9015,101.4286)" dominant-baseline="central" text-anchor="end" x="0" y="0" style="font: 12px sans-serif;">200</text>
<text xml:space="preserve" fill="hsla(212, 10%, 53%, 1)" fill-opacity="1" stroke="none" transform="matrix(1,0,0,1,22.9015,78.2857)" dominant-baseline="central" text-anchor="end" x="0" y="0" style="font: 12px sans-serif;">250</text>
<text xml:space="preserve" fill="hsla(212, 10%, 53%, 1)" fill-opacity="1" stroke="none" transform="matrix(1,0,0,1,22.9015,55.1429)" dominant-baseline="central" text-anchor="end" x="0" y="0" style="font: 12px sans-serif;">300</text>
<text xml:space="preserve" fill="hsla(212, 10%, 53%, 1)" fill-opacity="1" stroke="none" transform="matrix(1,0,0,1,22.9015,32)" dominant-baseline="central" text-anchor="end" x="0" y="0" style="font: 12px sans-serif;">350</text>
<text xml:space="preserve" fill="hsla(212, 10%, 53%, 1)" fill-opacity="1" stroke="none" transform="matrix(1,0,0,1,30.9015,200)" dominant-baseline="central" text-anchor="middle" x="0" y="6" style="font: 12px sans-serif;">0</text>
<text xml:space="preserve" fill="hsla(212, 10%, 53%, 1)" fill-opacity="1" stroke="none" transform="matrix(1,0,0,1,162.8561,200)" dominant-baseline="central" text-anchor="middle" x="0" y="6" style="font: 12px sans-serif;">100</text>
<text xml:space="preserve" fill="hsla(212, 10%, 53%, 1)" fill-opacity="1" stroke="none" transform="matrix(1,0,0,1,294.8107,200)" dominant-baseline="central" text-anchor="middle" x="0" y="6" style="font: 12px sans-serif;">200</text>
<text xml:space="preserve" fill="hsla(212, 10%, 53%, 1)" fill-opacity="1" stroke="none" transform="matrix(1,0,0,1,426.7654,200)" dominant-baseline="central" text-anchor="middle" x="0" y="6" style="font: 12px sans-serif;">300</text>
<text xml:space="preserve" fill="hsla(212, 10%, 53%, 1)" fill-opacity="1" stroke="none" transform="matrix(1,0,0,1,558.72,200)" dominant-baseline="central" text-anchor="middle" x="0" y="6" style="font: 12px sans-serif;">400</text>
<path d="M 30.9015 191.2229 L 43.0969 191.2229 L 43.0969 194 L 30.9015 194 L 30.9015 191.2229 Z" fill="hsla(207, 65%, 39%, 1)" fill-opacity="1" stroke="none">
</path>
<path d="M 44.0969 159.7486 L 56.2924 159.7486 L 56.2924 194 L 44.0969 194 L 44.0969 159.7486 Z" fill="hsla(207, 65%, 39%, 1)" fill-opacity="1" stroke="none">
</path>
<path d="M 57.2924 109.76 L 69.4879 109.76 L 69.4879 194 L 57.2924 194 L 57.2924 109.76 Z" fill="hsla(207, 65%, 39%, 1)" fill-opacity="1" stroke="none">
</path>
<path d="M 70.4879 104.6686 L 82.6833 104.6686 L 82.6833 194 L 70.4879 194 L 70.4879 104.6686 Z" fill="hsla(207, 65%, 39%, 1)" fill-opacity="1" stroke="none">
</path>
<path d="M 83.6833 111.1486 L 95.8788 111.1486 L 95.8788 194 L 83.6833 194 L 83.6833 111.1486 Z" fill="hsla(207, 65%, 39%, 1)" fill-opacity="1" stroke="none">
</path>
<path d="M 96.8788 99.5771 L 109.0743 99.5771 L 109.0743 194 L 96.8788 194 L 96.8788 99.5771 Z" fill="hsla(207, 65%, 39%, 1)" fill-opacity="1" stroke="none">
</path>
<path d="M 110.0743 50.5143 L 122.2697 50.5143 L 122.2697 194 L 110.0743 194 L 110.0743 50.5143 Z" fill="hsla(207, 65%, 39%, 1)" fill-opacity="1" stroke="none">
</path>
<path d="M 123.2697 39.8686 L 135.4652 39.8686 L 135.4652 194 L 123.2697 194 L 123.2697 39.8686 Z" fill="hsla(207, 65%, 39%, 1)" fill-opacity="1" stroke="none">
</path>
<path d="M 136.4652 58.8457 L 148.6607 58.8457 L 148.6607 194 L 136.4652 194 L 136.4652 58.8457 Z" fill="hsla(207, 65%, 39%, 1)" fill-opacity="1" stroke="none">
</path>
<path d="M 149.6607 89.3943 L 161.8561 89.3943 L 161.8561 194 L 149.6607 194 L 149.6607 89.3943 Z" fill="hsla(207, 65%, 39%, 1)" fill-opacity="1" stroke="none">
</path>
<path d="M 162.8561 109.76 L 175.0516 109.76 L 175.0516 194 L 162.8561 194 L 162.8561 109.76 Z" fill="hsla(207, 65%, 39%, 1)" fill-opacity="1" stroke="none">
</path>
<path d="M 176.0516 135.68 L 188.247 135.68 L 188.247 194 L 176.0516 194 L 176.0516 135.68 Z" fill="hsla(207, 65%, 39%, 1)" fill-opacity="1" stroke="none">
</path>
<path d="M 189.247 150.9543 L 201.4425 150.9543 L 201.4425 194 L 189.247 194 L 189.247 150.9543 Z" fill="hsla(207, 65%, 39%, 1)" fill-opacity="1" stroke="none">
</path>
<path d="M 202.4425 148.64 L 214.638 148.64 L 214.638 194 L 202.4425 194 L 202.4425 148.64 Z" fill="hsla(207, 65%, 39%, 1)" fill-opacity="1" stroke="none">
</path>
<path d="M 215.638 163.4514 L 227.8334 163.4514 L 227.8334 194 L 215.638 194 L 215.638 163.4514 Z" fill="hsla(207, 65%, 39%, 1)" fill-opacity="1" stroke="none">
</path>
<path d="M 228.8334 165.3029 L 241.0289 165.3029 L 241.0289 194 L 228.8334 194 L 228.8334 165.3029 Z" fill="hsla(207, 65%, 39%, 1)" fill-opacity="1" stroke="none">
</path>
<path d="M 242.0289 169.9314 L 254.2244 169.9314 L 254.2244 194 L 242.0289 194 L 242.0289 169.9314 Z" fill="hsla(207, 65%, 39%, 1)" fill-opacity="1" stroke="none">
</path>
<path d="M 255.2244 180.5771 L 267.4198 180.5771 L 267.4198 194 L 255.2244 194 L 255.2244 180.5771 Z" fill="hsla(207, 65%, 39%, 1)" fill-opacity="1" stroke="none">
</path>
<path d="M 268.4198 184.28 L 280.6153 184.28 L 280.6153 194 L 268.4198 194 L 268.4198 184.28 Z" fill="hsla(207, 65%, 39%, 1)" fill-opacity="1" stroke="none">
</path>
<path d="M 281.6153 188.9086 L 293.8107 188.9086 L 293.8107 194 L 281.6153 194 L 281.6153 188.9086 Z" fill="hsla(207, 65%, 39%, 1)" fill-opacity="1" stroke="none">
</path>
<path d="M 294.8107 190.2971 L 307.0062 190.2971 L 307.0062 194 L 294.8107 194 L 294.8107 190.2971 Z" fill="hsla(207, 65%, 39%, 1)" fill-opacity="1" stroke="none">
</path>
<path d="M 308.0062 190.2971 L 320.2017 190.2971 L 320.2017 194 L 308.0062 194 L 308.0062 190.2971 Z" fill="hsla(207, 65%, 39%, 1)" fill-opacity="1" stroke="none">
</path>
<path d="M 321.2017 191.2229 L 333.3971 191.2229 L 333.3971 194 L 321.2017 194 L 321.2017 191.2229 Z" fill="hsla(207, 65%, 39%, 1)" fill-opacity="1" stroke="none">
</path>
<path d="M 334.3971 191.6857 L 346.5926 191.6857 L 346.5926 194 L 334.3971 194 L 334.3971 191.6857 Z" fill="hsla(207, 65%, 39%, 1)" fill-opacity="1" stroke="none">
</path>
<path d="M 347.5926 193.5371 L 359.7881 193.5371 L 359.7881 194 L 347.5926 194 L 347.5926 193.5371 Z" fill="hsla(207, 65%, 39%, 1)" fill-opacity="1" stroke="none">
</path>
<path d="M 360.7881 192.6114 L 372.9835 192.6114 L 372.9835 194 L 360.7881 194 L 360.7881 192.6114 Z" fill="hsla(207, 65%, 39%, 1)" fill-opacity="1" stroke="none">
</path>
<path d="M 373.9835 192.6114 L 386.179 192.6114 L 386.179 194 L 373.9835 194 L 373.9835 192.6114 Z" fill="hsla(207, 65%, 39%, 1)" fill-opacity="1" stroke="none">
</path>
<path d="M 387.179 193.5371 L 399.3744 193.5371 L 399.3744 194 L 387.179 194 L 387.179 193.5371 Z" fill="hsla(207, 65%, 39%, 1)" fill-opacity="1" stroke="none">
</path>
<path d="M 400.3744 194 L 412.5699 194 L 412.5699 194 L 400.3744 194 L 400.3744 194 Z" fill="hsla(207, 65%, 39%, 1)" fill-opacity="1" stroke="none">
</path>
<path d="M 413.5699 193.5371 L 425.7654 193.5371 L 425.7654 194 L 413.5699 194 L 413.5699 193.5371 Z" fill="hsla(207, 65%, 39%, 1)" fill-opacity="1" stroke="none">
</path>
<path d="M 426.7654 193.5371 L 438.9608 193.5371 L 438.9608 194 L 426.7654 194 L 426.7654 193.5371 Z" fill="hsla(207, 65%, 39%, 1)" fill-opacity="1" stroke="none">
</path>
<path d="M 439.9608 194 L 452.1563 194 L 452.1563 194 L 439.9608 194 L 439.9608 194 Z" fill="hsla(207, 65%, 39%, 1)" fill-opacity="1" stroke="none">
</path>
<path d="M 453.1563 194 L 465.3518 194 L 465.3518 194 L 453.1563 194 L 453.1563 194 Z" fill="hsla(207, 65%, 39%, 1)" fill-opacity="1" stroke="none">
</path>
<path d="M 466.3518 194 L 478.5472 194 L 478.5472 194 L 466.3518 194 L 466.3518 194 Z" fill="hsla(207, 65%, 39%, 1)" fill-opacity="1" stroke="none">
</path>
<path d="M 479.5472 194 L 491.7427 194 L 491.7427 194 L 479.5472 194 L 479.5472 194 Z" fill="hsla(207, 65%, 39%, 1)" fill-opacity="1" stroke="none">
</path>
<path d="M 492.7427 194 L 504.9381 194 L 504.9381 194 L 492.7427 194 L 492.7427 194 Z" fill="hsla(207, 65%, 39%, 1)" fill-opacity="1" stroke="none">
</path>
<path d="M 505.9381 194 L 518.1336 194 L 518.1336 194 L 505.9381 194 L 505.9381 194 Z" fill="hsla(207, 65%, 39%, 1)" fill-opacity="1" stroke="none">
</path>
<path d="M 519.1336 193.5371 L 531.3291 193.5371 L 531.3291 194 L 519.1336 194 L 519.1336 193.5371 Z" fill="hsla(207, 65%, 39%, 1)" fill-opacity="1" stroke="none">
</path>
<path d="M 532.3291 194 L 544.5245 194 L 544.5245 194 L 532.3291 194 L 532.3291 194 Z" fill="hsla(207, 65%, 39%, 1)" fill-opacity="1" stroke="none">
</path>
<path d="M 545.5245 193.5371 L 557.72 193.5371 L 557.72 194 L 545.5245 194 L 545.5245 193.5371 Z" fill="hsla(207, 65%, 39%, 1)" fill-opacity="1" stroke="none">
</path>
<path d="M 0 0 L 69.2344 0 L 69.2344 14 L 0 14 L 0 0 Z" fill="rgb(0,0,0)" fill-opacity="0" stroke="#ccc" stroke-width="0" paint-order="fill" stroke-opacity="1" stroke-dasharray="none" stroke-linecap="butt" stroke-miterlimit="10">
</path>
<text xml:space="preserve" fill="hsla(210, 14%, 37%, 1)" fill-opacity="1" stroke="none" dominant-baseline="central" text-anchor="start" x="0" y="7" style="font: bold 14px sans-serif;">Histogram</text>
</g>
</svg>