<svg xmlns="http://www.w3.org/2000/svg" xmlns:xlink="http://www.w3.org/1999/xlink" version="1.1" baseProfile="full" width="576" height="235" style="user-select: none; position: absolute; left: 0px; top: 0px;">
<g>
<rect width="576" height="235" x="0" y="0" id="0" fill="rgb(255,255,255)" fill-opacity="0">
</rect>
</g>
<g>
<path d="M 26.9015 209.5 L 558.72 209.5" fill="none" stroke="hsla(215, 15%, 91%, 1)" stroke-width="1" paint-order="fill" stroke-opacity="1" stroke-dasharray="none" stroke-linecap="butt" stroke-miterlimit="10">
</path>
<path d="M 26.9015 176.5 L 558.72 176.5" fill="none" stroke="hsla(215, 15%, 91%, 1)" stroke-width="1" paint-order="fill" stroke-opacity="1" stroke-dasharray="none" stroke-linecap="butt" stroke-miterlimit="10">
</path>
<path d="M 26.9015 144.5 L 558.72 144.5" fill="none" stroke="hsla(215, 15%, 91%, 1)" stroke-width="1" paint-order="fill" stroke-opacity="1" stroke-dasharray="none" stroke-linecap="butt" stroke-miterlimit="10">
</path>
<path d="M 26.9015 112.5 L 558.72 112.5" fill="none" stroke="hsla(215, 15%, 91%, 1)" stroke-width="1" paint-order="fill" stroke-opacity="1" stroke-dasharray="none" stroke-linecap="butt" stroke-miterlimit="10">
</path>
<path d="M 26.9015 79.5 L 558.72 79.5" fill="none" stroke="hsla(215, 15%, 91%, 1)" stroke-width="1" paint-order="fill" stroke-opacity="1" stroke-dasharray="none" stroke-linecap="butt" stroke-miterlimit="10">
</path>
<path d="M 26.9015 47.5 L 558.72 47.5" fill="none" stroke="hsla(215, 15%, 91%, 1)" stroke-width="1" paint-order="fill" stroke-opacity="1" stroke-dasharray="none" stroke-linecap="butt" stroke-miterlimit="10">
</path>
<path d="M 26.9015 209.5 L 558.72 209.5" fill="none" stroke="hsla(212, 10%, 53%, 1)" stroke-width="1" paint-order="fill" stroke-opacity="1" stroke-dasharray="none" stroke-linecap="round" stroke-miterlimit="10">
</path>
<text xml:space="preserve" fill="hsla(212, 10%, 53%, 1)" fill-opacity="1" stroke="none" transform="matrix(1,0,0,1,22.9015,209)" dominant-baseline="central" text-anchor="end" x="0" y="0" style="font: 12px sans-serif;">0</text>
<text xml:space="preserve" fill="hsla(212, 10%, 53%, 1)" fill-opacity="1" stroke="none" transform="matrix(1,0,0,1,22.9015,176.6)" dominant-baseline="central" text-anchor="end" x="0" y="0" style="font: 12px sans-serif;">100</text>
<text xml:space="preserve" fill="hsla(212, 10%, 53%, 1)" fill-opacity="1" stroke="none" transform="matrix(1,0,0,1,22.9015,144.2)" dominant-baseline="central" text-anchor="end" x="0" y="0" style="font: 12px sans-serif;">200</text>
<text xml:space="preserve" fill="hsla(212, 10%, 53%, 1)" fill-opacity="1" stroke="none" transform="matrix(1,0,0,1,22.9015,111.8)" dominant-baseline="central" text-anchor="end" x="0" y="0" style="font: 12px sans-serif;">300</text>
<text xml:space="preserve" fill="hsla(212, 10%, 53%, 1)" fill-opacity="1" stroke="none" transform="matrix(1,0,0,1,22.9015,79.4)" dominant-baseline="central" text-anchor="end" x="0" y="0" style="font: 12px sans-serif;">400</text>
<text xml:space="preserve" fill="hsla(212, 10%, 53%, 1)" fill-opacity="1" stroke="none" transform="matrix(1,0,0,1,22.9015,47)" dominant-baseline="central" text-anchor="end" x="0" y="0" style="font: 12px sans-serif;">500</text>
<text xml:space="preserve" fill="hsla(212, 10%, 53%, 1)" fill-opacity="1" stroke="none" transform="matrix(1,0,0,1,64.8885,215)" dominant-baseline="central" text-anchor="middle" x="0" y="6" style="font: 12px sans-serif;">1990</text>
<text xml:space="preserve" fill="hsla(212, 10%, 53%, 1)" fill-opacity="1" stroke="none" transform="matrix(1,0,0,1,140.8626,215)" dominant-baseline="central" text-anchor="middle" x="0" y="6" style="font: 12px sans-serif;">1991</text>
<text xml:space="preserve" fill="hsla(212, 10%, 53%, 1)" fill-opacity="1" stroke="none" transform="matrix(1,0,0,1,216.8367,215)" dominant-baseline="central" text-anchor="middle" x="0" y="6" style="font: 12px sans-serif;">1992</text>
<text xml:space="preserve" fill="hsla(212, 10%, 53%, 1)" fill-opacity="1" stroke="none" transform="matrix(1,0,0,1,292.8107,215)" dominant-baseline="central" text-anchor="middle" x="0" y="6" style="font: 12px sans-serif;">1993</text>
<text xml:space="preserve" fill="hsla(212, 10%, 53%, 1)" fill-opacity="1" stroke="none" transform="matrix(1,0,0,1,368.7848,215)" dominant-baseline="central" text-anchor="middle" x="0" y="6" style="font: 12px sans-serif;">1994</text>
<text xml:space="preserve" fill="hsla(212, 10%, 53%, 1)" fill-opacity="1" stroke="none" transform="matrix(1,0,0,1,444.7589,215)" dominant-baseline="central" text-anchor="middle" x="0" y="6" style="font: 12px sans-serif;">1995</text>
<text xml:space="preserve" fill="hsla(212, 10%, 53%, 1)" fill-opacity="1" stroke="none" transform="matrix(1,0,0,1,520.733,215)" dominant-baseline="central" text-anchor="middle" x="0" y="6" style="font: 12px sans-serif;">1996</text>
<path d="M 38.6775 209 L 91.0996 209 L 91.0996 189.56 L 38.6775 189.56 L 38.6775 209 Z" fill="hsla(207, 65%, 39%, 1)" fill-opacity="1" stroke="none">
</path>
<path d="M 114.6515 209 L 167.0737 209 L 167.0737 182.108 L 114.6515 182.108 L 114.6515 209 Z" fill="hsla(207, 65%, 39%, 1)" fill-opacity="1" stroke="none">
</path>
<path d="M 190.6256 209 L 243.0477 209 L 243.0477 178.22 L 190.6256 178.22 L 190.6256 209 Z" fill="hsla(207, 65%, 39%, 1)" fill-opacity="1" stroke="none">
</path>
<path d="M 266.5997 209 L 319.0218 209 L 319.0218 182.432 L 266.5997 182.432 L 266.5997 209 Z" fill="hsla(207, 65%, 39%, 1)" fill-opacity="1" stroke="none">
</path>
<path d="M 342.5738 209 L 394.9959 209 L 394.9959 180.812 L 342.5738 180.812 L 342.5738 209 Z" fill="hsla(207, 65%, 39%, 1)" fill-opacity="1" stroke="none">
</path>
<path d="M 418.5478 209 L 470.9699 209 L 470.9699 175.628 L 418.5478 175.628 L 418.5478 209 Z" fill="hsla(207, 65%, 39%, 1)" fill-opacity="1" stroke="none">
</path>
<path d="M 494.5219 209 L 546.944 209 L 546.944 173.036 L 494.5219 173.036 L 494.5219 209 Z" fill="hsla(207, 65%, 39%, 1)" fill-opacity="1" stroke="none">
</path>
<path d="M 38.6775 189.56 L 91.0996 189.56 L 91.0996 176.276 L 38.6775 176.276 L 38.6775 189.56 Z" fill="hsla(195, 49%, 51%, 1)" fill-opacity="1" stroke="none">
</path>
<path d="M 114.6515 182.108 L 167.0737 182.108 L 167.0737 166.88 L 114.6515 166.88 L 114.6515 182.108 Z" fill="hsla(195, 49%, 51%, 1)" fill-opacity="1" stroke="none">
</path>
<path d="M 190.6256 178.22 L 243.0477 178.22 L 243.0477 152.3 L 190.6256 152.3 L 190.6256 178.22 Z" fill="hsla(195, 49%, 51%, 1)" fill-opacity="1" stroke="none">
</path>
<path d="M 266.5997 182.432 L 319.0218 182.432 L 319.0218 159.752 L 266.5997 159.752 L 266.5997 182.432 Z" fill="hsla(195, 49%, 51%, 1)" fill-opacity="1" stroke="none">
</path>
<path d="M 342.5738 180.812 L 394.9959 180.812 L 394.9959 159.752 L 342.5738 159.752 L 342.5738 180.812 Z" fill="hsla(195, 49%, 51%, 1)" fill-opacity="1" stroke="none">
</path>
<path d="M 418.5478 175.628 L 470.9699 175.628 L 470.9699 146.468 L 418.5478 146.468 L 418.5478 175.628 Z" fill="hsla(195, 49%, 51%, 1)" fill-opacity="1" stroke="none">
</path>
<path d="M 494.5219 173.036 L 546.944 173.036 L 546.944 132.536 L 494.5219 132.536 L 494.5219 173.036 Z" fill="hsla(195, 49%, 51%, 1)" fill-opacity="1" stroke="none">
</path>
<path d="M 38.6775 176.276 L 91.0996 176.276 L 91.0996 156.512 L 38.6775 156.512 L 38.6775 176.276 Z" fill="hsla(207, 69%, 79%, 1)" fill-opacity="1" stroke="none">
</path>
<path d="M 114.6515 166.88 L 167.0737 166.88 L 167.0737 146.468 L 114.6515 146.468 L 114.6515 166.88 Z" fill="hsla(207, 69%, 79%, 1)" fill-opacity="1" stroke="none">
</path>
<path d="M 190.6256 152.3 L 243.0477 152.3 L 243.0477 130.268 L 190.6256 130.268 L 190.6256 152.3 Z" fill="hsla(207, 69%, 79%, 1)" fill-opacity="1" stroke="none">
</path>
<path d="M 266.5997 159.752 L 319.0218 159.752 L 319.0218 136.1 L 266.5997 136.1 L 266.5997 159.752 Z" fill="hsla(207, 69%, 79%, 1)" fill-opacity="1" stroke="none">
</path>
<path d="M 342.5738 159.752 L 394.9959 159.752 L 394.9959 133.832 L 342.5738 133.832 L 342.5738 159.752 Z" fill="hsla(207, 69%, 79%, 1)" fill-opacity="1" stroke="none">
</path>
<path d="M 418.5478 146.468 L 470.9699 146.468 L 470.9699 119.576 L 418.5478 119.576 L 418.5478 146.468 Z" fill="hsla(207, 69%, 79%, 1)" fill-opacity="1" stroke="none">
</path>
<path d="M 494.5219 132.536 L 546.944 132.536 L 546.944 104.996 L 494.5219 104.996 L 494.5219 132.536 Z" fill="hsla(207, 69%, 79%, 1)" fill-opacity="1" stroke="none">
</path>
<path d="M 38.6775 156.512 L 91.0996 156.512 L 91.0996 146.792 L 38.6775 146.792 L 38.6775 156.512 Z" fill="hsla(202, 28%, 65%, 1)" fill-opacity="1" stroke="none">
</path>
<path d="M 114.6515 146.468 L 167.0737 146.468 L 167.0737 135.776 L 114.6515 135.776 L 114.6515 146.468 Z" fill="hsla(202, 28%, 65%, 1)" fill-opacity="1" stroke="none">
</path>
<path d="M 190.6256 130.268 L 243.0477 130.268 L 243.0477 117.308 L 190.6256 117.308 L 190.6256 130.268 Z" fill="hsla(202, 28%, 65%, 1)" fill-opacity="1" stroke="none">
</path>
<path d="M 266.5997 136.1 L 319.0218 136.1 L 319.0218 119.252 L 266.5997 119.252 L 266.5997 136.1 Z" fill="hsla(202, 28%, 65%, 1)" fill-opacity="1" stroke="none">
</path>
<path d="M 342.5738 133.832 L 394.9959 133.832 L 394.9959 112.772 L 342.5738 112.772 L 342.5738 133.832 Z" fill="hsla(202, 28%, 65%, 1)" fill-opacity="1" stroke="none">
</path>
<path d="M 418.5478 119.576 L 470.9699 119.576 L 470.9699 94.304 L 418.5478 94.304 L 418.5478 119.576 Z" fill="hsla(202, 28%, 65%, 1)" fill-opacity="1" stroke="none">
</path>
<path d="M 494.5219 104.996 L 546.944 104.996 L 546.944 72.272 L 494.5219 72.272 L 494.5219 104.996 Z" fill="hsla(202, 28%, 65%, 1)" fill-opacity="1" stroke="none">
</path>
<path d="M 0 0 L 240.748 0 L 240.748 14 L 0 14 L 0 0 Z" fill="rgb(0,0,0)" fill-opacity="0" stroke="#ccc" stroke-width="0" paint-order="fill" stroke-opacity="1" stroke-dasharray="none" stroke-linecap="butt" stroke-miterlimit="10" transform="matrix(1,0,0,1,167.626,22)">
</path>
<path d="M 19.5 7 A 7 7 0 1 1 19.5 6.9993" fill="hsla(207, 65%, 39%, 1)" fill-opacity="1" stroke="none" transform="matrix(1,0,0,1,162.126,22)">
</path>
<text xml:space="preserve" fill="hsla(212, 10%, 53%, 1)" fill-opacity="1" stroke="none" transform="matrix(1,0,0,1,162.126,22)" dominant-baseline="central" text-anchor="start" x="23" y="7" style="font: 12px sans-serif;">North</text>
<path d="M 19.5 7 A 7 7 0 1 1 19.5 6.9993" fill="hsla(195, 49%, 51%, 1)" fill-opacity="1" stroke="none" transform="matrix(1,0,0,1,218.9697,22)">
</path>
<text xml:space="preserve" fill="hsla(212, 10%, 53%, 1)" fill-opacity="1" stroke="none" transform="matrix(1,0,0,1,218.9697,22)" dominant-baseline="central" text-anchor="start" x="23" y="7" style="font: 12px sans-serif;">Southwest</text>
<path d="M 19.5 7 A 7 7 0 1 1 19.5 6.9993" fill="hsla(207, 69%, 79%, 1)" fill-opacity="1" stroke="none" transform="matrix(1,0,0,1,302.5029,22)">
</path>
<text xml:space="preserve" fill="hsla(212, 10%, 53%, 1)" fill-opacity="1" stroke="none" transform="matrix(1,0,0,1,302.5029,22)" dominant-baseline="central" text-anchor="start" x="23" y="7" style="font: 12px sans-serif;">East</text>
<path d="M 19.5 7 A 7 7 0 1 1 19.5 6.9993" fill="hsla(202, 28%, 65%, 1)" fill-opacity="1" stroke="none" transform="matrix(1,0,0,1,354.0146,22)">
</path>
<text xml:space="preserve" fill="hsla(212, 10%, 53%, 1)" fill-opacity="1" stroke="none" transform="matrix(1,0,0,1,354.0146,22)" dominant-baseline="central" text-anchor="start" x="23" y="7" style="font: 12px sans-serif;">South</text>
<path d="M 0 0 L 80.9307 0 L 80.9307 14 L 0 14 L 0 0 Z" fill="rgb(0,0,0)" fill-opacity="0" stroke="#ccc" stroke-width="0" paint-order="fill" stroke-opacity="1" stroke-dasharray="none" stroke-linecap="butt" stroke-miterlimit="10">
</path>
<text xml:space="preserve" fill="hsla(210, 14%, 37%, 1)" fill-opacity="1" stroke="none" dominant-baseline="central" text-anchor="start" x="0" y="7" style="font: bold 14px sans-serif;">Stacked Bar</text>
</g>
</svg>