<svg width="585" height="108" viewBox="0 0 585 108" fill="none" xmlns="http://www.w3.org/2000/svg">
    <style>
        path {
          fill: "#1E313B";
        }
        @media (prefers-color-scheme: dark) {
          path {
            fill: white;
          }
        }
      </style>
    <path d="M31.965 33.91C49.245 33.91 58.29 45.655 58.29 61.315V64.15H13.875C13.065 84.805 23.46 96.55 37.095 96.55C46.545 96.55 52.485 92.365 57.345 85.075L59.1 86.02C55.86 98.575 46.275 107.35 31.56 107.35C12.12 107.35 0.24 92.365 0.24 72.52C0.24 49.975 14.01 33.91 31.965 33.91ZM30.75 38.5C21.03 38.5 15.36 47.68 14.28 59.83H44.25C44.25 47.41 40.47 38.5 30.75 38.5ZM142.631 35.26V39.175C137.636 40.39 136.961 41.335 135.746 44.17L109.691 107.215H105.776L77.2912 44.17C76.0762 41.335 75.2662 40.39 70.4062 39.175V35.26H103.481V39.175C96.5962 39.985 94.1662 40.525 94.1662 43.63C94.1662 44.71 94.4362 45.79 94.9762 47.41L112.121 88.45L128.456 47.275C129.131 45.52 129.401 44.71 129.401 43.63C129.401 40.525 126.836 40.12 119.951 39.175V35.26H142.631ZM179.611 33.91V95.74C179.611 100.735 181.771 101.68 188.521 102.085V106H155.581V102.085C162.331 101.68 164.491 100.735 164.491 95.74V47.545L155.986 42.82V40.93L177.451 33.91H179.611ZM171.646 24.325C166.111 24.325 162.061 20.005 162.061 14.875C162.061 9.60999 166.111 5.28999 171.646 5.28999C177.181 5.28999 181.366 9.60999 181.366 14.875C181.366 20.005 177.181 24.325 171.646 24.325ZM237.698 38.635C225.413 38.635 217.718 50.38 217.718 68.065C217.718 84.535 224.873 97.225 238.238 97.225C243.908 97.225 248.498 95.335 252.008 91.69V57.13C252.008 45.52 246.338 38.635 237.698 38.635ZM252.008 13.525L243.503 8.93499V6.91L264.968 0.294993H267.128V92.365C267.128 96.955 267.398 98.17 273.068 98.71L276.578 98.98V102.49L254.168 107.35H251.468L252.008 94.795C246.608 102.22 239.858 107.35 230.273 107.35C213.803 107.35 203.138 93.715 203.138 74.005C203.138 49.03 217.718 34.045 236.753 34.045C243.368 34.045 248.633 35.935 252.008 39.04V13.525ZM322.494 33.91C339.774 33.91 348.819 45.655 348.819 61.315V64.15H304.404C303.594 84.805 313.989 96.55 327.624 96.55C337.074 96.55 343.014 92.365 347.874 85.075L349.629 86.02C346.389 98.575 336.804 107.35 322.089 107.35C302.649 107.35 290.769 92.365 290.769 72.52C290.769 49.975 304.539 33.91 322.494 33.91ZM321.279 38.5C311.559 38.5 305.889 47.68 304.809 59.83H334.779C334.779 47.41 330.999 38.5 321.279 38.5ZM416.53 95.74V56.32C416.53 47.275 412.885 43.225 405.19 43.225C398.845 43.225 392.905 46.465 388.18 50.245V95.74C388.18 100.735 390.34 101.68 396.955 102.085V106H364.15V102.085C370.9 101.68 373.06 100.735 373.06 95.74V47.545L364.555 42.82V40.93L386.425 33.91H388.72L388.18 46.87C394.255 39.985 402.085 33.91 412.885 33.91C425.44 33.91 431.65 41.065 431.65 55.645V95.74C431.65 100.735 433.81 101.68 440.56 102.085V106H407.62V102.085C414.37 101.68 416.53 100.735 416.53 95.74ZM467.919 66.31C467.919 84.13 476.289 96.145 490.059 96.145C498.834 96.145 504.909 92.23 509.364 85.48L511.389 86.425C507.204 100.06 497.889 107.35 484.929 107.35C467.109 107.35 454.554 93.715 454.554 73.06C454.554 50.65 467.649 33.91 488.304 33.91C501.129 33.91 509.499 39.31 509.499 48.76C509.499 52.675 507.474 55.915 504.774 57.4H495.864C496.134 55.645 496.404 53.755 496.404 51.325C496.404 44.575 494.109 38.5 485.874 38.5C474.669 38.5 467.919 50.65 467.919 66.31ZM557.3 33.91C574.58 33.91 583.625 45.655 583.625 61.315V64.15H539.21C538.4 84.805 548.795 96.55 562.43 96.55C571.88 96.55 577.82 92.365 582.68 85.075L584.435 86.02C581.195 98.575 571.61 107.35 556.895 107.35C537.455 107.35 525.575 92.365 525.575 72.52C525.575 49.975 539.345 33.91 557.3 33.91ZM556.085 38.5C546.365 38.5 540.695 47.68 539.615 59.83H569.585C569.585 47.41 565.805 38.5 556.085 38.5Z" fill="#1E313B"/>
</svg>
