<svg width="1080" height="1080" viewBox="0 0 1080 1080" fill="none" xmlns="http://www.w3.org/2000/svg">
<rect width="1080" height="1080" rx="540" fill="black"/>
<path d="M292 356.248C386.446 356.248 461.173 366.53 539.834 324.682C618.494 282.835 694.999 293.116 787.667 293.116L787.667 401.342C694.999 401.342 618.063 391.286 539.834 432.908C461.604 474.53 386.446 464.474 292 464.474L292 356.248Z" fill="white"/>
<path d="M787.668 723.42C693.222 723.42 618.495 713.139 539.835 754.986C461.175 796.834 384.669 786.552 292.001 786.552V678.326C384.669 678.326 461.606 688.382 539.835 646.76C618.064 605.138 693.222 615.194 787.668 615.194V723.42Z" fill="white"/>
<path d="M683.317 453.141C633.317 454.167 587.137 460.44 539.835 485.608C474.653 520.288 410.368 519.09 337.133 517.726C322.474 517.453 307.456 517.174 292.001 517.174V625.4C307.642 625.4 322.822 625.693 337.629 625.978C410.556 627.385 474.451 628.618 539.835 593.834C587.359 568.551 633.448 562.296 683.317 561.306V453.141Z" fill="white"/>
</svg>
