<?xml version="1.0" encoding="utf-8"?>
<svg viewBox="0 0 200 200" width="200" height="200" style="enable-background:new 0 0 791.9 221.6;" xmlns="http://www.w3.org/2000/svg">
  <path fill="currentColor" d="M 13.53 126.114 C 13.53 126.114 64.492 162.546 67.591 164.363 C 70.582 166.179 74.963 166.606 78.808 165.111 C 82.655 163.615 85.54 160.196 86.395 156.777 C 87.356 153.358 99.002 91.819 99.002 91.819 C 99.108 90.964 99.428 88.507 98.147 86.156 C 96.331 82.951 92.271 81.242 88.638 82.31 C 85.754 83.165 84.258 85.302 83.83 86.049 C 83.19 87.224 82.014 89.148 79.877 90.857 C 78.275 92.139 76.672 92.887 75.924 93.208 C 69.407 95.879 62.142 93.635 57.975 88.293 C 55.411 84.981 50.817 83.699 46.757 85.302 C 42.697 86.904 40.347 91.071 40.667 95.238 C 41.415 101.862 37.676 108.486 31.052 111.156 C 27.526 112.546 23.787 112.546 20.475 111.477 C 19.727 111.263 17.056 110.623 14.385 112.118 C 11.073 113.828 9.363 117.887 10.218 121.52 C 10.859 123.978 12.783 125.58 13.53 126.114 Z" style="transform-origin: 122.948px 117.753px;"/>
  <path fill="currentColor" d="M 98.467 46.305 C 98.467 46.305 116.63 106.349 117.912 109.554 C 119.194 112.866 122.399 115.858 126.352 117.032 C 130.306 118.101 134.686 117.247 137.463 115.11 C 140.242 112.973 187.143 71.412 187.143 71.412 C 187.785 70.879 189.494 69.062 189.922 66.391 C 190.455 62.759 188.212 58.912 184.793 57.523 C 182.015 56.455 179.451 57.203 178.703 57.523 C 177.528 58.057 175.391 58.805 172.72 58.912 C 170.583 59.019 168.981 58.592 168.126 58.378 C 161.395 56.455 156.908 50.259 156.908 43.528 C 156.802 39.361 154.023 35.515 149.857 34.339 C 145.583 33.164 141.203 34.98 138.959 38.506 C 135.434 44.275 128.489 47.16 121.651 45.237 C 118.019 44.168 115.027 41.925 113.104 39.04 C 112.57 38.399 110.86 36.263 107.869 35.728 C 104.236 35.087 100.283 37.224 98.788 40.536 C 97.612 43.1 98.254 45.451 98.467 46.305 Z" style="transform-origin: 122.948px 117.753px;"/>
</svg>