<svg width="576" height="213" xmlns="http://www.w3.org/2000/svg" xmlns:xlink="http://www.w3.org/1999/xlink" version="1.1" baseProfile="full" viewBox="0 0 576 213">
<rect width="576" height="213" x="0" y="0" id="0" fill="rgb(255,255,255)" fill-opacity="0"></rect>
<path d="M37.5714 187.5L558.72 187.5" fill="none" stroke="hsla(215, 15%, 91%, 1)"></path>
<path d="M37.5714 154.5L558.72 154.5" fill="none" stroke="hsla(215, 15%, 91%, 1)"></path>
<path d="M37.5714 122.5L558.72 122.5" fill="none" stroke="hsla(215, 15%, 91%, 1)"></path>
<path d="M37.5714 90.5L558.72 90.5" fill="none" stroke="hsla(215, 15%, 91%, 1)"></path>
<path d="M37.5714 57.5L558.72 57.5" fill="none" stroke="hsla(215, 15%, 91%, 1)"></path>
<path d="M37.5714 25.5L558.72 25.5" fill="none" stroke="hsla(215, 15%, 91%, 1)"></path>
<path d="M37.5714 187.5L558.72 187.5" fill="none" stroke="hsla(212, 10%, 53%, 1)" stroke-linecap="round"></path>
<text dominant-baseline="central" text-anchor="end" style="font-size:12px;font-family:sans-serif;" transform="translate(33.5714 187)" fill="hsla(212, 10%, 53%, 1)">0%</text>
<text dominant-baseline="central" text-anchor="end" style="font-size:12px;font-family:sans-serif;" transform="translate(33.5714 154.6)" fill="hsla(212, 10%, 53%, 1)">20%</text>
<text dominant-baseline="central" text-anchor="end" style="font-size:12px;font-family:sans-serif;" transform="translate(33.5714 122.2)" fill="hsla(212, 10%, 53%, 1)">40%</text>
<text dominant-baseline="central" text-anchor="end" style="font-size:12px;font-family:sans-serif;" transform="translate(33.5714 89.8)" fill="hsla(212, 10%, 53%, 1)">60%</text>
<text dominant-baseline="central" text-anchor="end" style="font-size:12px;font-family:sans-serif;" transform="translate(33.5714 57.4)" fill="hsla(212, 10%, 53%, 1)">80%</text>
<text dominant-baseline="central" text-anchor="end" style="font-size:12px;font-family:sans-serif;" transform="translate(33.5714 25)" fill="hsla(212, 10%, 53%, 1)">100%</text>
<text dominant-baseline="central" text-anchor="middle" style="font: normal normal 12px sans-serif" y="6" transform="translate(122.6898 193)" fill="hsla(212, 10%, 53%, 1)">1966</text>
<text dominant-baseline="central" text-anchor="middle" style="font: normal normal 12px sans-serif" y="6" transform="translate(210.4253 193)" fill="hsla(212, 10%, 53%, 1)">1974</text>
<text dominant-baseline="central" text-anchor="middle" style="font: normal normal 12px sans-serif" y="6" transform="translate(298.1607 193)" fill="hsla(212, 10%, 53%, 1)">1982</text>
<text dominant-baseline="central" text-anchor="middle" style="font: normal normal 12px sans-serif" y="6" transform="translate(385.8962 193)" fill="hsla(212, 10%, 53%, 1)">1990</text>
<text dominant-baseline="central" text-anchor="middle" style="font: normal normal 12px sans-serif" y="6" transform="translate(473.6316 193)" fill="hsla(212, 10%, 53%, 1)">1998</text>
<g clip-path="url(#zr51-c0)">
<path d="M56.8732 147.6705L67.8627 154.3896L78.8221 155.8462L89.7815 150.4375L100.7409 146.0061L111.7304 152.5L122.6898 151.6767L133.6492 147.2105L144.6087 149.6154L155.5981 149.8L166.5575 142.513L177.517 137.2698L188.4764 142.4077L199.4658 137.5222L210.4253 134.5211L221.3847 152.2042L232.3441 159.4757L243.3336 160.5684L254.293 157.6106L265.2524 166.75L276.2119 171.2094L287.2013 166.4286L298.1607 166.9103L309.1201 165.6418L320.0796 161.4026L331.069 152.2081L342.0284 141.4072L352.9879 133L363.9473 132.1118L374.9367 148.6316L385.8962 157.9435L396.8556 151.605L407.815 145.3088L418.8045 168.775L429.7639 154.6L440.7233 156.3513L451.6827 151.1139L462.6722 154.9208L473.6316 142.2074L484.591 136.6L495.5505 145.5919L506.5399 152.6027L517.4993 149.0851L528.4588 138.5385L539.4182 130.0469L539.4182 187L528.4588 187L517.4993 187L506.5399 187L495.5505 187L484.591 187L473.6316 187L462.6722 187L451.6827 187L440.7233 187L429.7639 187L418.8045 187L407.815 187L396.8556 187L385.8962 187L374.9367 187L363.9473 187L352.9879 187L342.0284 187L331.069 187L320.0796 187L309.1201 187L298.1607 187L287.2013 187L276.2119 187L265.2524 187L254.293 187L243.3336 187L232.3441 187L221.3847 187L210.4253 187L199.4658 187L188.4764 187L177.517 187L166.5575 187L155.5981 187L144.6087 187L133.6492 187L122.6898 187L111.7304 187L100.7409 187L89.7815 187L78.8221 187L67.8627 187L56.8732 187Z" fill="hsla(207, 65%, 39%, 1)" fill-opacity="0.7"></path>
</g>
<g clip-path="url(#zr51-c1)">
<path d="M56.8732 128.0058L67.8627 133.3506L78.8221 137.1538L89.7815 131.3125L100.7409 119.3354L111.7304 130L122.6898 143.1504L133.6492 130.1579L144.6087 127.8077L155.5981 137.8L166.5575 128.2435L177.517 120.693L188.4764 118.1359L199.4658 115.1773L210.4253 114.7465L221.3847 126.5352L232.3441 131.9515L243.3336 117.9368L254.293 101.6991L265.2524 106.6136L276.2119 116.8195L287.2013 112.4286L298.1607 122.029L309.1201 133L320.0796 131.5974L331.069 127.9262L342.0284 121.521L352.9879 118.1648L363.9473 113.4605L374.9367 127.7895L385.8962 134.8575L396.8556 128.4622L407.815 123.8676L418.8045 136.375L429.7639 138.4L440.7233 130.0811L451.6827 128.557L462.6722 127.6535L473.6316 113.8387L484.591 118.6L495.5505 121.6188L506.5399 122.6438L517.4993 109.4468L528.4588 101.1538L539.4182 102.2031L539.4182 130.0469L528.4588 138.5385L517.4993 149.0851L506.5399 152.6027L495.5505 145.5919L484.591 136.6L473.6316 142.2074L462.6722 154.9208L451.6827 151.1139L440.7233 156.3513L429.7639 154.6L418.8045 168.775L407.815 145.3088L396.8556 151.605L385.8962 157.9435L374.9367 148.6316L363.9473 132.1118L352.9879 133L342.0284 141.4072L331.069 152.2081L320.0796 161.4026L309.1201 165.6418L298.1607 166.9103L287.2013 166.4286L276.2119 171.2094L265.2524 166.75L254.293 157.6106L243.3336 160.5684L232.3441 159.4757L221.3847 152.2042L210.4253 134.5211L199.4658 137.5222L188.4764 142.4077L177.517 137.2698L166.5575 142.513L155.5981 149.8L144.6087 149.6154L133.6492 147.2105L122.6898 151.6767L111.7304 152.5L100.7409 146.0061L89.7815 150.4375L78.8221 155.8462L67.8627 154.3896L56.8732 147.6705Z" fill="hsla(195, 49%, 51%, 1)" fill-opacity="0.7"></path>
</g>
<g clip-path="url(#zr51-c2)">
<path d="M56.8732 74.6301L67.8627 87.0649L78.8221 85.75L89.7815 76.1875L100.7409 72.9085L111.7304 92.5L122.6898 102.9549L133.6492 91.7895L144.6087 87.3077L155.5981 93.4L166.5575 87.9534L177.517 79.2512L188.4764 73.5436L199.4658 67.2956L210.4253 67.5916L221.3847 71.7747L232.3441 78.4757L243.3336 71.8947L254.293 60.8407L265.2524 64.2727L276.2119 60.0903L287.2013 47.5L298.1607 57.4855L309.1201 52.403L320.0796 55.1558L331.069 67.0403L342.0284 65.2575L352.9879 87.3077L363.9473 85.75L374.9367 77.5789L385.8962 86.6953L396.8556 99.8739L407.815 88.1324L418.8045 106L429.7639 115.2571L440.7233 103.8108L451.6827 101.8987L462.6722 93.1683L473.6316 87.7097L484.591 93.4L495.5505 103.4574L506.5399 99.3425L517.4993 83.5957L528.4588 74.8462L539.4182 71.8281L539.4182 102.2031L528.4588 101.1538L517.4993 109.4468L506.5399 122.6438L495.5505 121.6188L484.591 118.6L473.6316 113.8387L462.6722 127.6535L451.6827 128.557L440.7233 130.0811L429.7639 138.4L418.8045 136.375L407.815 123.8676L396.8556 128.4622L385.8962 134.8575L374.9367 127.7895L363.9473 113.4605L352.9879 118.1648L342.0284 121.521L331.069 127.9262L320.0796 131.5974L309.1201 133L298.1607 122.029L287.2013 112.4286L276.2119 116.8195L265.2524 106.6136L254.293 101.6991L243.3336 117.9368L232.3441 131.9515L221.3847 126.5352L210.4253 114.7465L199.4658 115.1773L188.4764 118.1359L177.517 120.693L166.5575 128.2435L155.5981 137.8L144.6087 127.8077L133.6492 130.1579L122.6898 143.1504L111.7304 130L100.7409 119.3354L89.7815 131.3125L78.8221 137.1538L67.8627 133.3506L56.8732 128.0058Z" fill="hsla(207, 69%, 79%, 1)" fill-opacity="0.7"></path>
</g>
<g clip-path="url(#zr51-c3)">
<path d="M56.8732 44.6647L67.8627 48.1429L78.8221 53.8173L89.7815 58.1875L100.7409 56.1159L111.7304 64L122.6898 67.6316L133.6492 67.6316L144.6087 62.3846L155.5981 64.6L166.5575 53.5389L177.517 48.3581L188.4764 57.1742L199.4658 48.9409L210.4253 49.7183L221.3847 47.8169L232.3441 47.8058L243.3336 53.9895L254.293 44.354L265.2524 46.4773L276.2119 47.2238L287.2013 39.1429L298.1607 47.2269L309.1201 44.3433L320.0796 49.8961L331.069 57.6175L342.0284 57.982L352.9879 75.4396L363.9473 74.0263L374.9367 59.5789L385.8962 69.1818L396.8556 76.0504L407.815 67.8824L418.8045 73.6L429.7639 89.8L440.7233 65.8649L451.6827 66.0127L462.6722 65.099L473.6316 60.0876L484.591 63.4L495.5505 70.0404L506.5399 71.6027L517.4993 68.0851L528.4588 62.3846L539.4182 59.1719L539.4182 71.8281L528.4588 74.8462L517.4993 83.5957L506.5399 99.3425L495.5505 103.4574L484.591 93.4L473.6316 87.7097L462.6722 93.1683L451.6827 101.8987L440.7233 103.8108L429.7639 115.2571L418.8045 106L407.815 88.1324L396.8556 99.8739L385.8962 86.6953L374.9367 77.5789L363.9473 85.75L352.9879 87.3077L342.0284 65.2575L331.069 67.0403L320.0796 55.1558L309.1201 52.403L298.1607 57.4855L287.2013 47.5L276.2119 60.0903L265.2524 64.2727L254.293 60.8407L243.3336 71.8947L232.3441 78.4757L221.3847 71.7747L210.4253 67.5916L199.4658 67.2956L188.4764 73.5436L177.517 79.2512L166.5575 87.9534L155.5981 93.4L144.6087 87.3077L133.6492 91.7895L122.6898 102.9549L111.7304 92.5L100.7409 72.9085L89.7815 76.1875L78.8221 85.75L67.8627 87.0649L56.8732 74.6301Z" fill="hsla(202, 28%, 65%, 1)" fill-opacity="0.7"></path>
</g>
<g clip-path="url(#zr51-c4)">
<path d="M56.8732 36.237L67.8627 39.7273L78.8221 43.6923L89.7815 47.5L100.7409 42.7805L111.7304 47.5L122.6898 49.3609L133.6492 46.3158L144.6087 32.7885L155.5981 35.8L166.5575 38.4301L177.517 32.5349L188.4764 36.2892L199.4658 36.1724L210.4253 36.0282L221.3847 35.2676L232.3441 39.1553L243.3336 39.4947L254.293 35.7522L265.2524 39.7273L276.2119 40.2058L287.2013 33.3571L298.1607 36.9683L309.1201 36.2836L320.0796 38.3247L331.069 39.1342L342.0284 35.1856L352.9879 41.022L363.9473 40.4539L374.9367 34.9474L385.8962 41.3194L396.8556 40.6555L407.815 35.7206L418.8045 49.3L429.7639 55.0857L440.7233 49.8108L451.6827 55.7595L462.6722 52.2673L473.6316 42.917L484.591 40.6L495.5505 46.0673L506.5399 46.0822L517.4993 43.9574L528.4588 47.1538L539.4182 40.1875L539.4182 59.1719L528.4588 62.3846L517.4993 68.0851L506.5399 71.6027L495.5505 70.0404L484.591 63.4L473.6316 60.0876L462.6722 65.099L451.6827 66.0127L440.7233 65.8649L429.7639 89.8L418.8045 73.6L407.815 67.8824L396.8556 76.0504L385.8962 69.1818L374.9367 59.5789L363.9473 74.0263L352.9879 75.4396L342.0284 57.982L331.069 57.6175L320.0796 49.8961L309.1201 44.3433L298.1607 47.2269L287.2013 39.1429L276.2119 47.2238L265.2524 46.4773L254.293 44.354L243.3336 53.9895L232.3441 47.8058L221.3847 47.8169L210.4253 49.7183L199.4658 48.9409L188.4764 57.1742L177.517 48.3581L166.5575 53.5389L155.5981 64.6L144.6087 62.3846L133.6492 67.6316L122.6898 67.6316L111.7304 64L100.7409 56.1159L89.7815 58.1875L78.8221 53.8173L67.8627 48.1429L56.8732 44.6647Z" fill="hsla(179, 37%, 65%, 1)" fill-opacity="0.7"></path>
</g>
<g clip-path="url(#zr51-c5)">
<path d="M56.8732 25L67.8627 25L78.8221 25L89.7815 25L100.7409 25.4939L111.7304 25L122.6898 25L133.6492 26.4211L144.6087 25L155.5981 25L166.5575 25L177.517 25L188.4764 25L199.4658 25L210.4253 25.3803L221.3847 25L232.3441 25L243.3336 25L254.293 25L265.2524 25.6136L276.2119 25L287.2013 25.6429L298.1607 25.4274L309.1201 25.806L320.0796 26.0519L331.069 25L342.0284 25.485L352.9879 25.5934L363.9473 25.5329L374.9367 25.4737L385.8962 25.7961L396.8556 26.3613L407.815 25L418.8045 29.05L429.7639 31.9429L440.7233 27.9189L451.6827 26.0253L462.6722 26.604L473.6316 25L484.591 25.6L495.5505 26.4529L506.5399 26.1096L517.4993 25L528.4588 26.3846L539.4182 27.5313L539.4182 40.1875L528.4588 47.1538L517.4993 43.9574L506.5399 46.0822L495.5505 46.0673L484.591 40.6L473.6316 42.917L462.6722 52.2673L451.6827 55.7595L440.7233 49.8108L429.7639 55.0857L418.8045 49.3L407.815 35.7206L396.8556 40.6555L385.8962 41.3194L374.9367 34.9474L363.9473 40.4539L352.9879 41.022L342.0284 35.1856L331.069 39.1342L320.0796 38.3247L309.1201 36.2836L298.1607 36.9683L287.2013 33.3571L276.2119 40.2058L265.2524 39.7273L254.293 35.7522L243.3336 39.4947L232.3441 39.1553L221.3847 35.2676L210.4253 36.0282L199.4658 36.1724L188.4764 36.2892L177.517 32.5349L166.5575 38.4301L155.5981 35.8L144.6087 32.7885L133.6492 46.3158L122.6898 49.3609L111.7304 47.5L100.7409 42.7805L89.7815 47.5L78.8221 43.6923L67.8627 39.7273L56.8732 36.237Z" fill="hsla(40, 30%, 75%, 1)" fill-opacity="0.7"></path>
</g>
<g clip-path="url(#zr51-c6)">
<path d="M56.8732 25L67.8627 25L78.8221 25L89.7815 25L100.7409 25L111.7304 25L122.6898 25L133.6492 25L144.6087 25L155.5981 25L166.5575 25L177.517 25L188.4764 25L199.4658 25L210.4253 25L221.3847 25L232.3441 25L243.3336 25L254.293 25L265.2524 25L276.2119 25L287.2013 25L298.1607 25L309.1201 25L320.0796 25L331.069 25L342.0284 25L352.9879 25L363.9473 25L374.9367 25L385.8962 25L396.8556 25L407.815 25L418.8045 25L429.7639 25L440.7233 25L451.6827 25L462.6722 25L473.6316 25L484.591 25L495.5505 25L506.5399 25L517.4993 25L528.4588 25L539.4182 25L539.4182 27.5313L528.4588 26.3846L517.4993 25L506.5399 26.1096L495.5505 26.4529L484.591 25.6L473.6316 25L462.6722 26.604L451.6827 26.0253L440.7233 27.9189L429.7639 31.9429L418.8045 29.05L407.815 25L396.8556 26.3613L385.8962 25.7961L374.9367 25.4737L363.9473 25.5329L352.9879 25.5934L342.0284 25.485L331.069 25L320.0796 26.0519L309.1201 25.806L298.1607 25.4274L287.2013 25.6429L276.2119 25L265.2524 25.6136L254.293 25L243.3336 25L232.3441 25L221.3847 25L210.4253 25.3803L199.4658 25L188.4764 25L177.517 25L166.5575 25L155.5981 25L144.6087 25L133.6492 26.4211L122.6898 25L111.7304 25L100.7409 25.4939L89.7815 25L78.8221 25L67.8627 25L56.8732 25Z" fill="hsla(38, 89%, 62%, 1)" fill-opacity="0.7"></path>
</g>
<g clip-path="url(#zr51-c0)">
<path d="M56.8732 147.6705L67.8627 154.3896L78.8221 155.8462L89.7815 150.4375L100.7409 146.0061L111.7304 152.5L122.6898 151.6767L133.6492 147.2105L144.6087 149.6154L155.5981 149.8L166.5575 142.513L177.517 137.2698L188.4764 142.4077L199.4658 137.5222L210.4253 134.5211L221.3847 152.2042L232.3441 159.4757L243.3336 160.5684L254.293 157.6106L265.2524 166.75L276.2119 171.2094L287.2013 166.4286L298.1607 166.9103L309.1201 165.6418L320.0796 161.4026L331.069 152.2081L342.0284 141.4072L352.9879 133L363.9473 132.1118L374.9367 148.6316L385.8962 157.9435L396.8556 151.605L407.815 145.3088L418.8045 168.775L429.7639 154.6L440.7233 156.3513L451.6827 151.1139L462.6722 154.9208L473.6316 142.2074L484.591 136.6L495.5505 145.5919L506.5399 152.6027L517.4993 149.0851L528.4588 138.5385L539.4182 130.0469" fill="none" stroke="hsla(207, 65%, 39%, 1)" stroke-linejoin="round"></path>
</g>
<g clip-path="url(#zr51-c1)">
<path d="M56.8732 128.0058L67.8627 133.3506L78.8221 137.1538L89.7815 131.3125L100.7409 119.3354L111.7304 130L122.6898 143.1504L133.6492 130.1579L144.6087 127.8077L155.5981 137.8L166.5575 128.2435L177.517 120.693L188.4764 118.1359L199.4658 115.1773L210.4253 114.7465L221.3847 126.5352L232.3441 131.9515L243.3336 117.9368L254.293 101.6991L265.2524 106.6136L276.2119 116.8195L287.2013 112.4286L298.1607 122.029L309.1201 133L320.0796 131.5974L331.069 127.9262L342.0284 121.521L352.9879 118.1648L363.9473 113.4605L374.9367 127.7895L385.8962 134.8575L396.8556 128.4622L407.815 123.8676L418.8045 136.375L429.7639 138.4L440.7233 130.0811L451.6827 128.557L462.6722 127.6535L473.6316 113.8387L484.591 118.6L495.5505 121.6188L506.5399 122.6438L517.4993 109.4468L528.4588 101.1538L539.4182 102.2031" fill="none" stroke="hsla(195, 49%, 51%, 1)" stroke-linejoin="round"></path>
</g>
<g clip-path="url(#zr51-c2)">
<path d="M56.8732 74.6301L67.8627 87.0649L78.8221 85.75L89.7815 76.1875L100.7409 72.9085L111.7304 92.5L122.6898 102.9549L133.6492 91.7895L144.6087 87.3077L155.5981 93.4L166.5575 87.9534L177.517 79.2512L188.4764 73.5436L199.4658 67.2956L210.4253 67.5916L221.3847 71.7747L232.3441 78.4757L243.3336 71.8947L254.293 60.8407L265.2524 64.2727L276.2119 60.0903L287.2013 47.5L298.1607 57.4855L309.1201 52.403L320.0796 55.1558L331.069 67.0403L342.0284 65.2575L352.9879 87.3077L363.9473 85.75L374.9367 77.5789L385.8962 86.6953L396.8556 99.8739L407.815 88.1324L418.8045 106L429.7639 115.2571L440.7233 103.8108L451.6827 101.8987L462.6722 93.1683L473.6316 87.7097L484.591 93.4L495.5505 103.4574L506.5399 99.3425L517.4993 83.5957L528.4588 74.8462L539.4182 71.8281" fill="none" stroke="hsla(207, 69%, 79%, 1)" stroke-linejoin="round"></path>
</g>
<g clip-path="url(#zr51-c3)">
<path d="M56.8732 44.6647L67.8627 48.1429L78.8221 53.8173L89.7815 58.1875L100.7409 56.1159L111.7304 64L122.6898 67.6316L133.6492 67.6316L144.6087 62.3846L155.5981 64.6L166.5575 53.5389L177.517 48.3581L188.4764 57.1742L199.4658 48.9409L210.4253 49.7183L221.3847 47.8169L232.3441 47.8058L243.3336 53.9895L254.293 44.354L265.2524 46.4773L276.2119 47.2238L287.2013 39.1429L298.1607 47.2269L309.1201 44.3433L320.0796 49.8961L331.069 57.6175L342.0284 57.982L352.9879 75.4396L363.9473 74.0263L374.9367 59.5789L385.8962 69.1818L396.8556 76.0504L407.815 67.8824L418.8045 73.6L429.7639 89.8L440.7233 65.8649L451.6827 66.0127L462.6722 65.099L473.6316 60.0876L484.591 63.4L495.5505 70.0404L506.5399 71.6027L517.4993 68.0851L528.4588 62.3846L539.4182 59.1719" fill="none" stroke="hsla(202, 28%, 65%, 1)" stroke-linejoin="round"></path>
</g>
<g clip-path="url(#zr51-c4)">
<path d="M56.8732 36.237L67.8627 39.7273L78.8221 43.6923L89.7815 47.5L100.7409 42.7805L111.7304 47.5L122.6898 49.3609L133.6492 46.3158L144.6087 32.7885L155.5981 35.8L166.5575 38.4301L177.517 32.5349L188.4764 36.2892L199.4658 36.1724L210.4253 36.0282L221.3847 35.2676L232.3441 39.1553L243.3336 39.4947L254.293 35.7522L265.2524 39.7273L276.2119 40.2058L287.2013 33.3571L298.1607 36.9683L309.1201 36.2836L320.0796 38.3247L331.069 39.1342L342.0284 35.1856L352.9879 41.022L363.9473 40.4539L374.9367 34.9474L385.8962 41.3194L396.8556 40.6555L407.815 35.7206L418.8045 49.3L429.7639 55.0857L440.7233 49.8108L451.6827 55.7595L462.6722 52.2673L473.6316 42.917L484.591 40.6L495.5505 46.0673L506.5399 46.0822L517.4993 43.9574L528.4588 47.1538L539.4182 40.1875" fill="none" stroke="hsla(179, 37%, 65%, 1)" stroke-linejoin="round"></path>
</g>
<g clip-path="url(#zr51-c5)">
<path d="M56.8732 25L67.8627 25L78.8221 25L89.7815 25L100.7409 25.4939L111.7304 25L122.6898 25L133.6492 26.4211L144.6087 25L155.5981 25L166.5575 25L177.517 25L188.4764 25L199.4658 25L210.4253 25.3803L221.3847 25L232.3441 25L243.3336 25L254.293 25L265.2524 25.6136L276.2119 25L287.2013 25.6429L298.1607 25.4274L309.1201 25.806L320.0796 26.0519L331.069 25L342.0284 25.485L352.9879 25.5934L363.9473 25.5329L374.9367 25.4737L385.8962 25.7961L396.8556 26.3613L407.815 25L418.8045 29.05L429.7639 31.9429L440.7233 27.9189L451.6827 26.0253L462.6722 26.604L473.6316 25L484.591 25.6L495.5505 26.4529L506.5399 26.1096L517.4993 25L528.4588 26.3846L539.4182 27.5313" fill="none" stroke="hsla(40, 30%, 75%, 1)" stroke-linejoin="round"></path>
</g>
<g clip-path="url(#zr51-c6)">
<path d="M56.8732 25L67.8627 25L78.8221 25L89.7815 25L100.7409 25L111.7304 25L122.6898 25L133.6492 25L144.6087 25L155.5981 25L166.5575 25L177.517 25L188.4764 25L199.4658 25L210.4253 25L221.3847 25L232.3441 25L243.3336 25L254.293 25L265.2524 25L276.2119 25L287.2013 25L298.1607 25L309.1201 25L320.0796 25L331.069 25L342.0284 25L352.9879 25L363.9473 25L374.9367 25L385.8962 25L396.8556 25L407.815 25L418.8045 25L429.7639 25L440.7233 25L451.6827 25L462.6722 25L473.6316 25L484.591 25L495.5505 25L506.5399 25L517.4993 25L528.4588 25L539.4182 25" fill="none" stroke="hsla(38, 89%, 62%, 1)" stroke-linejoin="round"></path>
</g>
<path d="M1 0A1 1 0 1 1 1 -0.0001" transform="matrix(0,0,0,0,56.8732,147.6705)" fill="hsla(207, 65%, 39%, 1)"></path>
<path d="M1 0A1 1 0 1 1 1 -0.0001" transform="matrix(0,0,0,0,67.8627,154.3896)" fill="hsla(207, 65%, 39%, 1)"></path>
<path d="M1 0A1 1 0 1 1 1 -0.0001" transform="matrix(0,0,0,0,78.8221,155.8462)" fill="hsla(207, 65%, 39%, 1)"></path>
<path d="M1 0A1 1 0 1 1 1 -0.0001" transform="matrix(0,0,0,0,89.7815,150.4375)" fill="hsla(207, 65%, 39%, 1)"></path>
<path d="M1 0A1 1 0 1 1 1 -0.0001" transform="matrix(0,0,0,0,100.7409,146.0061)" fill="hsla(207, 65%, 39%, 1)"></path>
<path d="M1 0A1 1 0 1 1 1 -0.0001" transform="matrix(0,0,0,0,111.7304,152.5)" fill="hsla(207, 65%, 39%, 1)"></path>
<path d="M1 0A1 1 0 1 1 1 -0.0001" transform="matrix(0,0,0,0,122.6898,151.6767)" fill="hsla(207, 65%, 39%, 1)"></path>
<path d="M1 0A1 1 0 1 1 1 -0.0001" transform="matrix(0,0,0,0,133.6492,147.2105)" fill="hsla(207, 65%, 39%, 1)"></path>
<path d="M1 0A1 1 0 1 1 1 -0.0001" transform="matrix(0,0,0,0,144.6087,149.6154)" fill="hsla(207, 65%, 39%, 1)"></path>
<path d="M1 0A1 1 0 1 1 1 -0.0001" transform="matrix(0,0,0,0,155.5981,149.8)" fill="hsla(207, 65%, 39%, 1)"></path>
<path d="M1 0A1 1 0 1 1 1 -0.0001" transform="matrix(0,0,0,0,166.5575,142.513)" fill="hsla(207, 65%, 39%, 1)"></path>
<path d="M1 0A1 1 0 1 1 1 -0.0001" transform="matrix(0,0,0,0,177.517,137.2698)" fill="hsla(207, 65%, 39%, 1)"></path>
<path d="M1 0A1 1 0 1 1 1 -0.0001" transform="matrix(0,0,0,0,188.4764,142.4077)" fill="hsla(207, 65%, 39%, 1)"></path>
<path d="M1 0A1 1 0 1 1 1 -0.0001" transform="matrix(0,0,0,0,199.4658,137.5222)" fill="hsla(207, 65%, 39%, 1)"></path>
<path d="M1 0A1 1 0 1 1 1 -0.0001" transform="matrix(0,0,0,0,210.4253,134.5211)" fill="hsla(207, 65%, 39%, 1)"></path>
<path d="M1 0A1 1 0 1 1 1 -0.0001" transform="matrix(0,0,0,0,221.3847,152.2042)" fill="hsla(207, 65%, 39%, 1)"></path>
<path d="M1 0A1 1 0 1 1 1 -0.0001" transform="matrix(0,0,0,0,232.3441,159.4757)" fill="hsla(207, 65%, 39%, 1)"></path>
<path d="M1 0A1 1 0 1 1 1 -0.0001" transform="matrix(0,0,0,0,243.3336,160.5684)" fill="hsla(207, 65%, 39%, 1)"></path>
<path d="M1 0A1 1 0 1 1 1 -0.0001" transform="matrix(0,0,0,0,254.293,157.6106)" fill="hsla(207, 65%, 39%, 1)"></path>
<path d="M1 0A1 1 0 1 1 1 -0.0001" transform="matrix(0,0,0,0,265.2524,166.75)" fill="hsla(207, 65%, 39%, 1)"></path>
<path d="M1 0A1 1 0 1 1 1 -0.0001" transform="matrix(0,0,0,0,276.2119,171.2094)" fill="hsla(207, 65%, 39%, 1)"></path>
<path d="M1 0A1 1 0 1 1 1 -0.0001" transform="matrix(0,0,0,0,287.2013,166.4286)" fill="hsla(207, 65%, 39%, 1)"></path>
<path d="M1 0A1 1 0 1 1 1 -0.0001" transform="matrix(0,0,0,0,298.1607,166.9103)" fill="hsla(207, 65%, 39%, 1)"></path>
<path d="M1 0A1 1 0 1 1 1 -0.0001" transform="matrix(0,0,0,0,309.1201,165.6418)" fill="hsla(207, 65%, 39%, 1)"></path>
<path d="M1 0A1 1 0 1 1 1 -0.0001" transform="matrix(0,0,0,0,320.0796,161.4026)" fill="hsla(207, 65%, 39%, 1)"></path>
<path d="M1 0A1 1 0 1 1 1 -0.0001" transform="matrix(0,0,0,0,331.069,152.2081)" fill="hsla(207, 65%, 39%, 1)"></path>
<path d="M1 0A1 1 0 1 1 1 -0.0001" transform="matrix(0,0,0,0,342.0284,141.4072)" fill="hsla(207, 65%, 39%, 1)"></path>
<path d="M1 0A1 1 0 1 1 1 -0.0001" transform="matrix(0,0,0,0,352.9879,133)" fill="hsla(207, 65%, 39%, 1)"></path>
<path d="M1 0A1 1 0 1 1 1 -0.0001" transform="matrix(0,0,0,0,363.9473,132.1118)" fill="hsla(207, 65%, 39%, 1)"></path>
<path d="M1 0A1 1 0 1 1 1 -0.0001" transform="matrix(0,0,0,0,374.9367,148.6316)" fill="hsla(207, 65%, 39%, 1)"></path>
<path d="M1 0A1 1 0 1 1 1 -0.0001" transform="matrix(0,0,0,0,385.8962,157.9435)" fill="hsla(207, 65%, 39%, 1)"></path>
<path d="M1 0A1 1 0 1 1 1 -0.0001" transform="matrix(0,0,0,0,396.8556,151.605)" fill="hsla(207, 65%, 39%, 1)"></path>
<path d="M1 0A1 1 0 1 1 1 -0.0001" transform="matrix(0,0,0,0,407.815,145.3088)" fill="hsla(207, 65%, 39%, 1)"></path>
<path d="M1 0A1 1 0 1 1 1 -0.0001" transform="matrix(0,0,0,0,418.8045,168.775)" fill="hsla(207, 65%, 39%, 1)"></path>
<path d="M1 0A1 1 0 1 1 1 -0.0001" transform="matrix(0,0,0,0,429.7639,154.6)" fill="hsla(207, 65%, 39%, 1)"></path>
<path d="M1 0A1 1 0 1 1 1 -0.0001" transform="matrix(0,0,0,0,440.7233,156.3513)" fill="hsla(207, 65%, 39%, 1)"></path>
<path d="M1 0A1 1 0 1 1 1 -0.0001" transform="matrix(0,0,0,0,451.6827,151.1139)" fill="hsla(207, 65%, 39%, 1)"></path>
<path d="M1 0A1 1 0 1 1 1 -0.0001" transform="matrix(0,0,0,0,462.6722,154.9208)" fill="hsla(207, 65%, 39%, 1)"></path>
<path d="M1 0A1 1 0 1 1 1 -0.0001" transform="matrix(0,0,0,0,473.6316,142.2074)" fill="hsla(207, 65%, 39%, 1)"></path>
<path d="M1 0A1 1 0 1 1 1 -0.0001" transform="matrix(0,0,0,0,484.591,136.6)" fill="hsla(207, 65%, 39%, 1)"></path>
<path d="M1 0A1 1 0 1 1 1 -0.0001" transform="matrix(0,0,0,0,495.5505,145.5919)" fill="hsla(207, 65%, 39%, 1)"></path>
<path d="M1 0A1 1 0 1 1 1 -0.0001" transform="matrix(0,0,0,0,506.5399,152.6027)" fill="hsla(207, 65%, 39%, 1)"></path>
<path d="M1 0A1 1 0 1 1 1 -0.0001" transform="matrix(0,0,0,0,517.4993,149.0851)" fill="hsla(207, 65%, 39%, 1)"></path>
<path d="M1 0A1 1 0 1 1 1 -0.0001" transform="matrix(0,0,0,0,528.4588,138.5385)" fill="hsla(207, 65%, 39%, 1)"></path>
<path d="M1 0A1 1 0 1 1 1 -0.0001" transform="matrix(0,0,0,0,539.4182,130.0469)" fill="hsla(207, 65%, 39%, 1)"></path>
<path d="M1 0A1 1 0 1 1 1 -0.0001" transform="matrix(0,0,0,0,56.8732,128.0058)" fill="hsla(195, 49%, 51%, 1)"></path>
<path d="M1 0A1 1 0 1 1 1 -0.0001" transform="matrix(0,0,0,0,67.8627,133.3506)" fill="hsla(195, 49%, 51%, 1)"></path>
<path d="M1 0A1 1 0 1 1 1 -0.0001" transform="matrix(0,0,0,0,78.8221,137.1538)" fill="hsla(195, 49%, 51%, 1)"></path>
<path d="M1 0A1 1 0 1 1 1 -0.0001" transform="matrix(0,0,0,0,89.7815,131.3125)" fill="hsla(195, 49%, 51%, 1)"></path>
<path d="M1 0A1 1 0 1 1 1 -0.0001" transform="matrix(0,0,0,0,100.7409,119.3354)" fill="hsla(195, 49%, 51%, 1)"></path>
<path d="M1 0A1 1 0 1 1 1 -0.0001" transform="matrix(0,0,0,0,111.7304,130)" fill="hsla(195, 49%, 51%, 1)"></path>
<path d="M1 0A1 1 0 1 1 1 -0.0001" transform="matrix(0,0,0,0,122.6898,143.1504)" fill="hsla(195, 49%, 51%, 1)"></path>
<path d="M1 0A1 1 0 1 1 1 -0.0001" transform="matrix(0,0,0,0,133.6492,130.1579)" fill="hsla(195, 49%, 51%, 1)"></path>
<path d="M1 0A1 1 0 1 1 1 -0.0001" transform="matrix(0,0,0,0,144.6087,127.8077)" fill="hsla(195, 49%, 51%, 1)"></path>
<path d="M1 0A1 1 0 1 1 1 -0.0001" transform="matrix(0,0,0,0,155.5981,137.8)" fill="hsla(195, 49%, 51%, 1)"></path>
<path d="M1 0A1 1 0 1 1 1 -0.0001" transform="matrix(0,0,0,0,166.5575,128.2435)" fill="hsla(195, 49%, 51%, 1)"></path>
<path d="M1 0A1 1 0 1 1 1 -0.0001" transform="matrix(0,0,0,0,177.517,120.693)" fill="hsla(195, 49%, 51%, 1)"></path>
<path d="M1 0A1 1 0 1 1 1 -0.0001" transform="matrix(0,0,0,0,188.4764,118.1359)" fill="hsla(195, 49%, 51%, 1)"></path>
<path d="M1 0A1 1 0 1 1 1 -0.0001" transform="matrix(0,0,0,0,199.4658,115.1773)" fill="hsla(195, 49%, 51%, 1)"></path>
<path d="M1 0A1 1 0 1 1 1 -0.0001" transform="matrix(0,0,0,0,210.4253,114.7465)" fill="hsla(195, 49%, 51%, 1)"></path>
<path d="M1 0A1 1 0 1 1 1 -0.0001" transform="matrix(0,0,0,0,221.3847,126.5352)" fill="hsla(195, 49%, 51%, 1)"></path>
<path d="M1 0A1 1 0 1 1 1 -0.0001" transform="matrix(0,0,0,0,232.3441,131.9515)" fill="hsla(195, 49%, 51%, 1)"></path>
<path d="M1 0A1 1 0 1 1 1 -0.0001" transform="matrix(0,0,0,0,243.3336,117.9368)" fill="hsla(195, 49%, 51%, 1)"></path>
<path d="M1 0A1 1 0 1 1 1 -0.0001" transform="matrix(0,0,0,0,254.293,101.6991)" fill="hsla(195, 49%, 51%, 1)"></path>
<path d="M1 0A1 1 0 1 1 1 -0.0001" transform="matrix(0,0,0,0,265.2524,106.6136)" fill="hsla(195, 49%, 51%, 1)"></path>
<path d="M1 0A1 1 0 1 1 1 -0.0001" transform="matrix(0,0,0,0,276.2119,116.8195)" fill="hsla(195, 49%, 51%, 1)"></path>
<path d="M1 0A1 1 0 1 1 1 -0.0001" transform="matrix(0,0,0,0,287.2013,112.4286)" fill="hsla(195, 49%, 51%, 1)"></path>
<path d="M1 0A1 1 0 1 1 1 -0.0001" transform="matrix(0,0,0,0,298.1607,122.029)" fill="hsla(195, 49%, 51%, 1)"></path>
<path d="M1 0A1 1 0 1 1 1 -0.0001" transform="matrix(0,0,0,0,309.1201,133)" fill="hsla(195, 49%, 51%, 1)"></path>
<path d="M1 0A1 1 0 1 1 1 -0.0001" transform="matrix(0,0,0,0,320.0796,131.5974)" fill="hsla(195, 49%, 51%, 1)"></path>
<path d="M1 0A1 1 0 1 1 1 -0.0001" transform="matrix(0,0,0,0,331.069,127.9262)" fill="hsla(195, 49%, 51%, 1)"></path>
<path d="M1 0A1 1 0 1 1 1 -0.0001" transform="matrix(0,0,0,0,342.0284,121.521)" fill="hsla(195, 49%, 51%, 1)"></path>
<path d="M1 0A1 1 0 1 1 1 -0.0001" transform="matrix(0,0,0,0,352.9879,118.1648)" fill="hsla(195, 49%, 51%, 1)"></path>
<path d="M1 0A1 1 0 1 1 1 -0.0001" transform="matrix(0,0,0,0,363.9473,113.4605)" fill="hsla(195, 49%, 51%, 1)"></path>
<path d="M1 0A1 1 0 1 1 1 -0.0001" transform="matrix(0,0,0,0,374.9367,127.7895)" fill="hsla(195, 49%, 51%, 1)"></path>
<path d="M1 0A1 1 0 1 1 1 -0.0001" transform="matrix(0,0,0,0,385.8962,134.8575)" fill="hsla(195, 49%, 51%, 1)"></path>
<path d="M1 0A1 1 0 1 1 1 -0.0001" transform="matrix(0,0,0,0,396.8556,128.4622)" fill="hsla(195, 49%, 51%, 1)"></path>
<path d="M1 0A1 1 0 1 1 1 -0.0001" transform="matrix(0,0,0,0,407.815,123.8676)" fill="hsla(195, 49%, 51%, 1)"></path>
<path d="M1 0A1 1 0 1 1 1 -0.0001" transform="matrix(0,0,0,0,418.8045,136.375)" fill="hsla(195, 49%, 51%, 1)"></path>
<path d="M1 0A1 1 0 1 1 1 -0.0001" transform="matrix(0,0,0,0,429.7639,138.4)" fill="hsla(195, 49%, 51%, 1)"></path>
<path d="M1 0A1 1 0 1 1 1 -0.0001" transform="matrix(0,0,0,0,440.7233,130.0811)" fill="hsla(195, 49%, 51%, 1)"></path>
<path d="M1 0A1 1 0 1 1 1 -0.0001" transform="matrix(0,0,0,0,451.6827,128.557)" fill="hsla(195, 49%, 51%, 1)"></path>
<path d="M1 0A1 1 0 1 1 1 -0.0001" transform="matrix(0,0,0,0,462.6722,127.6535)" fill="hsla(195, 49%, 51%, 1)"></path>
<path d="M1 0A1 1 0 1 1 1 -0.0001" transform="matrix(0,0,0,0,473.6316,113.8387)" fill="hsla(195, 49%, 51%, 1)"></path>
<path d="M1 0A1 1 0 1 1 1 -0.0001" transform="matrix(0,0,0,0,484.591,118.6)" fill="hsla(195, 49%, 51%, 1)"></path>
<path d="M1 0A1 1 0 1 1 1 -0.0001" transform="matrix(0,0,0,0,495.5505,121.6188)" fill="hsla(195, 49%, 51%, 1)"></path>
<path d="M1 0A1 1 0 1 1 1 -0.0001" transform="matrix(0,0,0,0,506.5399,122.6438)" fill="hsla(195, 49%, 51%, 1)"></path>
<path d="M1 0A1 1 0 1 1 1 -0.0001" transform="matrix(0,0,0,0,517.4993,109.4468)" fill="hsla(195, 49%, 51%, 1)"></path>
<path d="M1 0A1 1 0 1 1 1 -0.0001" transform="matrix(0,0,0,0,528.4588,101.1538)" fill="hsla(195, 49%, 51%, 1)"></path>
<path d="M1 0A1 1 0 1 1 1 -0.0001" transform="matrix(0,0,0,0,539.4182,102.2031)" fill="hsla(195, 49%, 51%, 1)"></path>
<path d="M1 0A1 1 0 1 1 1 -0.0001" transform="matrix(0,0,0,0,56.8732,74.6301)" fill="hsla(207, 69%, 79%, 1)"></path>
<path d="M1 0A1 1 0 1 1 1 -0.0001" transform="matrix(0,0,0,0,67.8627,87.0649)" fill="hsla(207, 69%, 79%, 1)"></path>
<path d="M1 0A1 1 0 1 1 1 -0.0001" transform="matrix(0,0,0,0,78.8221,85.75)" fill="hsla(207, 69%, 79%, 1)"></path>
<path d="M1 0A1 1 0 1 1 1 -0.0001" transform="matrix(0,0,0,0,89.7815,76.1875)" fill="hsla(207, 69%, 79%, 1)"></path>
<path d="M1 0A1 1 0 1 1 1 -0.0001" transform="matrix(0,0,0,0,100.7409,72.9085)" fill="hsla(207, 69%, 79%, 1)"></path>
<path d="M1 0A1 1 0 1 1 1 -0.0001" transform="matrix(0,0,0,0,111.7304,92.5)" fill="hsla(207, 69%, 79%, 1)"></path>
<path d="M1 0A1 1 0 1 1 1 -0.0001" transform="matrix(0,0,0,0,122.6898,102.9549)" fill="hsla(207, 69%, 79%, 1)"></path>
<path d="M1 0A1 1 0 1 1 1 -0.0001" transform="matrix(0,0,0,0,133.6492,91.7895)" fill="hsla(207, 69%, 79%, 1)"></path>
<path d="M1 0A1 1 0 1 1 1 -0.0001" transform="matrix(0,0,0,0,144.6087,87.3077)" fill="hsla(207, 69%, 79%, 1)"></path>
<path d="M1 0A1 1 0 1 1 1 -0.0001" transform="matrix(0,0,0,0,155.5981,93.4)" fill="hsla(207, 69%, 79%, 1)"></path>
<path d="M1 0A1 1 0 1 1 1 -0.0001" transform="matrix(0,0,0,0,166.5575,87.9534)" fill="hsla(207, 69%, 79%, 1)"></path>
<path d="M1 0A1 1 0 1 1 1 -0.0001" transform="matrix(0,0,0,0,177.517,79.2512)" fill="hsla(207, 69%, 79%, 1)"></path>
<path d="M1 0A1 1 0 1 1 1 -0.0001" transform="matrix(0,0,0,0,188.4764,73.5436)" fill="hsla(207, 69%, 79%, 1)"></path>
<path d="M1 0A1 1 0 1 1 1 -0.0001" transform="matrix(0,0,0,0,199.4658,67.2956)" fill="hsla(207, 69%, 79%, 1)"></path>
<path d="M1 0A1 1 0 1 1 1 -0.0001" transform="matrix(0,0,0,0,210.4253,67.5916)" fill="hsla(207, 69%, 79%, 1)"></path>
<path d="M1 0A1 1 0 1 1 1 -0.0001" transform="matrix(0,0,0,0,221.3847,71.7747)" fill="hsla(207, 69%, 79%, 1)"></path>
<path d="M1 0A1 1 0 1 1 1 -0.0001" transform="matrix(0,0,0,0,232.3441,78.4757)" fill="hsla(207, 69%, 79%, 1)"></path>
<path d="M1 0A1 1 0 1 1 1 -0.0001" transform="matrix(0,0,0,0,243.3336,71.8947)" fill="hsla(207, 69%, 79%, 1)"></path>
<path d="M1 0A1 1 0 1 1 1 -0.0001" transform="matrix(0,0,0,0,254.293,60.8407)" fill="hsla(207, 69%, 79%, 1)"></path>
<path d="M1 0A1 1 0 1 1 1 -0.0001" transform="matrix(0,0,0,0,265.2524,64.2727)" fill="hsla(207, 69%, 79%, 1)"></path>
<path d="M1 0A1 1 0 1 1 1 -0.0001" transform="matrix(0,0,0,0,276.2119,60.0903)" fill="hsla(207, 69%, 79%, 1)"></path>
<path d="M1 0A1 1 0 1 1 1 -0.0001" transform="matrix(0,0,0,0,287.2013,47.5)" fill="hsla(207, 69%, 79%, 1)"></path>
<path d="M1 0A1 1 0 1 1 1 -0.0001" transform="matrix(0,0,0,0,298.1607,57.4855)" fill="hsla(207, 69%, 79%, 1)"></path>
<path d="M1 0A1 1 0 1 1 1 -0.0001" transform="matrix(0,0,0,0,309.1201,52.403)" fill="hsla(207, 69%, 79%, 1)"></path>
<path d="M1 0A1 1 0 1 1 1 -0.0001" transform="matrix(0,0,0,0,320.0796,55.1558)" fill="hsla(207, 69%, 79%, 1)"></path>
<path d="M1 0A1 1 0 1 1 1 -0.0001" transform="matrix(0,0,0,0,331.069,67.0403)" fill="hsla(207, 69%, 79%, 1)"></path>
<path d="M1 0A1 1 0 1 1 1 -0.0001" transform="matrix(0,0,0,0,342.0284,65.2575)" fill="hsla(207, 69%, 79%, 1)"></path>
<path d="M1 0A1 1 0 1 1 1 -0.0001" transform="matrix(0,0,0,0,352.9879,87.3077)" fill="hsla(207, 69%, 79%, 1)"></path>
<path d="M1 0A1 1 0 1 1 1 -0.0001" transform="matrix(0,0,0,0,363.9473,85.75)" fill="hsla(207, 69%, 79%, 1)"></path>
<path d="M1 0A1 1 0 1 1 1 -0.0001" transform="matrix(0,0,0,0,374.9367,77.5789)" fill="hsla(207, 69%, 79%, 1)"></path>
<path d="M1 0A1 1 0 1 1 1 -0.0001" transform="matrix(0,0,0,0,385.8962,86.6953)" fill="hsla(207, 69%, 79%, 1)"></path>
<path d="M1 0A1 1 0 1 1 1 -0.0001" transform="matrix(0,0,0,0,396.8556,99.8739)" fill="hsla(207, 69%, 79%, 1)"></path>
<path d="M1 0A1 1 0 1 1 1 -0.0001" transform="matrix(0,0,0,0,407.815,88.1324)" fill="hsla(207, 69%, 79%, 1)"></path>
<path d="M1 0A1 1 0 1 1 1 -0.0001" transform="matrix(0,0,0,0,418.8045,106)" fill="hsla(207, 69%, 79%, 1)"></path>
<path d="M1 0A1 1 0 1 1 1 -0.0001" transform="matrix(0,0,0,0,429.7639,115.2571)" fill="hsla(207, 69%, 79%, 1)"></path>
<path d="M1 0A1 1 0 1 1 1 -0.0001" transform="matrix(0,0,0,0,440.7233,103.8108)" fill="hsla(207, 69%, 79%, 1)"></path>
<path d="M1 0A1 1 0 1 1 1 -0.0001" transform="matrix(0,0,0,0,451.6827,101.8987)" fill="hsla(207, 69%, 79%, 1)"></path>
<path d="M1 0A1 1 0 1 1 1 -0.0001" transform="matrix(0,0,0,0,462.6722,93.1683)" fill="hsla(207, 69%, 79%, 1)"></path>
<path d="M1 0A1 1 0 1 1 1 -0.0001" transform="matrix(0,0,0,0,473.6316,87.7097)" fill="hsla(207, 69%, 79%, 1)"></path>
<path d="M1 0A1 1 0 1 1 1 -0.0001" transform="matrix(0,0,0,0,484.591,93.4)" fill="hsla(207, 69%, 79%, 1)"></path>
<path d="M1 0A1 1 0 1 1 1 -0.0001" transform="matrix(0,0,0,0,495.5505,103.4574)" fill="hsla(207, 69%, 79%, 1)"></path>
<path d="M1 0A1 1 0 1 1 1 -0.0001" transform="matrix(0,0,0,0,506.5399,99.3425)" fill="hsla(207, 69%, 79%, 1)"></path>
<path d="M1 0A1 1 0 1 1 1 -0.0001" transform="matrix(0,0,0,0,517.4993,83.5957)" fill="hsla(207, 69%, 79%, 1)"></path>
<path d="M1 0A1 1 0 1 1 1 -0.0001" transform="matrix(0,0,0,0,528.4588,74.8462)" fill="hsla(207, 69%, 79%, 1)"></path>
<path d="M1 0A1 1 0 1 1 1 -0.0001" transform="matrix(0,0,0,0,539.4182,71.8281)" fill="hsla(207, 69%, 79%, 1)"></path>
<path d="M1 0A1 1 0 1 1 1 -0.0001" transform="matrix(0,0,0,0,56.8732,44.6647)" fill="hsla(202, 28%, 65%, 1)"></path>
<path d="M1 0A1 1 0 1 1 1 -0.0001" transform="matrix(0,0,0,0,67.8627,48.1429)" fill="hsla(202, 28%, 65%, 1)"></path>
<path d="M1 0A1 1 0 1 1 1 -0.0001" transform="matrix(0,0,0,0,78.8221,53.8173)" fill="hsla(202, 28%, 65%, 1)"></path>
<path d="M1 0A1 1 0 1 1 1 -0.0001" transform="matrix(0,0,0,0,89.7815,58.1875)" fill="hsla(202, 28%, 65%, 1)"></path>
<path d="M1 0A1 1 0 1 1 1 -0.0001" transform="matrix(0,0,0,0,100.7409,56.1159)" fill="hsla(202, 28%, 65%, 1)"></path>
<path d="M1 0A1 1 0 1 1 1 -0.0001" transform="matrix(0,0,0,0,111.7304,64)" fill="hsla(202, 28%, 65%, 1)"></path>
<path d="M1 0A1 1 0 1 1 1 -0.0001" transform="matrix(0,0,0,0,122.6898,67.6316)" fill="hsla(202, 28%, 65%, 1)"></path>
<path d="M1 0A1 1 0 1 1 1 -0.0001" transform="matrix(0,0,0,0,133.6492,67.6316)" fill="hsla(202, 28%, 65%, 1)"></path>
<path d="M1 0A1 1 0 1 1 1 -0.0001" transform="matrix(0,0,0,0,144.6087,62.3846)" fill="hsla(202, 28%, 65%, 1)"></path>
<path d="M1 0A1 1 0 1 1 1 -0.0001" transform="matrix(0,0,0,0,155.5981,64.6)" fill="hsla(202, 28%, 65%, 1)"></path>
<path d="M1 0A1 1 0 1 1 1 -0.0001" transform="matrix(0,0,0,0,166.5575,53.5389)" fill="hsla(202, 28%, 65%, 1)"></path>
<path d="M1 0A1 1 0 1 1 1 -0.0001" transform="matrix(0,0,0,0,177.517,48.3581)" fill="hsla(202, 28%, 65%, 1)"></path>
<path d="M1 0A1 1 0 1 1 1 -0.0001" transform="matrix(0,0,0,0,188.4764,57.1742)" fill="hsla(202, 28%, 65%, 1)"></path>
<path d="M1 0A1 1 0 1 1 1 -0.0001" transform="matrix(0,0,0,0,199.4658,48.9409)" fill="hsla(202, 28%, 65%, 1)"></path>
<path d="M1 0A1 1 0 1 1 1 -0.0001" transform="matrix(0,0,0,0,210.4253,49.7183)" fill="hsla(202, 28%, 65%, 1)"></path>
<path d="M1 0A1 1 0 1 1 1 -0.0001" transform="matrix(0,0,0,0,221.3847,47.8169)" fill="hsla(202, 28%, 65%, 1)"></path>
<path d="M1 0A1 1 0 1 1 1 -0.0001" transform="matrix(0,0,0,0,232.3441,47.8058)" fill="hsla(202, 28%, 65%, 1)"></path>
<path d="M1 0A1 1 0 1 1 1 -0.0001" transform="matrix(0,0,0,0,243.3336,53.9895)" fill="hsla(202, 28%, 65%, 1)"></path>
<path d="M1 0A1 1 0 1 1 1 -0.0001" transform="matrix(0,0,0,0,254.293,44.354)" fill="hsla(202, 28%, 65%, 1)"></path>
<path d="M1 0A1 1 0 1 1 1 -0.0001" transform="matrix(0,0,0,0,265.2524,46.4773)" fill="hsla(202, 28%, 65%, 1)"></path>
<path d="M1 0A1 1 0 1 1 1 -0.0001" transform="matrix(0,0,0,0,276.2119,47.2238)" fill="hsla(202, 28%, 65%, 1)"></path>
<path d="M1 0A1 1 0 1 1 1 -0.0001" transform="matrix(0,0,0,0,287.2013,39.1429)" fill="hsla(202, 28%, 65%, 1)"></path>
<path d="M1 0A1 1 0 1 1 1 -0.0001" transform="matrix(0,0,0,0,298.1607,47.2269)" fill="hsla(202, 28%, 65%, 1)"></path>
<path d="M1 0A1 1 0 1 1 1 -0.0001" transform="matrix(0,0,0,0,309.1201,44.3433)" fill="hsla(202, 28%, 65%, 1)"></path>
<path d="M1 0A1 1 0 1 1 1 -0.0001" transform="matrix(0,0,0,0,320.0796,49.8961)" fill="hsla(202, 28%, 65%, 1)"></path>
<path d="M1 0A1 1 0 1 1 1 -0.0001" transform="matrix(0,0,0,0,331.069,57.6175)" fill="hsla(202, 28%, 65%, 1)"></path>
<path d="M1 0A1 1 0 1 1 1 -0.0001" transform="matrix(0,0,0,0,342.0284,57.982)" fill="hsla(202, 28%, 65%, 1)"></path>
<path d="M1 0A1 1 0 1 1 1 -0.0001" transform="matrix(0,0,0,0,352.9879,75.4396)" fill="hsla(202, 28%, 65%, 1)"></path>
<path d="M1 0A1 1 0 1 1 1 -0.0001" transform="matrix(0,0,0,0,363.9473,74.0263)" fill="hsla(202, 28%, 65%, 1)"></path>
<path d="M1 0A1 1 0 1 1 1 -0.0001" transform="matrix(0,0,0,0,374.9367,59.5789)" fill="hsla(202, 28%, 65%, 1)"></path>
<path d="M1 0A1 1 0 1 1 1 -0.0001" transform="matrix(0,0,0,0,385.8962,69.1818)" fill="hsla(202, 28%, 65%, 1)"></path>
<path d="M1 0A1 1 0 1 1 1 -0.0001" transform="matrix(0,0,0,0,396.8556,76.0504)" fill="hsla(202, 28%, 65%, 1)"></path>
<path d="M1 0A1 1 0 1 1 1 -0.0001" transform="matrix(0,0,0,0,407.815,67.8824)" fill="hsla(202, 28%, 65%, 1)"></path>
<path d="M1 0A1 1 0 1 1 1 -0.0001" transform="matrix(0,0,0,0,418.8045,73.6)" fill="hsla(202, 28%, 65%, 1)"></path>
<path d="M1 0A1 1 0 1 1 1 -0.0001" transform="matrix(0,0,0,0,429.7639,89.8)" fill="hsla(202, 28%, 65%, 1)"></path>
<path d="M1 0A1 1 0 1 1 1 -0.0001" transform="matrix(0,0,0,0,440.7233,65.8649)" fill="hsla(202, 28%, 65%, 1)"></path>
<path d="M1 0A1 1 0 1 1 1 -0.0001" transform="matrix(0,0,0,0,451.6827,66.0127)" fill="hsla(202, 28%, 65%, 1)"></path>
<path d="M1 0A1 1 0 1 1 1 -0.0001" transform="matrix(0,0,0,0,462.6722,65.099)" fill="hsla(202, 28%, 65%, 1)"></path>
<path d="M1 0A1 1 0 1 1 1 -0.0001" transform="matrix(0,0,0,0,473.6316,60.0876)" fill="hsla(202, 28%, 65%, 1)"></path>
<path d="M1 0A1 1 0 1 1 1 -0.0001" transform="matrix(0,0,0,0,484.591,63.4)" fill="hsla(202, 28%, 65%, 1)"></path>
<path d="M1 0A1 1 0 1 1 1 -0.0001" transform="matrix(0,0,0,0,495.5505,70.0404)" fill="hsla(202, 28%, 65%, 1)"></path>
<path d="M1 0A1 1 0 1 1 1 -0.0001" transform="matrix(0,0,0,0,506.5399,71.6027)" fill="hsla(202, 28%, 65%, 1)"></path>
<path d="M1 0A1 1 0 1 1 1 -0.0001" transform="matrix(0,0,0,0,517.4993,68.0851)" fill="hsla(202, 28%, 65%, 1)"></path>
<path d="M1 0A1 1 0 1 1 1 -0.0001" transform="matrix(0,0,0,0,528.4588,62.3846)" fill="hsla(202, 28%, 65%, 1)"></path>
<path d="M1 0A1 1 0 1 1 1 -0.0001" transform="matrix(0,0,0,0,539.4182,59.1719)" fill="hsla(202, 28%, 65%, 1)"></path>
<path d="M1 0A1 1 0 1 1 1 -0.0001" transform="matrix(0,0,0,0,56.8732,36.237)" fill="hsla(179, 37%, 65%, 1)"></path>
<path d="M1 0A1 1 0 1 1 1 -0.0001" transform="matrix(0,0,0,0,67.8627,39.7273)" fill="hsla(179, 37%, 65%, 1)"></path>
<path d="M1 0A1 1 0 1 1 1 -0.0001" transform="matrix(0,0,0,0,78.8221,43.6923)" fill="hsla(179, 37%, 65%, 1)"></path>
<path d="M1 0A1 1 0 1 1 1 -0.0001" transform="matrix(0,0,0,0,89.7815,47.5)" fill="hsla(179, 37%, 65%, 1)"></path>
<path d="M1 0A1 1 0 1 1 1 -0.0001" transform="matrix(0,0,0,0,100.7409,42.7805)" fill="hsla(179, 37%, 65%, 1)"></path>
<path d="M1 0A1 1 0 1 1 1 -0.0001" transform="matrix(0,0,0,0,111.7304,47.5)" fill="hsla(179, 37%, 65%, 1)"></path>
<path d="M1 0A1 1 0 1 1 1 -0.0001" transform="matrix(0,0,0,0,122.6898,49.3609)" fill="hsla(179, 37%, 65%, 1)"></path>
<path d="M1 0A1 1 0 1 1 1 -0.0001" transform="matrix(0,0,0,0,133.6492,46.3158)" fill="hsla(179, 37%, 65%, 1)"></path>
<path d="M1 0A1 1 0 1 1 1 -0.0001" transform="matrix(0,0,0,0,144.6087,32.7885)" fill="hsla(179, 37%, 65%, 1)"></path>
<path d="M1 0A1 1 0 1 1 1 -0.0001" transform="matrix(0,0,0,0,155.5981,35.8)" fill="hsla(179, 37%, 65%, 1)"></path>
<path d="M1 0A1 1 0 1 1 1 -0.0001" transform="matrix(0,0,0,0,166.5575,38.4301)" fill="hsla(179, 37%, 65%, 1)"></path>
<path d="M1 0A1 1 0 1 1 1 -0.0001" transform="matrix(0,0,0,0,177.517,32.5349)" fill="hsla(179, 37%, 65%, 1)"></path>
<path d="M1 0A1 1 0 1 1 1 -0.0001" transform="matrix(0,0,0,0,188.4764,36.2892)" fill="hsla(179, 37%, 65%, 1)"></path>
<path d="M1 0A1 1 0 1 1 1 -0.0001" transform="matrix(0,0,0,0,199.4658,36.1724)" fill="hsla(179, 37%, 65%, 1)"></path>
<path d="M1 0A1 1 0 1 1 1 -0.0001" transform="matrix(0,0,0,0,210.4253,36.0282)" fill="hsla(179, 37%, 65%, 1)"></path>
<path d="M1 0A1 1 0 1 1 1 -0.0001" transform="matrix(0,0,0,0,221.3847,35.2676)" fill="hsla(179, 37%, 65%, 1)"></path>
<path d="M1 0A1 1 0 1 1 1 -0.0001" transform="matrix(0,0,0,0,232.3441,39.1553)" fill="hsla(179, 37%, 65%, 1)"></path>
<path d="M1 0A1 1 0 1 1 1 -0.0001" transform="matrix(0,0,0,0,243.3336,39.4947)" fill="hsla(179, 37%, 65%, 1)"></path>
<path d="M1 0A1 1 0 1 1 1 -0.0001" transform="matrix(0,0,0,0,254.293,35.7522)" fill="hsla(179, 37%, 65%, 1)"></path>
<path d="M1 0A1 1 0 1 1 1 -0.0001" transform="matrix(0,0,0,0,265.2524,39.7273)" fill="hsla(179, 37%, 65%, 1)"></path>
<path d="M1 0A1 1 0 1 1 1 -0.0001" transform="matrix(0,0,0,0,276.2119,40.2058)" fill="hsla(179, 37%, 65%, 1)"></path>
<path d="M1 0A1 1 0 1 1 1 -0.0001" transform="matrix(0,0,0,0,287.2013,33.3571)" fill="hsla(179, 37%, 65%, 1)"></path>
<path d="M1 0A1 1 0 1 1 1 -0.0001" transform="matrix(0,0,0,0,298.1607,36.9683)" fill="hsla(179, 37%, 65%, 1)"></path>
<path d="M1 0A1 1 0 1 1 1 -0.0001" transform="matrix(0,0,0,0,309.1201,36.2836)" fill="hsla(179, 37%, 65%, 1)"></path>
<path d="M1 0A1 1 0 1 1 1 -0.0001" transform="matrix(0,0,0,0,320.0796,38.3247)" fill="hsla(179, 37%, 65%, 1)"></path>
<path d="M1 0A1 1 0 1 1 1 -0.0001" transform="matrix(0,0,0,0,331.069,39.1342)" fill="hsla(179, 37%, 65%, 1)"></path>
<path d="M1 0A1 1 0 1 1 1 -0.0001" transform="matrix(0,0,0,0,342.0284,35.1856)" fill="hsla(179, 37%, 65%, 1)"></path>
<path d="M1 0A1 1 0 1 1 1 -0.0001" transform="matrix(0,0,0,0,352.9879,41.022)" fill="hsla(179, 37%, 65%, 1)"></path>
<path d="M1 0A1 1 0 1 1 1 -0.0001" transform="matrix(0,0,0,0,363.9473,40.4539)" fill="hsla(179, 37%, 65%, 1)"></path>
<path d="M1 0A1 1 0 1 1 1 -0.0001" transform="matrix(0,0,0,0,374.9367,34.9474)" fill="hsla(179, 37%, 65%, 1)"></path>
<path d="M1 0A1 1 0 1 1 1 -0.0001" transform="matrix(0,0,0,0,385.8962,41.3194)" fill="hsla(179, 37%, 65%, 1)"></path>
<path d="M1 0A1 1 0 1 1 1 -0.0001" transform="matrix(0,0,0,0,396.8556,40.6555)" fill="hsla(179, 37%, 65%, 1)"></path>
<path d="M1 0A1 1 0 1 1 1 -0.0001" transform="matrix(0,0,0,0,407.815,35.7206)" fill="hsla(179, 37%, 65%, 1)"></path>
<path d="M1 0A1 1 0 1 1 1 -0.0001" transform="matrix(0,0,0,0,418.8045,49.3)" fill="hsla(179, 37%, 65%, 1)"></path>
<path d="M1 0A1 1 0 1 1 1 -0.0001" transform="matrix(0,0,0,0,429.7639,55.0857)" fill="hsla(179, 37%, 65%, 1)"></path>
<path d="M1 0A1 1 0 1 1 1 -0.0001" transform="matrix(0,0,0,0,440.7233,49.8108)" fill="hsla(179, 37%, 65%, 1)"></path>
<path d="M1 0A1 1 0 1 1 1 -0.0001" transform="matrix(0,0,0,0,451.6827,55.7595)" fill="hsla(179, 37%, 65%, 1)"></path>
<path d="M1 0A1 1 0 1 1 1 -0.0001" transform="matrix(0,0,0,0,462.6722,52.2673)" fill="hsla(179, 37%, 65%, 1)"></path>
<path d="M1 0A1 1 0 1 1 1 -0.0001" transform="matrix(0,0,0,0,473.6316,42.917)" fill="hsla(179, 37%, 65%, 1)"></path>
<path d="M1 0A1 1 0 1 1 1 -0.0001" transform="matrix(0,0,0,0,484.591,40.6)" fill="hsla(179, 37%, 65%, 1)"></path>
<path d="M1 0A1 1 0 1 1 1 -0.0001" transform="matrix(0,0,0,0,495.5505,46.0673)" fill="hsla(179, 37%, 65%, 1)"></path>
<path d="M1 0A1 1 0 1 1 1 -0.0001" transform="matrix(0,0,0,0,506.5399,46.0822)" fill="hsla(179, 37%, 65%, 1)"></path>
<path d="M1 0A1 1 0 1 1 1 -0.0001" transform="matrix(0,0,0,0,517.4993,43.9574)" fill="hsla(179, 37%, 65%, 1)"></path>
<path d="M1 0A1 1 0 1 1 1 -0.0001" transform="matrix(0,0,0,0,528.4588,47.1538)" fill="hsla(179, 37%, 65%, 1)"></path>
<path d="M1 0A1 1 0 1 1 1 -0.0001" transform="matrix(0,0,0,0,539.4182,40.1875)" fill="hsla(179, 37%, 65%, 1)"></path>
<path d="M1 0A1 1 0 1 1 1 -0.0001" transform="matrix(0,0,0,0,56.8732,25)" fill="hsla(40, 30%, 75%, 1)"></path>
<path d="M1 0A1 1 0 1 1 1 -0.0001" transform="matrix(0,0,0,0,67.8627,25)" fill="hsla(40, 30%, 75%, 1)"></path>
<path d="M1 0A1 1 0 1 1 1 -0.0001" transform="matrix(0,0,0,0,78.8221,25)" fill="hsla(40, 30%, 75%, 1)"></path>
<path d="M1 0A1 1 0 1 1 1 -0.0001" transform="matrix(0,0,0,0,89.7815,25)" fill="hsla(40, 30%, 75%, 1)"></path>
<path d="M1 0A1 1 0 1 1 1 -0.0001" transform="matrix(0,0,0,0,100.7409,25.4939)" fill="hsla(40, 30%, 75%, 1)"></path>
<path d="M1 0A1 1 0 1 1 1 -0.0001" transform="matrix(0,0,0,0,111.7304,25)" fill="hsla(40, 30%, 75%, 1)"></path>
<path d="M1 0A1 1 0 1 1 1 -0.0001" transform="matrix(0,0,0,0,122.6898,25)" fill="hsla(40, 30%, 75%, 1)"></path>
<path d="M1 0A1 1 0 1 1 1 -0.0001" transform="matrix(0,0,0,0,133.6492,26.4211)" fill="hsla(40, 30%, 75%, 1)"></path>
<path d="M1 0A1 1 0 1 1 1 -0.0001" transform="matrix(0,0,0,0,144.6087,25)" fill="hsla(40, 30%, 75%, 1)"></path>
<path d="M1 0A1 1 0 1 1 1 -0.0001" transform="matrix(0,0,0,0,155.5981,25)" fill="hsla(40, 30%, 75%, 1)"></path>
<path d="M1 0A1 1 0 1 1 1 -0.0001" transform="matrix(0,0,0,0,166.5575,25)" fill="hsla(40, 30%, 75%, 1)"></path>
<path d="M1 0A1 1 0 1 1 1 -0.0001" transform="matrix(0,0,0,0,177.517,25)" fill="hsla(40, 30%, 75%, 1)"></path>
<path d="M1 0A1 1 0 1 1 1 -0.0001" transform="matrix(0,0,0,0,188.4764,25)" fill="hsla(40, 30%, 75%, 1)"></path>
<path d="M1 0A1 1 0 1 1 1 -0.0001" transform="matrix(0,0,0,0,199.4658,25)" fill="hsla(40, 30%, 75%, 1)"></path>
<path d="M1 0A1 1 0 1 1 1 -0.0001" transform="matrix(0,0,0,0,210.4253,25.3803)" fill="hsla(40, 30%, 75%, 1)"></path>
<path d="M1 0A1 1 0 1 1 1 -0.0001" transform="matrix(0,0,0,0,221.3847,25)" fill="hsla(40, 30%, 75%, 1)"></path>
<path d="M1 0A1 1 0 1 1 1 -0.0001" transform="matrix(0,0,0,0,232.3441,25)" fill="hsla(40, 30%, 75%, 1)"></path>
<path d="M1 0A1 1 0 1 1 1 -0.0001" transform="matrix(0,0,0,0,243.3336,25)" fill="hsla(40, 30%, 75%, 1)"></path>
<path d="M1 0A1 1 0 1 1 1 -0.0001" transform="matrix(0,0,0,0,254.293,25)" fill="hsla(40, 30%, 75%, 1)"></path>
<path d="M1 0A1 1 0 1 1 1 -0.0001" transform="matrix(0,0,0,0,265.2524,25.6136)" fill="hsla(40, 30%, 75%, 1)"></path>
<path d="M1 0A1 1 0 1 1 1 -0.0001" transform="matrix(0,0,0,0,276.2119,25)" fill="hsla(40, 30%, 75%, 1)"></path>
<path d="M1 0A1 1 0 1 1 1 -0.0001" transform="matrix(0,0,0,0,287.2013,25.6429)" fill="hsla(40, 30%, 75%, 1)"></path>
<path d="M1 0A1 1 0 1 1 1 -0.0001" transform="matrix(0,0,0,0,298.1607,25.4274)" fill="hsla(40, 30%, 75%, 1)"></path>
<path d="M1 0A1 1 0 1 1 1 -0.0001" transform="matrix(0,0,0,0,309.1201,25.806)" fill="hsla(40, 30%, 75%, 1)"></path>
<path d="M1 0A1 1 0 1 1 1 -0.0001" transform="matrix(0,0,0,0,320.0796,26.0519)" fill="hsla(40, 30%, 75%, 1)"></path>
<path d="M1 0A1 1 0 1 1 1 -0.0001" transform="matrix(0,0,0,0,331.069,25)" fill="hsla(40, 30%, 75%, 1)"></path>
<path d="M1 0A1 1 0 1 1 1 -0.0001" transform="matrix(0,0,0,0,342.0284,25.485)" fill="hsla(40, 30%, 75%, 1)"></path>
<path d="M1 0A1 1 0 1 1 1 -0.0001" transform="matrix(0,0,0,0,352.9879,25.5934)" fill="hsla(40, 30%, 75%, 1)"></path>
<path d="M1 0A1 1 0 1 1 1 -0.0001" transform="matrix(0,0,0,0,363.9473,25.5329)" fill="hsla(40, 30%, 75%, 1)"></path>
<path d="M1 0A1 1 0 1 1 1 -0.0001" transform="matrix(0,0,0,0,374.9367,25.4737)" fill="hsla(40, 30%, 75%, 1)"></path>
<path d="M1 0A1 1 0 1 1 1 -0.0001" transform="matrix(0,0,0,0,385.8962,25.7961)" fill="hsla(40, 30%, 75%, 1)"></path>
<path d="M1 0A1 1 0 1 1 1 -0.0001" transform="matrix(0,0,0,0,396.8556,26.3613)" fill="hsla(40, 30%, 75%, 1)"></path>
<path d="M1 0A1 1 0 1 1 1 -0.0001" transform="matrix(0,0,0,0,407.815,25)" fill="hsla(40, 30%, 75%, 1)"></path>
<path d="M1 0A1 1 0 1 1 1 -0.0001" transform="matrix(0,0,0,0,418.8045,29.05)" fill="hsla(40, 30%, 75%, 1)"></path>
<path d="M1 0A1 1 0 1 1 1 -0.0001" transform="matrix(0,0,0,0,429.7639,31.9429)" fill="hsla(40, 30%, 75%, 1)"></path>
<path d="M1 0A1 1 0 1 1 1 -0.0001" transform="matrix(0,0,0,0,440.7233,27.9189)" fill="hsla(40, 30%, 75%, 1)"></path>
<path d="M1 0A1 1 0 1 1 1 -0.0001" transform="matrix(0,0,0,0,451.6827,26.0253)" fill="hsla(40, 30%, 75%, 1)"></path>
<path d="M1 0A1 1 0 1 1 1 -0.0001" transform="matrix(0,0,0,0,462.6722,26.604)" fill="hsla(40, 30%, 75%, 1)"></path>
<path d="M1 0A1 1 0 1 1 1 -0.0001" transform="matrix(0,0,0,0,473.6316,25)" fill="hsla(40, 30%, 75%, 1)"></path>
<path d="M1 0A1 1 0 1 1 1 -0.0001" transform="matrix(0,0,0,0,484.591,25.6)" fill="hsla(40, 30%, 75%, 1)"></path>
<path d="M1 0A1 1 0 1 1 1 -0.0001" transform="matrix(0,0,0,0,495.5505,26.4529)" fill="hsla(40, 30%, 75%, 1)"></path>
<path d="M1 0A1 1 0 1 1 1 -0.0001" transform="matrix(0,0,0,0,506.5399,26.1096)" fill="hsla(40, 30%, 75%, 1)"></path>
<path d="M1 0A1 1 0 1 1 1 -0.0001" transform="matrix(0,0,0,0,517.4993,25)" fill="hsla(40, 30%, 75%, 1)"></path>
<path d="M1 0A1 1 0 1 1 1 -0.0001" transform="matrix(0,0,0,0,528.4588,26.3846)" fill="hsla(40, 30%, 75%, 1)"></path>
<path d="M1 0A1 1 0 1 1 1 -0.0001" transform="matrix(0,0,0,0,539.4182,27.5313)" fill="hsla(40, 30%, 75%, 1)"></path>
<path d="M1 0A1 1 0 1 1 1 -0.0001" transform="matrix(0,0,0,0,56.8732,25)" fill="hsla(38, 89%, 62%, 1)"></path>
<path d="M1 0A1 1 0 1 1 1 -0.0001" transform="matrix(0,0,0,0,67.8627,25)" fill="hsla(38, 89%, 62%, 1)"></path>
<path d="M1 0A1 1 0 1 1 1 -0.0001" transform="matrix(0,0,0,0,78.8221,25)" fill="hsla(38, 89%, 62%, 1)"></path>
<path d="M1 0A1 1 0 1 1 1 -0.0001" transform="matrix(0,0,0,0,89.7815,25)" fill="hsla(38, 89%, 62%, 1)"></path>
<path d="M1 0A1 1 0 1 1 1 -0.0001" transform="matrix(0,0,0,0,100.7409,25)" fill="hsla(38, 89%, 62%, 1)"></path>
<path d="M1 0A1 1 0 1 1 1 -0.0001" transform="matrix(0,0,0,0,111.7304,25)" fill="hsla(38, 89%, 62%, 1)"></path>
<path d="M1 0A1 1 0 1 1 1 -0.0001" transform="matrix(0,0,0,0,122.6898,25)" fill="hsla(38, 89%, 62%, 1)"></path>
<path d="M1 0A1 1 0 1 1 1 -0.0001" transform="matrix(0,0,0,0,133.6492,25)" fill="hsla(38, 89%, 62%, 1)"></path>
<path d="M1 0A1 1 0 1 1 1 -0.0001" transform="matrix(0,0,0,0,144.6087,25)" fill="hsla(38, 89%, 62%, 1)"></path>
<path d="M1 0A1 1 0 1 1 1 -0.0001" transform="matrix(0,0,0,0,155.5981,25)" fill="hsla(38, 89%, 62%, 1)"></path>
<path d="M1 0A1 1 0 1 1 1 -0.0001" transform="matrix(0,0,0,0,166.5575,25)" fill="hsla(38, 89%, 62%, 1)"></path>
<path d="M1 0A1 1 0 1 1 1 -0.0001" transform="matrix(0,0,0,0,177.517,25)" fill="hsla(38, 89%, 62%, 1)"></path>
<path d="M1 0A1 1 0 1 1 1 -0.0001" transform="matrix(0,0,0,0,188.4764,25)" fill="hsla(38, 89%, 62%, 1)"></path>
<path d="M1 0A1 1 0 1 1 1 -0.0001" transform="matrix(0,0,0,0,199.4658,25)" fill="hsla(38, 89%, 62%, 1)"></path>
<path d="M1 0A1 1 0 1 1 1 -0.0001" transform="matrix(0,0,0,0,210.4253,25)" fill="hsla(38, 89%, 62%, 1)"></path>
<path d="M1 0A1 1 0 1 1 1 -0.0001" transform="matrix(0,0,0,0,221.3847,25)" fill="hsla(38, 89%, 62%, 1)"></path>
<path d="M1 0A1 1 0 1 1 1 -0.0001" transform="matrix(0,0,0,0,232.3441,25)" fill="hsla(38, 89%, 62%, 1)"></path>
<path d="M1 0A1 1 0 1 1 1 -0.0001" transform="matrix(0,0,0,0,243.3336,25)" fill="hsla(38, 89%, 62%, 1)"></path>
<path d="M1 0A1 1 0 1 1 1 -0.0001" transform="matrix(0,0,0,0,254.293,25)" fill="hsla(38, 89%, 62%, 1)"></path>
<path d="M1 0A1 1 0 1 1 1 -0.0001" transform="matrix(0,0,0,0,265.2524,25)" fill="hsla(38, 89%, 62%, 1)"></path>
<path d="M1 0A1 1 0 1 1 1 -0.0001" transform="matrix(0,0,0,0,276.2119,25)" fill="hsla(38, 89%, 62%, 1)"></path>
<path d="M1 0A1 1 0 1 1 1 -0.0001" transform="matrix(0,0,0,0,287.2013,25)" fill="hsla(38, 89%, 62%, 1)"></path>
<path d="M1 0A1 1 0 1 1 1 -0.0001" transform="matrix(0,0,0,0,298.1607,25)" fill="hsla(38, 89%, 62%, 1)"></path>
<path d="M1 0A1 1 0 1 1 1 -0.0001" transform="matrix(0,0,0,0,309.1201,25)" fill="hsla(38, 89%, 62%, 1)"></path>
<path d="M1 0A1 1 0 1 1 1 -0.0001" transform="matrix(0,0,0,0,320.0796,25)" fill="hsla(38, 89%, 62%, 1)"></path>
<path d="M1 0A1 1 0 1 1 1 -0.0001" transform="matrix(0,0,0,0,331.069,25)" fill="hsla(38, 89%, 62%, 1)"></path>
<path d="M1 0A1 1 0 1 1 1 -0.0001" transform="matrix(0,0,0,0,342.0284,25)" fill="hsla(38, 89%, 62%, 1)"></path>
<path d="M1 0A1 1 0 1 1 1 -0.0001" transform="matrix(0,0,0,0,352.9879,25)" fill="hsla(38, 89%, 62%, 1)"></path>
<path d="M1 0A1 1 0 1 1 1 -0.0001" transform="matrix(0,0,0,0,363.9473,25)" fill="hsla(38, 89%, 62%, 1)"></path>
<path d="M1 0A1 1 0 1 1 1 -0.0001" transform="matrix(0,0,0,0,374.9367,25)" fill="hsla(38, 89%, 62%, 1)"></path>
<path d="M1 0A1 1 0 1 1 1 -0.0001" transform="matrix(0,0,0,0,385.8962,25)" fill="hsla(38, 89%, 62%, 1)"></path>
<path d="M1 0A1 1 0 1 1 1 -0.0001" transform="matrix(0,0,0,0,396.8556,25)" fill="hsla(38, 89%, 62%, 1)"></path>
<path d="M1 0A1 1 0 1 1 1 -0.0001" transform="matrix(0,0,0,0,407.815,25)" fill="hsla(38, 89%, 62%, 1)"></path>
<path d="M1 0A1 1 0 1 1 1 -0.0001" transform="matrix(0,0,0,0,418.8045,25)" fill="hsla(38, 89%, 62%, 1)"></path>
<path d="M1 0A1 1 0 1 1 1 -0.0001" transform="matrix(0,0,0,0,429.7639,25)" fill="hsla(38, 89%, 62%, 1)"></path>
<path d="M1 0A1 1 0 1 1 1 -0.0001" transform="matrix(0,0,0,0,440.7233,25)" fill="hsla(38, 89%, 62%, 1)"></path>
<path d="M1 0A1 1 0 1 1 1 -0.0001" transform="matrix(0,0,0,0,451.6827,25)" fill="hsla(38, 89%, 62%, 1)"></path>
<path d="M1 0A1 1 0 1 1 1 -0.0001" transform="matrix(0,0,0,0,462.6722,25)" fill="hsla(38, 89%, 62%, 1)"></path>
<path d="M1 0A1 1 0 1 1 1 -0.0001" transform="matrix(0,0,0,0,473.6316,25)" fill="hsla(38, 89%, 62%, 1)"></path>
<path d="M1 0A1 1 0 1 1 1 -0.0001" transform="matrix(0,0,0,0,484.591,25)" fill="hsla(38, 89%, 62%, 1)"></path>
<path d="M1 0A1 1 0 1 1 1 -0.0001" transform="matrix(0,0,0,0,495.5505,25)" fill="hsla(38, 89%, 62%, 1)"></path>
<path d="M1 0A1 1 0 1 1 1 -0.0001" transform="matrix(0,0,0,0,506.5399,25)" fill="hsla(38, 89%, 62%, 1)"></path>
<path d="M1 0A1 1 0 1 1 1 -0.0001" transform="matrix(0,0,0,0,517.4993,25)" fill="hsla(38, 89%, 62%, 1)"></path>
<path d="M1 0A1 1 0 1 1 1 -0.0001" transform="matrix(0,0,0,0,528.4588,25)" fill="hsla(38, 89%, 62%, 1)"></path>
<path d="M1 0A1 1 0 1 1 1 -0.0001" transform="matrix(0,0,0,0,539.4182,25)" fill="hsla(38, 89%, 62%, 1)"></path>
<path d="M0 0l551.7988 0l0 14l-551.7988 0Z" transform="translate(12.1006 0)" fill="rgb(0,0,0)" fill-opacity="0" stroke="#ccc" stroke-width="0"></path>
<path d="M19.5 7A7 7 0 1 1 19.5 6.9993" transform="translate(6.6006 0)" fill="hsla(207, 65%, 39%, 1)"></path>
<text dominant-baseline="central" text-anchor="start" style="font-size:12px;font-family:sans-serif;" x="23" y="7" transform="translate(6.6006 0)" fill="hsla(212, 10%, 53%, 1)">Atlanta</text>
<path d="M19.5 7A7 7 0 1 1 19.5 6.9993" transform="translate(71.46 0)" fill="hsla(195, 49%, 51%, 1)"></path>
<text dominant-baseline="central" text-anchor="start" style="font-size:12px;font-family:sans-serif;" xml:space="preserve" x="23" y="7" transform="translate(71.46 0)" fill="hsla(212, 10%, 53%, 1)">San Francisco</text>
<path d="M19.5 7A7 7 0 1 1 19.5 6.9993" transform="translate(175.6592 0)" fill="hsla(207, 69%, 79%, 1)"></path>
<text dominant-baseline="central" text-anchor="start" style="font-size:12px;font-family:sans-serif;" x="23" y="7" transform="translate(175.6592 0)" fill="hsla(212, 10%, 53%, 1)">Dallas</text>
<path d="M19.5 7A7 7 0 1 1 19.5 6.9993" transform="translate(236.5049 0)" fill="hsla(202, 28%, 65%, 1)"></path>
<text dominant-baseline="central" text-anchor="start" style="font-size:12px;font-family:sans-serif;" x="23" y="7" transform="translate(236.5049 0)" fill="hsla(212, 10%, 53%, 1)">Chicago</text>
<path d="M19.5 7A7 7 0 1 1 19.5 6.9993" transform="translate(308.0322 0)" fill="hsla(179, 37%, 65%, 1)"></path>
<text dominant-baseline="central" text-anchor="start" style="font-size:12px;font-family:sans-serif;" xml:space="preserve" x="23" y="7" transform="translate(308.0322 0)" fill="hsla(212, 10%, 53%, 1)">New York</text>
<path d="M19.5 7A7 7 0 1 1 19.5 6.9993" transform="translate(386.4443 0)" fill="hsla(40, 30%, 75%, 1)"></path>
<text dominant-baseline="central" text-anchor="start" style="font-size:12px;font-family:sans-serif;" xml:space="preserve" x="23" y="7" transform="translate(386.4443 0)" fill="hsla(212, 10%, 53%, 1)">Kansas City</text>
<path d="M19.5 7A7 7 0 1 1 19.5 6.9993" transform="translate(477.9697 0)" fill="hsla(38, 89%, 62%, 1)"></path>
<text dominant-baseline="central" text-anchor="start" style="font-size:12px;font-family:sans-serif;" x="23" y="7" transform="translate(477.9697 0)" fill="hsla(212, 10%, 53%, 1)">Washington</text>
<path d="M0 0l0 0l0 0l0 0Z" fill="rgb(0,0,0)" fill-opacity="0" stroke="#ccc" stroke-width="0"></path>
<defs >
<clipPath id="zr51-c0">
<path d="M37 24.5l522 0l0 163l-522 0Z" fill="#000"></path>
</clipPath>
<clipPath id="zr51-c1">
<path d="M37 24.5l522 0l0 163l-522 0Z" fill="#000"></path>
</clipPath>
<clipPath id="zr51-c2">
<path d="M37 24.5l522 0l0 163l-522 0Z" fill="#000"></path>
</clipPath>
<clipPath id="zr51-c3">
<path d="M37 24.5l522 0l0 163l-522 0Z" fill="#000"></path>
</clipPath>
<clipPath id="zr51-c4">
<path d="M37 24.5l522 0l0 163l-522 0Z" fill="#000"></path>
</clipPath>
<clipPath id="zr51-c5">
<path d="M37 24.5l522 0l0 163l-522 0Z" fill="#000"></path>
</clipPath>
<clipPath id="zr51-c6">
<path d="M37 24.5l522 0l0 163l-522 0Z" fill="#000"></path>
</clipPath>
</defs>
</svg>