<svg xmlns="http://www.w3.org/2000/svg" xmlns:xlink="http://www.w3.org/1999/xlink" version="1.1" baseProfile="full" width="576" height="213" style="user-select: none; position: absolute; left: 0px; top: 0px;">
<g>
<rect width="576" height="213" x="0" y="0" id="0" fill="rgb(0,0,0)" fill-opacity="0">
</rect>
</g>
<g>
<defs>
<clipPath id="zr2602-clip-0">
<path d="M 19 24.25 L 559 24.25 L 559 187.75 L 19 187.75 L 19 24.25 Z" fill="#000" fill-opacity="1" stroke="none">
</path>
</clipPath>
<clipPath id="zr2602-clip-1">
<path d="M 19 24.25 L 559 24.25 L 559 187.75 L 19 187.75 L 19 24.25 Z" fill="#000" fill-opacity="1" stroke="none">
</path>
</clipPath>
<clipPath id="zr2602-clip-2">
<path d="M 19 24.25 L 559 24.25 L 559 187.75 L 19 187.75 L 19 24.25 Z" fill="#000" fill-opacity="1" stroke="none">
</path>
</clipPath>
<clipPath id="zr2602-clip-3">
<path d="M 19 24.25 L 559 24.25 L 559 187.75 L 19 187.75 L 19 24.25 Z" fill="#000" fill-opacity="1" stroke="none">
</path>
</clipPath>
<clipPath id="zr2602-clip-4">
<path d="M 19 24.25 L 559 24.25 L 559 187.75 L 19 187.75 L 19 24.25 Z" fill="#000" fill-opacity="1" stroke="none">
</path>
</clipPath>
<clipPath id="zr2602-clip-5">
<path d="M 19 24.25 L 559 24.25 L 559 187.75 L 19 187.75 L 19 24.25 Z" fill="#000" fill-opacity="1" stroke="none">
</path>
</clipPath>
</defs>
<path d="M 20.2277 187.5 L 558.72 187.5" fill="none" stroke="#ebf2f7" stroke-width="1" paint-order="fill" stroke-opacity="1" stroke-dasharray="none" stroke-linecap="butt" stroke-miterlimit="10">
</path>
<path d="M 20.2277 154.5 L 558.72 154.5" fill="none" stroke="#ebf2f7" stroke-width="1" paint-order="fill" stroke-opacity="1" stroke-dasharray="none" stroke-linecap="butt" stroke-miterlimit="10">
</path>
<path d="M 20.2277 122.5 L 558.72 122.5" fill="none" stroke="#ebf2f7" stroke-width="1" paint-order="fill" stroke-opacity="1" stroke-dasharray="none" stroke-linecap="butt" stroke-miterlimit="10">
</path>
<path d="M 20.2277 90.5 L 558.72 90.5" fill="none" stroke="#ebf2f7" stroke-width="1" paint-order="fill" stroke-opacity="1" stroke-dasharray="none" stroke-linecap="butt" stroke-miterlimit="10">
</path>
<path d="M 20.2277 57.5 L 558.72 57.5" fill="none" stroke="#ebf2f7" stroke-width="1" paint-order="fill" stroke-opacity="1" stroke-dasharray="none" stroke-linecap="butt" stroke-miterlimit="10">
</path>
<path d="M 20.2277 25.5 L 558.72 25.5" fill="none" stroke="#ebf2f7" stroke-width="1" paint-order="fill" stroke-opacity="1" stroke-dasharray="none" stroke-linecap="butt" stroke-miterlimit="10">
</path>
<path d="M 20.2277 187.5 L 558.72 187.5" fill="none" stroke="#6E7079" stroke-width="1" paint-order="fill" stroke-opacity="1" stroke-dasharray="none" stroke-linecap="round" stroke-miterlimit="10">
</path>
<text xml:space="preserve" fill="#6E7079" fill-opacity="1" stroke="none" transform="matrix(1,0,0,1,16.2277,187)" dominant-baseline="central" text-anchor="end" x="0" y="0" style="font: 12px sans-serif;">0</text>
<text xml:space="preserve" fill="#6E7079" fill-opacity="1" stroke="none" transform="matrix(1,0,0,1,16.2277,154.6)" dominant-baseline="central" text-anchor="end" x="0" y="0" style="font: 12px sans-serif;">3</text>
<text xml:space="preserve" fill="#6E7079" fill-opacity="1" stroke="none" transform="matrix(1,0,0,1,16.2277,122.2)" dominant-baseline="central" text-anchor="end" x="0" y="0" style="font: 12px sans-serif;">6</text>
<text xml:space="preserve" fill="#6E7079" fill-opacity="1" stroke="none" transform="matrix(1,0,0,1,16.2277,89.8)" dominant-baseline="central" text-anchor="end" x="0" y="0" style="font: 12px sans-serif;">9</text>
<text xml:space="preserve" fill="#6E7079" fill-opacity="1" stroke="none" transform="matrix(1,0,0,1,16.2277,57.4)" dominant-baseline="central" text-anchor="end" x="0" y="0" style="font: 12px sans-serif;">12</text>
<text xml:space="preserve" fill="#6E7079" fill-opacity="1" stroke="none" transform="matrix(1,0,0,1,16.2277,25)" dominant-baseline="central" text-anchor="end" x="0" y="0" style="font: 12px sans-serif;">15</text>
<text xml:space="preserve" fill="#6E7079" fill-opacity="1" stroke="none" transform="matrix(1,0,0,1,40.1718,193)" dominant-baseline="central" text-anchor="middle" x="0" y="6" style="font: 12px sans-serif;">2015</text>
<text xml:space="preserve" fill="#6E7079" fill-opacity="1" stroke="none" transform="matrix(1,0,0,1,122.0389,193)" dominant-baseline="central" text-anchor="middle" x="0" y="6" style="font: 12px sans-serif;">2016</text>
<text xml:space="preserve" fill="#6E7079" fill-opacity="1" stroke="none" transform="matrix(1,0,0,1,204.1302,193)" dominant-baseline="central" text-anchor="middle" x="0" y="6" style="font: 12px sans-serif;">2017</text>
<text xml:space="preserve" fill="#6E7079" fill-opacity="1" stroke="none" transform="matrix(1,0,0,1,285.9973,193)" dominant-baseline="central" text-anchor="middle" x="0" y="6" style="font: 12px sans-serif;">2018</text>
<text xml:space="preserve" fill="#6E7079" fill-opacity="1" stroke="none" transform="matrix(1,0,0,1,367.8643,193)" dominant-baseline="central" text-anchor="middle" x="0" y="6" style="font: 12px sans-serif;">2019</text>
<text xml:space="preserve" fill="#6E7079" fill-opacity="1" stroke="none" transform="matrix(1,0,0,1,449.7314,193)" dominant-baseline="central" text-anchor="middle" x="0" y="6" style="font: 12px sans-serif;">2020</text>
<text xml:space="preserve" fill="#6E7079" fill-opacity="1" stroke="none" transform="matrix(1,0,0,1,531.8227,193)" dominant-baseline="central" text-anchor="middle" x="0" y="6" style="font: 12px sans-serif;">2021</text>
<g clip-path="url(#zr2602-clip-0)">
<path d="M 40.1718 176.2 L 122.0389 187 L 204.1302 187 L 285.9973 176.2 L 367.8643 143.8 L 449.7314 176.2 L 538.7758 187 L 449.7314 187 L 367.8643 187 L 285.9973 187 L 204.1302 187 L 122.0389 187 L 40.1718 187 Z" fill="#3e6180" fill-opacity="0.7" stroke="none">
</path>
</g>
<g clip-path="url(#zr2602-clip-1)">
<path d="M 40.1718 176.2 L 122.0389 187 L 204.1302 176.2 L 285.9973 143.8 L 367.8643 133 L 449.7314 165.4 L 538.7758 165.4 L 538.7758 187 L 449.7314 176.2 L 367.8643 143.8 L 285.9973 176.2 L 204.1302 187 L 122.0389 187 L 40.1718 176.2 Z" fill="#5492c4" fill-opacity="0.7" stroke="none">
</path>
</g>
<g clip-path="url(#zr2602-clip-2)">
<path d="M 40.1718 176.2 L 122.0389 187 L 204.1302 165.4 L 285.9973 111.4 L 367.8643 89.8 L 449.7314 122.2 L 538.7758 133 L 538.7758 165.4 L 449.7314 165.4 L 367.8643 133 L 285.9973 143.8 L 204.1302 176.2 L 122.0389 187 L 40.1718 176.2 Z" fill="#91c0e6" fill-opacity="0.7" stroke="none">
</path>
</g>
<g clip-path="url(#zr2602-clip-3)">
<path d="M 40.1718 176.2 L 122.0389 187 L 204.1302 133 L 285.9973 100.6 L 367.8643 68.2 L 449.7314 122.2 L 538.7758 122.2 L 538.7758 133 L 449.7314 122.2 L 367.8643 89.8 L 285.9973 111.4 L 204.1302 165.4 L 122.0389 187 L 40.1718 176.2 Z" fill="#b1b7bd" fill-opacity="0.7" stroke="none">
</path>
</g>
<g clip-path="url(#zr2602-clip-4)">
<path d="M 40.1718 176.2 L 122.0389 187 L 204.1302 133 L 285.9973 100.6 L 367.8643 68.2 L 449.7314 111.4 L 538.7758 122.2 L 449.7314 122.2 L 367.8643 68.2 L 285.9973 100.6 L 204.1302 133 L 122.0389 187 L 40.1718 176.2 Z" fill="#923d59" fill-opacity="0.7" stroke="none">
</path>
</g>
<g clip-path="url(#zr2602-clip-5)">
<path d="M 40.1718 176.2 L 122.0389 187 L 204.1302 133 L 285.9973 100.6 L 367.8643 46.6 L 449.7314 111.4 L 538.7758 89.8 L 538.7758 122.2 L 449.7314 111.4 L 367.8643 68.2 L 285.9973 100.6 L 204.1302 133 L 122.0389 187 L 40.1718 176.2 Z" fill="#488f96" fill-opacity="0.7" stroke="none">
</path>
</g>
<g clip-path="url(#zr2602-clip-0)">
<path d="M 40.1718 176.2 L 122.0389 187 L 204.1302 187 L 285.9973 176.2 L 367.8643 143.8 L 449.7314 176.2 L 538.7758 187" fill="none" stroke="#3e6180" stroke-width="1.5" paint-order="fill" stroke-opacity="1" stroke-dasharray="none" stroke-linecap="butt" stroke-linejoin="bevel" stroke-miterlimit="10">
</path>
</g>
<g clip-path="url(#zr2602-clip-1)">
<path d="M 40.1718 176.2 L 122.0389 187 L 204.1302 176.2 L 285.9973 143.8 L 367.8643 133 L 449.7314 165.4 L 538.7758 165.4" fill="none" stroke="#5492c4" stroke-width="1.5" paint-order="fill" stroke-opacity="1" stroke-dasharray="none" stroke-linecap="butt" stroke-linejoin="bevel" stroke-miterlimit="10">
</path>
</g>
<g clip-path="url(#zr2602-clip-2)">
<path d="M 40.1718 176.2 L 122.0389 187 L 204.1302 165.4 L 285.9973 111.4 L 367.8643 89.8 L 449.7314 122.2 L 538.7758 133" fill="none" stroke="#91c0e6" stroke-width="1.5" paint-order="fill" stroke-opacity="1" stroke-dasharray="none" stroke-linecap="butt" stroke-linejoin="bevel" stroke-miterlimit="10">
</path>
</g>
<g clip-path="url(#zr2602-clip-3)">
<path d="M 40.1718 176.2 L 122.0389 187 L 204.1302 133 L 285.9973 100.6 L 367.8643 68.2 L 449.7314 122.2 L 538.7758 122.2" fill="none" stroke="#b1b7bd" stroke-width="1.5" paint-order="fill" stroke-opacity="1" stroke-dasharray="none" stroke-linecap="butt" stroke-linejoin="bevel" stroke-miterlimit="10">
</path>
</g>
<g clip-path="url(#zr2602-clip-4)">
<path d="M 40.1718 176.2 L 122.0389 187 L 204.1302 133 L 285.9973 100.6 L 367.8643 68.2 L 449.7314 111.4 L 538.7758 122.2" fill="none" stroke="#923d59" stroke-width="1.5" paint-order="fill" stroke-opacity="1" stroke-dasharray="none" stroke-linecap="butt" stroke-linejoin="bevel" stroke-miterlimit="10">
</path>
</g>
<g clip-path="url(#zr2602-clip-5)">
<path d="M 40.1718 176.2 L 122.0389 187 L 204.1302 133 L 285.9973 100.6 L 367.8643 46.6 L 449.7314 111.4 L 538.7758 89.8" fill="none" stroke="#488f96" stroke-width="1.5" paint-order="fill" stroke-opacity="1" stroke-dasharray="none" stroke-linecap="butt" stroke-linejoin="bevel" stroke-miterlimit="10">
</path>
</g>
<path d="M 1 0 A 1 1 0 1 1 1 -0.0001" fill="#3e6180" fill-opacity="1" stroke="none" transform="matrix(0,0,0,0,40.1718,176.2)">
</path>
<path d="M 1 0 A 1 1 0 1 1 1 -0.0001" fill="#3e6180" fill-opacity="1" stroke="none" transform="matrix(0,0,0,0,122.0389,187)">
</path>
<path d="M 1 0 A 1 1 0 1 1 1 -0.0001" fill="#3e6180" fill-opacity="1" stroke="none" transform="matrix(0,0,0,0,204.1302,187)">
</path>
<path d="M 1 0 A 1 1 0 1 1 1 -0.0001" fill="#3e6180" fill-opacity="1" stroke="none" transform="matrix(0,0,0,0,285.9973,176.2)">
</path>
<path d="M 1 0 A 1 1 0 1 1 1 -0.0001" fill="#3e6180" fill-opacity="1" stroke="none" transform="matrix(0,0,0,0,367.8643,143.8)">
</path>
<path d="M 1 0 A 1 1 0 1 1 1 -0.0001" fill="#3e6180" fill-opacity="1" stroke="none" transform="matrix(0,0,0,0,449.7314,176.2)">
</path>
<path d="M 1 0 A 1 1 0 1 1 1 -0.0001" fill="#3e6180" fill-opacity="1" stroke="none" transform="matrix(0,0,0,0,538.7758,187)">
</path>
<path d="M 1 0 A 1 1 0 1 1 1 -0.0001" fill="#5492c4" fill-opacity="1" stroke="none" transform="matrix(0,0,0,0,40.1718,176.2)">
</path>
<path d="M 1 0 A 1 1 0 1 1 1 -0.0001" fill="#5492c4" fill-opacity="1" stroke="none" transform="matrix(0,0,0,0,122.0389,187)">
</path>
<path d="M 1 0 A 1 1 0 1 1 1 -0.0001" fill="#5492c4" fill-opacity="1" stroke="none" transform="matrix(0,0,0,0,204.1302,176.2)">
</path>
<path d="M 1 0 A 1 1 0 1 1 1 -0.0001" fill="#5492c4" fill-opacity="1" stroke="none" transform="matrix(0,0,0,0,285.9973,143.8)">
</path>
<path d="M 1 0 A 1 1 0 1 1 1 -0.0001" fill="#5492c4" fill-opacity="1" stroke="none" transform="matrix(0,0,0,0,367.8643,133)">
</path>
<path d="M 1 0 A 1 1 0 1 1 1 -0.0001" fill="#5492c4" fill-opacity="1" stroke="none" transform="matrix(0,0,0,0,449.7314,165.4)">
</path>
<path d="M 1 0 A 1 1 0 1 1 1 -0.0001" fill="#5492c4" fill-opacity="1" stroke="none" transform="matrix(0,0,0,0,538.7758,165.4)">
</path>
<path d="M 1 0 A 1 1 0 1 1 1 -0.0001" fill="#91c0e6" fill-opacity="1" stroke="none" transform="matrix(0,0,0,0,40.1718,176.2)">
</path>
<path d="M 1 0 A 1 1 0 1 1 1 -0.0001" fill="#91c0e6" fill-opacity="1" stroke="none" transform="matrix(0,0,0,0,122.0389,187)">
</path>
<path d="M 1 0 A 1 1 0 1 1 1 -0.0001" fill="#91c0e6" fill-opacity="1" stroke="none" transform="matrix(0,0,0,0,204.1302,165.4)">
</path>
<path d="M 1 0 A 1 1 0 1 1 1 -0.0001" fill="#91c0e6" fill-opacity="1" stroke="none" transform="matrix(0,0,0,0,285.9973,111.4)">
</path>
<path d="M 1 0 A 1 1 0 1 1 1 -0.0001" fill="#91c0e6" fill-opacity="1" stroke="none" transform="matrix(0,0,0,0,367.8643,89.8)">
</path>
<path d="M 1 0 A 1 1 0 1 1 1 -0.0001" fill="#91c0e6" fill-opacity="1" stroke="none" transform="matrix(0,0,0,0,449.7314,122.2)">
</path>
<path d="M 1 0 A 1 1 0 1 1 1 -0.0001" fill="#91c0e6" fill-opacity="1" stroke="none" transform="matrix(0,0,0,0,538.7758,133)">
</path>
<path d="M 1 0 A 1 1 0 1 1 1 -0.0001" fill="#b1b7bd" fill-opacity="1" stroke="none" transform="matrix(0,0,0,0,40.1718,176.2)">
</path>
<path d="M 1 0 A 1 1 0 1 1 1 -0.0001" fill="#b1b7bd" fill-opacity="1" stroke="none" transform="matrix(0,0,0,0,122.0389,187)">
</path>
<path d="M 1 0 A 1 1 0 1 1 1 -0.0001" fill="#b1b7bd" fill-opacity="1" stroke="none" transform="matrix(0,0,0,0,204.1302,133)">
</path>
<path d="M 1 0 A 1 1 0 1 1 1 -0.0001" fill="#b1b7bd" fill-opacity="1" stroke="none" transform="matrix(0,0,0,0,285.9973,100.6)">
</path>
<path d="M 1 0 A 1 1 0 1 1 1 -0.0001" fill="#b1b7bd" fill-opacity="1" stroke="none" transform="matrix(0,0,0,0,367.8643,68.2)">
</path>
<path d="M 1 0 A 1 1 0 1 1 1 -0.0001" fill="#b1b7bd" fill-opacity="1" stroke="none" transform="matrix(0,0,0,0,449.7314,122.2)">
</path>
<path d="M 1 0 A 1 1 0 1 1 1 -0.0001" fill="#b1b7bd" fill-opacity="1" stroke="none" transform="matrix(0,0,0,0,538.7758,122.2)">
</path>
<path d="M 1 0 A 1 1 0 1 1 1 -0.0001" fill="#923d59" fill-opacity="1" stroke="none" transform="matrix(0,0,0,0,40.1718,176.2)">
</path>
<path d="M 1 0 A 1 1 0 1 1 1 -0.0001" fill="#923d59" fill-opacity="1" stroke="none" transform="matrix(0,0,0,0,122.0389,187)">
</path>
<path d="M 1 0 A 1 1 0 1 1 1 -0.0001" fill="#923d59" fill-opacity="1" stroke="none" transform="matrix(0,0,0,0,204.1302,133)">
</path>
<path d="M 1 0 A 1 1 0 1 1 1 -0.0001" fill="#923d59" fill-opacity="1" stroke="none" transform="matrix(0,0,0,0,285.9973,100.6)">
</path>
<path d="M 1 0 A 1 1 0 1 1 1 -0.0001" fill="#923d59" fill-opacity="1" stroke="none" transform="matrix(0,0,0,0,367.8643,68.2)">
</path>
<path d="M 1 0 A 1 1 0 1 1 1 -0.0001" fill="#923d59" fill-opacity="1" stroke="none" transform="matrix(0,0,0,0,449.7314,111.4)">
</path>
<path d="M 1 0 A 1 1 0 1 1 1 -0.0001" fill="#923d59" fill-opacity="1" stroke="none" transform="matrix(0,0,0,0,538.7758,122.2)">
</path>
<path d="M 1 0 A 1 1 0 1 1 1 -0.0001" fill="#488f96" fill-opacity="1" stroke="none" transform="matrix(0,0,0,0,40.1718,176.2)">
</path>
<path d="M 1 0 A 1 1 0 1 1 1 -0.0001" fill="#488f96" fill-opacity="1" stroke="none" transform="matrix(0,0,0,0,122.0389,187)">
</path>
<path d="M 1 0 A 1 1 0 1 1 1 -0.0001" fill="#488f96" fill-opacity="1" stroke="none" transform="matrix(0,0,0,0,204.1302,133)">
</path>
<path d="M 1 0 A 1 1 0 1 1 1 -0.0001" fill="#488f96" fill-opacity="1" stroke="none" transform="matrix(0,0,0,0,285.9973,100.6)">
</path>
<path d="M 1 0 A 1 1 0 1 1 1 -0.0001" fill="#488f96" fill-opacity="1" stroke="none" transform="matrix(0,0,0,0,367.8643,46.6)">
</path>
<path d="M 1 0 A 1 1 0 1 1 1 -0.0001" fill="#488f96" fill-opacity="1" stroke="none" transform="matrix(0,0,0,0,449.7314,111.4)">
</path>
<path d="M 1 0 A 1 1 0 1 1 1 -0.0001" fill="#488f96" fill-opacity="1" stroke="none" transform="matrix(0,0,0,0,538.7758,89.8)">
</path>
<path d="M 0 -0.5 L 268.8066 -0.5 L 268.8066 14.5 L 0 14.5 L 0 -0.5 Z" fill="rgb(0,0,0)" fill-opacity="0" stroke="#ccc" stroke-width="0" paint-order="fill" stroke-opacity="1" stroke-dasharray="none" stroke-linecap="butt" stroke-miterlimit="10" transform="matrix(1,0,0,1,153.5967,0.5)">
</path>
<path d="M 19.5 7 A 7 7 0 1 1 19.5 6.9993" fill="#3e6180" fill-opacity="1" stroke="none" transform="matrix(1,0,0,1,148.0967,0.5)">
</path>
<text xml:space="preserve" fill="#6E7079" fill-opacity="1" stroke="none" transform="matrix(1,0,0,1,148.0967,0.5)" dominant-baseline="central" text-anchor="start" x="23" y="7" style="font: 12px sans-serif;">NY</text>
<path d="M 19.5 7 A 7 7 0 1 1 19.5 6.9993" fill="#5492c4" fill-opacity="1" stroke="none" transform="matrix(1,0,0,1,192.2666,0.5)">
</path>
<text xml:space="preserve" fill="#6E7079" fill-opacity="1" stroke="none" transform="matrix(1,0,0,1,192.2666,0.5)" dominant-baseline="central" text-anchor="start" x="23" y="7" style="font: 12px sans-serif;">SF</text>
<path d="M 19.5 7 A 7 7 0 1 1 19.5 6.9993" fill="#91c0e6" fill-opacity="1" stroke="none" transform="matrix(1,0,0,1,235.1006,0.5)">
</path>
<text xml:space="preserve" fill="#6E7079" fill-opacity="1" stroke="none" transform="matrix(1,0,0,1,235.1006,0.5)" dominant-baseline="central" text-anchor="start" x="23" y="7" style="font: 12px sans-serif;">ATL</text>
<path d="M 19.5 7 A 7 7 0 1 1 19.5 6.9993" fill="#b1b7bd" fill-opacity="1" stroke="none" transform="matrix(1,0,0,1,283.7236,0.5)">
</path>
<text xml:space="preserve" fill="#6E7079" fill-opacity="1" stroke="none" transform="matrix(1,0,0,1,283.7236,0.5)" dominant-baseline="central" text-anchor="start" x="23" y="7" style="font: 12px sans-serif;">DAL</text>
<path d="M 19.5 7 A 7 7 0 1 1 19.5 6.9993" fill="#923d59" fill-opacity="1" stroke="none" transform="matrix(1,0,0,1,334.5674,0.5)">
</path>
<text xml:space="preserve" fill="#6E7079" fill-opacity="1" stroke="none" transform="matrix(1,0,0,1,334.5674,0.5)" dominant-baseline="central" text-anchor="start" x="23" y="7" style="font: 12px sans-serif;">KC</text>
<path d="M 19.5 7 A 7 7 0 1 1 19.5 6.9993" fill="#488f96" fill-opacity="1" stroke="none" transform="matrix(1,0,0,1,378.7373,0.5)">
</path>
<text xml:space="preserve" fill="#6E7079" fill-opacity="1" stroke="none" transform="matrix(1,0,0,1,378.7373,0.5)" dominant-baseline="central" text-anchor="start" x="23" y="7" style="font: 12px sans-serif;">CHI</text>
<path d="M 0 0 L 0 0 L 0 0 L 0 0 L 0 0 Z" fill="rgb(0,0,0)" fill-opacity="0" stroke="#ccc" stroke-width="0" paint-order="fill" stroke-opacity="1" stroke-dasharray="none" stroke-linecap="butt" stroke-miterlimit="10">
</path>
</g>
</svg>