<svg width="527" height="44" viewBox="0 0 527 44" fill="none" xmlns="http://www.w3.org/2000/svg">
<rect x="19" y="14.16" width="190" height="21.2" fill="#222222" stroke="#222222" stroke-width="16" stroke-linejoin="round"/>
<path d="M32.4453 27.6641C32.4453 27.388 32.3073 27.1719 32.0312 27.0156C31.7604 26.8542 31.3229 26.7109 30.7188 26.5859C28.7083 26.1641 27.7031 25.3099 27.7031 24.0234C27.7031 23.2734 28.013 22.6484 28.6328 22.1484C29.2578 21.6432 30.0729 21.3906 31.0781 21.3906C32.151 21.3906 33.0078 21.6432 33.6484 22.1484C34.2943 22.6536 34.6172 23.3099 34.6172 24.1172H32.3594C32.3594 23.7943 32.2552 23.5286 32.0469 23.3203C31.8385 23.1068 31.513 23 31.0703 23C30.6901 23 30.3958 23.0859 30.1875 23.2578C29.9792 23.4297 29.875 23.6484 29.875 23.9141C29.875 24.1641 29.9922 24.3672 30.2266 24.5234C30.4661 24.6745 30.8672 24.8073 31.4297 24.9219C31.9922 25.0312 32.4661 25.1562 32.8516 25.2969C34.0443 25.7344 34.6406 26.4922 34.6406 27.5703C34.6406 28.3411 34.3099 28.9661 33.6484 29.4453C32.987 29.9193 32.1328 30.1562 31.0859 30.1562C30.3776 30.1562 29.7474 30.0312 29.1953 29.7812C28.6484 29.526 28.2188 29.1797 27.9062 28.7422C27.5938 28.2995 27.4375 27.8229 27.4375 27.3125H29.5781C29.599 27.7135 29.7474 28.0208 30.0234 28.2344C30.2995 28.4479 30.6693 28.5547 31.1328 28.5547C31.5651 28.5547 31.8906 28.474 32.1094 28.3125C32.3333 28.1458 32.4453 27.9297 32.4453 27.6641ZM40.8516 23.6641C40.5443 23.6224 40.2734 23.6016 40.0391 23.6016C39.1849 23.6016 38.625 23.8906 38.3594 24.4688V30H36.1016V21.5469H38.2344L38.2969 22.5547C38.75 21.7786 39.3776 21.3906 40.1797 21.3906C40.4297 21.3906 40.6641 21.4245 40.8828 21.4922L40.8516 23.6641ZM45.3047 28.3359C45.7214 28.3359 46.0599 28.2214 46.3203 27.9922C46.5807 27.763 46.7161 27.4583 46.7266 27.0781H48.8438C48.8385 27.651 48.6823 28.1771 48.375 28.6562C48.0677 29.1302 47.6458 29.5 47.1094 29.7656C46.5781 30.026 45.9896 30.1562 45.3438 30.1562C44.1354 30.1562 43.1823 29.7734 42.4844 29.0078C41.7865 28.237 41.4375 27.1745 41.4375 25.8203V25.6719C41.4375 24.3698 41.7839 23.3307 42.4766 22.5547C43.1693 21.7786 44.1198 21.3906 45.3281 21.3906C46.3854 21.3906 47.2318 21.6927 47.8672 22.2969C48.5078 22.8958 48.8333 23.6953 48.8438 24.6953H46.7266C46.7161 24.2578 46.5807 23.9036 46.3203 23.6328C46.0599 23.3568 45.7161 23.2188 45.2891 23.2188C44.763 23.2188 44.3646 23.4115 44.0938 23.7969C43.8281 24.1771 43.6953 24.7969 43.6953 25.6562V25.8906C43.6953 26.7604 43.8281 27.3854 44.0938 27.7656C44.3594 28.1458 44.763 28.3359 45.3047 28.3359ZM50.8438 30.9766H49.1641L53.3516 18.625H55.0312L50.8438 30.9766ZM63.7266 25.8516C63.7266 27.1536 63.4297 28.1979 62.8359 28.9844C62.2474 29.7656 61.4505 30.1562 60.4453 30.1562C59.5911 30.1562 58.901 29.8594 58.375 29.2656V33.25H56.1172V21.5469H58.2109L58.2891 22.375C58.8359 21.7188 59.5495 21.3906 60.4297 21.3906C61.4714 21.3906 62.2812 21.776 62.8594 22.5469C63.4375 23.3177 63.7266 24.3802 63.7266 25.7344V25.8516ZM61.4688 25.6875C61.4688 24.901 61.3281 24.2943 61.0469 23.8672C60.7708 23.4401 60.3672 23.2266 59.8359 23.2266C59.1276 23.2266 58.6406 23.4974 58.375 24.0391V27.5C58.651 28.0573 59.1432 28.3359 59.8516 28.3359C60.9297 28.3359 61.4688 27.4531 61.4688 25.6875ZM70.0312 30C69.9271 29.7969 69.8516 29.5443 69.8047 29.2422C69.2578 29.8516 68.5469 30.1562 67.6719 30.1562C66.8438 30.1562 66.1562 29.9167 65.6094 29.4375C65.0677 28.9583 64.7969 28.3542 64.7969 27.625C64.7969 26.7292 65.1276 26.0417 65.7891 25.5625C66.4557 25.0833 67.4167 24.8411 68.6719 24.8359H69.7109V24.3516C69.7109 23.9609 69.6094 23.6484 69.4062 23.4141C69.2083 23.1797 68.8932 23.0625 68.4609 23.0625C68.0807 23.0625 67.7812 23.1536 67.5625 23.3359C67.349 23.5182 67.2422 23.7682 67.2422 24.0859H64.9844C64.9844 23.5964 65.1354 23.1432 65.4375 22.7266C65.7396 22.3099 66.1667 21.9844 66.7188 21.75C67.2708 21.5104 67.8906 21.3906 68.5781 21.3906C69.6198 21.3906 70.4453 21.6536 71.0547 22.1797C71.6693 22.7005 71.9766 23.4349 71.9766 24.3828V28.0469C71.9818 28.849 72.0938 29.4557 72.3125 29.8672V30H70.0312ZM68.1641 28.4297C68.4974 28.4297 68.8047 28.3568 69.0859 28.2109C69.3672 28.0599 69.5755 27.8594 69.7109 27.6094V26.1562H68.8672C67.737 26.1562 67.1354 26.5469 67.0625 27.3281L67.0547 27.4609C67.0547 27.7422 67.1536 27.974 67.3516 28.1562C67.5495 28.3385 67.8203 28.4297 68.1641 28.4297ZM73.3828 25.7109C73.3828 24.4141 73.6901 23.3698 74.3047 22.5781C74.9245 21.7865 75.7578 21.3906 76.8047 21.3906C77.7318 21.3906 78.4531 21.7083 78.9688 22.3438L79.0625 21.5469H81.1094V29.7188C81.1094 30.4583 80.9401 31.1016 80.6016 31.6484C80.2682 32.1953 79.7969 32.612 79.1875 32.8984C78.5781 33.1849 77.8646 33.3281 77.0469 33.3281C76.4271 33.3281 75.8229 33.2031 75.2344 32.9531C74.6458 32.7083 74.2005 32.3906 73.8984 32L74.8984 30.625C75.4609 31.2552 76.1432 31.5703 76.9453 31.5703C77.5443 31.5703 78.0104 31.4089 78.3438 31.0859C78.6771 30.7682 78.8438 30.3151 78.8438 29.7266V29.2734C78.3229 29.862 77.638 30.1562 76.7891 30.1562C75.7734 30.1562 74.9505 29.7604 74.3203 28.9688C73.6953 28.1719 73.3828 27.1172 73.3828 25.8047V25.7109ZM75.6406 25.875C75.6406 26.6406 75.7943 27.2422 76.1016 27.6797C76.4089 28.112 76.8307 28.3281 77.3672 28.3281C78.0547 28.3281 78.5469 28.0703 78.8438 27.5547V24C78.5417 23.4844 78.0547 23.2266 77.3828 23.2266C76.8411 23.2266 76.4141 23.4479 76.1016 23.8906C75.7943 24.3333 75.6406 24.9948 75.6406 25.875ZM86.7422 30.1562C85.5026 30.1562 84.4922 29.776 83.7109 29.0156C82.9349 28.2552 82.5469 27.2422 82.5469 25.9766V25.7578C82.5469 24.9089 82.7109 24.151 83.0391 23.4844C83.3672 22.8125 83.8307 22.2969 84.4297 21.9375C85.0339 21.5729 85.7214 21.3906 86.4922 21.3906C87.6484 21.3906 88.5573 21.7552 89.2188 22.4844C89.8854 23.2135 90.2188 24.2474 90.2188 25.5859V26.5078H84.8359C84.9089 27.0599 85.1276 27.5026 85.4922 27.8359C85.862 28.1693 86.3281 28.3359 86.8906 28.3359C87.7604 28.3359 88.4401 28.0208 88.9297 27.3906L90.0391 28.6328C89.7005 29.112 89.2422 29.487 88.6641 29.7578C88.0859 30.0234 87.4453 30.1562 86.7422 30.1562ZM86.4844 23.2188C86.0365 23.2188 85.6719 23.3698 85.3906 23.6719C85.1146 23.974 84.9375 24.4062 84.8594 24.9688H88V24.7891C87.9896 24.2891 87.8542 23.9036 87.5938 23.6328C87.3333 23.3568 86.9635 23.2188 86.4844 23.2188ZM96.0859 27.6641C96.0859 27.388 95.9479 27.1719 95.6719 27.0156C95.401 26.8542 94.9635 26.7109 94.3594 26.5859C92.349 26.1641 91.3438 25.3099 91.3438 24.0234C91.3438 23.2734 91.6536 22.6484 92.2734 22.1484C92.8984 21.6432 93.7135 21.3906 94.7188 21.3906C95.7917 21.3906 96.6484 21.6432 97.2891 22.1484C97.9349 22.6536 98.2578 23.3099 98.2578 24.1172H96C96 23.7943 95.8958 23.5286 95.6875 23.3203C95.4792 23.1068 95.1536 23 94.7109 23C94.3307 23 94.0365 23.0859 93.8281 23.2578C93.6198 23.4297 93.5156 23.6484 93.5156 23.9141C93.5156 24.1641 93.6328 24.3672 93.8672 24.5234C94.1068 24.6745 94.5078 24.8073 95.0703 24.9219C95.6328 25.0312 96.1068 25.1562 96.4922 25.2969C97.6849 25.7344 98.2812 26.4922 98.2812 27.5703C98.2812 28.3411 97.9505 28.9661 97.2891 29.4453C96.6276 29.9193 95.7734 30.1562 94.7266 30.1562C94.0182 30.1562 93.388 30.0312 92.8359 29.7812C92.2891 29.526 91.8594 29.1797 91.5469 28.7422C91.2344 28.2995 91.0781 27.8229 91.0781 27.3125H93.2188C93.2396 27.7135 93.388 28.0208 93.6641 28.2344C93.9401 28.4479 94.3099 28.5547 94.7734 28.5547C95.2057 28.5547 95.5312 28.474 95.75 28.3125C95.974 28.1458 96.0859 27.9297 96.0859 27.6641ZM100.453 30.9766H98.7734L102.961 18.625H104.641L100.453 30.9766ZM106.273 30V23.2031H105.016V21.5469H106.273V21.1562C106.284 20.0938 106.609 19.276 107.25 18.7031C107.896 18.125 108.805 17.8359 109.977 17.8359C110.68 17.8359 111.534 17.9896 112.539 18.2969L112.211 20.1641C111.701 20.013 111.305 19.9167 111.023 19.875C110.742 19.8281 110.44 19.8047 110.117 19.8047C109.065 19.8047 108.539 20.2708 108.539 21.2031V21.5469H110.203V23.2031H108.539V30H106.273ZM113.594 30H111.328V21.5469H113.594V30ZM120.211 23.6641C119.904 23.6224 119.633 23.6016 119.398 23.6016C118.544 23.6016 117.984 23.8906 117.719 24.4688V30H115.461V21.5469H117.594L117.656 22.5547C118.109 21.7786 118.737 21.3906 119.539 21.3906C119.789 21.3906 120.023 21.4245 120.242 21.4922L120.211 23.6641ZM125.883 27.6641C125.883 27.388 125.745 27.1719 125.469 27.0156C125.198 26.8542 124.76 26.7109 124.156 26.5859C122.146 26.1641 121.141 25.3099 121.141 24.0234C121.141 23.2734 121.451 22.6484 122.07 22.1484C122.695 21.6432 123.51 21.3906 124.516 21.3906C125.589 21.3906 126.445 21.6432 127.086 22.1484C127.732 22.6536 128.055 23.3099 128.055 24.1172H125.797C125.797 23.7943 125.693 23.5286 125.484 23.3203C125.276 23.1068 124.951 23 124.508 23C124.128 23 123.833 23.0859 123.625 23.2578C123.417 23.4297 123.312 23.6484 123.312 23.9141C123.312 24.1641 123.43 24.3672 123.664 24.5234C123.904 24.6745 124.305 24.8073 124.867 24.9219C125.43 25.0312 125.904 25.1562 126.289 25.2969C127.482 25.7344 128.078 26.4922 128.078 27.5703C128.078 28.3411 127.747 28.9661 127.086 29.4453C126.424 29.9193 125.57 30.1562 124.523 30.1562C123.815 30.1562 123.185 30.0312 122.633 29.7812C122.086 29.526 121.656 29.1797 121.344 28.7422C121.031 28.2995 120.875 27.8229 120.875 27.3125H123.016C123.036 27.7135 123.185 28.0208 123.461 28.2344C123.737 28.4479 124.107 28.5547 124.57 28.5547C125.003 28.5547 125.328 28.474 125.547 28.3125C125.771 28.1458 125.883 27.9297 125.883 27.6641ZM132.242 19.4688V21.5469H133.688V23.2031H132.242V27.4219C132.242 27.7344 132.302 27.9583 132.422 28.0938C132.542 28.2292 132.771 28.2969 133.109 28.2969C133.359 28.2969 133.581 28.2786 133.773 28.2422V29.9531C133.331 30.0885 132.875 30.1562 132.406 30.1562C130.823 30.1562 130.016 29.3568 129.984 27.7578V23.2031H128.75V21.5469H129.984V19.4688H132.242ZM134.594 25.6953C134.594 24.3672 134.888 23.3177 135.477 22.5469C136.07 21.776 136.883 21.3906 137.914 21.3906C138.82 21.3906 139.542 21.737 140.078 22.4297L140.227 21.5469H142.211V33.25H139.945V29.2734C139.424 29.862 138.742 30.1562 137.898 30.1562C136.893 30.1562 136.091 29.7656 135.492 28.9844C134.893 28.2031 134.594 27.1068 134.594 25.6953ZM136.852 25.8594C136.852 26.6667 136.992 27.2812 137.273 27.7031C137.56 28.125 137.961 28.3359 138.477 28.3359C139.169 28.3359 139.659 28.0599 139.945 27.5078V24.0156C139.664 23.4844 139.18 23.2188 138.492 23.2188C137.971 23.2188 137.568 23.4297 137.281 23.8516C136.995 24.2734 136.852 24.9427 136.852 25.8594ZM149.055 29.1406C148.497 29.8177 147.727 30.1562 146.742 30.1562C145.836 30.1562 145.143 29.8958 144.664 29.375C144.19 28.8542 143.948 28.0911 143.938 27.0859V21.5469H146.195V27.0078C146.195 27.888 146.596 28.3281 147.398 28.3281C148.164 28.3281 148.69 28.0625 148.977 27.5312V21.5469H151.242V30H149.117L149.055 29.1406ZM156.836 30.1562C155.596 30.1562 154.586 29.776 153.805 29.0156C153.029 28.2552 152.641 27.2422 152.641 25.9766V25.7578C152.641 24.9089 152.805 24.151 153.133 23.4844C153.461 22.8125 153.924 22.2969 154.523 21.9375C155.128 21.5729 155.815 21.3906 156.586 21.3906C157.742 21.3906 158.651 21.7552 159.312 22.4844C159.979 23.2135 160.312 24.2474 160.312 25.5859V26.5078H154.93C155.003 27.0599 155.221 27.5026 155.586 27.8359C155.956 28.1693 156.422 28.3359 156.984 28.3359C157.854 28.3359 158.534 28.0208 159.023 27.3906L160.133 28.6328C159.794 29.112 159.336 29.487 158.758 29.7578C158.18 30.0234 157.539 30.1562 156.836 30.1562ZM156.578 23.2188C156.13 23.2188 155.766 23.3698 155.484 23.6719C155.208 23.974 155.031 24.4062 154.953 24.9688H158.094V24.7891C158.083 24.2891 157.948 23.9036 157.688 23.6328C157.427 23.3568 157.057 23.2188 156.578 23.2188ZM166.352 23.6641C166.044 23.6224 165.773 23.6016 165.539 23.6016C164.685 23.6016 164.125 23.8906 163.859 24.4688V30H161.602V21.5469H163.734L163.797 22.5547C164.25 21.7786 164.878 21.3906 165.68 21.3906C165.93 21.3906 166.164 21.4245 166.383 21.4922L166.352 23.6641ZM170.742 26.8047L172.305 21.5469H174.727L171.328 31.3125L171.141 31.7578C170.635 32.862 169.802 33.4141 168.641 33.4141C168.312 33.4141 167.979 33.3646 167.641 33.2656V31.5547L167.984 31.5625C168.411 31.5625 168.729 31.4974 168.938 31.3672C169.151 31.237 169.318 31.0208 169.438 30.7188L169.703 30.0234L166.742 21.5469H169.172L170.742 26.8047ZM174.422 28.8906C174.422 28.5312 174.542 28.2396 174.781 28.0156C175.026 27.7917 175.331 27.6797 175.695 27.6797C176.065 27.6797 176.37 27.7917 176.609 28.0156C176.854 28.2396 176.977 28.5312 176.977 28.8906C176.977 29.2448 176.857 29.5339 176.617 29.7578C176.378 29.9766 176.07 30.0859 175.695 30.0859C175.326 30.0859 175.021 29.9766 174.781 29.7578C174.542 29.5339 174.422 29.2448 174.422 28.8906ZM181.078 21.5469L181.148 22.4922C181.747 21.7578 182.557 21.3906 183.578 21.3906C184.667 21.3906 185.414 21.8203 185.82 22.6797C186.414 21.8203 187.26 21.3906 188.359 21.3906C189.276 21.3906 189.958 21.6589 190.406 22.1953C190.854 22.7266 191.078 23.5286 191.078 24.6016V30H188.812V24.6094C188.812 24.1302 188.719 23.7812 188.531 23.5625C188.344 23.3385 188.013 23.2266 187.539 23.2266C186.862 23.2266 186.393 23.5495 186.133 24.1953L186.141 30H183.883V24.6172C183.883 24.1276 183.786 23.7734 183.594 23.5547C183.401 23.3359 183.073 23.2266 182.609 23.2266C181.969 23.2266 181.505 23.4922 181.219 24.0234V30H178.961V21.5469H181.078ZM192.469 25.7109C192.469 24.3932 192.763 23.3438 193.352 22.5625C193.945 21.7812 194.755 21.3906 195.781 21.3906C196.604 21.3906 197.284 21.6979 197.82 22.3125V18H200.086V30H198.047L197.938 29.1016C197.375 29.8047 196.651 30.1562 195.766 30.1562C194.771 30.1562 193.971 29.7656 193.367 28.9844C192.768 28.1979 192.469 27.1068 192.469 25.7109ZM194.727 25.875C194.727 26.6667 194.865 27.2734 195.141 27.6953C195.417 28.1172 195.818 28.3281 196.344 28.3281C197.042 28.3281 197.534 28.0339 197.82 27.4453V24.1094C197.539 23.5208 197.052 23.2266 196.359 23.2266C195.271 23.2266 194.727 24.1094 194.727 25.875Z" fill="white"/>
<rect x="300" y="14.16" width="204" height="21.2" fill="#E9E9E9" stroke="#E9E9E9" stroke-width="16" stroke-linejoin="round"/>
<path d="M318.664 30H317.219V18H318.664V30ZM320.602 25.6953C320.602 24.8672 320.763 24.1224 321.086 23.4609C321.414 22.7995 321.867 22.2891 322.445 21.9297C323.029 21.5703 323.693 21.3906 324.438 21.3906C325.589 21.3906 326.518 21.7891 327.227 22.5859C327.94 23.3828 328.297 24.4427 328.297 25.7656V25.8672C328.297 26.6901 328.138 27.4297 327.82 28.0859C327.508 28.737 327.057 29.2448 326.469 29.6094C325.885 29.974 325.214 30.1562 324.453 30.1562C323.307 30.1562 322.378 29.7578 321.664 28.9609C320.956 28.1641 320.602 27.1094 320.602 25.7969V25.6953ZM322.055 25.8672C322.055 26.8047 322.271 27.5573 322.703 28.125C323.141 28.6927 323.724 28.9766 324.453 28.9766C325.188 28.9766 325.771 28.6901 326.203 28.1172C326.635 27.5391 326.852 26.7318 326.852 25.6953C326.852 24.7682 326.63 24.0182 326.188 23.4453C325.75 22.8672 325.167 22.5781 324.438 22.5781C323.724 22.5781 323.148 22.862 322.711 23.4297C322.273 23.9974 322.055 24.8099 322.055 25.8672ZM333.5 28.9766C334.016 28.9766 334.466 28.8203 334.852 28.5078C335.237 28.1953 335.451 27.8047 335.492 27.3359H336.859C336.833 27.8203 336.667 28.2812 336.359 28.7188C336.052 29.1562 335.641 29.5052 335.125 29.7656C334.615 30.026 334.073 30.1562 333.5 30.1562C332.349 30.1562 331.432 29.7734 330.75 29.0078C330.073 28.237 329.734 27.1849 329.734 25.8516V25.6094C329.734 24.7865 329.885 24.0547 330.188 23.4141C330.49 22.7734 330.922 22.276 331.484 21.9219C332.052 21.5677 332.721 21.3906 333.492 21.3906C334.44 21.3906 335.227 21.6745 335.852 22.2422C336.482 22.8099 336.818 23.5469 336.859 24.4531H335.492C335.451 23.9062 335.242 23.4583 334.867 23.1094C334.497 22.7552 334.039 22.5781 333.492 22.5781C332.758 22.5781 332.188 22.8438 331.781 23.375C331.38 23.901 331.18 24.6641 331.18 25.6641V25.9375C331.18 26.9115 331.38 27.6615 331.781 28.1875C332.182 28.7135 332.755 28.9766 333.5 28.9766ZM343.703 30C343.62 29.8333 343.552 29.5365 343.5 29.1094C342.828 29.8073 342.026 30.1562 341.094 30.1562C340.26 30.1562 339.576 29.9219 339.039 29.4531C338.508 28.9792 338.242 28.3802 338.242 27.6562C338.242 26.776 338.576 26.0938 339.242 25.6094C339.914 25.1198 340.857 24.875 342.07 24.875H343.477V24.2109C343.477 23.7057 343.326 23.3047 343.023 23.0078C342.721 22.7057 342.276 22.5547 341.688 22.5547C341.172 22.5547 340.74 22.6849 340.391 22.9453C340.042 23.2057 339.867 23.5208 339.867 23.8906H338.414C338.414 23.4688 338.562 23.0625 338.859 22.6719C339.161 22.276 339.568 21.9635 340.078 21.7344C340.594 21.5052 341.159 21.3906 341.773 21.3906C342.747 21.3906 343.51 21.6354 344.062 22.125C344.615 22.6094 344.901 23.2786 344.922 24.1328V28.0234C344.922 28.7995 345.021 29.4167 345.219 29.875V30H343.703ZM341.305 28.8984C341.758 28.8984 342.188 28.7812 342.594 28.5469C343 28.3125 343.294 28.0078 343.477 27.6328V25.8984H342.344C340.573 25.8984 339.688 26.4167 339.688 27.4531C339.688 27.9062 339.839 28.2604 340.141 28.5156C340.443 28.7708 340.831 28.8984 341.305 28.8984ZM348.758 30H347.312V18H348.758V30ZM352.523 22.5703C353.164 21.7839 353.997 21.3906 355.023 21.3906C356.81 21.3906 357.711 22.3984 357.727 24.4141V30H356.281V24.4062C356.276 23.7969 356.135 23.3464 355.859 23.0547C355.589 22.763 355.164 22.6172 354.586 22.6172C354.117 22.6172 353.706 22.7422 353.352 22.9922C352.997 23.2422 352.721 23.5703 352.523 23.9766V30H351.078V18H352.523V22.5703ZM359.508 25.6953C359.508 24.8672 359.669 24.1224 359.992 23.4609C360.32 22.7995 360.773 22.2891 361.352 21.9297C361.935 21.5703 362.599 21.3906 363.344 21.3906C364.495 21.3906 365.424 21.7891 366.133 22.5859C366.846 23.3828 367.203 24.4427 367.203 25.7656V25.8672C367.203 26.6901 367.044 27.4297 366.727 28.0859C366.414 28.737 365.964 29.2448 365.375 29.6094C364.792 29.974 364.12 30.1562 363.359 30.1562C362.214 30.1562 361.284 29.7578 360.57 28.9609C359.862 28.1641 359.508 27.1094 359.508 25.7969V25.6953ZM360.961 25.8672C360.961 26.8047 361.177 27.5573 361.609 28.125C362.047 28.6927 362.63 28.9766 363.359 28.9766C364.094 28.9766 364.677 28.6901 365.109 28.1172C365.542 27.5391 365.758 26.7318 365.758 25.6953C365.758 24.7682 365.536 24.0182 365.094 23.4453C364.656 22.8672 364.073 22.5781 363.344 22.5781C362.63 22.5781 362.055 22.862 361.617 23.4297C361.18 23.9974 360.961 24.8099 360.961 25.8672ZM373.938 27.7578C373.938 27.3672 373.789 27.0651 373.492 26.8516C373.201 26.6328 372.688 26.4453 371.953 26.2891C371.224 26.1328 370.643 25.9453 370.211 25.7266C369.784 25.5078 369.466 25.2474 369.258 24.9453C369.055 24.6432 368.953 24.2839 368.953 23.8672C368.953 23.1745 369.245 22.5885 369.828 22.1094C370.417 21.6302 371.167 21.3906 372.078 21.3906C373.036 21.3906 373.812 21.638 374.406 22.1328C375.005 22.6276 375.305 23.2604 375.305 24.0312H373.852C373.852 23.6354 373.682 23.2943 373.344 23.0078C373.01 22.7214 372.589 22.5781 372.078 22.5781C371.552 22.5781 371.141 22.6927 370.844 22.9219C370.547 23.151 370.398 23.4505 370.398 23.8203C370.398 24.1693 370.536 24.4323 370.812 24.6094C371.089 24.7865 371.586 24.9557 372.305 25.1172C373.029 25.2786 373.615 25.4714 374.062 25.6953C374.51 25.9193 374.841 26.1901 375.055 26.5078C375.273 26.8203 375.383 27.2031 375.383 27.6562C375.383 28.4115 375.081 29.0182 374.477 29.4766C373.872 29.9297 373.089 30.1562 372.125 30.1562C371.448 30.1562 370.849 30.0365 370.328 29.7969C369.807 29.5573 369.398 29.224 369.102 28.7969C368.81 28.3646 368.664 27.8984 368.664 27.3984H370.109C370.135 27.8828 370.328 28.2682 370.688 28.5547C371.052 28.8359 371.531 28.9766 372.125 28.9766C372.672 28.9766 373.109 28.8672 373.438 28.6484C373.771 28.4245 373.938 28.1276 373.938 27.7578ZM379.227 19.5V21.5469H380.805V22.6641H379.227V27.9062C379.227 28.2448 379.297 28.5 379.438 28.6719C379.578 28.8385 379.818 28.9219 380.156 28.9219C380.323 28.9219 380.552 28.8906 380.844 28.8281V30C380.464 30.1042 380.094 30.1562 379.734 30.1562C379.089 30.1562 378.602 29.9609 378.273 29.5703C377.945 29.1797 377.781 28.625 377.781 27.9062V22.6641H376.242V21.5469H377.781V19.5H379.227ZM382.453 29.2422C382.453 28.9922 382.526 28.7839 382.672 28.6172C382.823 28.4505 383.047 28.3672 383.344 28.3672C383.641 28.3672 383.865 28.4505 384.016 28.6172C384.172 28.7839 384.25 28.9922 384.25 29.2422C384.25 29.4818 384.172 29.6823 384.016 29.8438C383.865 30.0052 383.641 30.0859 383.344 30.0859C383.047 30.0859 382.823 30.0052 382.672 29.8438C382.526 29.6823 382.453 29.4818 382.453 29.2422ZM382.461 22.3438C382.461 22.0938 382.534 21.8854 382.68 21.7188C382.831 21.5521 383.055 21.4688 383.352 21.4688C383.648 21.4688 383.872 21.5521 384.023 21.7188C384.18 21.8854 384.258 22.0938 384.258 22.3438C384.258 22.5833 384.18 22.7839 384.023 22.9453C383.872 23.1068 383.648 23.1875 383.352 23.1875C383.055 23.1875 382.831 23.1068 382.68 22.9453C382.534 22.7839 382.461 22.5833 382.461 22.3438Z" fill="black"/>
<path d="M388.328 23.6094H389.414C390.096 23.599 390.633 23.4193 391.023 23.0703C391.414 22.7214 391.609 22.25 391.609 21.6562C391.609 20.3229 390.945 19.6562 389.617 19.6562C388.992 19.6562 388.492 19.8359 388.117 20.1953C387.747 20.5495 387.562 21.0208 387.562 21.6094H386.117C386.117 20.7083 386.445 19.9609 387.102 19.3672C387.763 18.7682 388.602 18.4688 389.617 18.4688C390.69 18.4688 391.531 18.7526 392.141 19.3203C392.75 19.888 393.055 20.6771 393.055 21.6875C393.055 22.1823 392.893 22.6615 392.57 23.125C392.253 23.5885 391.818 23.9349 391.266 24.1641C391.891 24.362 392.372 24.6901 392.711 25.1484C393.055 25.6068 393.227 26.1667 393.227 26.8281C393.227 27.849 392.893 28.6589 392.227 29.2578C391.56 29.8568 390.693 30.1562 389.625 30.1562C388.557 30.1562 387.688 29.8672 387.016 29.2891C386.349 28.7109 386.016 27.9479 386.016 27H387.469C387.469 27.599 387.664 28.0781 388.055 28.4375C388.445 28.7969 388.969 28.9766 389.625 28.9766C390.323 28.9766 390.857 28.7943 391.227 28.4297C391.596 28.0651 391.781 27.5417 391.781 26.8594C391.781 26.1979 391.578 25.6901 391.172 25.3359C390.766 24.9818 390.18 24.7995 389.414 24.7891H388.328V23.6094ZM402.344 25.1484C402.344 26.8411 402.055 28.099 401.477 28.9219C400.898 29.7448 399.995 30.1562 398.766 30.1562C397.552 30.1562 396.654 29.7552 396.07 28.9531C395.487 28.1458 395.185 26.9427 395.164 25.3438V23.4141C395.164 21.7422 395.453 20.5 396.031 19.6875C396.609 18.875 397.516 18.4688 398.75 18.4688C399.974 18.4688 400.875 18.862 401.453 19.6484C402.031 20.4297 402.328 21.638 402.344 23.2734V25.1484ZM400.898 23.1719C400.898 21.9479 400.727 21.0573 400.383 20.5C400.039 19.9375 399.495 19.6562 398.75 19.6562C398.01 19.6562 397.471 19.9349 397.133 20.4922C396.794 21.0495 396.62 21.9062 396.609 23.0625V25.375C396.609 26.6042 396.786 27.513 397.141 28.1016C397.5 28.6849 398.042 28.9766 398.766 28.9766C399.479 28.9766 400.008 28.7005 400.352 28.1484C400.701 27.5964 400.883 26.7266 400.898 25.5391V23.1719ZM411.328 25.1484C411.328 26.8411 411.039 28.099 410.461 28.9219C409.883 29.7448 408.979 30.1562 407.75 30.1562C406.536 30.1562 405.638 29.7552 405.055 28.9531C404.471 28.1458 404.169 26.9427 404.148 25.3438V23.4141C404.148 21.7422 404.438 20.5 405.016 19.6875C405.594 18.875 406.5 18.4688 407.734 18.4688C408.958 18.4688 409.859 18.862 410.438 19.6484C411.016 20.4297 411.312 21.638 411.328 23.2734V25.1484ZM409.883 23.1719C409.883 21.9479 409.711 21.0573 409.367 20.5C409.023 19.9375 408.479 19.6562 407.734 19.6562C406.995 19.6562 406.456 19.9349 406.117 20.4922C405.779 21.0495 405.604 21.9062 405.594 23.0625V25.375C405.594 26.6042 405.771 27.513 406.125 28.1016C406.484 28.6849 407.026 28.9766 407.75 28.9766C408.464 28.9766 408.992 28.7005 409.336 28.1484C409.685 27.5964 409.867 26.7266 409.883 25.5391V23.1719ZM420.312 25.1484C420.312 26.8411 420.023 28.099 419.445 28.9219C418.867 29.7448 417.964 30.1562 416.734 30.1562C415.521 30.1562 414.622 29.7552 414.039 28.9531C413.456 28.1458 413.154 26.9427 413.133 25.3438V23.4141C413.133 21.7422 413.422 20.5 414 19.6875C414.578 18.875 415.484 18.4688 416.719 18.4688C417.943 18.4688 418.844 18.862 419.422 19.6484C420 20.4297 420.297 21.638 420.312 23.2734V25.1484ZM418.867 23.1719C418.867 21.9479 418.695 21.0573 418.352 20.5C418.008 19.9375 417.464 19.6562 416.719 19.6562C415.979 19.6562 415.44 19.9349 415.102 20.4922C414.763 21.0495 414.589 21.9062 414.578 23.0625V25.375C414.578 26.6042 414.755 27.513 415.109 28.1016C415.469 28.6849 416.01 28.9766 416.734 28.9766C417.448 28.9766 417.977 28.7005 418.32 28.1484C418.669 27.5964 418.852 26.7266 418.867 25.5391V23.1719ZM422.602 30.9766H421.359L426.109 18.625H427.344L422.602 30.9766ZM429.391 30V22.6641H428.055V21.5469H429.391V20.8281C429.391 19.8854 429.659 19.151 430.195 18.625C430.737 18.099 431.5 17.8359 432.484 17.8359C433.068 17.8359 433.805 17.9948 434.695 18.3125L434.453 19.5312C433.802 19.2708 433.182 19.1406 432.594 19.1406C431.974 19.1406 431.526 19.2812 431.25 19.5625C430.979 19.8385 430.844 20.2552 430.844 20.8125V21.5469H432.57V22.6641H430.844V30H429.391ZM435.414 30H433.961V21.5469H435.414V30ZM441.852 22.8438C441.633 22.8073 441.396 22.7891 441.141 22.7891C440.193 22.7891 439.549 23.1927 439.211 24V30H437.766V21.5469H439.172L439.195 22.5234C439.669 21.7682 440.341 21.3906 441.211 21.3906C441.492 21.3906 441.706 21.4271 441.852 21.5V22.8438ZM448.109 27.7578C448.109 27.3672 447.961 27.0651 447.664 26.8516C447.372 26.6328 446.859 26.4453 446.125 26.2891C445.396 26.1328 444.815 25.9453 444.383 25.7266C443.956 25.5078 443.638 25.2474 443.43 24.9453C443.227 24.6432 443.125 24.2839 443.125 23.8672C443.125 23.1745 443.417 22.5885 444 22.1094C444.589 21.6302 445.339 21.3906 446.25 21.3906C447.208 21.3906 447.984 21.638 448.578 22.1328C449.177 22.6276 449.477 23.2604 449.477 24.0312H448.023C448.023 23.6354 447.854 23.2943 447.516 23.0078C447.182 22.7214 446.76 22.5781 446.25 22.5781C445.724 22.5781 445.312 22.6927 445.016 22.9219C444.719 23.151 444.57 23.4505 444.57 23.8203C444.57 24.1693 444.708 24.4323 444.984 24.6094C445.26 24.7865 445.758 24.9557 446.477 25.1172C447.201 25.2786 447.786 25.4714 448.234 25.6953C448.682 25.9193 449.013 26.1901 449.227 26.5078C449.445 26.8203 449.555 27.2031 449.555 27.6562C449.555 28.4115 449.253 29.0182 448.648 29.4766C448.044 29.9297 447.26 30.1562 446.297 30.1562C445.62 30.1562 445.021 30.0365 444.5 29.7969C443.979 29.5573 443.57 29.224 443.273 28.7969C442.982 28.3646 442.836 27.8984 442.836 27.3984H444.281C444.307 27.8828 444.5 28.2682 444.859 28.5547C445.224 28.8359 445.703 28.9766 446.297 28.9766C446.844 28.9766 447.281 28.8672 447.609 28.6484C447.943 28.4245 448.109 28.1276 448.109 27.7578ZM453.398 19.5V21.5469H454.977V22.6641H453.398V27.9062C453.398 28.2448 453.469 28.5 453.609 28.6719C453.75 28.8385 453.99 28.9219 454.328 28.9219C454.495 28.9219 454.724 28.8906 455.016 28.8281V30C454.635 30.1042 454.266 30.1562 453.906 30.1562C453.26 30.1562 452.773 29.9609 452.445 29.5703C452.117 29.1797 451.953 28.625 451.953 27.9062V22.6641H450.414V21.5469H451.953V19.5H453.398ZM456.32 25.7031C456.32 24.375 456.625 23.3255 457.234 22.5547C457.844 21.7786 458.661 21.3906 459.688 21.3906C460.688 21.3906 461.477 21.7266 462.055 22.3984L462.117 21.5469H463.445V33.25H462V29.2188C461.417 29.8438 460.641 30.1562 459.672 30.1562C458.651 30.1562 457.836 29.7604 457.227 28.9688C456.622 28.1719 456.32 27.1172 456.32 25.8047V25.7031ZM457.766 25.8672C457.766 26.8359 457.969 27.5964 458.375 28.1484C458.786 28.7005 459.339 28.9766 460.031 28.9766C460.891 28.9766 461.547 28.5964 462 27.8359V23.6953C461.542 22.9505 460.891 22.5781 460.047 22.5781C459.349 22.5781 458.794 22.8568 458.383 23.4141C457.971 23.9661 457.766 24.7839 457.766 25.8672ZM470.984 29.1641C470.422 29.8255 469.596 30.1562 468.508 30.1562C467.607 30.1562 466.919 29.8958 466.445 29.375C465.977 28.849 465.74 28.0729 465.734 27.0469V21.5469H467.18V27.0078C467.18 28.2891 467.701 28.9297 468.742 28.9297C469.846 28.9297 470.581 28.5182 470.945 27.6953V21.5469H472.391V30H471.016L470.984 29.1641ZM478.102 30.1562C476.956 30.1562 476.023 29.7812 475.305 29.0312C474.586 28.276 474.227 27.2682 474.227 26.0078V25.7422C474.227 24.9036 474.385 24.1562 474.703 23.5C475.026 22.8385 475.474 22.3229 476.047 21.9531C476.625 21.5781 477.25 21.3906 477.922 21.3906C479.021 21.3906 479.875 21.7526 480.484 22.4766C481.094 23.2005 481.398 24.237 481.398 25.5859V26.1875H475.672C475.693 27.0208 475.935 27.6953 476.398 28.2109C476.867 28.7214 477.461 28.9766 478.18 28.9766C478.69 28.9766 479.122 28.8724 479.477 28.6641C479.831 28.4557 480.141 28.1797 480.406 27.8359L481.289 28.5234C480.581 29.612 479.518 30.1562 478.102 30.1562ZM477.922 22.5781C477.339 22.5781 476.849 22.7917 476.453 23.2188C476.057 23.6406 475.812 24.2344 475.719 25H479.953V24.8906C479.911 24.1562 479.714 23.5885 479.359 23.1875C479.005 22.7812 478.526 22.5781 477.922 22.5781ZM487.164 22.8438C486.945 22.8073 486.708 22.7891 486.453 22.7891C485.505 22.7891 484.862 23.1927 484.523 24V30H483.078V21.5469H484.484L484.508 22.5234C484.982 21.7682 485.654 21.3906 486.523 21.3906C486.805 21.3906 487.018 21.4271 487.164 21.5V22.8438ZM491.406 27.8828L493.375 21.5469H494.922L491.523 31.3047C490.997 32.7109 490.161 33.4141 489.016 33.4141L488.742 33.3906L488.203 33.2891V32.1172L488.594 32.1484C489.083 32.1484 489.464 32.0495 489.734 31.8516C490.01 31.6536 490.237 31.2917 490.414 30.7656L490.734 29.9062L487.719 21.5469H489.297L491.406 27.8828Z" fill="#575757"/>
<path d="M275.876 23.6891C276.429 24.0883 276.429 24.9117 275.876 25.3109L269.585 29.8512C268.924 30.3285 268 29.8559 268 29.0403V19.9597C268 19.1441 268.924 18.6715 269.585 19.1488L275.876 23.6891Z" fill="url(#paint0_linear)"/>
<path d="M233 22H269V27H233V22Z" fill="url(#paint1_linear)"/>
<defs>
<linearGradient id="paint0_linear" x1="237.5" y1="11" x2="276" y2="39.5" gradientUnits="userSpaceOnUse">
<stop stop-color="#0A6CDF"/>
<stop offset="1" stop-color="#00C92C"/>
</linearGradient>
<linearGradient id="paint1_linear" x1="237.5" y1="11" x2="276" y2="39.5" gradientUnits="userSpaceOnUse">
<stop stop-color="#0A6CDF"/>
<stop offset="1" stop-color="#00C92C"/>
</linearGradient>
</defs>
</svg>
