<svg xmlns="http://www.w3.org/2000/svg" xmlns:xlink="http://www.w3.org/1999/xlink" version="1.1" baseProfile="full" width="576" height="198" style="user-select: none; position: absolute; left: 0px; top: 0px;">
<g>
<rect width="576" height="198" x="0" y="0" id="0" fill="rgb(255,255,255)" fill-opacity="0">
</rect>
</g>
<g>
<defs>
<clipPath id="zr2812-clip-0">
<path d="M 26 9.5 L 559 9.5 L 559 172.5 L 26 172.5 L 26 9.5 Z" fill="#000" fill-opacity="1" stroke="none">
</path>
</clipPath>
</defs>
<path d="M 26.9015 172.5 L 558.72 172.5" fill="none" stroke="hsla(215, 15%, 91%, 1)" stroke-width="1" paint-order="fill" stroke-opacity="1" stroke-dasharray="none" stroke-linecap="butt" stroke-miterlimit="10">
</path>
<path d="M 26.9015 145.5 L 558.72 145.5" fill="none" stroke="hsla(215, 15%, 91%, 1)" stroke-width="1" paint-order="fill" stroke-opacity="1" stroke-dasharray="none" stroke-linecap="butt" stroke-miterlimit="10">
</path>
<path d="M 26.9015 118.5 L 558.72 118.5" fill="none" stroke="hsla(215, 15%, 91%, 1)" stroke-width="1" paint-order="fill" stroke-opacity="1" stroke-dasharray="none" stroke-linecap="butt" stroke-miterlimit="10">
</path>
<path d="M 26.9015 91.5 L 558.72 91.5" fill="none" stroke="hsla(215, 15%, 91%, 1)" stroke-width="1" paint-order="fill" stroke-opacity="1" stroke-dasharray="none" stroke-linecap="butt" stroke-miterlimit="10">
</path>
<path d="M 26.9015 64.5 L 558.72 64.5" fill="none" stroke="hsla(215, 15%, 91%, 1)" stroke-width="1" paint-order="fill" stroke-opacity="1" stroke-dasharray="none" stroke-linecap="butt" stroke-miterlimit="10">
</path>
<path d="M 26.9015 37.5 L 558.72 37.5" fill="none" stroke="hsla(215, 15%, 91%, 1)" stroke-width="1" paint-order="fill" stroke-opacity="1" stroke-dasharray="none" stroke-linecap="butt" stroke-miterlimit="10">
</path>
<path d="M 26.9015 10.5 L 558.72 10.5" fill="none" stroke="hsla(215, 15%, 91%, 1)" stroke-width="1" paint-order="fill" stroke-opacity="1" stroke-dasharray="none" stroke-linecap="butt" stroke-miterlimit="10">
</path>
<path d="M 26.9015 172.5 L 558.72 172.5" fill="none" stroke="hsla(212, 10%, 53%, 1)" stroke-width="1" paint-order="fill" stroke-opacity="1" stroke-dasharray="none" stroke-linecap="round" stroke-miterlimit="10">
</path>
<text xml:space="preserve" fill="hsla(212, 10%, 53%, 1)" fill-opacity="1" stroke="none" transform="matrix(1,0,0,1,22.9015,172)" dominant-baseline="central" text-anchor="end" x="0" y="0" style="font: 12px sans-serif;">0</text>
<text xml:space="preserve" fill="hsla(212, 10%, 53%, 1)" fill-opacity="1" stroke="none" transform="matrix(1,0,0,1,22.9015,145)" dominant-baseline="central" text-anchor="end" x="0" y="0" style="font: 12px sans-serif;">20</text>
<text xml:space="preserve" fill="hsla(212, 10%, 53%, 1)" fill-opacity="1" stroke="none" transform="matrix(1,0,0,1,22.9015,118)" dominant-baseline="central" text-anchor="end" x="0" y="0" style="font: 12px sans-serif;">40</text>
<text xml:space="preserve" fill="hsla(212, 10%, 53%, 1)" fill-opacity="1" stroke="none" transform="matrix(1,0,0,1,22.9015,91)" dominant-baseline="central" text-anchor="end" x="0" y="0" style="font: 12px sans-serif;">60</text>
<text xml:space="preserve" fill="hsla(212, 10%, 53%, 1)" fill-opacity="1" stroke="none" transform="matrix(1,0,0,1,22.9015,64)" dominant-baseline="central" text-anchor="end" x="0" y="0" style="font: 12px sans-serif;">80</text>
<text xml:space="preserve" fill="hsla(212, 10%, 53%, 1)" fill-opacity="1" stroke="none" transform="matrix(1,0,0,1,22.9015,37)" dominant-baseline="central" text-anchor="end" x="0" y="0" style="font: 12px sans-serif;">100</text>
<text xml:space="preserve" fill="hsla(212, 10%, 53%, 1)" fill-opacity="1" stroke="none" transform="matrix(1,0,0,1,22.9015,10)" dominant-baseline="central" text-anchor="end" x="0" y="0" style="font: 12px sans-serif;">120</text>
<text xml:space="preserve" fill="hsla(212, 10%, 53%, 1)" fill-opacity="1" stroke="none" transform="matrix(1,0,0,1,113.7626,178)" dominant-baseline="central" text-anchor="middle" x="0" y="6" style="font: 12px sans-serif;">1966</text>
<text xml:space="preserve" fill="hsla(212, 10%, 53%, 1)" fill-opacity="1" stroke="none" transform="matrix(1,0,0,1,203.2943,178)" dominant-baseline="central" text-anchor="middle" x="0" y="6" style="font: 12px sans-serif;">1974</text>
<text xml:space="preserve" fill="hsla(212, 10%, 53%, 1)" fill-opacity="1" stroke="none" transform="matrix(1,0,0,1,292.8261,178)" dominant-baseline="central" text-anchor="middle" x="0" y="6" style="font: 12px sans-serif;">1982</text>
<text xml:space="preserve" fill="hsla(212, 10%, 53%, 1)" fill-opacity="1" stroke="none" transform="matrix(1,0,0,1,382.3578,178)" dominant-baseline="central" text-anchor="middle" x="0" y="6" style="font: 12px sans-serif;">1990</text>
<text xml:space="preserve" fill="hsla(212, 10%, 53%, 1)" fill-opacity="1" stroke="none" transform="matrix(1,0,0,1,471.8895,178)" dominant-baseline="central" text-anchor="middle" x="0" y="6" style="font: 12px sans-serif;">1998</text>
<g clip-path="url(#zr2812-clip-0)">
<path d="M 46.5985 143.65 L 57.8129 145 L 68.9967 139.6 L 80.1805 126.1 L 91.3643 99.1 L 102.5788 131.5 L 113.7626 162.55 L 124.9464 155.8 L 136.1302 153.1 L 147.3447 158.5 L 158.5285 149.05 L 169.7123 142.3 L 180.8961 113.95 L 192.1105 96.4 L 203.2943 101.8 L 214.4781 111.25 L 225.6619 124.75 L 236.8764 104.5 L 248.0602 66.7 L 259.244 39.7 L 270.4278 46.45 L 281.6422 58.6 L 292.826 30.25 L 304.0099 62.65 L 315.1937 58.6 L 326.4081 81.55 L 337.5919 116.65 L 348.7757 138.25 L 359.9595 124.75 L 371.174 112.6 L 382.3578 93.7 L 393.5416 126.1 L 404.7254 147.7 L 415.9398 150.4 L 427.1237 162.55 L 438.3075 147.7 L 449.4913 142.3 L 460.7057 126.1 L 471.8895 120.7 L 483.0733 131.5 L 494.2571 127.45 L 505.4716 135.55 L 516.6554 140.95 L 527.8392 135.55 L 539.023 142.3 L 539.023 172 L 527.8392 172 L 516.6554 172 L 505.4716 172 L 494.2571 172 L 483.0733 172 L 471.8895 172 L 460.7057 172 L 449.4913 172 L 438.3075 172 L 427.1237 172 L 415.9398 172 L 404.7254 172 L 393.5416 172 L 382.3578 172 L 371.174 172 L 359.9595 172 L 348.7757 172 L 337.5919 172 L 326.4081 172 L 315.1937 172 L 304.0099 172 L 292.826 172 L 281.6422 172 L 270.4278 172 L 259.244 172 L 248.0602 172 L 236.8764 172 L 225.6619 172 L 214.4781 172 L 203.2943 172 L 192.1105 172 L 180.8961 172 L 169.7123 172 L 158.5285 172 L 147.3447 172 L 136.1302 172 L 124.9464 172 L 113.7626 172 L 102.5788 172 L 91.3643 172 L 80.1805 172 L 68.9967 172 L 57.8129 172 L 46.5985 172 Z" fill="hsla(207, 65%, 39%, 1)" fill-opacity="0.7" stroke="none">
</path>
<path d="M 46.5985 143.65 L 57.8129 145 L 68.9967 139.6 L 80.1805 126.1 L 91.3643 99.1 L 102.5788 131.5 L 113.7626 162.55 L 124.9464 155.8 L 136.1302 153.1 L 147.3447 158.5 L 158.5285 149.05 L 169.7123 142.3 L 180.8961 113.95 L 192.1105 96.4 L 203.2943 101.8 L 214.4781 111.25 L 225.6619 124.75 L 236.8764 104.5 L 248.0602 66.7 L 259.244 39.7 L 270.4278 46.45 L 281.6422 58.6 L 292.826 30.25 L 304.0099 62.65 L 315.1937 58.6 L 326.4081 81.55 L 337.5919 116.65 L 348.7757 138.25 L 359.9595 124.75 L 371.174 112.6 L 382.3578 93.7 L 393.5416 126.1 L 404.7254 147.7 L 415.9398 150.4 L 427.1237 162.55 L 438.3075 147.7 L 449.4913 142.3 L 460.7057 126.1 L 471.8895 120.7 L 483.0733 131.5 L 494.2571 127.45 L 505.4716 135.55 L 516.6554 140.95 L 527.8392 135.55 L 539.023 142.3" fill="none" stroke="hsla(207, 65%, 39%, 1)" stroke-width="1" paint-order="fill" stroke-opacity="1" stroke-dasharray="none" stroke-linecap="butt" stroke-linejoin="round" stroke-miterlimit="10">
</path>
</g>
<path d="M 1 0 A 1 1 0 1 1 1 -0.0001" fill="hsla(207, 65%, 39%, 1)" fill-opacity="1" stroke="none" transform="matrix(0,0,0,0,46.5985,143.65)">
</path>
<path d="M 1 0 A 1 1 0 1 1 1 -0.0001" fill="hsla(207, 65%, 39%, 1)" fill-opacity="1" stroke="none" transform="matrix(0,0,0,0,57.8129,145)">
</path>
<path d="M 1 0 A 1 1 0 1 1 1 -0.0001" fill="hsla(207, 65%, 39%, 1)" fill-opacity="1" stroke="none" transform="matrix(0,0,0,0,68.9967,139.6)">
</path>
<path d="M 1 0 A 1 1 0 1 1 1 -0.0001" fill="hsla(207, 65%, 39%, 1)" fill-opacity="1" stroke="none" transform="matrix(0,0,0,0,80.1805,126.1)">
</path>
<path d="M 1 0 A 1 1 0 1 1 1 -0.0001" fill="hsla(207, 65%, 39%, 1)" fill-opacity="1" stroke="none" transform="matrix(0,0,0,0,91.3643,99.1)">
</path>
<path d="M 1 0 A 1 1 0 1 1 1 -0.0001" fill="hsla(207, 65%, 39%, 1)" fill-opacity="1" stroke="none" transform="matrix(0,0,0,0,102.5788,131.5)">
</path>
<path d="M 1 0 A 1 1 0 1 1 1 -0.0001" fill="hsla(207, 65%, 39%, 1)" fill-opacity="1" stroke="none" transform="matrix(0,0,0,0,113.7626,162.55)">
</path>
<path d="M 1 0 A 1 1 0 1 1 1 -0.0001" fill="hsla(207, 65%, 39%, 1)" fill-opacity="1" stroke="none" transform="matrix(0,0,0,0,124.9464,155.8)">
</path>
<path d="M 1 0 A 1 1 0 1 1 1 -0.0001" fill="hsla(207, 65%, 39%, 1)" fill-opacity="1" stroke="none" transform="matrix(0,0,0,0,136.1302,153.1)">
</path>
<path d="M 1 0 A 1 1 0 1 1 1 -0.0001" fill="hsla(207, 65%, 39%, 1)" fill-opacity="1" stroke="none" transform="matrix(0,0,0,0,147.3447,158.5)">
</path>
<path d="M 1 0 A 1 1 0 1 1 1 -0.0001" fill="hsla(207, 65%, 39%, 1)" fill-opacity="1" stroke="none" transform="matrix(0,0,0,0,158.5285,149.05)">
</path>
<path d="M 1 0 A 1 1 0 1 1 1 -0.0001" fill="hsla(207, 65%, 39%, 1)" fill-opacity="1" stroke="none" transform="matrix(0,0,0,0,169.7123,142.3)">
</path>
<path d="M 1 0 A 1 1 0 1 1 1 -0.0001" fill="hsla(207, 65%, 39%, 1)" fill-opacity="1" stroke="none" transform="matrix(0,0,0,0,180.8961,113.95)">
</path>
<path d="M 1 0 A 1 1 0 1 1 1 -0.0001" fill="hsla(207, 65%, 39%, 1)" fill-opacity="1" stroke="none" transform="matrix(0,0,0,0,192.1105,96.4)">
</path>
<path d="M 1 0 A 1 1 0 1 1 1 -0.0001" fill="hsla(207, 65%, 39%, 1)" fill-opacity="1" stroke="none" transform="matrix(0,0,0,0,203.2943,101.8)">
</path>
<path d="M 1 0 A 1 1 0 1 1 1 -0.0001" fill="hsla(207, 65%, 39%, 1)" fill-opacity="1" stroke="none" transform="matrix(0,0,0,0,214.4781,111.25)">
</path>
<path d="M 1 0 A 1 1 0 1 1 1 -0.0001" fill="hsla(207, 65%, 39%, 1)" fill-opacity="1" stroke="none" transform="matrix(0,0,0,0,225.6619,124.75)">
</path>
<path d="M 1 0 A 1 1 0 1 1 1 -0.0001" fill="hsla(207, 65%, 39%, 1)" fill-opacity="1" stroke="none" transform="matrix(0,0,0,0,236.8764,104.5)">
</path>
<path d="M 1 0 A 1 1 0 1 1 1 -0.0001" fill="hsla(207, 65%, 39%, 1)" fill-opacity="1" stroke="none" transform="matrix(0,0,0,0,248.0602,66.7)">
</path>
<path d="M 1 0 A 1 1 0 1 1 1 -0.0001" fill="hsla(207, 65%, 39%, 1)" fill-opacity="1" stroke="none" transform="matrix(0,0,0,0,259.244,39.7)">
</path>
<path d="M 1 0 A 1 1 0 1 1 1 -0.0001" fill="hsla(207, 65%, 39%, 1)" fill-opacity="1" stroke="none" transform="matrix(0,0,0,0,270.4278,46.45)">
</path>
<path d="M 1 0 A 1 1 0 1 1 1 -0.0001" fill="hsla(207, 65%, 39%, 1)" fill-opacity="1" stroke="none" transform="matrix(0,0,0,0,281.6422,58.6)">
</path>
<path d="M 1 0 A 1 1 0 1 1 1 -0.0001" fill="hsla(207, 65%, 39%, 1)" fill-opacity="1" stroke="none" transform="matrix(0,0,0,0,292.826,30.25)">
</path>
<path d="M 1 0 A 1 1 0 1 1 1 -0.0001" fill="hsla(207, 65%, 39%, 1)" fill-opacity="1" stroke="none" transform="matrix(0,0,0,0,304.0099,62.65)">
</path>
<path d="M 1 0 A 1 1 0 1 1 1 -0.0001" fill="hsla(207, 65%, 39%, 1)" fill-opacity="1" stroke="none" transform="matrix(0,0,0,0,315.1937,58.6)">
</path>
<path d="M 1 0 A 1 1 0 1 1 1 -0.0001" fill="hsla(207, 65%, 39%, 1)" fill-opacity="1" stroke="none" transform="matrix(0,0,0,0,326.4081,81.55)">
</path>
<path d="M 1 0 A 1 1 0 1 1 1 -0.0001" fill="hsla(207, 65%, 39%, 1)" fill-opacity="1" stroke="none" transform="matrix(0,0,0,0,337.5919,116.65)">
</path>
<path d="M 1 0 A 1 1 0 1 1 1 -0.0001" fill="hsla(207, 65%, 39%, 1)" fill-opacity="1" stroke="none" transform="matrix(0,0,0,0,348.7757,138.25)">
</path>
<path d="M 1 0 A 1 1 0 1 1 1 -0.0001" fill="hsla(207, 65%, 39%, 1)" fill-opacity="1" stroke="none" transform="matrix(0,0,0,0,359.9595,124.75)">
</path>
<path d="M 1 0 A 1 1 0 1 1 1 -0.0001" fill="hsla(207, 65%, 39%, 1)" fill-opacity="1" stroke="none" transform="matrix(0,0,0,0,371.174,112.6)">
</path>
<path d="M 1 0 A 1 1 0 1 1 1 -0.0001" fill="hsla(207, 65%, 39%, 1)" fill-opacity="1" stroke="none" transform="matrix(0,0,0,0,382.3578,93.7)">
</path>
<path d="M 1 0 A 1 1 0 1 1 1 -0.0001" fill="hsla(207, 65%, 39%, 1)" fill-opacity="1" stroke="none" transform="matrix(0,0,0,0,393.5416,126.1)">
</path>
<path d="M 1 0 A 1 1 0 1 1 1 -0.0001" fill="hsla(207, 65%, 39%, 1)" fill-opacity="1" stroke="none" transform="matrix(0,0,0,0,404.7254,147.7)">
</path>
<path d="M 1 0 A 1 1 0 1 1 1 -0.0001" fill="hsla(207, 65%, 39%, 1)" fill-opacity="1" stroke="none" transform="matrix(0,0,0,0,415.9398,150.4)">
</path>
<path d="M 1 0 A 1 1 0 1 1 1 -0.0001" fill="hsla(207, 65%, 39%, 1)" fill-opacity="1" stroke="none" transform="matrix(0,0,0,0,427.1237,162.55)">
</path>
<path d="M 1 0 A 1 1 0 1 1 1 -0.0001" fill="hsla(207, 65%, 39%, 1)" fill-opacity="1" stroke="none" transform="matrix(0,0,0,0,438.3075,147.7)">
</path>
<path d="M 1 0 A 1 1 0 1 1 1 -0.0001" fill="hsla(207, 65%, 39%, 1)" fill-opacity="1" stroke="none" transform="matrix(0,0,0,0,449.4913,142.3)">
</path>
<path d="M 1 0 A 1 1 0 1 1 1 -0.0001" fill="hsla(207, 65%, 39%, 1)" fill-opacity="1" stroke="none" transform="matrix(0,0,0,0,460.7057,126.1)">
</path>
<path d="M 1 0 A 1 1 0 1 1 1 -0.0001" fill="hsla(207, 65%, 39%, 1)" fill-opacity="1" stroke="none" transform="matrix(0,0,0,0,471.8895,120.7)">
</path>
<path d="M 1 0 A 1 1 0 1 1 1 -0.0001" fill="hsla(207, 65%, 39%, 1)" fill-opacity="1" stroke="none" transform="matrix(0,0,0,0,483.0733,131.5)">
</path>
<path d="M 1 0 A 1 1 0 1 1 1 -0.0001" fill="hsla(207, 65%, 39%, 1)" fill-opacity="1" stroke="none" transform="matrix(0,0,0,0,494.2571,127.45)">
</path>
<path d="M 1 0 A 1 1 0 1 1 1 -0.0001" fill="hsla(207, 65%, 39%, 1)" fill-opacity="1" stroke="none" transform="matrix(0,0,0,0,505.4716,135.55)">
</path>
<path d="M 1 0 A 1 1 0 1 1 1 -0.0001" fill="hsla(207, 65%, 39%, 1)" fill-opacity="1" stroke="none" transform="matrix(0,0,0,0,516.6554,140.95)">
</path>
<path d="M 1 0 A 1 1 0 1 1 1 -0.0001" fill="hsla(207, 65%, 39%, 1)" fill-opacity="1" stroke="none" transform="matrix(0,0,0,0,527.8392,135.55)">
</path>
<path d="M 1 0 A 1 1 0 1 1 1 -0.0001" fill="hsla(207, 65%, 39%, 1)" fill-opacity="1" stroke="none" transform="matrix(0,0,0,0,539.023,142.3)">
</path>
<path d="M 0 0 L 0 0 L 0 0 L 0 0 L 0 0 Z" fill="rgb(0,0,0)" fill-opacity="0" stroke="#ccc" stroke-width="0" paint-order="fill" stroke-opacity="1" stroke-dasharray="none" stroke-linecap="butt" stroke-miterlimit="10">
</path>
</g>
</svg>