<svg xmlns="http://www.w3.org/2000/svg" xmlns:xlink="http://www.w3.org/1999/xlink" version="1.1" baseProfile="full" width="576" height="213" style="user-select: none; position: absolute; left: 0px; top: 0px;">
<g>
<rect width="576" height="213" x="0" y="0" id="0" fill="rgb(255,255,255)" fill-opacity="0">
</rect>
</g>
<g>
<defs>
<clipPath id="zr78172-clip-0">
<path d="M 25 24 L 559 24 L 559 188 L 25 188 L 25 24 Z" fill="#000" fill-opacity="1" stroke="none">
</path>
</clipPath>
</defs>
<path d="M 26.9015 187.5 L 558.72 187.5" fill="none" stroke="hsla(215, 15%, 91%, 1)" stroke-width="1" paint-order="fill" stroke-opacity="1" stroke-dasharray="none" stroke-linecap="butt" stroke-miterlimit="10">
</path>
<path d="M 26.9015 154.5 L 558.72 154.5" fill="none" stroke="hsla(215, 15%, 91%, 1)" stroke-width="1" paint-order="fill" stroke-opacity="1" stroke-dasharray="none" stroke-linecap="butt" stroke-miterlimit="10">
</path>
<path d="M 26.9015 122.5 L 558.72 122.5" fill="none" stroke="hsla(215, 15%, 91%, 1)" stroke-width="1" paint-order="fill" stroke-opacity="1" stroke-dasharray="none" stroke-linecap="butt" stroke-miterlimit="10">
</path>
<path d="M 26.9015 90.5 L 558.72 90.5" fill="none" stroke="hsla(215, 15%, 91%, 1)" stroke-width="1" paint-order="fill" stroke-opacity="1" stroke-dasharray="none" stroke-linecap="butt" stroke-miterlimit="10">
</path>
<path d="M 26.9015 57.5 L 558.72 57.5" fill="none" stroke="hsla(215, 15%, 91%, 1)" stroke-width="1" paint-order="fill" stroke-opacity="1" stroke-dasharray="none" stroke-linecap="butt" stroke-miterlimit="10">
</path>
<path d="M 26.9015 25.5 L 558.72 25.5" fill="none" stroke="hsla(215, 15%, 91%, 1)" stroke-width="1" paint-order="fill" stroke-opacity="1" stroke-dasharray="none" stroke-linecap="butt" stroke-miterlimit="10">
</path>
<path d="M 26.9015 187.5 L 558.72 187.5" fill="none" stroke="hsla(212, 10%, 53%, 1)" stroke-width="1" paint-order="fill" stroke-opacity="1" stroke-dasharray="none" stroke-linecap="round" stroke-miterlimit="10">
</path>
<text xml:space="preserve" fill="hsla(212, 10%, 53%, 1)" fill-opacity="1" stroke="none" transform="matrix(1,0,0,1,22.9015,187)" dominant-baseline="central" text-anchor="end" x="0" y="0" style="font: 12px sans-serif;">0</text>
<text xml:space="preserve" fill="hsla(212, 10%, 53%, 1)" fill-opacity="1" stroke="none" transform="matrix(1,0,0,1,22.9015,154.6)" dominant-baseline="central" text-anchor="end" x="0" y="0" style="font: 12px sans-serif;">100</text>
<text xml:space="preserve" fill="hsla(212, 10%, 53%, 1)" fill-opacity="1" stroke="none" transform="matrix(1,0,0,1,22.9015,122.2)" dominant-baseline="central" text-anchor="end" x="0" y="0" style="font: 12px sans-serif;">200</text>
<text xml:space="preserve" fill="hsla(212, 10%, 53%, 1)" fill-opacity="1" stroke="none" transform="matrix(1,0,0,1,22.9015,89.8)" dominant-baseline="central" text-anchor="end" x="0" y="0" style="font: 12px sans-serif;">300</text>
<text xml:space="preserve" fill="hsla(212, 10%, 53%, 1)" fill-opacity="1" stroke="none" transform="matrix(1,0,0,1,22.9015,57.4)" dominant-baseline="central" text-anchor="end" x="0" y="0" style="font: 12px sans-serif;">400</text>
<text xml:space="preserve" fill="hsla(212, 10%, 53%, 1)" fill-opacity="1" stroke="none" transform="matrix(1,0,0,1,22.9015,25)" dominant-baseline="central" text-anchor="end" x="0" y="0" style="font: 12px sans-serif;">500</text>
<text xml:space="preserve" fill="hsla(212, 10%, 53%, 1)" fill-opacity="1" stroke="none" transform="matrix(1,0,0,1,88.0084,193)" dominant-baseline="central" text-anchor="middle" x="0" y="6" style="font: 12px sans-serif;">2009</text>
<text xml:space="preserve" fill="hsla(212, 10%, 53%, 1)" fill-opacity="1" stroke="none" transform="matrix(1,0,0,1,162.4449,193)" dominant-baseline="central" text-anchor="middle" x="0" y="6" style="font: 12px sans-serif;">2011</text>
<text xml:space="preserve" fill="hsla(212, 10%, 53%, 1)" fill-opacity="1" stroke="none" transform="matrix(1,0,0,1,236.9834,193)" dominant-baseline="central" text-anchor="middle" x="0" y="6" style="font: 12px sans-serif;">2013</text>
<text xml:space="preserve" fill="hsla(212, 10%, 53%, 1)" fill-opacity="1" stroke="none" transform="matrix(1,0,0,1,311.4199,193)" dominant-baseline="central" text-anchor="middle" x="0" y="6" style="font: 12px sans-serif;">2015</text>
<text xml:space="preserve" fill="hsla(212, 10%, 53%, 1)" fill-opacity="1" stroke="none" transform="matrix(1,0,0,1,385.9583,193)" dominant-baseline="central" text-anchor="middle" x="0" y="6" style="font: 12px sans-serif;">2017</text>
<text xml:space="preserve" fill="hsla(212, 10%, 53%, 1)" fill-opacity="1" stroke="none" transform="matrix(1,0,0,1,460.3949,193)" dominant-baseline="central" text-anchor="middle" x="0" y="6" style="font: 12px sans-serif;">2019</text>
<text xml:space="preserve" fill="hsla(212, 10%, 53%, 1)" fill-opacity="1" stroke="none" transform="matrix(1,0,0,1,534.9333,193)" dominant-baseline="central" text-anchor="middle" x="0" y="6" style="font: 12px sans-serif;">2021</text>
<path d="M 37.8478 187 L 63.5284 187 L 63.5284 186.028 L 37.8478 186.028 L 37.8478 187 Z" fill="hsla(207, 65%, 39%, 1)" fill-opacity="1" stroke="none">
</path>
<path d="M 75.1681 187 L 100.8487 187 L 100.8487 187 L 75.1681 187 L 75.1681 187 Z" fill="hsla(207, 65%, 39%, 1)" fill-opacity="1" stroke="none">
</path>
<path d="M 112.3863 187 L 138.0669 187 L 138.0669 187 L 112.3863 187 L 112.3863 187 Z" fill="hsla(207, 65%, 39%, 1)" fill-opacity="1" stroke="none">
</path>
<path d="M 149.6046 187 L 175.2852 187 L 175.2852 174.364 L 149.6046 174.364 L 149.6046 187 Z" fill="hsla(207, 65%, 39%, 1)" fill-opacity="1" stroke="none">
</path>
<path d="M 186.8228 187 L 212.5034 187 L 212.5034 52.54 L 186.8228 52.54 L 186.8228 187 Z" fill="hsla(207, 65%, 39%, 1)" fill-opacity="1" stroke="none">
</path>
<path d="M 224.1431 187 L 249.8237 187 L 249.8237 76.84 L 224.1431 76.84 L 224.1431 187 Z" fill="hsla(207, 65%, 39%, 1)" fill-opacity="1" stroke="none">
</path>
<path d="M 261.3613 187 L 287.0419 187 L 287.0419 98.224 L 261.3613 98.224 L 261.3613 187 Z" fill="hsla(207, 65%, 39%, 1)" fill-opacity="1" stroke="none">
</path>
<path d="M 298.5796 187 L 324.2602 187 L 324.2602 135.808 L 298.5796 135.808 L 298.5796 187 Z" fill="hsla(207, 65%, 39%, 1)" fill-opacity="1" stroke="none">
</path>
<path d="M 335.7978 187 L 361.4784 187 L 361.4784 187 L 335.7978 187 L 335.7978 187 Z" fill="hsla(207, 65%, 39%, 1)" fill-opacity="1" stroke="none">
</path>
<path d="M 373.1181 187 L 398.7986 187 L 398.7986 187 L 373.1181 187 L 373.1181 187 Z" fill="hsla(207, 65%, 39%, 1)" fill-opacity="1" stroke="none">
</path>
<path d="M 410.3363 187 L 436.0169 187 L 436.0169 187 L 410.3363 187 L 410.3363 187 Z" fill="hsla(207, 65%, 39%, 1)" fill-opacity="1" stroke="none">
</path>
<path d="M 447.5546 187 L 473.2352 187 L 473.2352 187 L 447.5546 187 L 447.5546 187 Z" fill="hsla(207, 65%, 39%, 1)" fill-opacity="1" stroke="none">
</path>
<path d="M 484.7728 187 L 510.4534 187 L 510.4534 187 L 484.7728 187 L 484.7728 187 Z" fill="hsla(207, 65%, 39%, 1)" fill-opacity="1" stroke="none">
</path>
<path d="M 522.093 187 L 547.7736 187 L 547.7736 187 L 522.093 187 L 522.093 187 Z" fill="rgb(35,106,164)" fill-opacity="1" stroke="none">
</path>
<g clip-path="url(#zr78172-clip-0)">
<path d="M 50.6881 187 L 88.0084 187 L 125.2266 187 L 162.4449 187 L 199.6631 187 L 236.9834 186.352 L 274.2016 187 L 311.4199 96.604 L 348.6381 186.676 L 385.9583 187 L 423.1766 178.252 L 460.3949 181.168 L 497.6131 164.644 L 534.9333 187" fill="none" stroke="rgb(69,161,191)" stroke-width="2" paint-order="fill" stroke-opacity="1" stroke-dasharray="none" stroke-linecap="butt" stroke-linejoin="round" stroke-miterlimit="10">
</path>
</g>
<path d="M 0 0 L 201.0762 0 L 201.0762 14 L 0 14 L 0 0 Z" fill="rgb(0,0,0)" fill-opacity="0" stroke="#ccc" stroke-width="0" paint-order="fill" stroke-opacity="1" stroke-dasharray="none" stroke-linecap="butt" stroke-miterlimit="10" transform="matrix(1,0,0,1,187.4619,0)">
</path>
<path d="M 19.5 7 A 7 7 0 1 1 19.5 6.9993" fill="hsla(207, 65%, 39%, 1)" fill-opacity="1" stroke="none" transform="matrix(1,0,0,1,181.9619,0)">
</path>
<text xml:space="preserve" fill="hsla(212, 10%, 53%, 1)" fill-opacity="1" stroke="none" transform="matrix(1,0,0,1,181.9619,0)" dominant-baseline="central" text-anchor="start" x="23" y="7" style="font: 12px sans-serif;">Voluntary Recalls</text>
<path d="M 19.5 7 A 7 7 0 1 1 19.5 6.9993" fill="hsla(195, 49%, 51%, 1)" fill-opacity="1" stroke="none" transform="matrix(1,0,0,1,302.1807,0)">
</path>
<text xml:space="preserve" fill="hsla(212, 10%, 53%, 1)" fill-opacity="1" stroke="none" transform="matrix(1,0,0,1,302.1807,0)" dominant-baseline="central" text-anchor="start" x="23" y="7" style="font: 12px sans-serif;">Fda Recalls</text>
<path d="M 0 0 L 0 0 L 0 0 L 0 0 L 0 0 Z" fill="rgb(0,0,0)" fill-opacity="0" stroke="#ccc" stroke-width="0" paint-order="fill" stroke-opacity="1" stroke-dasharray="none" stroke-linecap="butt" stroke-miterlimit="10">
</path>
</g>
</svg>