<svg xmlns="http://www.w3.org/2000/svg" xmlns:xlink="http://www.w3.org/1999/xlink" version="1.1" baseProfile="full" width="576" height="249" style="user-select: none; position: absolute; left: 0px; top: 0px;">
<g>
<rect width="576" height="249" x="0" y="0" id="0" fill="rgb(255,255,255)" fill-opacity="0">
</rect>
</g>
<g>
<text xml:space="preserve" fill="#6E7079" fill-opacity="1" stroke="none" transform="matrix(1,0,0,1,558.72,232.02)" dominant-baseline="central" text-anchor="end" x="0" y="6" style="font: 12px sans-serif;">Score A →</text>
<path d="M 26.9015 209.5 L 558.72 209.5" fill="none" stroke="hsla(215, 15%, 91%, 1)" stroke-width="1" paint-order="fill" stroke-opacity="1" stroke-dasharray="none" stroke-linecap="butt" stroke-miterlimit="10">
</path>
<path d="M 26.9015 191.5 L 558.72 191.5" fill="none" stroke="hsla(215, 15%, 91%, 1)" stroke-width="1" paint-order="fill" stroke-opacity="1" stroke-dasharray="none" stroke-linecap="butt" stroke-miterlimit="10">
</path>
<path d="M 26.9015 173.5 L 558.72 173.5" fill="none" stroke="hsla(215, 15%, 91%, 1)" stroke-width="1" paint-order="fill" stroke-opacity="1" stroke-dasharray="none" stroke-linecap="butt" stroke-miterlimit="10">
</path>
<path d="M 26.9015 155.5 L 558.72 155.5" fill="none" stroke="hsla(215, 15%, 91%, 1)" stroke-width="1" paint-order="fill" stroke-opacity="1" stroke-dasharray="none" stroke-linecap="butt" stroke-miterlimit="10">
</path>
<path d="M 26.9015 137.5 L 558.72 137.5" fill="none" stroke="hsla(215, 15%, 91%, 1)" stroke-width="1" paint-order="fill" stroke-opacity="1" stroke-dasharray="none" stroke-linecap="butt" stroke-miterlimit="10">
</path>
<path d="M 26.9015 119.5 L 558.72 119.5" fill="none" stroke="hsla(215, 15%, 91%, 1)" stroke-width="1" paint-order="fill" stroke-opacity="1" stroke-dasharray="none" stroke-linecap="butt" stroke-miterlimit="10">
</path>
<path d="M 26.9015 101.5 L 558.72 101.5" fill="none" stroke="hsla(215, 15%, 91%, 1)" stroke-width="1" paint-order="fill" stroke-opacity="1" stroke-dasharray="none" stroke-linecap="butt" stroke-miterlimit="10">
</path>
<path d="M 26.9015 83.5 L 558.72 83.5" fill="none" stroke="hsla(215, 15%, 91%, 1)" stroke-width="1" paint-order="fill" stroke-opacity="1" stroke-dasharray="none" stroke-linecap="butt" stroke-miterlimit="10">
</path>
<path d="M 26.9015 65.5 L 558.72 65.5" fill="none" stroke="hsla(215, 15%, 91%, 1)" stroke-width="1" paint-order="fill" stroke-opacity="1" stroke-dasharray="none" stroke-linecap="butt" stroke-miterlimit="10">
</path>
<path d="M 26.9015 47.5 L 558.72 47.5" fill="none" stroke="hsla(215, 15%, 91%, 1)" stroke-width="1" paint-order="fill" stroke-opacity="1" stroke-dasharray="none" stroke-linecap="butt" stroke-miterlimit="10">
</path>
<path d="M 0 0 L 47.6855 0 L 47.6855 12 L 0 12 L 0 0 Z" fill="white" fill-opacity="1" stroke="none" transform="matrix(1,0,0,1,26.9015,41)">
</path>
<text xml:space="preserve" fill="hsla(212, 10%, 53%, 1)" fill-opacity="1" stroke="none" transform="matrix(1,0,0,1,26.9015,41)" dominant-baseline="central" text-anchor="start" x="0" y="6" style="font: 12px sans-serif;">Score B</text>
<path d="M 26.9015 209.5 L 558.72 209.5" fill="none" stroke="hsla(212, 10%, 53%, 1)" stroke-width="1" paint-order="fill" stroke-opacity="1" stroke-dasharray="none" stroke-linecap="round" stroke-miterlimit="10">
</path>
<text xml:space="preserve" fill="hsla(212, 10%, 53%, 1)" fill-opacity="1" stroke="none" transform="matrix(1,0,0,1,22.9015,209)" dominant-baseline="central" text-anchor="end" x="0" y="0" style="font: 12px sans-serif;">20</text>
<text xml:space="preserve" fill="hsla(212, 10%, 53%, 1)" fill-opacity="1" stroke="none" transform="matrix(1,0,0,1,22.9015,191)" dominant-baseline="central" text-anchor="end" x="0" y="0" style="font: 12px sans-serif;">30</text>
<text xml:space="preserve" fill="hsla(212, 10%, 53%, 1)" fill-opacity="1" stroke="none" transform="matrix(1,0,0,1,22.9015,173)" dominant-baseline="central" text-anchor="end" x="0" y="0" style="font: 12px sans-serif;">40</text>
<text xml:space="preserve" fill="hsla(212, 10%, 53%, 1)" fill-opacity="1" stroke="none" transform="matrix(1,0,0,1,22.9015,155)" dominant-baseline="central" text-anchor="end" x="0" y="0" style="font: 12px sans-serif;">50</text>
<text xml:space="preserve" fill="hsla(212, 10%, 53%, 1)" fill-opacity="1" stroke="none" transform="matrix(1,0,0,1,22.9015,137)" dominant-baseline="central" text-anchor="end" x="0" y="0" style="font: 12px sans-serif;">60</text>
<text xml:space="preserve" fill="hsla(212, 10%, 53%, 1)" fill-opacity="1" stroke="none" transform="matrix(1,0,0,1,22.9015,119)" dominant-baseline="central" text-anchor="end" x="0" y="0" style="font: 12px sans-serif;">70</text>
<text xml:space="preserve" fill="hsla(212, 10%, 53%, 1)" fill-opacity="1" stroke="none" transform="matrix(1,0,0,1,22.9015,101)" dominant-baseline="central" text-anchor="end" x="0" y="0" style="font: 12px sans-serif;">80</text>
<text xml:space="preserve" fill="hsla(212, 10%, 53%, 1)" fill-opacity="1" stroke="none" transform="matrix(1,0,0,1,22.9015,83)" dominant-baseline="central" text-anchor="end" x="0" y="0" style="font: 12px sans-serif;">90</text>
<text xml:space="preserve" fill="hsla(212, 10%, 53%, 1)" fill-opacity="1" stroke="none" transform="matrix(1,0,0,1,22.9015,65)" dominant-baseline="central" text-anchor="end" x="0" y="0" style="font: 12px sans-serif;">100</text>
<text xml:space="preserve" fill="hsla(212, 10%, 53%, 1)" fill-opacity="1" stroke="none" transform="matrix(1,0,0,1,22.9015,47)" dominant-baseline="central" text-anchor="end" x="0" y="0" style="font: 12px sans-serif;">110</text>
<text xml:space="preserve" fill="hsla(212, 10%, 53%, 1)" fill-opacity="1" stroke="none" transform="matrix(1,0,0,1,26.9015,215)" dominant-baseline="central" text-anchor="middle" x="0" y="6" style="font: 12px sans-serif;">40</text>
<text xml:space="preserve" fill="hsla(212, 10%, 53%, 1)" fill-opacity="1" stroke="none" transform="matrix(1,0,0,1,133.2652,215)" dominant-baseline="central" text-anchor="middle" x="0" y="6" style="font: 12px sans-serif;">60</text>
<text xml:space="preserve" fill="hsla(212, 10%, 53%, 1)" fill-opacity="1" stroke="none" transform="matrix(1,0,0,1,239.6289,215)" dominant-baseline="central" text-anchor="middle" x="0" y="6" style="font: 12px sans-serif;">80</text>
<text xml:space="preserve" fill="hsla(212, 10%, 53%, 1)" fill-opacity="1" stroke="none" transform="matrix(1,0,0,1,345.9926,215)" dominant-baseline="central" text-anchor="middle" x="0" y="6" style="font: 12px sans-serif;">100</text>
<text xml:space="preserve" fill="hsla(212, 10%, 53%, 1)" fill-opacity="1" stroke="none" transform="matrix(1,0,0,1,452.3563,215)" dominant-baseline="central" text-anchor="middle" x="0" y="6" style="font: 12px sans-serif;">120</text>
<text xml:space="preserve" fill="hsla(212, 10%, 53%, 1)" fill-opacity="1" stroke="none" transform="matrix(1,0,0,1,558.72,215)" dominant-baseline="central" text-anchor="middle" x="0" y="6" style="font: 12px sans-serif;">140</text>
<path d="M 1 0 A 1 1 0 1 1 1 -0.0001" fill="hsla(207, 65%, 39%, 1)" fill-opacity="0.7" stroke="none" transform="matrix(5,0,0,5,58.8106,158.6)">
</path>
<path d="M 1 0 A 1 1 0 1 1 1 -0.0001" fill="hsla(207, 65%, 39%, 1)" fill-opacity="0.7" stroke="none" transform="matrix(5,0,0,5,64.1288,178.4)">
</path>
<path d="M 1 0 A 1 1 0 1 1 1 -0.0001" fill="hsla(207, 65%, 39%, 1)" fill-opacity="0.7" stroke="none" transform="matrix(5,0,0,5,85.4015,182)">
</path>
<path d="M 1 0 A 1 1 0 1 1 1 -0.0001" fill="hsla(207, 65%, 39%, 1)" fill-opacity="0.7" stroke="none" transform="matrix(5,0,0,5,85.4015,151.4)">
</path>
<path d="M 1 0 A 1 1 0 1 1 1 -0.0001" fill="hsla(207, 65%, 39%, 1)" fill-opacity="0.7" stroke="none" transform="matrix(5,0,0,5,101.3561,165.8)">
</path>
<path d="M 1 0 A 1 1 0 1 1 1 -0.0001" fill="hsla(207, 65%, 39%, 1)" fill-opacity="0.7" stroke="none" transform="matrix(5,0,0,5,122.6288,187.4)">
</path>
<path d="M 1 0 A 1 1 0 1 1 1 -0.0001" fill="hsla(207, 65%, 39%, 1)" fill-opacity="0.7" stroke="none" transform="matrix(5,0,0,5,127.947,153.2)">
</path>
<path d="M 1 0 A 1 1 0 1 1 1 -0.0001" fill="hsla(207, 65%, 39%, 1)" fill-opacity="0.7" stroke="none" transform="matrix(5,0,0,5,127.947,158.6)">
</path>
<path d="M 1 0 A 1 1 0 1 1 1 -0.0001" fill="hsla(207, 65%, 39%, 1)" fill-opacity="0.7" stroke="none" transform="matrix(5,0,0,5,127.947,182)">
</path>
<path d="M 1 0 A 1 1 0 1 1 1 -0.0001" fill="hsla(207, 65%, 39%, 1)" fill-opacity="0.7" stroke="none" transform="matrix(5,0,0,5,143.9016,191)">
</path>
<path d="M 1 0 A 1 1 0 1 1 1 -0.0001" fill="hsla(207, 65%, 39%, 1)" fill-opacity="0.7" stroke="none" transform="matrix(5,0,0,5,165.1743,183.8)">
</path>
<path d="M 1 0 A 1 1 0 1 1 1 -0.0001" fill="hsla(207, 65%, 39%, 1)" fill-opacity="0.7" stroke="none" transform="matrix(5,0,0,5,165.1743,183.8)">
</path>
<path d="M 1 0 A 1 1 0 1 1 1 -0.0001" fill="hsla(207, 65%, 39%, 1)" fill-opacity="0.7" stroke="none" transform="matrix(5,0,0,5,186.447,167.6)">
</path>
<path d="M 1 0 A 1 1 0 1 1 1 -0.0001" fill="hsla(207, 65%, 39%, 1)" fill-opacity="0.7" stroke="none" transform="matrix(5,0,0,5,197.0834,176.6)">
</path>
<path d="M 1 0 A 1 1 0 1 1 1 -0.0001" fill="hsla(195, 49%, 51%, 1)" fill-opacity="0.7" stroke="none" transform="matrix(5,0,0,5,64.1288,178.4)">
</path>
<path d="M 1 0 A 1 1 0 1 1 1 -0.0001" fill="hsla(195, 49%, 51%, 1)" fill-opacity="0.7" stroke="none" transform="matrix(5,0,0,5,106.6743,133.4)">
</path>
<path d="M 1 0 A 1 1 0 1 1 1 -0.0001" fill="hsla(195, 49%, 51%, 1)" fill-opacity="0.7" stroke="none" transform="matrix(5,0,0,5,117.3106,99.2)">
</path>
<path d="M 1 0 A 1 1 0 1 1 1 -0.0001" fill="hsla(195, 49%, 51%, 1)" fill-opacity="0.7" stroke="none" transform="matrix(5,0,0,5,127.947,106.4)">
</path>
<path d="M 1 0 A 1 1 0 1 1 1 -0.0001" fill="hsla(195, 49%, 51%, 1)" fill-opacity="0.7" stroke="none" transform="matrix(5,0,0,5,133.2652,164)">
</path>
<path d="M 1 0 A 1 1 0 1 1 1 -0.0001" fill="hsla(195, 49%, 51%, 1)" fill-opacity="0.7" stroke="none" transform="matrix(5,0,0,5,154.5379,142.4)">
</path>
<path d="M 1 0 A 1 1 0 1 1 1 -0.0001" fill="hsla(195, 49%, 51%, 1)" fill-opacity="0.7" stroke="none" transform="matrix(5,0,0,5,159.8561,124.4)">
</path>
<path d="M 1 0 A 1 1 0 1 1 1 -0.0001" fill="hsla(195, 49%, 51%, 1)" fill-opacity="0.7" stroke="none" transform="matrix(5,0,0,5,170.4925,158.6)">
</path>
<path d="M 1 0 A 1 1 0 1 1 1 -0.0001" fill="hsla(195, 49%, 51%, 1)" fill-opacity="0.7" stroke="none" transform="matrix(5,0,0,5,170.4925,167.6)">
</path>
<path d="M 1 0 A 1 1 0 1 1 1 -0.0001" fill="hsla(195, 49%, 51%, 1)" fill-opacity="0.7" stroke="none" transform="matrix(5,0,0,5,218.3562,122.6)">
</path>
<path d="M 1 0 A 1 1 0 1 1 1 -0.0001" fill="hsla(195, 49%, 51%, 1)" fill-opacity="0.7" stroke="none" transform="matrix(5,0,0,5,223.6743,138.8)">
</path>
<path d="M 1 0 A 1 1 0 1 1 1 -0.0001" fill="hsla(195, 49%, 51%, 1)" fill-opacity="0.7" stroke="none" transform="matrix(5,0,0,5,228.9925,160.4)">
</path>
<path d="M 1 0 A 1 1 0 1 1 1 -0.0001" fill="hsla(195, 49%, 51%, 1)" fill-opacity="0.7" stroke="none" transform="matrix(5,0,0,5,244.9471,117.2)">
</path>
<path d="M 1 0 A 1 1 0 1 1 1 -0.0001" fill="hsla(195, 49%, 51%, 1)" fill-opacity="0.7" stroke="none" transform="matrix(5,0,0,5,244.9471,155)">
</path>
<path d="M 1 0 A 1 1 0 1 1 1 -0.0001" fill="hsla(195, 49%, 51%, 1)" fill-opacity="0.7" stroke="none" transform="matrix(5,0,0,5,271.538,147.8)">
</path>
<path d="M 1 0 A 1 1 0 1 1 1 -0.0001" fill="hsla(195, 49%, 51%, 1)" fill-opacity="0.7" stroke="none" transform="matrix(5,0,0,5,271.538,124.4)">
</path>
<path d="M 1 0 A 1 1 0 1 1 1 -0.0001" fill="hsla(207, 69%, 79%, 1)" fill-opacity="0.7" stroke="none" transform="matrix(5,0,0,5,213.038,92)">
</path>
<path d="M 1 0 A 1 1 0 1 1 1 -0.0001" fill="hsla(207, 69%, 79%, 1)" fill-opacity="0.7" stroke="none" transform="matrix(5,0,0,5,213.038,149.6)">
</path>
<path d="M 1 0 A 1 1 0 1 1 1 -0.0001" fill="hsla(207, 69%, 79%, 1)" fill-opacity="0.7" stroke="none" transform="matrix(5,0,0,5,239.6289,95.6)">
</path>
<path d="M 1 0 A 1 1 0 1 1 1 -0.0001" fill="hsla(207, 69%, 79%, 1)" fill-opacity="0.7" stroke="none" transform="matrix(5,0,0,5,244.9471,149.6)">
</path>
<path d="M 1 0 A 1 1 0 1 1 1 -0.0001" fill="hsla(207, 69%, 79%, 1)" fill-opacity="0.7" stroke="none" transform="matrix(5,0,0,5,255.5834,113.6)">
</path>
<path d="M 1 0 A 1 1 0 1 1 1 -0.0001" fill="hsla(207, 69%, 79%, 1)" fill-opacity="0.7" stroke="none" transform="matrix(5,0,0,5,260.9016,95.6)">
</path>
<path d="M 1 0 A 1 1 0 1 1 1 -0.0001" fill="hsla(207, 69%, 79%, 1)" fill-opacity="0.7" stroke="none" transform="matrix(5,0,0,5,298.1289,119)">
</path>
<path d="M 1 0 A 1 1 0 1 1 1 -0.0001" fill="hsla(207, 69%, 79%, 1)" fill-opacity="0.7" stroke="none" transform="matrix(5,0,0,5,308.7653,146)">
</path>
<path d="M 1 0 A 1 1 0 1 1 1 -0.0001" fill="hsla(207, 69%, 79%, 1)" fill-opacity="0.7" stroke="none" transform="matrix(5,0,0,5,330.038,72.2)">
</path>
<path d="M 1 0 A 1 1 0 1 1 1 -0.0001" fill="hsla(207, 69%, 79%, 1)" fill-opacity="0.7" stroke="none" transform="matrix(5,0,0,5,335.3562,59.6)">
</path>
<path d="M 1 0 A 1 1 0 1 1 1 -0.0001" fill="hsla(207, 69%, 79%, 1)" fill-opacity="0.7" stroke="none" transform="matrix(5,0,0,5,340.6744,99.2)">
</path>
<path d="M 1 0 A 1 1 0 1 1 1 -0.0001" fill="hsla(207, 69%, 79%, 1)" fill-opacity="0.7" stroke="none" transform="matrix(5,0,0,5,340.6744,111.8)">
</path>
<path d="M 1 0 A 1 1 0 1 1 1 -0.0001" fill="hsla(207, 69%, 79%, 1)" fill-opacity="0.7" stroke="none" transform="matrix(5,0,0,5,409.8108,97.4)">
</path>
<path d="M 1 0 A 1 1 0 1 1 1 -0.0001" fill="hsla(207, 69%, 79%, 1)" fill-opacity="0.7" stroke="none" transform="matrix(5,0,0,5,415.129,90.2)">
</path>
<path d="M 1 0 A 1 1 0 1 1 1 -0.0001" fill="hsla(207, 69%, 79%, 1)" fill-opacity="0.7" stroke="none" transform="matrix(5,0,0,5,452.3563,124.4)">
</path>
<path d="M 0 0 L 154.9941 0 L 154.9941 14 L 0 14 L 0 0 Z" fill="rgb(0,0,0)" fill-opacity="0" stroke="#ccc" stroke-width="0" paint-order="fill" stroke-opacity="1" stroke-dasharray="none" stroke-linecap="butt" stroke-miterlimit="10" transform="matrix(1,0,0,1,210.5029,22)">
</path>
<path d="M 19.5 7 A 7 7 0 1 1 19.5 6.9993" fill="hsla(207, 65%, 39%, 1)" fill-opacity="0.7" stroke="none" transform="matrix(1,0,0,1,205.0029,22)">
</path>
<text xml:space="preserve" fill="hsla(212, 10%, 53%, 1)" fill-opacity="1" stroke="none" transform="matrix(1,0,0,1,205.0029,22)" dominant-baseline="central" text-anchor="start" x="23" y="7" style="font: 12px sans-serif;">West</text>
<path d="M 19.5 7 A 7 7 0 1 1 19.5 6.9993" fill="hsla(195, 49%, 51%, 1)" fill-opacity="0.7" stroke="none" transform="matrix(1,0,0,1,259.626,22)">
</path>
<text xml:space="preserve" fill="hsla(212, 10%, 53%, 1)" fill-opacity="1" stroke="none" transform="matrix(1,0,0,1,259.626,22)" dominant-baseline="central" text-anchor="start" x="23" y="7" style="font: 12px sans-serif;">East</text>
<path d="M 19.5 7 A 7 7 0 1 1 19.5 6.9993" fill="hsla(207, 69%, 79%, 1)" fill-opacity="0.7" stroke="none" transform="matrix(1,0,0,1,311.1377,22)">
</path>
<text xml:space="preserve" fill="hsla(212, 10%, 53%, 1)" fill-opacity="1" stroke="none" transform="matrix(1,0,0,1,311.1377,22)" dominant-baseline="central" text-anchor="start" x="23" y="7" style="font: 12px sans-serif;">South</text>
<path d="M 0 0 L 130.71 0 L 130.71 14 L 0 14 L 0 0 Z" fill="rgb(0,0,0)" fill-opacity="0" stroke="#ccc" stroke-width="0" paint-order="fill" stroke-opacity="1" stroke-dasharray="none" stroke-linecap="butt" stroke-miterlimit="10">
</path>
<text xml:space="preserve" fill="hsla(210, 14%, 37%, 1)" fill-opacity="1" stroke="none" dominant-baseline="central" text-anchor="start" x="0" y="7" style="font: bold 14px sans-serif;">Multi-Series Scatter</text>
</g>
</svg>