<svg xmlns="http://www.w3.org/2000/svg" xmlns:xlink="http://www.w3.org/1999/xlink" version="1.1" baseProfile="full" width="576" height="220" style="user-select: none; position: absolute; left: 0px; top: 0px;">
<g>
<rect width="576" height="220" x="0" y="0" id="0" fill="rgb(255,255,255)" fill-opacity="0">
</rect>
</g>
<g>
<path d="M 26.9015 194.5 L 558.72 194.5" fill="none" stroke="hsla(215, 15%, 91%, 1)" stroke-width="1" paint-order="fill" stroke-opacity="1" stroke-dasharray="none" stroke-linecap="butt" stroke-miterlimit="10">
</path>
<path d="M 26.9015 167.5 L 558.72 167.5" fill="none" stroke="hsla(215, 15%, 91%, 1)" stroke-width="1" paint-order="fill" stroke-opacity="1" stroke-dasharray="none" stroke-linecap="butt" stroke-miterlimit="10">
</path>
<path d="M 26.9015 140.5 L 558.72 140.5" fill="none" stroke="hsla(215, 15%, 91%, 1)" stroke-width="1" paint-order="fill" stroke-opacity="1" stroke-dasharray="none" stroke-linecap="butt" stroke-miterlimit="10">
</path>
<path d="M 26.9015 113.5 L 558.72 113.5" fill="none" stroke="hsla(215, 15%, 91%, 1)" stroke-width="1" paint-order="fill" stroke-opacity="1" stroke-dasharray="none" stroke-linecap="butt" stroke-miterlimit="10">
</path>
<path d="M 26.9015 86.5 L 558.72 86.5" fill="none" stroke="hsla(215, 15%, 91%, 1)" stroke-width="1" paint-order="fill" stroke-opacity="1" stroke-dasharray="none" stroke-linecap="butt" stroke-miterlimit="10">
</path>
<path d="M 26.9015 59.5 L 558.72 59.5" fill="none" stroke="hsla(215, 15%, 91%, 1)" stroke-width="1" paint-order="fill" stroke-opacity="1" stroke-dasharray="none" stroke-linecap="butt" stroke-miterlimit="10">
</path>
<path d="M 26.9015 32.5 L 558.72 32.5" fill="none" stroke="hsla(215, 15%, 91%, 1)" stroke-width="1" paint-order="fill" stroke-opacity="1" stroke-dasharray="none" stroke-linecap="butt" stroke-miterlimit="10">
</path>
<path d="M 26.9015 194.5 L 558.72 194.5" fill="none" stroke="hsla(212, 10%, 53%, 1)" stroke-width="1" paint-order="fill" stroke-opacity="1" stroke-dasharray="none" stroke-linecap="round" stroke-miterlimit="10">
</path>
<text xml:space="preserve" fill="hsla(212, 10%, 53%, 1)" fill-opacity="1" stroke="none" transform="matrix(1,0,0,1,22.9015,194)" dominant-baseline="central" text-anchor="end" x="0" y="0" style="font: 12px sans-serif;">0</text>
<text xml:space="preserve" fill="hsla(212, 10%, 53%, 1)" fill-opacity="1" stroke="none" transform="matrix(1,0,0,1,22.9015,167)" dominant-baseline="central" text-anchor="end" x="0" y="0" style="font: 12px sans-serif;">20</text>
<text xml:space="preserve" fill="hsla(212, 10%, 53%, 1)" fill-opacity="1" stroke="none" transform="matrix(1,0,0,1,22.9015,140)" dominant-baseline="central" text-anchor="end" x="0" y="0" style="font: 12px sans-serif;">40</text>
<text xml:space="preserve" fill="hsla(212, 10%, 53%, 1)" fill-opacity="1" stroke="none" transform="matrix(1,0,0,1,22.9015,113)" dominant-baseline="central" text-anchor="end" x="0" y="0" style="font: 12px sans-serif;">60</text>
<text xml:space="preserve" fill="hsla(212, 10%, 53%, 1)" fill-opacity="1" stroke="none" transform="matrix(1,0,0,1,22.9015,86)" dominant-baseline="central" text-anchor="end" x="0" y="0" style="font: 12px sans-serif;">80</text>
<text xml:space="preserve" fill="hsla(212, 10%, 53%, 1)" fill-opacity="1" stroke="none" transform="matrix(1,0,0,1,22.9015,59)" dominant-baseline="central" text-anchor="end" x="0" y="0" style="font: 12px sans-serif;">100</text>
<text xml:space="preserve" fill="hsla(212, 10%, 53%, 1)" fill-opacity="1" stroke="none" transform="matrix(1,0,0,1,22.9015,32)" dominant-baseline="central" text-anchor="end" x="0" y="0" style="font: 12px sans-serif;">120</text>
<text xml:space="preserve" fill="hsla(212, 10%, 53%, 1)" fill-opacity="1" stroke="none" transform="matrix(1,0,0,1,113.7626,200)" dominant-baseline="central" text-anchor="middle" x="0" y="6" style="font: 12px sans-serif;">1966</text>
<text xml:space="preserve" fill="hsla(212, 10%, 53%, 1)" fill-opacity="1" stroke="none" transform="matrix(1,0,0,1,203.2943,200)" dominant-baseline="central" text-anchor="middle" x="0" y="6" style="font: 12px sans-serif;">1974</text>
<text xml:space="preserve" fill="hsla(212, 10%, 53%, 1)" fill-opacity="1" stroke="none" transform="matrix(1,0,0,1,292.8261,200)" dominant-baseline="central" text-anchor="middle" x="0" y="6" style="font: 12px sans-serif;">1982</text>
<text xml:space="preserve" fill="hsla(212, 10%, 53%, 1)" fill-opacity="1" stroke="none" transform="matrix(1,0,0,1,382.3578,200)" dominant-baseline="central" text-anchor="middle" x="0" y="6" style="font: 12px sans-serif;">1990</text>
<text xml:space="preserve" fill="hsla(212, 10%, 53%, 1)" fill-opacity="1" stroke="none" transform="matrix(1,0,0,1,471.8895,200)" dominant-baseline="central" text-anchor="middle" x="0" y="6" style="font: 12px sans-serif;">1998</text>
<defs>
<clipPath id="zr2490-clip-0">
<path d="M 26 31.5 L 559 31.5 L 559 194.5 L 26 194.5 L 26 31.5 Z" fill="#000" fill-opacity="1" stroke="none">
</path>
</clipPath>
</defs>
<g clip-path="url(#zr2490-clip-0)">
<path d="M 46.5985 165.65 L 57.8129 167 L 68.9967 161.6 L 80.1805 148.1 L 91.3643 121.1 L 102.5788 153.5 L 113.7626 184.55 L 124.9464 177.8 L 136.1302 175.1 L 147.3447 180.5 L 158.5285 171.05 L 169.7123 164.3 L 180.8961 135.95 L 192.1105 118.4 L 203.2943 123.8 L 214.4781 133.25 L 225.6619 146.75 L 236.8764 126.5 L 248.0602 88.7 L 259.244 61.7 L 270.4278 68.45 L 281.6422 80.6 L 292.826 52.25 L 304.0099 84.65 L 315.1937 80.6 L 326.4081 103.55 L 337.5919 138.65 L 348.7757 160.25 L 359.9595 146.75 L 371.174 134.6 L 382.3578 115.7 L 393.5416 148.1 L 404.7254 169.7 L 415.9398 172.4 L 427.1237 184.55 L 438.3075 169.7 L 449.4913 164.3 L 460.7057 148.1 L 471.8895 142.7 L 483.0733 153.5 L 494.2571 149.45 L 505.4716 157.55 L 516.6554 162.95 L 527.8392 157.55 L 539.023 164.3 L 539.023 194 L 527.8392 194 L 516.6554 194 L 505.4716 194 L 494.2571 194 L 483.0733 194 L 471.8895 194 L 460.7057 194 L 449.4913 194 L 438.3075 194 L 427.1237 194 L 415.9398 194 L 404.7254 194 L 393.5416 194 L 382.3578 194 L 371.174 194 L 359.9595 194 L 348.7757 194 L 337.5919 194 L 326.4081 194 L 315.1937 194 L 304.0099 194 L 292.826 194 L 281.6422 194 L 270.4278 194 L 259.244 194 L 248.0602 194 L 236.8764 194 L 225.6619 194 L 214.4781 194 L 203.2943 194 L 192.1105 194 L 180.8961 194 L 169.7123 194 L 158.5285 194 L 147.3447 194 L 136.1302 194 L 124.9464 194 L 113.7626 194 L 102.5788 194 L 91.3643 194 L 80.1805 194 L 68.9967 194 L 57.8129 194 L 46.5985 194 Z" fill="rgb(35,106,164)" fill-opacity="0.7" stroke="none">
</path>
<path d="M 46.5985 165.65 L 57.8129 167 L 68.9967 161.6 L 80.1805 148.1 L 91.3643 121.1 L 102.5788 153.5 L 113.7626 184.55 L 124.9464 177.8 L 136.1302 175.1 L 147.3447 180.5 L 158.5285 171.05 L 169.7123 164.3 L 180.8961 135.95 L 192.1105 118.4 L 203.2943 123.8 L 214.4781 133.25 L 225.6619 146.75 L 236.8764 126.5 L 248.0602 88.7 L 259.244 61.7 L 270.4278 68.45 L 281.6422 80.6 L 292.826 52.25 L 304.0099 84.65 L 315.1937 80.6 L 326.4081 103.55 L 337.5919 138.65 L 348.7757 160.25 L 359.9595 146.75 L 371.174 134.6 L 382.3578 115.7 L 393.5416 148.1 L 404.7254 169.7 L 415.9398 172.4 L 427.1237 184.55 L 438.3075 169.7 L 449.4913 164.3 L 460.7057 148.1 L 471.8895 142.7 L 483.0733 153.5 L 494.2571 149.45 L 505.4716 157.55 L 516.6554 162.95 L 527.8392 157.55 L 539.023 164.3" fill="none" stroke="rgb(35,106,164)" stroke-width="1" paint-order="fill" stroke-opacity="1" stroke-dasharray="none" stroke-linecap="butt" stroke-linejoin="round" stroke-miterlimit="10">
</path>
</g>
<path d="M 1 0 A 1 1 0 1 1 1 -0.0001" fill="hsla(207, 65%, 39%, 1)" fill-opacity="1" stroke="none" transform="matrix(0,0,0,0,46.5985,165.65)">
</path>
<path d="M 1 0 A 1 1 0 1 1 1 -0.0001" fill="hsla(207, 65%, 39%, 1)" fill-opacity="1" stroke="none" transform="matrix(0,0,0,0,57.8129,167)">
</path>
<path d="M 1 0 A 1 1 0 1 1 1 -0.0001" fill="hsla(207, 65%, 39%, 1)" fill-opacity="1" stroke="none" transform="matrix(0,0,0,0,68.9967,161.6)">
</path>
<path d="M 1 0 A 1 1 0 1 1 1 -0.0001" fill="hsla(207, 65%, 39%, 1)" fill-opacity="1" stroke="none" transform="matrix(0,0,0,0,80.1805,148.1)">
</path>
<path d="M 1 0 A 1 1 0 1 1 1 -0.0001" fill="hsla(207, 65%, 39%, 1)" fill-opacity="1" stroke="none" transform="matrix(0,0,0,0,91.3643,121.1)">
</path>
<path d="M 1 0 A 1 1 0 1 1 1 -0.0001" fill="hsla(207, 65%, 39%, 1)" fill-opacity="1" stroke="none" transform="matrix(0,0,0,0,102.5788,153.5)">
</path>
<path d="M 1 0 A 1 1 0 1 1 1 -0.0001" fill="hsla(207, 65%, 39%, 1)" fill-opacity="1" stroke="none" transform="matrix(0,0,0,0,113.7626,184.55)">
</path>
<path d="M 1 0 A 1 1 0 1 1 1 -0.0001" fill="hsla(207, 65%, 39%, 1)" fill-opacity="1" stroke="none" transform="matrix(0,0,0,0,124.9464,177.8)">
</path>
<path d="M 1 0 A 1 1 0 1 1 1 -0.0001" fill="hsla(207, 65%, 39%, 1)" fill-opacity="1" stroke="none" transform="matrix(0,0,0,0,136.1302,175.1)">
</path>
<path d="M 1 0 A 1 1 0 1 1 1 -0.0001" fill="hsla(207, 65%, 39%, 1)" fill-opacity="1" stroke="none" transform="matrix(0,0,0,0,147.3447,180.5)">
</path>
<path d="M 1 0 A 1 1 0 1 1 1 -0.0001" fill="hsla(207, 65%, 39%, 1)" fill-opacity="1" stroke="none" transform="matrix(0,0,0,0,158.5285,171.05)">
</path>
<path d="M 1 0 A 1 1 0 1 1 1 -0.0001" fill="hsla(207, 65%, 39%, 1)" fill-opacity="1" stroke="none" transform="matrix(0,0,0,0,169.7123,164.3)">
</path>
<path d="M 1 0 A 1 1 0 1 1 1 -0.0001" fill="hsla(207, 65%, 39%, 1)" fill-opacity="1" stroke="none" transform="matrix(0,0,0,0,180.8961,135.95)">
</path>
<path d="M 1 0 A 1 1 0 1 1 1 -0.0001" fill="hsla(207, 65%, 39%, 1)" fill-opacity="1" stroke="none" transform="matrix(0,0,0,0,192.1105,118.4)">
</path>
<path d="M 1 0 A 1 1 0 1 1 1 -0.0001" fill="hsla(207, 65%, 39%, 1)" fill-opacity="1" stroke="none" transform="matrix(0,0,0,0,203.2943,123.8)">
</path>
<path d="M 1 0 A 1 1 0 1 1 1 -0.0001" fill="hsla(207, 65%, 39%, 1)" fill-opacity="1" stroke="none" transform="matrix(0,0,0,0,214.4781,133.25)">
</path>
<path d="M 1 0 A 1 1 0 1 1 1 -0.0001" fill="hsla(207, 65%, 39%, 1)" fill-opacity="1" stroke="none" transform="matrix(0,0,0,0,225.6619,146.75)">
</path>
<path d="M 1 0 A 1 1 0 1 1 1 -0.0001" fill="hsla(207, 65%, 39%, 1)" fill-opacity="1" stroke="none" transform="matrix(0,0,0,0,236.8764,126.5)">
</path>
<path d="M 1 0 A 1 1 0 1 1 1 -0.0001" fill="hsla(207, 65%, 39%, 1)" fill-opacity="1" stroke="none" transform="matrix(0,0,0,0,248.0602,88.7)">
</path>
<path d="M 1 0 A 1 1 0 1 1 1 -0.0001" fill="hsla(207, 65%, 39%, 1)" fill-opacity="1" stroke="none" transform="matrix(0,0,0,0,259.244,61.7)">
</path>
<path d="M 1 0 A 1 1 0 1 1 1 -0.0001" fill="hsla(207, 65%, 39%, 1)" fill-opacity="1" stroke="none" transform="matrix(0,0,0,0,270.4278,68.45)">
</path>
<path d="M 1 0 A 1 1 0 1 1 1 -0.0001" fill="hsla(207, 65%, 39%, 1)" fill-opacity="1" stroke="none" transform="matrix(0,0,0,0,281.6422,80.6)">
</path>
<path d="M 1 0 A 1 1 0 1 1 1 -0.0001" fill="hsla(207, 65%, 39%, 1)" fill-opacity="1" stroke="none" transform="matrix(0,0,0,0,292.826,52.25)">
</path>
<path d="M 1 0 A 1 1 0 1 1 1 -0.0001" fill="hsla(207, 65%, 39%, 1)" fill-opacity="1" stroke="none" transform="matrix(0,0,0,0,304.0099,84.65)">
</path>
<path d="M 1 0 A 1 1 0 1 1 1 -0.0001" fill="hsla(207, 65%, 39%, 1)" fill-opacity="1" stroke="none" transform="matrix(0,0,0,0,315.1937,80.6)">
</path>
<path d="M 1 0 A 1 1 0 1 1 1 -0.0001" fill="hsla(207, 65%, 39%, 1)" fill-opacity="1" stroke="none" transform="matrix(0,0,0,0,326.4081,103.55)">
</path>
<path d="M 1 0 A 1 1 0 1 1 1 -0.0001" fill="hsla(207, 65%, 39%, 1)" fill-opacity="1" stroke="none" transform="matrix(0,0,0,0,337.5919,138.65)">
</path>
<path d="M 1 0 A 1 1 0 1 1 1 -0.0001" fill="hsla(207, 65%, 39%, 1)" fill-opacity="1" stroke="none" transform="matrix(0,0,0,0,348.7757,160.25)">
</path>
<path d="M 1 0 A 1 1 0 1 1 1 -0.0001" fill="hsla(207, 65%, 39%, 1)" fill-opacity="1" stroke="none" transform="matrix(0,0,0,0,359.9595,146.75)">
</path>
<path d="M 1 0 A 1 1 0 1 1 1 -0.0001" fill="hsla(207, 65%, 39%, 1)" fill-opacity="1" stroke="none" transform="matrix(0,0,0,0,371.174,134.6)">
</path>
<path d="M 1 0 A 1 1 0 1 1 1 -0.0001" fill="hsla(207, 65%, 39%, 1)" fill-opacity="1" stroke="none" transform="matrix(0,0,0,0,382.3578,115.7)">
</path>
<path d="M 1 0 A 1 1 0 1 1 1 -0.0001" fill="hsla(207, 65%, 39%, 1)" fill-opacity="1" stroke="none" transform="matrix(0,0,0,0,393.5416,148.1)">
</path>
<path d="M 1 0 A 1 1 0 1 1 1 -0.0001" fill="hsla(207, 65%, 39%, 1)" fill-opacity="1" stroke="none" transform="matrix(0,0,0,0,404.7254,169.7)">
</path>
<path d="M 1 0 A 1 1 0 1 1 1 -0.0001" fill="hsla(207, 65%, 39%, 1)" fill-opacity="1" stroke="none" transform="matrix(0,0,0,0,415.9398,172.4)">
</path>
<path d="M 1 0 A 1 1 0 1 1 1 -0.0001" fill="hsla(207, 65%, 39%, 1)" fill-opacity="1" stroke="none" transform="matrix(0,0,0,0,427.1237,184.55)">
</path>
<path d="M 1 0 A 1 1 0 1 1 1 -0.0001" fill="hsla(207, 65%, 39%, 1)" fill-opacity="1" stroke="none" transform="matrix(0,0,0,0,438.3075,169.7)">
</path>
<path d="M 1 0 A 1 1 0 1 1 1 -0.0001" fill="hsla(207, 65%, 39%, 1)" fill-opacity="1" stroke="none" transform="matrix(0,0,0,0,449.4913,164.3)">
</path>
<path d="M 1 0 A 1 1 0 1 1 1 -0.0001" fill="hsla(207, 65%, 39%, 1)" fill-opacity="1" stroke="none" transform="matrix(0,0,0,0,460.7057,148.1)">
</path>
<path d="M 1 0 A 1 1 0 1 1 1 -0.0001" fill="hsla(207, 65%, 39%, 1)" fill-opacity="1" stroke="none" transform="matrix(0,0,0,0,471.8895,142.7)">
</path>
<path d="M 1 0 A 1 1 0 1 1 1 -0.0001" fill="hsla(207, 65%, 39%, 1)" fill-opacity="1" stroke="none" transform="matrix(0,0,0,0,483.0733,153.5)">
</path>
<path d="M 1 0 A 1 1 0 1 1 1 -0.0001" fill="hsla(207, 65%, 39%, 1)" fill-opacity="1" stroke="none" transform="matrix(0,0,0,0,494.2571,149.45)">
</path>
<path d="M 1 0 A 1 1 0 1 1 1 -0.0001" fill="hsla(207, 65%, 39%, 1)" fill-opacity="1" stroke="none" transform="matrix(0,0,0,0,505.4716,157.55)">
</path>
<path d="M 1 0 A 1 1 0 1 1 1 -0.0001" fill="hsla(207, 65%, 39%, 1)" fill-opacity="1" stroke="none" transform="matrix(0,0,0,0,516.6554,162.95)">
</path>
<path d="M 1 0 A 1 1 0 1 1 1 -0.0001" fill="hsla(207, 65%, 39%, 1)" fill-opacity="1" stroke="none" transform="matrix(0,0,0,0,527.8392,157.55)">
</path>
<path d="M 1 0 A 1 1 0 1 1 1 -0.0001" fill="rgb(35,106,164)" fill-opacity="1" stroke="none" transform="matrix(0,0,0,0,539.023,164.3)">
</path>
<path d="M 0 0 L 31.1309 0 L 31.1309 14 L 0 14 L 0 0 Z" fill="rgb(0,0,0)" fill-opacity="0" stroke="#ccc" stroke-width="0" paint-order="fill" stroke-opacity="1" stroke-dasharray="none" stroke-linecap="butt" stroke-miterlimit="10">
</path>
<text xml:space="preserve" fill="hsla(210, 14%, 37%, 1)" fill-opacity="1" stroke="none" dominant-baseline="central" text-anchor="start" x="0" y="7" style="font: bold 14px sans-serif;">Area</text>
</g>
</svg>