<svg xmlns="http://www.w3.org/2000/svg" xmlns:xlink="http://www.w3.org/1999/xlink" version="1.1" baseProfile="full" width="576" height="268" style="user-select: none; position: absolute; left: 0px; top: 0px;">
<g>
<rect width="576" height="268" x="0" y="0" id="0" fill="rgb(255,255,255)" fill-opacity="0">
</rect>
</g>
<g>
<text xml:space="preserve" fill="#6E7079" fill-opacity="1" stroke="none" transform="matrix(1,0,0,1,558.72,250.64)" dominant-baseline="central" text-anchor="end" x="0" y="6" style="font: 12px sans-serif;">Fiscal Year →</text>
<path d="M 33.5753 228.5 L 558.72 228.5" fill="none" stroke="hsla(215, 15%, 91%, 1)" stroke-width="1" paint-order="fill" stroke-opacity="1" stroke-dasharray="none" stroke-linecap="butt" stroke-miterlimit="10">
</path>
<path d="M 33.5753 195.5 L 558.72 195.5" fill="none" stroke="hsla(215, 15%, 91%, 1)" stroke-width="1" paint-order="fill" stroke-opacity="1" stroke-dasharray="none" stroke-linecap="butt" stroke-miterlimit="10">
</path>
<path d="M 33.5753 163.5 L 558.72 163.5" fill="none" stroke="hsla(215, 15%, 91%, 1)" stroke-width="1" paint-order="fill" stroke-opacity="1" stroke-dasharray="none" stroke-linecap="butt" stroke-miterlimit="10">
</path>
<path d="M 33.5753 131.5 L 558.72 131.5" fill="none" stroke="hsla(215, 15%, 91%, 1)" stroke-width="1" paint-order="fill" stroke-opacity="1" stroke-dasharray="none" stroke-linecap="butt" stroke-miterlimit="10">
</path>
<path d="M 33.5753 98.5 L 558.72 98.5" fill="none" stroke="hsla(215, 15%, 91%, 1)" stroke-width="1" paint-order="fill" stroke-opacity="1" stroke-dasharray="none" stroke-linecap="butt" stroke-miterlimit="10">
</path>
<path d="M 33.5753 66.5 L 558.72 66.5" fill="none" stroke="hsla(215, 15%, 91%, 1)" stroke-width="1" paint-order="fill" stroke-opacity="1" stroke-dasharray="none" stroke-linecap="butt" stroke-miterlimit="10">
</path>
<path d="M 0 0 L 42.3418 0 L 42.3418 12 L 0 12 L 0 0 Z" fill="white" fill-opacity="1" stroke="none" transform="matrix(1,0,0,1,33.5753,60)">
</path>
<text xml:space="preserve" fill="hsla(212, 10%, 53%, 1)" fill-opacity="1" stroke="none" transform="matrix(1,0,0,1,33.5753,60)" dominant-baseline="central" text-anchor="start" x="0" y="6" style="font: 12px sans-serif;">million </text>
<path d="M 33.5753 228.5 L 558.72 228.5" fill="none" stroke="hsla(212, 10%, 53%, 1)" stroke-width="1" paint-order="fill" stroke-opacity="1" stroke-dasharray="none" stroke-linecap="round" stroke-miterlimit="10">
</path>
<text xml:space="preserve" fill="hsla(212, 10%, 53%, 1)" fill-opacity="1" stroke="none" transform="matrix(1,0,0,1,29.5753,228)" dominant-baseline="central" text-anchor="end" x="0" y="0" style="font: 12px sans-serif;">$0</text>
<text xml:space="preserve" fill="hsla(212, 10%, 53%, 1)" fill-opacity="1" stroke="none" transform="matrix(1,0,0,1,29.5753,195.6)" dominant-baseline="central" text-anchor="end" x="0" y="0" style="font: 12px sans-serif;">$100</text>
<text xml:space="preserve" fill="hsla(212, 10%, 53%, 1)" fill-opacity="1" stroke="none" transform="matrix(1,0,0,1,29.5753,163.2)" dominant-baseline="central" text-anchor="end" x="0" y="0" style="font: 12px sans-serif;">$200</text>
<text xml:space="preserve" fill="hsla(212, 10%, 53%, 1)" fill-opacity="1" stroke="none" transform="matrix(1,0,0,1,29.5753,130.8)" dominant-baseline="central" text-anchor="end" x="0" y="0" style="font: 12px sans-serif;">$300</text>
<text xml:space="preserve" fill="hsla(212, 10%, 53%, 1)" fill-opacity="1" stroke="none" transform="matrix(1,0,0,1,29.5753,98.4)" dominant-baseline="central" text-anchor="end" x="0" y="0" style="font: 12px sans-serif;">$400</text>
<text xml:space="preserve" fill="hsla(212, 10%, 53%, 1)" fill-opacity="1" stroke="none" transform="matrix(1,0,0,1,29.5753,66)" dominant-baseline="central" text-anchor="end" x="0" y="0" style="font: 12px sans-serif;">$500</text>
<text xml:space="preserve" fill="hsla(212, 10%, 53%, 1)" fill-opacity="1" stroke="none" transform="matrix(1,0,0,1,71.0856,234)" dominant-baseline="central" text-anchor="middle" x="0" y="6" style="font: 12px sans-serif;">1990</text>
<text xml:space="preserve" fill="hsla(212, 10%, 53%, 1)" fill-opacity="1" stroke="none" transform="matrix(1,0,0,1,146.1063,234)" dominant-baseline="central" text-anchor="middle" x="0" y="6" style="font: 12px sans-serif;">1991</text>
<text xml:space="preserve" fill="hsla(212, 10%, 53%, 1)" fill-opacity="1" stroke="none" transform="matrix(1,0,0,1,221.127,234)" dominant-baseline="central" text-anchor="middle" x="0" y="6" style="font: 12px sans-serif;">1992</text>
<text xml:space="preserve" fill="hsla(212, 10%, 53%, 1)" fill-opacity="1" stroke="none" transform="matrix(1,0,0,1,296.1477,234)" dominant-baseline="central" text-anchor="middle" x="0" y="6" style="font: 12px sans-serif;">1993</text>
<text xml:space="preserve" fill="hsla(212, 10%, 53%, 1)" fill-opacity="1" stroke="none" transform="matrix(1,0,0,1,371.1683,234)" dominant-baseline="central" text-anchor="middle" x="0" y="6" style="font: 12px sans-serif;">1994</text>
<text xml:space="preserve" fill="hsla(212, 10%, 53%, 1)" fill-opacity="1" stroke="none" transform="matrix(1,0,0,1,446.189,234)" dominant-baseline="central" text-anchor="middle" x="0" y="6" style="font: 12px sans-serif;">1995</text>
<text xml:space="preserve" fill="hsla(212, 10%, 53%, 1)" fill-opacity="1" stroke="none" transform="matrix(1,0,0,1,521.2097,234)" dominant-baseline="central" text-anchor="middle" x="0" y="6" style="font: 12px sans-serif;">1996</text>
<path d="M 45.2035 228 L 96.9678 228 L 96.9678 208.56 L 45.2035 208.56 L 45.2035 228 Z" fill="hsla(207, 65%, 39%, 1)" fill-opacity="1" stroke="none">
</path>
<path d="M 120.2242 228 L 171.9884 228 L 171.9884 201.108 L 120.2242 201.108 L 120.2242 228 Z" fill="hsla(207, 65%, 39%, 1)" fill-opacity="1" stroke="none">
</path>
<path d="M 195.2449 228 L 247.0091 228 L 247.0091 197.22 L 195.2449 197.22 L 195.2449 228 Z" fill="hsla(207, 65%, 39%, 1)" fill-opacity="1" stroke="none">
</path>
<path d="M 270.2655 228 L 322.0298 228 L 322.0298 201.432 L 270.2655 201.432 L 270.2655 228 Z" fill="hsla(207, 65%, 39%, 1)" fill-opacity="1" stroke="none">
</path>
<path d="M 345.2862 228 L 397.0505 228 L 397.0505 199.812 L 345.2862 199.812 L 345.2862 228 Z" fill="hsla(207, 65%, 39%, 1)" fill-opacity="1" stroke="none">
</path>
<path d="M 420.3069 228 L 472.0711 228 L 472.0711 194.628 L 420.3069 194.628 L 420.3069 228 Z" fill="hsla(207, 65%, 39%, 1)" fill-opacity="1" stroke="none">
</path>
<path d="M 495.3275 228 L 547.0918 228 L 547.0918 192.036 L 495.3275 192.036 L 495.3275 228 Z" fill="hsla(207, 65%, 39%, 1)" fill-opacity="1" stroke="none">
</path>
<path d="M 45.2035 208.56 L 96.9678 208.56 L 96.9678 195.276 L 45.2035 195.276 L 45.2035 208.56 Z" fill="hsla(195, 49%, 51%, 1)" fill-opacity="1" stroke="none">
</path>
<path d="M 120.2242 201.108 L 171.9884 201.108 L 171.9884 185.88 L 120.2242 185.88 L 120.2242 201.108 Z" fill="hsla(195, 49%, 51%, 1)" fill-opacity="1" stroke="none">
</path>
<path d="M 195.2449 197.22 L 247.0091 197.22 L 247.0091 171.3 L 195.2449 171.3 L 195.2449 197.22 Z" fill="hsla(195, 49%, 51%, 1)" fill-opacity="1" stroke="none">
</path>
<path d="M 270.2655 201.432 L 322.0298 201.432 L 322.0298 178.752 L 270.2655 178.752 L 270.2655 201.432 Z" fill="hsla(195, 49%, 51%, 1)" fill-opacity="1" stroke="none">
</path>
<path d="M 345.2862 199.812 L 397.0505 199.812 L 397.0505 178.752 L 345.2862 178.752 L 345.2862 199.812 Z" fill="hsla(195, 49%, 51%, 1)" fill-opacity="1" stroke="none">
</path>
<path d="M 420.3069 194.628 L 472.0711 194.628 L 472.0711 165.468 L 420.3069 165.468 L 420.3069 194.628 Z" fill="hsla(195, 49%, 51%, 1)" fill-opacity="1" stroke="none">
</path>
<path d="M 495.3275 192.036 L 547.0918 192.036 L 547.0918 151.536 L 495.3275 151.536 L 495.3275 192.036 Z" fill="hsla(195, 49%, 51%, 1)" fill-opacity="1" stroke="none">
</path>
<path d="M 45.2035 195.276 L 96.9678 195.276 L 96.9678 175.512 L 45.2035 175.512 L 45.2035 195.276 Z" fill="hsla(207, 69%, 79%, 1)" fill-opacity="1" stroke="none">
</path>
<path d="M 120.2242 185.88 L 171.9884 185.88 L 171.9884 165.468 L 120.2242 165.468 L 120.2242 185.88 Z" fill="hsla(207, 69%, 79%, 1)" fill-opacity="1" stroke="none">
</path>
<path d="M 195.2449 171.3 L 247.0091 171.3 L 247.0091 149.268 L 195.2449 149.268 L 195.2449 171.3 Z" fill="hsla(207, 69%, 79%, 1)" fill-opacity="1" stroke="none">
</path>
<path d="M 270.2655 178.752 L 322.0298 178.752 L 322.0298 155.1 L 270.2655 155.1 L 270.2655 178.752 Z" fill="hsla(207, 69%, 79%, 1)" fill-opacity="1" stroke="none">
</path>
<path d="M 345.2862 178.752 L 397.0505 178.752 L 397.0505 152.832 L 345.2862 152.832 L 345.2862 178.752 Z" fill="hsla(207, 69%, 79%, 1)" fill-opacity="1" stroke="none">
</path>
<path d="M 420.3069 165.468 L 472.0711 165.468 L 472.0711 138.576 L 420.3069 138.576 L 420.3069 165.468 Z" fill="hsla(207, 69%, 79%, 1)" fill-opacity="1" stroke="none">
</path>
<path d="M 495.3275 151.536 L 547.0918 151.536 L 547.0918 123.996 L 495.3275 123.996 L 495.3275 151.536 Z" fill="hsla(207, 69%, 79%, 1)" fill-opacity="1" stroke="none">
</path>
<path d="M 45.2035 175.512 L 96.9678 175.512 L 96.9678 165.792 L 45.2035 165.792 L 45.2035 175.512 Z" fill="hsla(202, 28%, 65%, 1)" fill-opacity="1" stroke="none">
</path>
<path d="M 120.2242 165.468 L 171.9884 165.468 L 171.9884 154.776 L 120.2242 154.776 L 120.2242 165.468 Z" fill="hsla(202, 28%, 65%, 1)" fill-opacity="1" stroke="none">
</path>
<path d="M 195.2449 149.268 L 247.0091 149.268 L 247.0091 136.308 L 195.2449 136.308 L 195.2449 149.268 Z" fill="hsla(202, 28%, 65%, 1)" fill-opacity="1" stroke="none">
</path>
<path d="M 270.2655 155.1 L 322.0298 155.1 L 322.0298 138.252 L 270.2655 138.252 L 270.2655 155.1 Z" fill="hsla(202, 28%, 65%, 1)" fill-opacity="1" stroke="none">
</path>
<path d="M 345.2862 152.832 L 397.0505 152.832 L 397.0505 131.772 L 345.2862 131.772 L 345.2862 152.832 Z" fill="hsla(202, 28%, 65%, 1)" fill-opacity="1" stroke="none">
</path>
<path d="M 420.3069 138.576 L 472.0711 138.576 L 472.0711 113.304 L 420.3069 113.304 L 420.3069 138.576 Z" fill="hsla(202, 28%, 65%, 1)" fill-opacity="1" stroke="none">
</path>
<path d="M 495.3275 123.996 L 547.0918 123.996 L 547.0918 91.272 L 495.3275 91.272 L 495.3275 123.996 Z" fill="hsla(202, 28%, 65%, 1)" fill-opacity="1" stroke="none">
</path>
<path d="M 0 0 L 240.748 0 L 240.748 14 L 0 14 L 0 0 Z" fill="rgb(0,0,0)" fill-opacity="0" stroke="#ccc" stroke-width="0" paint-order="fill" stroke-opacity="1" stroke-dasharray="none" stroke-linecap="butt" stroke-miterlimit="10" transform="matrix(1,0,0,1,167.626,41)">
</path>
<path d="M 19.5 7 A 7 7 0 1 1 19.5 6.9993" fill="hsla(207, 65%, 39%, 1)" fill-opacity="1" stroke="none" transform="matrix(1,0,0,1,162.126,41)">
</path>
<text xml:space="preserve" fill="hsla(212, 10%, 53%, 1)" fill-opacity="1" stroke="none" transform="matrix(1,0,0,1,162.126,41)" dominant-baseline="central" text-anchor="start" x="23" y="7" style="font: 12px sans-serif;">North</text>
<path d="M 19.5 7 A 7 7 0 1 1 19.5 6.9993" fill="hsla(195, 49%, 51%, 1)" fill-opacity="1" stroke="none" transform="matrix(1,0,0,1,218.9697,41)">
</path>
<text xml:space="preserve" fill="hsla(212, 10%, 53%, 1)" fill-opacity="1" stroke="none" transform="matrix(1,0,0,1,218.9697,41)" dominant-baseline="central" text-anchor="start" x="23" y="7" style="font: 12px sans-serif;">Southwest</text>
<path d="M 19.5 7 A 7 7 0 1 1 19.5 6.9993" fill="hsla(207, 69%, 79%, 1)" fill-opacity="1" stroke="none" transform="matrix(1,0,0,1,302.5029,41)">
</path>
<text xml:space="preserve" fill="hsla(212, 10%, 53%, 1)" fill-opacity="1" stroke="none" transform="matrix(1,0,0,1,302.5029,41)" dominant-baseline="central" text-anchor="start" x="23" y="7" style="font: 12px sans-serif;">East</text>
<path d="M 19.5 7 A 7 7 0 1 1 19.5 6.9993" fill="hsla(202, 28%, 65%, 1)" fill-opacity="1" stroke="none" transform="matrix(1,0,0,1,354.0146,41)">
</path>
<text xml:space="preserve" fill="hsla(212, 10%, 53%, 1)" fill-opacity="1" stroke="none" transform="matrix(1,0,0,1,354.0146,41)" dominant-baseline="central" text-anchor="start" x="23" y="7" style="font: 12px sans-serif;">South</text>
<path d="" fill="rgb(0,0,0)" fill-opacity="0" stroke="#ccc" stroke-width="0" paint-order="fill" stroke-opacity="1" stroke-dasharray="none" stroke-linecap="butt" stroke-miterlimit="10">
</path>
<text xml:space="preserve" fill="hsla(210, 14%, 37%, 1)" fill-opacity="1" stroke="none" dominant-baseline="central" text-anchor="start" x="0" y="7" style="font: bold 14px sans-serif;">Annual Sales 1990-1996</text>
<text xml:space="preserve" fill="hsla(212, 12%, 43%, 1)" fill-opacity="1" stroke="none" dominant-baseline="central" text-anchor="start" x="0" y="27.5" style="font: 13px sans-serif;">Regional Breakdown</text>
</g>
</svg>