<svg xmlns="http://www.w3.org/2000/svg" xmlns:xlink="http://www.w3.org/1999/xlink" version="1.1" baseProfile="full" width="576" height="290" style="position: absolute; left: 0; top: 0; user-select: none;">
  <rect width="576" height="290" x="0" y="0" id="0" fill="rgb(255,255,255)" fill-opacity="0"></rect>
  <g>
    <path d="M496 180L506 180" fill="none" stroke="hsla(207, 65%, 39%, 1)"></path>
    <path d="M496 220.4L506 220.4" fill="none" stroke="hsla(195, 49%, 51%, 1)"></path>
    <path d="M496 260.8L506 260.8" fill="none" stroke="hsla(207, 69%, 79%, 1)"></path>
    <path d="M496 139.6L506 139.6" fill="none" stroke="hsla(202, 28%, 65%, 1)"></path>
    <path d="M496 99.2L506 99.2" fill="none" stroke="hsla(179, 37%, 65%, 1)"></path>
    <path d="M191.872 160.8L496 160.8L496 199.2L247.168 199.2Z" fill="hsla(207, 65%, 39%, 1)" stroke="white" stroke-linejoin="round"></path>
    <path d="M247.168 201.2L496 201.2L496 239.6L302.464 239.6Z" fill="hsla(195, 49%, 51%, 1)" stroke="white" stroke-linejoin="round"></path>
    <path d="M302.464 241.6L496 241.6L496 280L357.76 280Z" fill="hsla(207, 69%, 79%, 1)" stroke="white" stroke-linejoin="round"></path>
    <path d="M136.576 120.4L496 120.4L496 158.8L191.872 158.8Z" fill="rgb(141,172,191)" stroke="white" stroke-linejoin="round"></path>
    <path d="M81.28 80L496 80L496 118.4L136.576 118.4Z" fill="rgb(133,199,198)" stroke="white" stroke-linejoin="round"></path>
    <text dominant-baseline="central" text-anchor="start" style="font-size: 12px; font-family: sans-serif;" x="511" y="180" fill="hsla(207, 65%, 39%, 1)" stroke="rgb(255,255,255)" stroke-width="2" paint-order="stroke" stroke-miterlimit="2">
      60
    </text>
    <text
      dominant-baseline="central"
      text-anchor="start"
      style="font-size: 12px; font-family: sans-serif;"
      x="511"
      y="220.40000000000003"
      fill="hsla(195, 49%, 51%, 1)"
      stroke="rgb(255,255,255)"
      stroke-width="2"
      paint-order="stroke"
      stroke-miterlimit="2"
    >
      40
    </text>
    <text
      dominant-baseline="central"
      text-anchor="start"
      style="font-size: 12px; font-family: sans-serif;"
      x="511"
      y="260.8"
      fill="hsla(207, 69%, 79%, 1)"
      stroke="rgb(255,255,255)"
      stroke-width="2"
      paint-order="stroke"
      stroke-miterlimit="2"
    >
      20
    </text>
    <text
      dominant-baseline="central"
      text-anchor="start"
      style="font-size: 12px; font-family: sans-serif;"
      x="511"
      y="139.60000000000002"
      fill="hsla(202, 28%, 65%, 1)"
      stroke="rgb(255,255,255)"
      stroke-width="2"
      paint-order="stroke"
      stroke-miterlimit="2"
    >
      80
    </text>
    <text
      dominant-baseline="central"
      text-anchor="start"
      style="font-size: 12px; font-family: sans-serif;"
      x="511"
      y="99.2"
      fill="hsla(179, 37%, 65%, 1)"
      stroke="rgb(255,255,255)"
      stroke-width="2"
      paint-order="stroke"
      stroke-miterlimit="2"
    >
      100
    </text>
    <path d="M0 0l272.666 0l0 14l-272.666 0Z" transform="translate(151.667 45)" fill="rgb(0,0,0)" fill-opacity="0" stroke="#ccc" stroke-width="0"></path>
    <path d="M19.5 7A7 7 0 1 1 19.5 6.9993" transform="translate(146.167 45)" fill="hsla(207, 65%, 39%, 1)" stroke="white" stroke-width="0" stroke-linecap="butt" stroke-miterlimit="10"></path>
    <text dominant-baseline="central" text-anchor="start" style="font-size: 12px; font-family: sans-serif;" x="23" y="7" transform="translate(146.167 45)" fill="hsla(212, 10%, 53%, 1)">Visit</text>
    <path d="M19.5 7A7 7 0 1 1 19.5 6.9993" transform="translate(196.126 45)" fill="hsla(195, 49%, 51%, 1)" stroke="white" stroke-width="0" stroke-linecap="butt" stroke-miterlimit="10"></path>
    <text dominant-baseline="central" text-anchor="start" style="font-size: 12px; font-family: sans-serif;" x="23" y="7" transform="translate(196.126 45)" fill="hsla(212, 10%, 53%, 1)">Inquiry</text>
    <path d="M19.5 7A7 7 0 1 1 19.5 6.9993" transform="translate(259.6436 45)" fill="hsla(207, 69%, 79%, 1)" stroke="white" stroke-width="0" stroke-linecap="butt" stroke-miterlimit="10"></path>
    <text dominant-baseline="central" text-anchor="start" style="font-size: 12px; font-family: sans-serif;" x="23" y="7" transform="translate(259.6436 45)" fill="hsla(212, 10%, 53%, 1)">Order</text>
    <path d="M19.5 7A7 7 0 1 1 19.5 6.9993" transform="translate(317.8174 45)" fill="hsla(202, 28%, 65%, 1)" stroke="white" stroke-width="0" stroke-linecap="butt" stroke-miterlimit="10"></path>
    <text dominant-baseline="central" text-anchor="start" style="font-size: 12px; font-family: sans-serif;" x="23" y="7" transform="translate(317.8174 45)" fill="hsla(212, 10%, 53%, 1)">Click</text>
    <path d="M19.5 7A7 7 0 1 1 19.5 6.9993" transform="translate(371.3154 45)" fill="hsla(179, 37%, 65%, 1)" stroke="white" stroke-width="0" stroke-linecap="butt" stroke-miterlimit="10"></path>
    <text dominant-baseline="central" text-anchor="start" style="font-size: 12px; font-family: sans-serif;" x="23" y="7" transform="translate(371.3154 45)" fill="hsla(212, 10%, 53%, 1)">Show</text>
    <path d="M0 0l86.3311 0l0 34l-86.3311 0Z" fill="rgb(0,0,0)" fill-opacity="0" stroke="#ccc" stroke-width="0"></path>
  </g>
</svg>
