<svg width="576" height="428" xmlns="http://www.w3.org/2000/svg" xmlns:xlink="http://www.w3.org/1999/xlink" version="1.1" baseProfile="full" viewBox="0 0 576 428">
<rect width="576" height="428" x="0" y="0" id="0" fill="rgb(255,255,255)" fill-opacity="0"></rect>
<polyline points="495.2 90.8 505.2 90.8" fill="none" stroke="hsla(207, 65%, 39%, 1)"></polyline>
<polyline points="449 152.4 459 152.4" fill="none" stroke="hsla(195, 49%, 51%, 1)"></polyline>
<polyline points="403.9 214 413.9 214" fill="none" stroke="hsla(207, 69%, 79%, 1)"></polyline>
<polyline points="364.4 275.6 374.4 275.6" fill="none" stroke="hsla(202, 28%, 65%, 1)"></polyline>
<polyline points="317.5 337.2 327.5 337.2" fill="none" stroke="hsla(179, 37%, 65%, 1)"></polyline>
<polygon points="57.6 60 518.4 60 472.1 121.6 103.9 121.6" fill="rgb(35,106,164)" stroke="white" stroke-linejoin="round"></polygon>
<polygon points="103.9 121.6 472.1 121.6 426 183.2 150 183.2" fill="hsla(195, 49%, 51%, 1)" stroke="white" stroke-linejoin="round"></polygon>
<polygon points="150 183.2 426 183.2 381.8 244.8 194.2 244.8" fill="hsla(207, 69%, 79%, 1)" stroke="white" stroke-linejoin="round"></polygon>
<polygon points="194.2 244.8 381.8 244.8 347.1 306.4 228.9 306.4" fill="hsla(202, 28%, 65%, 1)" stroke="white" stroke-linejoin="round"></polygon>
<polygon points="228.9 306.4 347.1 306.4 288 368 288 368" fill="hsla(179, 37%, 65%, 1)" stroke="white" stroke-linejoin="round"></polygon>
<text dominant-baseline="central" text-anchor="start" style="font-size:12px;font-family:sans-serif;" x="510.24184615384615" y="90.8" fill="hsla(207, 65%, 39%, 1)" stroke="rgb(255,255,255)" stroke-width="2" paint-order="stroke" stroke-miterlimit="2">leads</text>
<text dominant-baseline="central" text-anchor="start" style="font-size:12px;font-family:sans-serif;" xml:space="preserve" x="464.0436923076923" y="152.39999999999998" fill="hsla(195, 49%, 51%, 1)" stroke="rgb(255,255,255)" stroke-width="2" paint-order="stroke" stroke-miterlimit="2">sales call</text>
<text dominant-baseline="central" text-anchor="start" style="font-size:12px;font-family:sans-serif;" xml:space="preserve" x="418.9089230769231" y="214" fill="hsla(207, 69%, 79%, 1)" stroke="rgb(255,255,255)" stroke-width="2" paint-order="stroke" stroke-miterlimit="2">follow up</text>
<text dominant-baseline="central" text-anchor="start" style="font-size:12px;font-family:sans-serif;" x="379.4455384615385" y="275.59999999999997" fill="hsla(202, 28%, 65%, 1)" stroke="rgb(255,255,255)" stroke-width="2" paint-order="stroke" stroke-miterlimit="2">conversation</text>
<text dominant-baseline="central" text-anchor="start" style="font-size:12px;font-family:sans-serif;" x="332.53846153846155" y="337.2" fill="hsla(179, 37%, 65%, 1)" stroke="rgb(255,255,255)" stroke-width="2" paint-order="stroke" stroke-miterlimit="2">sale</text>
<path d="M0 0l0 0l0 0l0 0Z" fill="rgb(0,0,0)" fill-opacity="0" stroke="#ccc" stroke-width="0"></path>
</svg>