<svg xmlns="http://www.w3.org/2000/svg" xmlns:xlink="http://www.w3.org/1999/xlink" version="1.1" baseProfile="full" width="576" height="290" style="position: absolute; left: 0; top: 0; user-select: none;">
  <rect width="576" height="290" x="0" y="0" id="0" fill="rgb(255,255,255)" fill-opacity="0"></rect>
  <g>
    <path d="M403.84 180L413.84 180" fill="none" stroke="hsla(207, 65%, 39%, 1)"></path>
    <path d="M376.192 139.6L386.192 139.6" fill="none" stroke="hsla(195, 49%, 51%, 1)"></path>
    <path d="M348.544 99.2L358.544 99.2" fill="none" stroke="hsla(207, 69%, 79%, 1)"></path>
    <path d="M431.488 220.4L441.488 220.4" fill="none" stroke="hsla(202, 28%, 65%, 1)"></path>
    <path d="M459.136 260.8L469.136 260.8" fill="none" stroke="hsla(179, 37%, 65%, 1)"></path>
    <path d="M113.536 199.2L417.664 199.2L390.016 160.8L141.184 160.8Z" fill="rgb(35,106,164)" stroke="white" stroke-linejoin="round"></path>
    <path d="M141.184 158.8L390.016 158.8L362.368 120.4L168.832 120.4Z" fill="rgb(69,161,191)" stroke="white" stroke-linejoin="round"></path>
    <path d="M168.832 118.4L362.368 118.4L334.72 80L196.48 80Z" fill="rgb(165,205,238)" stroke="white" stroke-linejoin="round"></path>
    <path d="M85.888 239.6L445.312 239.6L417.664 201.2L113.536 201.2Z" fill="rgb(141,172,191)" stroke="white" stroke-linejoin="round"></path>
    <path d="M58.24 280L472.96 280L445.312 241.6L85.888 241.6Z" fill="rgb(133,199,198)" stroke="white" stroke-linejoin="round"></path>
    <text
      dominant-baseline="central"
      text-anchor="start"
      style="font-size: 12px; font-family: sans-serif;"
      x="418.84"
      y="180"
      fill="hsla(207, 65%, 39%, 1)"
      stroke="rgb(255,255,255)"
      stroke-width="2"
      paint-order="stroke"
      stroke-miterlimit="2"
    >
      60
    </text>
    <text
      dominant-baseline="central"
      text-anchor="start"
      style="font-size: 12px; font-family: sans-serif;"
      x="391.192"
      y="139.59999999999997"
      fill="hsla(195, 49%, 51%, 1)"
      stroke="rgb(255,255,255)"
      stroke-width="2"
      paint-order="stroke"
      stroke-miterlimit="2"
    >
      40
    </text>
    <text
      dominant-baseline="central"
      text-anchor="start"
      style="font-size: 12px; font-family: sans-serif;"
      x="363.544"
      y="99.19999999999997"
      fill="hsla(207, 69%, 79%, 1)"
      stroke="rgb(255,255,255)"
      stroke-width="2"
      paint-order="stroke"
      stroke-miterlimit="2"
    >
      20
    </text>
    <text
      dominant-baseline="central"
      text-anchor="start"
      style="font-size: 12px; font-family: sans-serif;"
      x="446.488"
      y="220.39999999999998"
      fill="hsla(202, 28%, 65%, 1)"
      stroke="rgb(255,255,255)"
      stroke-width="2"
      paint-order="stroke"
      stroke-miterlimit="2"
    >
      80
    </text>
    <text
      dominant-baseline="central"
      text-anchor="start"
      style="font-size: 12px; font-family: sans-serif;"
      x="474.136"
      y="260.8"
      fill="hsla(179, 37%, 65%, 1)"
      stroke="rgb(255,255,255)"
      stroke-width="2"
      paint-order="stroke"
      stroke-miterlimit="2"
    >
      100
    </text>
    <path d="M0 0l272.666 0l0 14l-272.666 0Z" transform="translate(151.667 45)" fill="rgb(0,0,0)" fill-opacity="0" stroke="#ccc" stroke-width="0"></path>
    <path d="M19.5 7A7 7 0 1 1 19.5 6.9993" transform="translate(146.167 45)" fill="hsla(207, 65%, 39%, 1)" stroke="white" stroke-width="0" stroke-linecap="butt" stroke-miterlimit="10"></path>
    <text dominant-baseline="central" text-anchor="start" style="font-size: 12px; font-family: sans-serif;" x="23" y="7" transform="translate(146.167 45)" fill="hsla(212, 10%, 53%, 1)">Visit</text>
    <path d="M19.5 7A7 7 0 1 1 19.5 6.9993" transform="translate(196.126 45)" fill="hsla(195, 49%, 51%, 1)" stroke="white" stroke-width="0" stroke-linecap="butt" stroke-miterlimit="10"></path>
    <text dominant-baseline="central" text-anchor="start" style="font-size: 12px; font-family: sans-serif;" x="23" y="7" transform="translate(196.126 45)" fill="hsla(212, 10%, 53%, 1)">Inquiry</text>
    <path d="M19.5 7A7 7 0 1 1 19.5 6.9993" transform="translate(259.6436 45)" fill="hsla(207, 69%, 79%, 1)" stroke="white" stroke-width="0" stroke-linecap="butt" stroke-miterlimit="10"></path>
    <text dominant-baseline="central" text-anchor="start" style="font-size: 12px; font-family: sans-serif;" x="23" y="7" transform="translate(259.6436 45)" fill="hsla(212, 10%, 53%, 1)">Order</text>
    <path d="M19.5 7A7 7 0 1 1 19.5 6.9993" transform="translate(317.8174 45)" fill="hsla(202, 28%, 65%, 1)" stroke="white" stroke-width="0" stroke-linecap="butt" stroke-miterlimit="10"></path>
    <text dominant-baseline="central" text-anchor="start" style="font-size: 12px; font-family: sans-serif;" x="23" y="7" transform="translate(317.8174 45)" fill="hsla(212, 10%, 53%, 1)">Click</text>
    <path d="M19.5 7A7 7 0 1 1 19.5 6.9993" transform="translate(371.3154 45)" fill="hsla(179, 37%, 65%, 1)" stroke="white" stroke-width="0" stroke-linecap="butt" stroke-miterlimit="10"></path>
    <text dominant-baseline="central" text-anchor="start" style="font-size: 12px; font-family: sans-serif;" x="23" y="7" transform="translate(371.3154 45)" fill="hsla(212, 10%, 53%, 1)">Show</text>
    <path d="M0 0l86.3311 0l0 34l-86.3311 0Z" fill="rgb(0,0,0)" fill-opacity="0" stroke="#ccc" stroke-width="0"></path>
  </g>
</svg>
