<svg xmlns="http://www.w3.org/2000/svg" xmlns:xlink="http://www.w3.org/1999/xlink" version="1.1" baseProfile="full" width="576" height="212" style="user-select: none; position: absolute; left: 0px; top: 0px;">
<g>
<rect width="576" height="212" x="0" y="0" id="0" fill="rgb(255,255,255)" fill-opacity="0">
</rect>
</g>
<g>
<text xml:space="preserve" fill="#6E7079" fill-opacity="1" stroke="none" transform="matrix(1,0,0,1,558.72,195.76)" dominant-baseline="central" text-anchor="end" x="0" y="6" style="font: 12px sans-serif;">Region →</text>
<path d="M 30.8976 172.5 L 558.72 172.5" fill="none" stroke="hsla(215, 15%, 91%, 1)" stroke-width="1" paint-order="fill" stroke-opacity="1" stroke-dasharray="none" stroke-linecap="butt" stroke-miterlimit="10">
</path>
<path d="M 30.8976 145.5 L 558.72 145.5" fill="none" stroke="hsla(215, 15%, 91%, 1)" stroke-width="1" paint-order="fill" stroke-opacity="1" stroke-dasharray="none" stroke-linecap="butt" stroke-miterlimit="10">
</path>
<path d="M 30.8976 118.5 L 558.72 118.5" fill="none" stroke="hsla(215, 15%, 91%, 1)" stroke-width="1" paint-order="fill" stroke-opacity="1" stroke-dasharray="none" stroke-linecap="butt" stroke-miterlimit="10">
</path>
<path d="M 30.8976 91.5 L 558.72 91.5" fill="none" stroke="hsla(215, 15%, 91%, 1)" stroke-width="1" paint-order="fill" stroke-opacity="1" stroke-dasharray="none" stroke-linecap="butt" stroke-miterlimit="10">
</path>
<path d="M 30.8976 64.5 L 558.72 64.5" fill="none" stroke="hsla(215, 15%, 91%, 1)" stroke-width="1" paint-order="fill" stroke-opacity="1" stroke-dasharray="none" stroke-linecap="butt" stroke-miterlimit="10">
</path>
<path d="M 30.8976 37.5 L 558.72 37.5" fill="none" stroke="hsla(215, 15%, 91%, 1)" stroke-width="1" paint-order="fill" stroke-opacity="1" stroke-dasharray="none" stroke-linecap="butt" stroke-miterlimit="10">
</path>
<path d="M 30.8976 10.5 L 558.72 10.5" fill="none" stroke="hsla(215, 15%, 91%, 1)" stroke-width="1" paint-order="fill" stroke-opacity="1" stroke-dasharray="none" stroke-linecap="butt" stroke-miterlimit="10">
</path>
<path d="M 30.8976 91.5 L 558.72 91.5" fill="none" stroke="hsla(212, 10%, 53%, 1)" stroke-width="1" paint-order="fill" stroke-opacity="1" stroke-dasharray="none" stroke-linecap="round" stroke-miterlimit="10">
</path>
<text xml:space="preserve" fill="hsla(212, 10%, 53%, 1)" fill-opacity="1" stroke="none" transform="matrix(1,0,0,1,26.8976,172)" dominant-baseline="central" text-anchor="end" x="0" y="0" style="font: 12px sans-serif;">-150</text>
<text xml:space="preserve" fill="hsla(212, 10%, 53%, 1)" fill-opacity="1" stroke="none" transform="matrix(1,0,0,1,26.8976,145)" dominant-baseline="central" text-anchor="end" x="0" y="0" style="font: 12px sans-serif;">-100</text>
<text xml:space="preserve" fill="hsla(212, 10%, 53%, 1)" fill-opacity="1" stroke="none" transform="matrix(1,0,0,1,26.8976,118)" dominant-baseline="central" text-anchor="end" x="0" y="0" style="font: 12px sans-serif;">-50</text>
<text xml:space="preserve" fill="hsla(212, 10%, 53%, 1)" fill-opacity="1" stroke="none" transform="matrix(1,0,0,1,26.8976,91)" dominant-baseline="central" text-anchor="end" x="0" y="0" style="font: 12px sans-serif;">0</text>
<text xml:space="preserve" fill="hsla(212, 10%, 53%, 1)" fill-opacity="1" stroke="none" transform="matrix(1,0,0,1,26.8976,64)" dominant-baseline="central" text-anchor="end" x="0" y="0" style="font: 12px sans-serif;">50</text>
<text xml:space="preserve" fill="hsla(212, 10%, 53%, 1)" fill-opacity="1" stroke="none" transform="matrix(1,0,0,1,26.8976,37)" dominant-baseline="central" text-anchor="end" x="0" y="0" style="font: 12px sans-serif;">100</text>
<text xml:space="preserve" fill="hsla(212, 10%, 53%, 1)" fill-opacity="1" stroke="none" transform="matrix(1,0,0,1,26.8976,10)" dominant-baseline="central" text-anchor="end" x="0" y="0" style="font: 12px sans-serif;">150</text>
<text xml:space="preserve" fill="hsla(212, 10%, 53%, 1)" fill-opacity="1" stroke="none" transform="matrix(1,0,0,1,68.5992,178)" dominant-baseline="central" text-anchor="middle" x="0" y="6" style="font: 12px sans-serif;">South</text>
<text xml:space="preserve" fill="hsla(212, 10%, 53%, 1)" fill-opacity="1" stroke="none" transform="matrix(1,0,0,1,144.0024,178)" dominant-baseline="central" text-anchor="middle" x="0" y="6" style="font: 12px sans-serif;">East</text>
<text xml:space="preserve" fill="hsla(212, 10%, 53%, 1)" fill-opacity="1" stroke="none" transform="matrix(1,0,0,1,219.4056,178)" dominant-baseline="central" text-anchor="middle" x="0" y="6" style="font: 12px sans-serif;">Southwest</text>
<text xml:space="preserve" fill="hsla(212, 10%, 53%, 1)" fill-opacity="1" stroke="none" transform="matrix(1,0,0,1,294.8088,178)" dominant-baseline="central" text-anchor="middle" x="0" y="6" style="font: 12px sans-serif;">West</text>
<text xml:space="preserve" fill="hsla(212, 10%, 53%, 1)" fill-opacity="1" stroke="none" transform="matrix(1,0,0,1,370.212,178)" dominant-baseline="central" text-anchor="middle" x="0" y="6" style="font: 12px sans-serif;">Northwest</text>
<text xml:space="preserve" fill="hsla(212, 10%, 53%, 1)" fill-opacity="1" stroke="none" transform="matrix(1,0,0,1,445.6152,178)" dominant-baseline="central" text-anchor="middle" x="0" y="6" style="font: 12px sans-serif;">Southeast</text>
<text xml:space="preserve" fill="hsla(212, 10%, 53%, 1)" fill-opacity="1" stroke="none" transform="matrix(1,0,0,1,521.0184,178)" dominant-baseline="central" text-anchor="middle" x="0" y="6" style="font: 12px sans-serif;">North</text>
<path d="M 42.5851 91 L 94.6133 91 L 94.6133 29.98 L 42.5851 29.98 L 42.5851 91 Z" fill="hsla(207, 65%, 39%, 1)" fill-opacity="1" stroke="none">
</path>
<path d="M 117.9883 91 L 170.0165 91 L 170.0165 30.52 L 117.9883 30.52 L 117.9883 91 Z" fill="hsla(207, 65%, 39%, 1)" fill-opacity="1" stroke="none">
</path>
<path d="M 193.3915 91 L 245.4197 91 L 245.4197 31.6 L 193.3915 31.6 L 193.3915 91 Z" fill="hsla(207, 65%, 39%, 1)" fill-opacity="1" stroke="none">
</path>
<path d="M 268.7947 91 L 320.8229 91 L 320.8229 35.38 L 268.7947 35.38 L 268.7947 91 Z" fill="hsla(207, 65%, 39%, 1)" fill-opacity="1" stroke="none">
</path>
<path d="M 344.1979 91 L 396.2261 91 L 396.2261 36.46 L 344.1979 36.46 L 344.1979 91 Z" fill="hsla(207, 65%, 39%, 1)" fill-opacity="1" stroke="none">
</path>
<path d="M 419.6011 91 L 471.6293 91 L 471.6293 133.12 L 419.6011 133.12 L 419.6011 91 Z" fill="hsla(207, 65%, 39%, 1)" fill-opacity="1" stroke="none">
</path>
<path d="M 495.0043 91 L 547.0325 91 L 547.0325 147.7 L 495.0043 147.7 L 495.0043 91 Z" fill="hsla(207, 65%, 39%, 1)" fill-opacity="1" stroke="none">
</path>
<path d="M 0 0 L 0 0 L 0 0 L 0 0 L 0 0 Z" fill="rgb(0,0,0)" fill-opacity="0" stroke="#ccc" stroke-width="0" paint-order="fill" stroke-opacity="1" stroke-dasharray="none" stroke-linecap="butt" stroke-miterlimit="10">
</path>
</g>
</svg>