<svg xmlns="http://www.w3.org/2000/svg" xmlns:xlink="http://www.w3.org/1999/xlink" version="1.1" baseProfile="full" width="576" height="249" style="user-select: none; position: absolute; left: 0px; top: 0px;">
<g>
<rect width="576" height="249" x="0" y="0" id="0" fill="rgb(255,255,255)" fill-opacity="0">
</rect>
</g>
<g>
<defs>
<clipPath id="zr2391-clip-0">
<path d="M 31 46 L 559 46 L 559 210 L 31 210 L 31 46 Z" fill="#000" fill-opacity="1" stroke="none">
</path>
</clipPath>
<clipPath id="zr2391-clip-1">
<path d="M 31 46 L 559 46 L 559 210 L 31 210 L 31 46 Z" fill="#000" fill-opacity="1" stroke="none">
</path>
</clipPath>
<clipPath id="zr2391-clip-2">
<path d="M 31 46 L 559 46 L 559 210 L 31 210 L 31 46 Z" fill="#000" fill-opacity="1" stroke="none">
</path>
</clipPath>
</defs>
<text xml:space="preserve" fill="#6E7079" fill-opacity="1" stroke="none" transform="matrix(1,0,0,1,558.72,232.02)" dominant-baseline="central" text-anchor="end" x="0" y="6" style="font: 12px sans-serif;">day of year →</text>
<path d="M 32.9015 209.5 L 558.72 209.5" fill="none" stroke="hsla(215, 15%, 91%, 1)" stroke-width="1" paint-order="fill" stroke-opacity="1" stroke-dasharray="none" stroke-linecap="butt" stroke-miterlimit="10">
</path>
<path d="M 32.9015 182.5 L 558.72 182.5" fill="none" stroke="hsla(215, 15%, 91%, 1)" stroke-width="1" paint-order="fill" stroke-opacity="1" stroke-dasharray="none" stroke-linecap="butt" stroke-miterlimit="10">
</path>
<path d="M 32.9015 155.5 L 558.72 155.5" fill="none" stroke="hsla(215, 15%, 91%, 1)" stroke-width="1" paint-order="fill" stroke-opacity="1" stroke-dasharray="none" stroke-linecap="butt" stroke-miterlimit="10">
</path>
<path d="M 32.9015 128.5 L 558.72 128.5" fill="none" stroke="hsla(215, 15%, 91%, 1)" stroke-width="1" paint-order="fill" stroke-opacity="1" stroke-dasharray="none" stroke-linecap="butt" stroke-miterlimit="10">
</path>
<path d="M 32.9015 101.5 L 558.72 101.5" fill="none" stroke="hsla(215, 15%, 91%, 1)" stroke-width="1" paint-order="fill" stroke-opacity="1" stroke-dasharray="none" stroke-linecap="butt" stroke-miterlimit="10">
</path>
<path d="M 32.9015 74.5 L 558.72 74.5" fill="none" stroke="hsla(215, 15%, 91%, 1)" stroke-width="1" paint-order="fill" stroke-opacity="1" stroke-dasharray="none" stroke-linecap="butt" stroke-miterlimit="10">
</path>
<path d="M 32.9015 47.5 L 558.72 47.5" fill="none" stroke="hsla(215, 15%, 91%, 1)" stroke-width="1" paint-order="fill" stroke-opacity="1" stroke-dasharray="none" stroke-linecap="butt" stroke-miterlimit="10">
</path>
<path d="M 0 0 L 89.6973 0 L 89.6973 12 L 0 12 L 0 0 Z" fill="white" fill-opacity="1" stroke="none" transform="matrix(1,0,0,1,32.9015,41)">
</path>
<text xml:space="preserve" fill="hsla(212, 10%, 53%, 1)" fill-opacity="1" stroke="none" transform="matrix(1,0,0,1,32.9015,41)" dominant-baseline="central" text-anchor="start" x="0" y="6" style="font: 12px sans-serif;">cumulative calls</text>
<path d="M 32.9015 209.5 L 558.72 209.5" fill="none" stroke="hsla(212, 10%, 53%, 1)" stroke-width="1" paint-order="fill" stroke-opacity="1" stroke-dasharray="none" stroke-linecap="round" stroke-miterlimit="10">
</path>
<text xml:space="preserve" fill="hsla(212, 10%, 53%, 1)" fill-opacity="1" stroke="none" transform="matrix(1,0,0,1,28.9015,209)" dominant-baseline="central" text-anchor="end" x="0" y="0" style="font: 12px sans-serif;">0k</text>
<text xml:space="preserve" fill="hsla(212, 10%, 53%, 1)" fill-opacity="1" stroke="none" transform="matrix(1,0,0,1,28.9015,182)" dominant-baseline="central" text-anchor="end" x="0" y="0" style="font: 12px sans-serif;">30k</text>
<text xml:space="preserve" fill="hsla(212, 10%, 53%, 1)" fill-opacity="1" stroke="none" transform="matrix(1,0,0,1,28.9015,155)" dominant-baseline="central" text-anchor="end" x="0" y="0" style="font: 12px sans-serif;">60k</text>
<text xml:space="preserve" fill="hsla(212, 10%, 53%, 1)" fill-opacity="1" stroke="none" transform="matrix(1,0,0,1,28.9015,128)" dominant-baseline="central" text-anchor="end" x="0" y="0" style="font: 12px sans-serif;">90k</text>
<text xml:space="preserve" fill="hsla(212, 10%, 53%, 1)" fill-opacity="1" stroke="none" transform="matrix(1,0,0,1,28.9015,101)" dominant-baseline="central" text-anchor="end" x="0" y="0" style="font: 12px sans-serif;">120k</text>
<text xml:space="preserve" fill="hsla(212, 10%, 53%, 1)" fill-opacity="1" stroke="none" transform="matrix(1,0,0,1,28.9015,74)" dominant-baseline="central" text-anchor="end" x="0" y="0" style="font: 12px sans-serif;">150k</text>
<text xml:space="preserve" fill="hsla(212, 10%, 53%, 1)" fill-opacity="1" stroke="none" transform="matrix(1,0,0,1,28.9015,47)" dominant-baseline="central" text-anchor="end" x="0" y="0" style="font: 12px sans-serif;">180k</text>
<text xml:space="preserve" fill="hsla(212, 10%, 53%, 1)" fill-opacity="1" stroke="none" transform="matrix(1,0,0,1,32.9015,215)" dominant-baseline="central" text-anchor="middle" x="0" y="6" style="font: 12px sans-serif;">0</text>
<text xml:space="preserve" fill="hsla(212, 10%, 53%, 1)" fill-opacity="1" stroke="none" transform="matrix(1,0,0,1,164.3561,215)" dominant-baseline="central" text-anchor="middle" x="0" y="6" style="font: 12px sans-serif;">100</text>
<text xml:space="preserve" fill="hsla(212, 10%, 53%, 1)" fill-opacity="1" stroke="none" transform="matrix(1,0,0,1,295.8107,215)" dominant-baseline="central" text-anchor="middle" x="0" y="6" style="font: 12px sans-serif;">200</text>
<text xml:space="preserve" fill="hsla(212, 10%, 53%, 1)" fill-opacity="1" stroke="none" transform="matrix(1,0,0,1,427.2654,215)" dominant-baseline="central" text-anchor="middle" x="0" y="6" style="font: 12px sans-serif;">300</text>
<text xml:space="preserve" fill="hsla(212, 10%, 53%, 1)" fill-opacity="1" stroke="none" transform="matrix(1,0,0,1,558.72,215)" dominant-baseline="central" text-anchor="middle" x="0" y="6" style="font: 12px sans-serif;">400</text>
<g clip-path="url(#zr2391-clip-0)">
<path d="M 34.216 208.8416 L 35.5306 208.4978 L 36.8451 208.1108 L 38.1597 207.7049 L 39.4742 207.4295 L 40.7888 207.2135 L 42.1033 206.7635 L 43.4179 206.3054 L 44.7324 205.8869 L 46.0469 205.4522 L 47.3615 205.0328 L 48.676 204.8213 L 49.9906 204.6404 L 51.3051 204.2561 L 52.6197 203.852 L 53.9342 203.447 L 55.2488 202.961 L 56.5633 202.6451 L 57.8779 202.3805 L 59.1924 202.2419 L 60.507 201.9476 L 61.8215 201.494 L 63.136 201.0665 L 64.4506 200.5949 L 65.7651 200.1593 L 67.0797 199.9514 L 68.3942 199.7183 L 69.7088 199.3097 L 71.0233 198.9434 L 72.3379 198.4259 L 73.6524 197.9705 L 74.967 197.5538 L 76.2815 197.336 L 77.5961 197.1191 L 78.9106 196.6331 L 80.2252 196.2038 L 81.5397 195.6314 L 82.8542 195.1148 L 84.1688 194.8187 L 85.4833 194.6315 L 86.7979 194.4074 L 88.1124 193.961 L 89.427 193.4975 L 90.7415 193.0682 L 92.0561 192.5534 L 93.3706 192.0206 L 94.6852 191.7578 L 95.9997 191.5346 L 97.3143 191.1944 L 98.6288 190.7921 L 99.9433 190.4159 L 101.2579 190.0262 L 102.5724 189.6149 L 103.887 189.3674 L 105.2015 189.1874 L 106.5161 188.7239 L 107.8306 188.2334 L 109.1452 187.7708 L 110.4597 187.3226 L 111.7743 186.9203 L 113.0888 186.6953 L 114.4034 186.5198 L 115.7179 186.095 L 117.0324 185.7269 L 118.347 185.2409 L 119.6615 184.7765 L 120.9761 184.295 L 122.2906 183.9719 L 123.6052 183.7163 L 124.9197 183.1772 L 126.2343 182.7056 L 127.5488 182.2178 L 128.8634 181.6886 L 130.1779 181.2701 L 131.4925 180.9866 L 132.807 180.7643 L 134.1216 180.3287 L 135.4361 179.7779 L 136.7506 179.3063 L 138.0652 178.8185 L 139.3797 178.4252 L 140.6943 178.1021 L 142.0088 177.8771 L 143.3234 177.3956 L 144.6379 176.9159 L 145.9525 176.4461 L 147.267 175.9358 L 148.5816 175.4669 L 149.8961 175.2383 L 151.2106 175.0268 L 152.5252 174.6281 L 153.8397 174.2258 L 155.1543 173.7686 L 156.4688 173.243 L 157.7834 172.7363 L 159.0979 172.3583 L 160.4125 171.9713 L 161.727 171.3188 L 163.0416 170.7068 L 164.3561 170.1056 L 165.6707 169.5728 L 166.9852 169.04 L 168.2998 168.5432 L 169.6143 168.248 L 170.9288 167.654 L 172.2434 167.0951 L 173.5579 166.5254 L 174.8725 165.9134 L 176.187 165.5111 L 177.5016 165.2663 L 178.8161 165.0548 L 180.1307 164.5049 L 181.4452 163.919 L 182.7598 163.3907 L 184.0743 162.8543 L 185.3889 162.3332 L 186.7034 161.9714 L 188.0179 161.7014 L 189.3325 161.1173 L 190.647 160.5404 L 191.9616 159.9698 L 193.2761 159.4253 L 194.5907 158.7044 L 195.9052 158.0672 L 197.2198 157.6523 L 198.5343 156.9728 L 199.8489 156.2942 L 201.1634 155.5121 L 202.478 154.8326 L 203.7925 154.3196 L 205.1071 154.0379 L 206.4216 153.7364 L 207.7361 153.1163 L 209.0507 152.57 L 210.3652 152.0363 L 211.6798 151.5395 L 212.9943 151.049 L 214.3089 150.7556 L 215.6234 150.5027 L 216.938 149.8844 L 218.2525 149.312 L 219.5671 148.718 L 220.8816 148.1078 L 222.1962 147.5498 L 223.5107 147.1637 L 224.8252 146.8766 L 226.1398 146.5238 L 227.4543 145.8326 L 228.7689 145.2422 L 230.0834 144.569 L 231.398 144.0011 L 232.7125 143.6114 L 234.0271 143.309 L 235.3416 142.8032 L 236.6562 142.2029 L 237.9707 141.7052 L 239.2852 140.9798 L 240.5998 140.2931 L 241.9143 139.9034 L 243.2289 139.5047 L 244.5434 138.7685 L 245.858 138.2348 L 247.1725 137.621 L 248.4871 137.009 L 249.8016 136.4888 L 251.1162 136.1783 L 252.4307 135.8966 L 253.7453 135.227 L 255.0598 134.6528 L 256.3744 134.1857 L 257.6889 133.6673 L 259.0034 133.0949 L 260.318 132.6872 L 261.6325 132.3758 L 262.9471 131.8727 L 264.2616 131.2769 L 265.5762 130.7558 L 266.8907 130.223 L 268.2053 129.6974 L 269.5198 129.3248 L 270.8344 129.0638 L 272.1489 128.4554 L 273.4635 127.8938 L 274.778 127.2125 L 276.0926 126.938 L 277.4071 126.4205 L 278.7216 126.0839 L 280.0362 125.8355 L 281.3507 125.138 L 282.6653 124.5629 L 283.9798 124.0049 L 285.2944 123.356 L 286.6089 122.852 L 287.9235 122.4848 L 289.238 122.2031 L 290.5526 121.6694 L 291.8671 121.1771 L 293.1816 120.6128 L 294.4962 120.0476 L 295.8107 119.4005 L 297.1253 119.0405 L 298.4398 118.7633 L 299.7544 118.154 L 301.0689 117.5285 L 302.3835 117.0137 L 303.698 116.5061 L 305.0126 115.9787 L 306.3271 115.5971 L 307.6417 115.3262 L 308.9562 114.8285 L 310.2708 114.2642 L 311.5853 113.7314 L 312.8998 113.2166 L 314.2144 112.6163 L 315.5289 112.2662 L 316.8435 111.9962 L 318.158 111.4679 L 319.4726 110.9324 L 320.7871 110.3987 L 322.1017 109.8479 L 323.4162 109.3052 L 324.7308 108.992 L 326.0453 108.7382 L 327.3599 108.1856 L 328.6744 107.633 L 329.989 107.0444 L 331.3035 106.4018 L 332.618 105.8321 L 333.9326 105.5252 L 335.2471 105.2642 L 336.5617 104.6783 L 337.8762 104.0861 L 339.1908 103.5713 L 340.5053 103.0367 L 341.8199 102.5318 L 343.1344 102.2258 L 344.4489 101.9558 L 345.7635 101.4068 L 347.078 100.8506 L 348.3926 100.3259 L 349.7072 99.7436 L 351.0217 99.1982 L 352.3362 98.8769 L 353.6508 98.5826 L 354.9653 98.3162 L 356.2799 97.7834 L 357.5944 97.2722 L 358.909 96.6683 L 360.2235 96.1463 L 361.5381 95.8403 L 362.8526 95.5568 L 364.1671 95.0366 L 365.4817 94.5092 L 366.7962 93.9017 L 368.1108 93.3626 L 369.4253 92.8073 L 370.7399 92.4707 L 372.0544 92.2097 L 373.369 91.6346 L 374.6835 91.0892 L 375.9981 90.5564 L 377.3126 90.0155 L 378.6272 89.4728 L 379.9417 89.1245 L 381.2563 88.868 L 382.5708 88.3514 L 383.8853 87.7727 L 385.1999 87.2606 L 386.5144 86.6873 L 387.829 86.1113 L 389.1435 85.817 L 390.4581 85.6037 L 391.7726 85.0952 L 393.0872 84.5615 L 394.4017 84.0125 L 395.7162 83.5004 L 397.0308 82.9658 L 398.3454 82.658 L 399.6599 82.4474 L 400.9745 81.8795 L 402.289 81.3341 L 403.6035 80.7365 L 404.9181 80.2775 L 406.2326 79.6646 L 407.5472 79.3586 L 408.8617 79.1381 L 410.1763 78.6413 L 411.4908 78.0509 L 412.8054 77.5352 L 414.1199 76.871 L 415.4344 76.3688 L 416.749 75.9647 L 418.0635 75.7325 L 419.3781 75.1376 L 420.6926 74.5904 L 422.0072 74.1017 L 423.3217 73.568 L 424.6363 72.9875 L 425.9508 72.6554 L 427.2654 72.3989 L 428.5799 71.8688 L 429.8945 71.4242 L 431.209 70.9985 L 432.5236 70.5188 L 433.8381 70.0643 L 435.1526 69.7952 L 436.4672 69.5639 L 437.7817 69.0815 L 439.0963 68.4677 L 440.4108 67.8512 L 441.7254 67.3571 L 443.0399 66.9773 L 444.3545 66.6668 L 445.669 66.485 L 446.9836 66.089 L 448.2981 65.6939 L 449.6127 65.2655 L 450.9272 64.8443 L 452.2418 64.4069 L 453.5563 64.1747 L 454.8708 63.9479 L 456.1854 63.4826 L 457.4999 62.984 L 458.8145 62.5484 L 460.129 61.9967 L 461.4436 61.6016 L 462.7581 61.3694 L 464.0727 61.1723 L 465.3872 60.7223 L 466.7018 60.3461 L 468.0163 60.05 L 469.3308 59.9672 L 470.6454 59.7494 L 471.9599 59.4686 L 473.2745 59.2463 L 474.5891 58.7594 L 475.9036 58.2293 L 477.2181 57.7064 L 478.5327 57.3176 L 479.8472 56.8424 L 481.1618 56.5481 L 482.4763 56.2916 L 483.7909 55.8515 L 485.1054 55.5014 L 486.42 55.1297 L 487.7345 54.7076 L 489.049 54.2558 L 490.3636 53.9642 L 491.6781 53.7374 L 492.9927 53.246 L 494.3072 52.8536 L 495.6218 52.4261 L 496.9363 51.9797 L 498.2509 51.6269 L 499.5654 51.4028 L 500.88 51.2471 L 502.1945 50.9159 L 503.5091 50.7494 L 504.8236 50.5784 L 506.1382 50.2364 L 507.4527 49.8845 L 508.7672 49.6235 L 510.0818 49.3787 L 511.3963 48.9809 L 512.7109 48.6245" fill="none" stroke="hsla(207, 65%, 39%, 1)" stroke-width="2" paint-order="fill" stroke-opacity="1" stroke-dasharray="none" stroke-linecap="butt" stroke-linejoin="round" stroke-miterlimit="10">
</path>
</g>
<g clip-path="url(#zr2391-clip-1)">
<path d="M 34.216 208.7948 L 35.5306 208.3808 L 36.8451 207.9209 L 38.1597 207.5798 L 39.4742 207.3944 L 40.7888 206.948 L 42.1033 206.5025 L 43.4179 206.0174 L 44.7324 205.5719 L 46.0469 205.1354 L 47.3615 204.8852 L 48.676 204.7178 L 49.9906 204.1778 L 51.3051 203.6657 L 52.6197 203.1509 L 53.9342 202.6955 L 55.2488 202.3076 L 56.5633 201.9512 L 57.8779 201.6947 L 59.1924 201.3599 L 60.507 200.882 L 61.8215 200.4599 L 63.136 199.9784 L 64.4506 199.4141 L 65.7651 199.1126 L 67.0797 198.8849 L 68.3942 198.3656 L 69.7088 197.9417 L 71.0233 197.4881 L 72.3379 197.0147 L 73.6524 196.6214 L 74.967 196.3154 L 76.2815 196.0643 L 77.5961 195.662 L 78.9106 195.0878 L 80.2252 194.7224 L 81.5397 194.2994 L 82.8542 193.8089 L 84.1688 193.4975 L 85.4833 193.3103 L 86.7979 192.8675 L 88.1124 192.4832 L 89.427 192.0557 L 90.7415 191.6246 L 92.0561 191.2187 L 93.3706 190.91 L 94.6852 190.6562 L 95.9997 190.2305 L 97.3143 189.866 L 98.6288 189.5159 L 99.9433 189.1694 L 101.2579 188.6969 L 102.5724 188.4206 L 103.887 188.1866 L 105.2015 187.6115 L 106.5161 187.1426 L 107.8306 186.7646 L 109.1452 186.3074 L 110.4597 185.816 L 111.7743 185.4812 L 113.0888 185.1095 L 114.4034 184.5983 L 115.7179 184.1033 L 117.0324 183.5597 L 118.347 183.0125 L 119.6615 182.5067 L 120.9761 182.1899 L 122.2906 181.8983 L 123.6052 181.4501 L 124.9197 180.9875 L 126.2343 180.461 L 127.5488 180.0011 L 128.8634 179.6114 L 130.1779 179.2613 L 131.4925 179.0426 L 132.807 178.7024 L 134.1216 178.3694 L 135.4361 177.9689 L 136.7506 177.5945 L 138.0652 177.3344 L 139.3797 177.0968 L 140.6943 176.9294 L 142.0088 176.5379 L 143.3234 176.204 L 144.6379 175.8521 L 145.9525 175.484 L 147.267 175.1195 L 148.5816 174.8837 L 149.8961 174.6848 L 151.2106 174.4247 L 152.5252 174.0818 L 153.8397 173.7308 L 155.1543 173.3987 L 156.4688 173.0513 L 157.7834 172.8578 L 159.0979 172.631 L 160.4125 172.2521 L 161.727 171.8903 L 163.0416 171.5879 L 164.3561 171.2414 L 165.6707 170.948 L 166.9852 170.6789 L 168.2998 170.4665 L 169.6143 170.0732 L 170.9288 169.7393 L 172.2434 169.3793 L 173.5579 169.0103 L 174.8725 168.7178 L 176.187 168.5108 L 177.5016 168.3542 L 178.8161 167.9888 L 180.1307 167.618 L 181.4452 167.2814 L 182.7598 166.9412 L 184.0743 166.5893 L 185.3889 166.3562 L 186.7034 166.1582 L 188.0179 165.8036 L 189.3325 165.3815 L 190.647 164.8964 L 191.9616 164.549 L 193.2761 164.2106 L 194.5907 163.9541 L 195.9052 163.7849 L 197.2198 163.3637 L 198.5343 162.9056 L 199.8489 162.4466 L 201.1634 161.975 L 202.478 161.5079 L 203.7925 161.237 L 205.1071 160.9796 L 206.4216 160.5935 L 207.7361 160.2335 L 209.0507 159.7943 L 210.3652 159.3641 L 211.6798 158.9123 L 212.9943 158.4155 L 214.3089 158.1086 L 215.6234 157.5992 L 216.938 157.1411 L 218.2525 156.719 L 219.5671 156.2834 L 220.8816 155.837 L 222.1962 155.5265 L 223.5107 155.2304 L 224.8252 154.8515 L 226.1398 154.3097 L 227.4543 153.8489 L 228.7689 153.335 L 230.0834 152.8733 L 231.398 152.5997 L 232.7125 152.3324 L 234.0271 151.8554 L 235.3416 151.3901 L 236.6562 150.9149 L 237.9707 150.5252 L 239.2852 150.1049 L 240.5998 149.8169 L 241.9143 149.5946 L 243.2289 149.1338 L 244.5434 148.664 L 245.858 148.1879 L 247.1725 147.7253 L 248.4871 147.3086 L 249.8016 147.0764 L 251.1162 146.8127 L 252.4307 146.3978 L 253.7453 145.9703 L 255.0598 145.5113 L 256.3744 145.1441 L 257.6889 144.7679 L 259.0034 144.4565 L 260.318 144.2054 L 261.6325 143.795 L 262.9471 143.2343 L 264.2616 142.7195 L 265.5762 142.1741 L 266.8907 141.7349 L 268.2053 141.4217 L 269.5198 141.1553 L 270.8344 140.6477 L 272.1489 140.1815 L 273.4635 139.6028 L 274.778 139.0844 L 276.0926 138.6371 L 277.4071 138.3572 L 278.7216 138.0629 L 280.0362 137.6201 L 281.3507 137.0342 L 282.6653 136.5509 L 283.9798 136.0775 L 285.2944 135.5915 L 286.6089 135.2324 L 287.9235 134.9633 L 289.238 134.5196 L 290.5526 134.0516 L 291.8671 133.5638 L 293.1816 133.0733 L 294.4962 132.5558 L 295.8107 132.2327 L 297.1253 131.9915 L 298.4398 131.5037 L 299.7544 131.0618 L 301.0689 130.6532 L 302.3835 130.2086 L 303.698 129.7685 L 305.0126 129.4436 L 306.3271 129.2177 L 307.6417 128.7344 L 308.9562 128.2592 L 310.2708 127.7957 L 311.5853 127.3709 L 312.8998 126.8444 L 314.2144 126.488 L 315.5289 126.2189 L 316.8435 125.7824 L 318.158 125.3 L 319.4726 124.8293 L 320.7871 124.3613 L 322.1017 123.9275 L 323.4162 123.7268 L 324.7308 123.4676 L 326.0453 122.978 L 327.3599 122.5154 L 328.6744 122.0717 L 329.989 121.6757 L 331.3035 121.2302 L 332.618 120.9233 L 333.9326 120.692 L 335.2471 120.1934 L 336.5617 119.7083 L 337.8762 119.2682 L 339.1908 118.7957 L 340.5053 118.3196 L 341.8199 117.794 L 343.1344 117.5465 L 344.4489 116.9849 L 345.7635 116.4395 L 347.078 116.0183 L 348.3926 115.589 L 349.7072 115.1255 L 351.0217 114.7862 L 352.3362 114.5666 L 353.6508 114.0599 L 354.9653 113.6108 L 356.2799 113.1725 L 357.5944 112.7648 L 358.909 112.2689 L 360.2235 111.9233 L 361.5381 111.6614 L 362.8526 111.3536 L 364.1671 110.8964 L 365.4817 110.2988 L 366.7962 109.8164 L 368.1108 109.298 L 369.4253 108.8975 L 370.7399 108.6419 L 372.0544 108.1478 L 373.369 107.6204 L 374.6835 107.1164 L 375.9981 106.6835 L 377.3126 106.2479 L 378.6272 105.8582 L 379.9417 105.5585 L 381.2563 105.1661 L 382.5708 104.7215 L 383.8853 104.2436 L 385.1999 103.7225 L 386.5144 103.259 L 387.829 102.9089 L 389.1435 102.62 L 390.4581 102.0647 L 391.7726 101.5301 L 393.0872 101.0297 L 394.4017 100.5464 L 395.7162 100.037 L 397.0308 99.7247 L 398.3454 99.4727 L 399.6599 98.9579 L 400.9745 98.4764 L 402.289 97.9589 L 403.6035 97.49 L 404.9181 96.9806 L 406.2326 96.671 L 407.5472 96.4478 L 408.8617 95.9366 L 410.1763 95.4083 L 411.4908 94.9277 L 412.8054 94.4651 L 414.1199 93.9953 L 415.4344 93.6623 L 416.749 93.4427 L 418.0635 92.9261 L 419.3781 92.5175 L 420.6926 92.0729 L 422.0072 91.5554 L 423.3217 91.1315 L 424.6363 90.7904 L 425.9508 90.5438 L 427.2654 90.1532 L 428.5799 89.7545 L 429.8945 89.3639 L 431.209 88.8698 L 432.5236 88.4432 L 433.8381 88.1534 L 435.1526 87.9293 L 436.4672 87.4496 L 437.7817 87.0563 L 439.0963 86.636 L 440.4108 86.2373 L 441.7254 85.7882 L 443.0399 85.52 L 444.3545 85.2824 L 445.669 84.8009 L 446.9836 84.2942 L 448.2981 83.8685 L 449.6127 83.4203 L 450.9272 82.9199 L 452.2418 82.5968 L 453.5563 82.3331 L 454.8708 81.8948 L 456.1854 81.4556 L 457.4999 81.0281 L 458.8145 80.6213 L 460.129 80.1479 L 461.4436 79.8059 L 462.7581 79.5458 L 464.0727 79.1633 L 465.3872 78.7781 L 466.7018 78.4487 L 468.0163 78.3227 L 469.3308 78.0761 L 470.6454 77.8763 L 471.9599 77.627 L 473.2745 77.2022 L 474.5891 76.8251 L 475.9036 76.4633 L 477.2181 76.0655 L 478.5327 75.6767 L 479.8472 75.4184 L 481.1618 75.1754 L 482.4763 74.7326 L 483.7909 74.3159 L 485.1054 73.9433 L 486.42 73.5356 L 487.7345 73.2062 L 489.049 72.9281 L 490.3636 72.7139 L 491.6781 72.3026 L 492.9927 71.9291 L 494.3072 71.5583 L 495.6218 71.1812 L 496.9363 70.6925 L 498.2509 70.4315 L 499.5654 70.1957 L 500.88 69.8231 L 502.1945 69.2651 L 503.5091 68.9015 L 504.8236 68.7017 L 506.1382 68.5793 L 507.4527 68.3309 L 508.7672 68.0969 L 510.0818 67.6136 L 511.3963 67.1645 L 512.7109 66.7667 L 514.0255 66.4571" fill="none" stroke="hsla(195, 49%, 51%, 1)" stroke-width="2" paint-order="fill" stroke-opacity="1" stroke-dasharray="none" stroke-linecap="butt" stroke-linejoin="round" stroke-miterlimit="10">
</path>
</g>
<g clip-path="url(#zr2391-clip-2)">
<path d="M 34.216 208.7633 L 35.5306 208.4258 L 36.8451 208.1819 L 38.1597 207.6779 L 39.4742 207.2081 L 40.7888 206.8184 L 42.1033 206.3675 L 43.4179 205.94 L 44.7324 205.6007 L 46.0469 205.4009 L 47.3615 204.9959 L 48.676 204.5855 L 49.9906 204.1742 L 51.3051 203.6711 L 52.6197 203.2103 L 53.9342 202.9106 L 55.2488 202.6712 L 56.5633 202.1717 L 57.8779 201.7226 L 59.1924 201.3077 L 60.507 200.8838 L 61.8215 200.3888 L 63.136 200.0936 L 64.4506 199.8506 L 65.7651 199.3475 L 67.0797 198.8651 L 68.3942 198.4349 L 69.7088 197.993 L 71.0233 197.4854 L 72.3379 197.1443 L 73.6524 196.8752 L 74.967 196.4099 L 76.2815 195.9041 L 77.5961 195.4685 L 78.9106 194.9879 L 80.2252 194.5217 L 81.5397 194.1833 L 82.8542 193.9457 L 84.1688 193.3778 L 85.4833 192.9161 L 86.7979 192.4553 L 88.1124 191.9558 L 89.427 191.5364 L 90.7415 191.2637 L 92.0561 191.0702 L 93.3706 191.009 L 94.6852 190.9271 L 95.9997 190.7102 L 97.3143 190.5446 L 98.6288 190.2764 L 99.9433 189.8273 L 101.2579 189.2531 L 102.5724 188.777 L 103.887 188.2478 L 105.2015 187.7321 L 106.5161 187.2326 L 107.8306 186.7016 L 109.1452 186.3452 L 110.4597 186.0023 L 111.7743 185.4713 L 113.0888 184.9124 L 114.4034 184.4147 L 115.7179 183.8864 L 117.0324 183.4103 L 118.347 183.0782 L 119.6615 182.8298 L 120.9761 182.3393 L 122.2906 181.766 L 123.6052 180.9911 L 124.9197 180.1847 L 126.2343 179.192 L 127.5488 178.5854 L 128.8634 178.2839 L 130.1779 177.6773 L 131.4925 176.9519 L 132.807 176.1212 L 134.1216 175.3328 L 135.4361 174.566 L 136.7506 174.1466 L 138.0652 173.8298 L 139.3797 173.2799 L 140.6943 172.6283 L 142.0088 172.0739 L 143.3234 171.4718 L 144.6379 170.8697 L 145.9525 170.4377 L 147.267 170.0957 L 148.5816 169.535 L 149.8961 168.9419 L 151.2106 168.4334 L 152.5252 167.9258 L 153.8397 167.4749 L 155.1543 167.159 L 156.4688 166.9394 L 157.7834 166.3913 L 159.0979 165.9215 L 160.4125 165.3401 L 161.727 164.8136 L 163.0416 164.2394 L 164.3561 163.7993 L 165.6707 163.4501 L 166.9852 162.8678 L 168.2998 162.326 L 169.6143 161.7032 L 170.9288 161.165 L 172.2434 160.5836 L 173.5579 160.1669 L 174.8725 159.8573 L 176.187 159.302 L 177.5016 158.7845 L 178.8161 158.2184 L 180.1307 157.691 L 181.4452 157.0646 L 182.7598 156.71 L 184.0743 156.4274 L 185.3889 155.9063 L 186.7034 155.3897 L 188.0179 154.865 L 189.3325 154.3151 L 190.647 153.7679 L 191.9616 153.2423 L 193.2761 152.8733 L 194.5907 152.2298 L 195.9052 151.6691 L 197.2198 151.0796 L 198.5343 150.5162 L 199.8489 149.9186 L 201.1634 149.5586 L 202.478 149.3264 L 203.7925 148.7441 L 205.1071 148.2167 L 206.4216 147.7271 L 207.7361 147.2132 L 209.0507 146.6354 L 210.3652 146.2394 L 211.6798 145.955 L 212.9943 145.4177 L 214.3089 144.8732 L 215.6234 144.3197 L 216.938 143.7347 L 218.2525 143.1173 L 219.5671 142.7195 L 220.8816 142.4882 L 222.1962 141.95 L 223.5107 141.3182 L 224.8252 140.6954 L 226.1398 140.1212 L 227.4543 139.4588 L 228.7689 138.6713 L 230.0834 138.2141 L 231.398 137.7587 L 232.7125 137.0072 L 234.0271 136.3601 L 235.3416 135.7139 L 236.6562 135.0119 L 237.9707 134.6024 L 239.2852 134.2658 L 240.5998 133.625 L 241.9143 132.9806 L 243.2289 132.3506 L 244.5434 131.7278 L 245.858 131.1374 L 247.1725 130.754 L 248.4871 130.4183 L 249.8016 129.8036 L 251.1162 129.2024 L 252.4307 128.5418 L 253.7453 127.955 L 255.0598 127.4321 L 256.3744 127.0685 L 257.6889 126.8048 L 259.0034 126.2351 L 260.318 125.6564 L 261.6325 125.1236 L 262.9471 124.6232 L 264.2616 124.0877 L 265.5762 123.7133 L 266.8907 123.4109 L 268.2053 122.8322 L 269.5198 122.0879 L 270.8344 121.5146 L 272.1489 120.9476 L 273.4635 120.4391 L 274.778 120.0998 L 276.0926 119.8649 L 277.4071 119.4599 L 278.7216 118.8326 L 280.0362 118.2638 L 281.3507 117.6446 L 282.6653 117.1442 L 283.9798 116.6834 L 285.2944 116.4125 L 286.6089 115.8716 L 287.9235 115.2866 L 289.238 114.6413 L 290.5526 114.1076 L 291.8671 113.5658 L 293.1816 113.2544 L 294.4962 113.0096 L 295.8107 112.4417 L 297.1253 111.8333 L 298.4398 111.2492 L 299.7544 110.6426 L 301.0689 110.0468 L 302.3835 109.7372 L 303.698 109.4312 L 305.0126 108.8777 L 306.3271 108.3062 L 307.6417 107.7383 L 308.9562 107.2181 L 310.2708 106.7159 L 311.5853 106.3838 L 312.8998 106.148 L 314.2144 105.5819 L 315.5289 104.969 L 316.8435 104.4281 L 318.158 103.8602 L 319.4726 103.2842 L 320.7871 102.9557 L 322.1017 102.6605 L 323.4162 102.0962 L 324.7308 101.5652 L 326.0453 101.018" fill="none" stroke="hsla(207, 69%, 79%, 1)" stroke-width="2" paint-order="fill" stroke-opacity="1" stroke-dasharray="none" stroke-linecap="butt" stroke-linejoin="round" stroke-miterlimit="10">
</path>
</g>
<path d="M 0 0 L 152.5859 0 L 152.5859 14 L 0 14 L 0 0 Z" fill="rgb(0,0,0)" fill-opacity="0" stroke="#ccc" stroke-width="0" paint-order="fill" stroke-opacity="1" stroke-dasharray="none" stroke-linecap="butt" stroke-miterlimit="10" transform="matrix(1,0,0,1,211.707,22)">
</path>
<path d="M 19.5 7 A 7 7 0 1 1 19.5 6.9993" fill="hsla(207, 65%, 39%, 1)" fill-opacity="1" stroke="none" transform="matrix(1,0,0,1,206.207,22)">
</path>
<text xml:space="preserve" fill="hsla(212, 10%, 53%, 1)" fill-opacity="1" stroke="none" transform="matrix(1,0,0,1,206.207,22)" dominant-baseline="central" text-anchor="start" x="23" y="7" style="font: 12px sans-serif;">2019</text>
<path d="M 19.5 7 A 7 7 0 1 1 19.5 6.9993" fill="hsla(195, 49%, 51%, 1)" fill-opacity="1" stroke="none" transform="matrix(1,0,0,1,260.4023,22)">
</path>
<text xml:space="preserve" fill="hsla(212, 10%, 53%, 1)" fill-opacity="1" stroke="none" transform="matrix(1,0,0,1,260.4023,22)" dominant-baseline="central" text-anchor="start" x="23" y="7" style="font: 12px sans-serif;">2020</text>
<path d="M 19.5 7 A 7 7 0 1 1 19.5 6.9993" fill="hsla(207, 69%, 79%, 1)" fill-opacity="1" stroke="none" transform="matrix(1,0,0,1,314.5977,22)">
</path>
<text xml:space="preserve" fill="hsla(212, 10%, 53%, 1)" fill-opacity="1" stroke="none" transform="matrix(1,0,0,1,314.5977,22)" dominant-baseline="central" text-anchor="start" x="23" y="7" style="font: 12px sans-serif;">2021</text>
<path d="M 0 0 L 112.0205 0 L 112.0205 14 L 0 14 L 0 0 Z" fill="rgb(0,0,0)" fill-opacity="0" stroke="#ccc" stroke-width="0" paint-order="fill" stroke-opacity="1" stroke-dasharray="none" stroke-linecap="butt" stroke-miterlimit="10">
</path>
<text xml:space="preserve" fill="hsla(210, 14%, 37%, 1)" fill-opacity="1" stroke="none" dominant-baseline="central" text-anchor="start" x="0" y="7" style="font: bold 14px sans-serif;">Multi-Series Line</text>
</g>
</svg>