<svg xmlns="http://www.w3.org/2000/svg" xmlns:xlink="http://www.w3.org/1999/xlink" version="1.1" baseProfile="full" width="576" height="212" style="user-select: none; position: absolute; left: 0px; top: 0px;">
<g>
<rect width="576" height="212" x="0" y="0" id="0" fill="rgb(255,255,255)" fill-opacity="0">
</rect>
</g>
<g>
<text xml:space="preserve" fill="#6E7079" fill-opacity="1" stroke="none" transform="matrix(1,0,0,1,558.72,195.76)" dominant-baseline="central" text-anchor="end" x="0" y="6" style="font: 12px sans-serif;">Daily Calls →</text>
<path d="M 30.9015 172.5 L 558.72 172.5" fill="none" stroke="hsla(215, 15%, 91%, 1)" stroke-width="1" paint-order="fill" stroke-opacity="1" stroke-dasharray="none" stroke-linecap="butt" stroke-miterlimit="10">
</path>
<path d="M 30.9015 149.5 L 558.72 149.5" fill="none" stroke="hsla(215, 15%, 91%, 1)" stroke-width="1" paint-order="fill" stroke-opacity="1" stroke-dasharray="none" stroke-linecap="butt" stroke-miterlimit="10">
</path>
<path d="M 30.9015 125.5 L 558.72 125.5" fill="none" stroke="hsla(215, 15%, 91%, 1)" stroke-width="1" paint-order="fill" stroke-opacity="1" stroke-dasharray="none" stroke-linecap="butt" stroke-miterlimit="10">
</path>
<path d="M 30.9015 102.5 L 558.72 102.5" fill="none" stroke="hsla(215, 15%, 91%, 1)" stroke-width="1" paint-order="fill" stroke-opacity="1" stroke-dasharray="none" stroke-linecap="butt" stroke-miterlimit="10">
</path>
<path d="M 30.9015 79.5 L 558.72 79.5" fill="none" stroke="hsla(215, 15%, 91%, 1)" stroke-width="1" paint-order="fill" stroke-opacity="1" stroke-dasharray="none" stroke-linecap="butt" stroke-miterlimit="10">
</path>
<path d="M 30.9015 56.5 L 558.72 56.5" fill="none" stroke="hsla(215, 15%, 91%, 1)" stroke-width="1" paint-order="fill" stroke-opacity="1" stroke-dasharray="none" stroke-linecap="butt" stroke-miterlimit="10">
</path>
<path d="M 30.9015 33.5 L 558.72 33.5" fill="none" stroke="hsla(215, 15%, 91%, 1)" stroke-width="1" paint-order="fill" stroke-opacity="1" stroke-dasharray="none" stroke-linecap="butt" stroke-miterlimit="10">
</path>
<path d="M 30.9015 10.5 L 558.72 10.5" fill="none" stroke="hsla(215, 15%, 91%, 1)" stroke-width="1" paint-order="fill" stroke-opacity="1" stroke-dasharray="none" stroke-linecap="butt" stroke-miterlimit="10">
</path>
<path d="M 30.9015 172.5 L 558.72 172.5" fill="none" stroke="hsla(212, 10%, 53%, 1)" stroke-width="1" paint-order="fill" stroke-opacity="1" stroke-dasharray="none" stroke-linecap="round" stroke-miterlimit="10">
</path>
<text xml:space="preserve" fill="hsla(212, 10%, 53%, 1)" fill-opacity="1" stroke="none" transform="matrix(1,0,0,1,22.9015,172)" dominant-baseline="central" text-anchor="end" x="0" y="0" style="font: 12px sans-serif;">0</text>
<text xml:space="preserve" fill="hsla(212, 10%, 53%, 1)" fill-opacity="1" stroke="none" transform="matrix(1,0,0,1,22.9015,148.8571)" dominant-baseline="central" text-anchor="end" x="0" y="0" style="font: 12px sans-serif;">50</text>
<text xml:space="preserve" fill="hsla(212, 10%, 53%, 1)" fill-opacity="1" stroke="none" transform="matrix(1,0,0,1,22.9015,125.7143)" dominant-baseline="central" text-anchor="end" x="0" y="0" style="font: 12px sans-serif;">100</text>
<text xml:space="preserve" fill="hsla(212, 10%, 53%, 1)" fill-opacity="1" stroke="none" transform="matrix(1,0,0,1,22.9015,102.5714)" dominant-baseline="central" text-anchor="end" x="0" y="0" style="font: 12px sans-serif;">150</text>
<text xml:space="preserve" fill="hsla(212, 10%, 53%, 1)" fill-opacity="1" stroke="none" transform="matrix(1,0,0,1,22.9015,79.4286)" dominant-baseline="central" text-anchor="end" x="0" y="0" style="font: 12px sans-serif;">200</text>
<text xml:space="preserve" fill="hsla(212, 10%, 53%, 1)" fill-opacity="1" stroke="none" transform="matrix(1,0,0,1,22.9015,56.2857)" dominant-baseline="central" text-anchor="end" x="0" y="0" style="font: 12px sans-serif;">250</text>
<text xml:space="preserve" fill="hsla(212, 10%, 53%, 1)" fill-opacity="1" stroke="none" transform="matrix(1,0,0,1,22.9015,33.1429)" dominant-baseline="central" text-anchor="end" x="0" y="0" style="font: 12px sans-serif;">300</text>
<text xml:space="preserve" fill="hsla(212, 10%, 53%, 1)" fill-opacity="1" stroke="none" transform="matrix(1,0,0,1,22.9015,10)" dominant-baseline="central" text-anchor="end" x="0" y="0" style="font: 12px sans-serif;">350</text>
<text xml:space="preserve" fill="hsla(212, 10%, 53%, 1)" fill-opacity="1" stroke="none" transform="matrix(1,0,0,1,30.9015,178)" dominant-baseline="central" text-anchor="middle" x="0" y="6" style="font: 12px sans-serif;">0</text>
<text xml:space="preserve" fill="hsla(212, 10%, 53%, 1)" fill-opacity="1" stroke="none" transform="matrix(1,0,0,1,162.8561,178)" dominant-baseline="central" text-anchor="middle" x="0" y="6" style="font: 12px sans-serif;">100</text>
<text xml:space="preserve" fill="hsla(212, 10%, 53%, 1)" fill-opacity="1" stroke="none" transform="matrix(1,0,0,1,294.8107,178)" dominant-baseline="central" text-anchor="middle" x="0" y="6" style="font: 12px sans-serif;">200</text>
<text xml:space="preserve" fill="hsla(212, 10%, 53%, 1)" fill-opacity="1" stroke="none" transform="matrix(1,0,0,1,426.7654,178)" dominant-baseline="central" text-anchor="middle" x="0" y="6" style="font: 12px sans-serif;">300</text>
<text xml:space="preserve" fill="hsla(212, 10%, 53%, 1)" fill-opacity="1" stroke="none" transform="matrix(1,0,0,1,558.72,178)" dominant-baseline="central" text-anchor="middle" x="0" y="6" style="font: 12px sans-serif;">400</text>
<path d="M 30.9015 169.2229 L 43.0969 169.2229 L 43.0969 172 L 30.9015 172 L 30.9015 169.2229 Z" fill="hsla(207, 65%, 39%, 1)" fill-opacity="1" stroke="none">
</path>
<path d="M 44.0969 137.7486 L 56.2924 137.7486 L 56.2924 172 L 44.0969 172 L 44.0969 137.7486 Z" fill="hsla(207, 65%, 39%, 1)" fill-opacity="1" stroke="none">
</path>
<path d="M 57.2924 87.76 L 69.4879 87.76 L 69.4879 172 L 57.2924 172 L 57.2924 87.76 Z" fill="hsla(207, 65%, 39%, 1)" fill-opacity="1" stroke="none">
</path>
<path d="M 70.4879 82.6686 L 82.6833 82.6686 L 82.6833 172 L 70.4879 172 L 70.4879 82.6686 Z" fill="hsla(207, 65%, 39%, 1)" fill-opacity="1" stroke="none">
</path>
<path d="M 83.6833 89.1486 L 95.8788 89.1486 L 95.8788 172 L 83.6833 172 L 83.6833 89.1486 Z" fill="hsla(207, 65%, 39%, 1)" fill-opacity="1" stroke="none">
</path>
<path d="M 96.8788 77.5771 L 109.0743 77.5771 L 109.0743 172 L 96.8788 172 L 96.8788 77.5771 Z" fill="hsla(207, 65%, 39%, 1)" fill-opacity="1" stroke="none">
</path>
<path d="M 110.0743 28.5143 L 122.2697 28.5143 L 122.2697 172 L 110.0743 172 L 110.0743 28.5143 Z" fill="hsla(207, 65%, 39%, 1)" fill-opacity="1" stroke="none">
</path>
<path d="M 123.2697 17.8686 L 135.4652 17.8686 L 135.4652 172 L 123.2697 172 L 123.2697 17.8686 Z" fill="hsla(207, 65%, 39%, 1)" fill-opacity="1" stroke="none">
</path>
<path d="M 136.4652 36.8457 L 148.6607 36.8457 L 148.6607 172 L 136.4652 172 L 136.4652 36.8457 Z" fill="hsla(207, 65%, 39%, 1)" fill-opacity="1" stroke="none">
</path>
<path d="M 149.6607 67.3943 L 161.8561 67.3943 L 161.8561 172 L 149.6607 172 L 149.6607 67.3943 Z" fill="hsla(207, 65%, 39%, 1)" fill-opacity="1" stroke="none">
</path>
<path d="M 162.8561 87.76 L 175.0516 87.76 L 175.0516 172 L 162.8561 172 L 162.8561 87.76 Z" fill="hsla(207, 65%, 39%, 1)" fill-opacity="1" stroke="none">
</path>
<path d="M 176.0516 113.68 L 188.247 113.68 L 188.247 172 L 176.0516 172 L 176.0516 113.68 Z" fill="hsla(207, 65%, 39%, 1)" fill-opacity="1" stroke="none">
</path>
<path d="M 189.247 128.9543 L 201.4425 128.9543 L 201.4425 172 L 189.247 172 L 189.247 128.9543 Z" fill="hsla(207, 65%, 39%, 1)" fill-opacity="1" stroke="none">
</path>
<path d="M 202.4425 126.64 L 214.638 126.64 L 214.638 172 L 202.4425 172 L 202.4425 126.64 Z" fill="hsla(207, 65%, 39%, 1)" fill-opacity="1" stroke="none">
</path>
<path d="M 215.638 141.4514 L 227.8334 141.4514 L 227.8334 172 L 215.638 172 L 215.638 141.4514 Z" fill="hsla(207, 65%, 39%, 1)" fill-opacity="1" stroke="none">
</path>
<path d="M 228.8334 143.3029 L 241.0289 143.3029 L 241.0289 172 L 228.8334 172 L 228.8334 143.3029 Z" fill="hsla(207, 65%, 39%, 1)" fill-opacity="1" stroke="none">
</path>
<path d="M 242.0289 147.9314 L 254.2244 147.9314 L 254.2244 172 L 242.0289 172 L 242.0289 147.9314 Z" fill="hsla(207, 65%, 39%, 1)" fill-opacity="1" stroke="none">
</path>
<path d="M 255.2244 158.5771 L 267.4198 158.5771 L 267.4198 172 L 255.2244 172 L 255.2244 158.5771 Z" fill="hsla(207, 65%, 39%, 1)" fill-opacity="1" stroke="none">
</path>
<path d="M 268.4198 162.28 L 280.6153 162.28 L 280.6153 172 L 268.4198 172 L 268.4198 162.28 Z" fill="hsla(207, 65%, 39%, 1)" fill-opacity="1" stroke="none">
</path>
<path d="M 281.6153 166.9086 L 293.8107 166.9086 L 293.8107 172 L 281.6153 172 L 281.6153 166.9086 Z" fill="hsla(207, 65%, 39%, 1)" fill-opacity="1" stroke="none">
</path>
<path d="M 294.8107 168.2971 L 307.0062 168.2971 L 307.0062 172 L 294.8107 172 L 294.8107 168.2971 Z" fill="hsla(207, 65%, 39%, 1)" fill-opacity="1" stroke="none">
</path>
<path d="M 308.0062 168.2971 L 320.2017 168.2971 L 320.2017 172 L 308.0062 172 L 308.0062 168.2971 Z" fill="hsla(207, 65%, 39%, 1)" fill-opacity="1" stroke="none">
</path>
<path d="M 321.2017 169.2229 L 333.3971 169.2229 L 333.3971 172 L 321.2017 172 L 321.2017 169.2229 Z" fill="hsla(207, 65%, 39%, 1)" fill-opacity="1" stroke="none">
</path>
<path d="M 334.3971 169.6857 L 346.5926 169.6857 L 346.5926 172 L 334.3971 172 L 334.3971 169.6857 Z" fill="hsla(207, 65%, 39%, 1)" fill-opacity="1" stroke="none">
</path>
<path d="M 347.5926 171.5371 L 359.7881 171.5371 L 359.7881 172 L 347.5926 172 L 347.5926 171.5371 Z" fill="hsla(207, 65%, 39%, 1)" fill-opacity="1" stroke="none">
</path>
<path d="M 360.7881 170.6114 L 372.9835 170.6114 L 372.9835 172 L 360.7881 172 L 360.7881 170.6114 Z" fill="hsla(207, 65%, 39%, 1)" fill-opacity="1" stroke="none">
</path>
<path d="M 373.9835 170.6114 L 386.179 170.6114 L 386.179 172 L 373.9835 172 L 373.9835 170.6114 Z" fill="hsla(207, 65%, 39%, 1)" fill-opacity="1" stroke="none">
</path>
<path d="M 387.179 171.5371 L 399.3744 171.5371 L 399.3744 172 L 387.179 172 L 387.179 171.5371 Z" fill="hsla(207, 65%, 39%, 1)" fill-opacity="1" stroke="none">
</path>
<path d="M 400.3744 172 L 412.5699 172 L 412.5699 172 L 400.3744 172 L 400.3744 172 Z" fill="hsla(207, 65%, 39%, 1)" fill-opacity="1" stroke="none">
</path>
<path d="M 413.5699 171.5371 L 425.7654 171.5371 L 425.7654 172 L 413.5699 172 L 413.5699 171.5371 Z" fill="hsla(207, 65%, 39%, 1)" fill-opacity="1" stroke="none">
</path>
<path d="M 426.7654 171.5371 L 438.9608 171.5371 L 438.9608 172 L 426.7654 172 L 426.7654 171.5371 Z" fill="hsla(207, 65%, 39%, 1)" fill-opacity="1" stroke="none">
</path>
<path d="M 439.9608 172 L 452.1563 172 L 452.1563 172 L 439.9608 172 L 439.9608 172 Z" fill="hsla(207, 65%, 39%, 1)" fill-opacity="1" stroke="none">
</path>
<path d="M 453.1563 172 L 465.3518 172 L 465.3518 172 L 453.1563 172 L 453.1563 172 Z" fill="hsla(207, 65%, 39%, 1)" fill-opacity="1" stroke="none">
</path>
<path d="M 466.3518 172 L 478.5472 172 L 478.5472 172 L 466.3518 172 L 466.3518 172 Z" fill="hsla(207, 65%, 39%, 1)" fill-opacity="1" stroke="none">
</path>
<path d="M 479.5472 172 L 491.7427 172 L 491.7427 172 L 479.5472 172 L 479.5472 172 Z" fill="hsla(207, 65%, 39%, 1)" fill-opacity="1" stroke="none">
</path>
<path d="M 492.7427 172 L 504.9381 172 L 504.9381 172 L 492.7427 172 L 492.7427 172 Z" fill="hsla(207, 65%, 39%, 1)" fill-opacity="1" stroke="none">
</path>
<path d="M 505.9381 172 L 518.1336 172 L 518.1336 172 L 505.9381 172 L 505.9381 172 Z" fill="hsla(207, 65%, 39%, 1)" fill-opacity="1" stroke="none">
</path>
<path d="M 519.1336 171.5371 L 531.3291 171.5371 L 531.3291 172 L 519.1336 172 L 519.1336 171.5371 Z" fill="hsla(207, 65%, 39%, 1)" fill-opacity="1" stroke="none">
</path>
<path d="M 532.3291 172 L 544.5245 172 L 544.5245 172 L 532.3291 172 L 532.3291 172 Z" fill="hsla(207, 65%, 39%, 1)" fill-opacity="1" stroke="none">
</path>
<path d="M 545.5245 171.5371 L 557.72 171.5371 L 557.72 172 L 545.5245 172 L 545.5245 171.5371 Z" fill="hsla(207, 65%, 39%, 1)" fill-opacity="1" stroke="none">
</path>
<path d="M 0 0 L 0 0 L 0 0 L 0 0 L 0 0 Z" fill="rgb(0,0,0)" fill-opacity="0" stroke="#ccc" stroke-width="0" paint-order="fill" stroke-opacity="1" stroke-dasharray="none" stroke-linecap="butt" stroke-miterlimit="10">
</path>
</g>
</svg>