<svg xmlns="http://www.w3.org/2000/svg" xmlns:xlink="http://www.w3.org/1999/xlink" version="1.1" baseProfile="full" width="576" height="291" style="user-select: none; position: absolute; left: 0px; top: 0px;">
<g>
<rect width="576" height="291" x="0" y="0" id="0" fill="rgb(255,255,255)" fill-opacity="0">
</rect>
</g>
<g>
<path d="M 61.6677 111.5 L 259.2 111.5" fill="none" stroke="hsla(215, 15%, 91%, 1)" stroke-width="1" paint-order="fill" stroke-opacity="1" stroke-dasharray="none" stroke-linecap="butt" stroke-miterlimit="10">
</path>
<path d="M 61.6677 93.5 L 259.2 93.5" fill="none" stroke="hsla(215, 15%, 91%, 1)" stroke-width="1" paint-order="fill" stroke-opacity="1" stroke-dasharray="none" stroke-linecap="butt" stroke-miterlimit="10">
</path>
<path d="M 61.6677 74.5 L 259.2 74.5" fill="none" stroke="hsla(215, 15%, 91%, 1)" stroke-width="1" paint-order="fill" stroke-opacity="1" stroke-dasharray="none" stroke-linecap="butt" stroke-miterlimit="10">
</path>
<path d="M 61.6677 56.5 L 259.2 56.5" fill="none" stroke="hsla(215, 15%, 91%, 1)" stroke-width="1" paint-order="fill" stroke-opacity="1" stroke-dasharray="none" stroke-linecap="butt" stroke-miterlimit="10">
</path>
<path d="M 61.6677 38.5 L 259.2 38.5" fill="none" stroke="hsla(215, 15%, 91%, 1)" stroke-width="1" paint-order="fill" stroke-opacity="1" stroke-dasharray="none" stroke-linecap="butt" stroke-miterlimit="10">
</path>
<path d="M 61.6677 20.5 L 259.2 20.5" fill="none" stroke="hsla(215, 15%, 91%, 1)" stroke-width="1" paint-order="fill" stroke-opacity="1" stroke-dasharray="none" stroke-linecap="butt" stroke-miterlimit="10">
</path>
<path d="M 338.1477 111.5 L 535.68 111.5" fill="none" stroke="hsla(215, 15%, 91%, 1)" stroke-width="1" paint-order="fill" stroke-opacity="1" stroke-dasharray="none" stroke-linecap="butt" stroke-miterlimit="10">
</path>
<path d="M 338.1477 93.5 L 535.68 93.5" fill="none" stroke="hsla(215, 15%, 91%, 1)" stroke-width="1" paint-order="fill" stroke-opacity="1" stroke-dasharray="none" stroke-linecap="butt" stroke-miterlimit="10">
</path>
<path d="M 338.1477 74.5 L 535.68 74.5" fill="none" stroke="hsla(215, 15%, 91%, 1)" stroke-width="1" paint-order="fill" stroke-opacity="1" stroke-dasharray="none" stroke-linecap="butt" stroke-miterlimit="10">
</path>
<path d="M 338.1477 56.5 L 535.68 56.5" fill="none" stroke="hsla(215, 15%, 91%, 1)" stroke-width="1" paint-order="fill" stroke-opacity="1" stroke-dasharray="none" stroke-linecap="butt" stroke-miterlimit="10">
</path>
<path d="M 338.1477 38.5 L 535.68 38.5" fill="none" stroke="hsla(215, 15%, 91%, 1)" stroke-width="1" paint-order="fill" stroke-opacity="1" stroke-dasharray="none" stroke-linecap="butt" stroke-miterlimit="10">
</path>
<path d="M 338.1477 20.5 L 535.68 20.5" fill="none" stroke="hsla(215, 15%, 91%, 1)" stroke-width="1" paint-order="fill" stroke-opacity="1" stroke-dasharray="none" stroke-linecap="butt" stroke-miterlimit="10">
</path>
<path d="M 61.6677 250.5 L 259.2 250.5" fill="none" stroke="hsla(215, 15%, 91%, 1)" stroke-width="1" paint-order="fill" stroke-opacity="1" stroke-dasharray="none" stroke-linecap="butt" stroke-miterlimit="10">
</path>
<path d="M 61.6677 232.5 L 259.2 232.5" fill="none" stroke="hsla(215, 15%, 91%, 1)" stroke-width="1" paint-order="fill" stroke-opacity="1" stroke-dasharray="none" stroke-linecap="butt" stroke-miterlimit="10">
</path>
<path d="M 61.6677 214.5 L 259.2 214.5" fill="none" stroke="hsla(215, 15%, 91%, 1)" stroke-width="1" paint-order="fill" stroke-opacity="1" stroke-dasharray="none" stroke-linecap="butt" stroke-miterlimit="10">
</path>
<path d="M 61.6677 196.5 L 259.2 196.5" fill="none" stroke="hsla(215, 15%, 91%, 1)" stroke-width="1" paint-order="fill" stroke-opacity="1" stroke-dasharray="none" stroke-linecap="butt" stroke-miterlimit="10">
</path>
<path d="M 61.6677 178.5 L 259.2 178.5" fill="none" stroke="hsla(215, 15%, 91%, 1)" stroke-width="1" paint-order="fill" stroke-opacity="1" stroke-dasharray="none" stroke-linecap="butt" stroke-miterlimit="10">
</path>
<path d="M 61.6677 160.5 L 259.2 160.5" fill="none" stroke="hsla(215, 15%, 91%, 1)" stroke-width="1" paint-order="fill" stroke-opacity="1" stroke-dasharray="none" stroke-linecap="butt" stroke-miterlimit="10">
</path>
<path d="M 338.1477 250.5 L 535.68 250.5" fill="none" stroke="hsla(215, 15%, 91%, 1)" stroke-width="1" paint-order="fill" stroke-opacity="1" stroke-dasharray="none" stroke-linecap="butt" stroke-miterlimit="10">
</path>
<path d="M 338.1477 232.5 L 535.68 232.5" fill="none" stroke="hsla(215, 15%, 91%, 1)" stroke-width="1" paint-order="fill" stroke-opacity="1" stroke-dasharray="none" stroke-linecap="butt" stroke-miterlimit="10">
</path>
<path d="M 338.1477 214.5 L 535.68 214.5" fill="none" stroke="hsla(215, 15%, 91%, 1)" stroke-width="1" paint-order="fill" stroke-opacity="1" stroke-dasharray="none" stroke-linecap="butt" stroke-miterlimit="10">
</path>
<path d="M 338.1477 196.5 L 535.68 196.5" fill="none" stroke="hsla(215, 15%, 91%, 1)" stroke-width="1" paint-order="fill" stroke-opacity="1" stroke-dasharray="none" stroke-linecap="butt" stroke-miterlimit="10">
</path>
<path d="M 338.1477 178.5 L 535.68 178.5" fill="none" stroke="hsla(215, 15%, 91%, 1)" stroke-width="1" paint-order="fill" stroke-opacity="1" stroke-dasharray="none" stroke-linecap="butt" stroke-miterlimit="10">
</path>
<path d="M 338.1477 160.5 L 535.68 160.5" fill="none" stroke="hsla(215, 15%, 91%, 1)" stroke-width="1" paint-order="fill" stroke-opacity="1" stroke-dasharray="none" stroke-linecap="butt" stroke-miterlimit="10">
</path>
<path d="M 61.5 20.37 L 61.5 110.95" fill="none" stroke="hsla(215, 15%, 91%, 1)" stroke-width="1" paint-order="fill" stroke-opacity="1" stroke-dasharray="none" stroke-linecap="butt" stroke-miterlimit="10">
</path>
<path d="M 111.5 20.37 L 111.5 110.95" fill="none" stroke="hsla(215, 15%, 91%, 1)" stroke-width="1" paint-order="fill" stroke-opacity="1" stroke-dasharray="none" stroke-linecap="butt" stroke-miterlimit="10">
</path>
<path d="M 160.5 20.37 L 160.5 110.95" fill="none" stroke="hsla(215, 15%, 91%, 1)" stroke-width="1" paint-order="fill" stroke-opacity="1" stroke-dasharray="none" stroke-linecap="butt" stroke-miterlimit="10">
</path>
<path d="M 210.5 20.37 L 210.5 110.95" fill="none" stroke="hsla(215, 15%, 91%, 1)" stroke-width="1" paint-order="fill" stroke-opacity="1" stroke-dasharray="none" stroke-linecap="butt" stroke-miterlimit="10">
</path>
<path d="M 259.5 20.37 L 259.5 110.95" fill="none" stroke="hsla(215, 15%, 91%, 1)" stroke-width="1" paint-order="fill" stroke-opacity="1" stroke-dasharray="none" stroke-linecap="butt" stroke-miterlimit="10">
</path>
<path d="M 338.5 20.37 L 338.5 110.95" fill="none" stroke="hsla(215, 15%, 91%, 1)" stroke-width="1" paint-order="fill" stroke-opacity="1" stroke-dasharray="none" stroke-linecap="butt" stroke-miterlimit="10">
</path>
<path d="M 387.5 20.37 L 387.5 110.95" fill="none" stroke="hsla(215, 15%, 91%, 1)" stroke-width="1" paint-order="fill" stroke-opacity="1" stroke-dasharray="none" stroke-linecap="butt" stroke-miterlimit="10">
</path>
<path d="M 437.5 20.37 L 437.5 110.95" fill="none" stroke="hsla(215, 15%, 91%, 1)" stroke-width="1" paint-order="fill" stroke-opacity="1" stroke-dasharray="none" stroke-linecap="butt" stroke-miterlimit="10">
</path>
<path d="M 486.5 20.37 L 486.5 110.95" fill="none" stroke="hsla(215, 15%, 91%, 1)" stroke-width="1" paint-order="fill" stroke-opacity="1" stroke-dasharray="none" stroke-linecap="butt" stroke-miterlimit="10">
</path>
<path d="M 535.5 20.37 L 535.5 110.95" fill="none" stroke="hsla(215, 15%, 91%, 1)" stroke-width="1" paint-order="fill" stroke-opacity="1" stroke-dasharray="none" stroke-linecap="butt" stroke-miterlimit="10">
</path>
<path d="M 61.5 160.05 L 61.5 250.63" fill="none" stroke="hsla(215, 15%, 91%, 1)" stroke-width="1" paint-order="fill" stroke-opacity="1" stroke-dasharray="none" stroke-linecap="butt" stroke-miterlimit="10">
</path>
<path d="M 111.5 160.05 L 111.5 250.63" fill="none" stroke="hsla(215, 15%, 91%, 1)" stroke-width="1" paint-order="fill" stroke-opacity="1" stroke-dasharray="none" stroke-linecap="butt" stroke-miterlimit="10">
</path>
<path d="M 160.5 160.05 L 160.5 250.63" fill="none" stroke="hsla(215, 15%, 91%, 1)" stroke-width="1" paint-order="fill" stroke-opacity="1" stroke-dasharray="none" stroke-linecap="butt" stroke-miterlimit="10">
</path>
<path d="M 210.5 160.05 L 210.5 250.63" fill="none" stroke="hsla(215, 15%, 91%, 1)" stroke-width="1" paint-order="fill" stroke-opacity="1" stroke-dasharray="none" stroke-linecap="butt" stroke-miterlimit="10">
</path>
<path d="M 259.5 160.05 L 259.5 250.63" fill="none" stroke="hsla(215, 15%, 91%, 1)" stroke-width="1" paint-order="fill" stroke-opacity="1" stroke-dasharray="none" stroke-linecap="butt" stroke-miterlimit="10">
</path>
<path d="M 338.5 160.05 L 338.5 250.63" fill="none" stroke="hsla(215, 15%, 91%, 1)" stroke-width="1" paint-order="fill" stroke-opacity="1" stroke-dasharray="none" stroke-linecap="butt" stroke-miterlimit="10">
</path>
<path d="M 387.5 160.05 L 387.5 250.63" fill="none" stroke="hsla(215, 15%, 91%, 1)" stroke-width="1" paint-order="fill" stroke-opacity="1" stroke-dasharray="none" stroke-linecap="butt" stroke-miterlimit="10">
</path>
<path d="M 437.5 160.05 L 437.5 250.63" fill="none" stroke="hsla(215, 15%, 91%, 1)" stroke-width="1" paint-order="fill" stroke-opacity="1" stroke-dasharray="none" stroke-linecap="butt" stroke-miterlimit="10">
</path>
<path d="M 486.5 160.05 L 486.5 250.63" fill="none" stroke="hsla(215, 15%, 91%, 1)" stroke-width="1" paint-order="fill" stroke-opacity="1" stroke-dasharray="none" stroke-linecap="butt" stroke-miterlimit="10">
</path>
<path d="M 535.5 160.05 L 535.5 250.63" fill="none" stroke="hsla(215, 15%, 91%, 1)" stroke-width="1" paint-order="fill" stroke-opacity="1" stroke-dasharray="none" stroke-linecap="butt" stroke-miterlimit="10">
</path>
<text xml:space="preserve" fill="hsla(212, 10%, 53%, 1)" fill-opacity="1" stroke="none" transform="matrix(1,0,0,1,53.6677,110.95)" dominant-baseline="central" text-anchor="end" x="0" y="0" style="font: 12px sans-serif;">0</text>
<text xml:space="preserve" fill="hsla(212, 10%, 53%, 1)" fill-opacity="1" stroke="none" transform="matrix(1,0,0,1,53.6677,92.834)" dominant-baseline="central" text-anchor="end" x="0" y="0" style="font: 12px sans-serif;">3</text>
<text xml:space="preserve" fill="hsla(212, 10%, 53%, 1)" fill-opacity="1" stroke="none" transform="matrix(1,0,0,1,53.6677,74.718)" dominant-baseline="central" text-anchor="end" x="0" y="0" style="font: 12px sans-serif;">6</text>
<text xml:space="preserve" fill="hsla(212, 10%, 53%, 1)" fill-opacity="1" stroke="none" transform="matrix(1,0,0,1,53.6677,56.602)" dominant-baseline="central" text-anchor="end" x="0" y="0" style="font: 12px sans-serif;">9</text>
<text xml:space="preserve" fill="hsla(212, 10%, 53%, 1)" fill-opacity="1" stroke="none" transform="matrix(1,0,0,1,53.6677,38.486)" dominant-baseline="central" text-anchor="end" x="0" y="0" style="font: 12px sans-serif;">12</text>
<text xml:space="preserve" fill="hsla(212, 10%, 53%, 1)" fill-opacity="1" stroke="none" transform="matrix(1,0,0,1,53.6677,20.37)" dominant-baseline="central" text-anchor="end" x="0" y="0" style="font: 12px sans-serif;">15</text>
<text xml:space="preserve" fill="hsla(212, 10%, 53%, 1)" fill-opacity="1" stroke="none" transform="matrix(1,0,0,1,330.1477,110.95)" dominant-baseline="central" text-anchor="end" x="0" y="0" style="font: 12px sans-serif;">0</text>
<text xml:space="preserve" fill="hsla(212, 10%, 53%, 1)" fill-opacity="1" stroke="none" transform="matrix(1,0,0,1,330.1477,92.834)" dominant-baseline="central" text-anchor="end" x="0" y="0" style="font: 12px sans-serif;">3</text>
<text xml:space="preserve" fill="hsla(212, 10%, 53%, 1)" fill-opacity="1" stroke="none" transform="matrix(1,0,0,1,330.1477,74.718)" dominant-baseline="central" text-anchor="end" x="0" y="0" style="font: 12px sans-serif;">6</text>
<text xml:space="preserve" fill="hsla(212, 10%, 53%, 1)" fill-opacity="1" stroke="none" transform="matrix(1,0,0,1,330.1477,56.602)" dominant-baseline="central" text-anchor="end" x="0" y="0" style="font: 12px sans-serif;">9</text>
<text xml:space="preserve" fill="hsla(212, 10%, 53%, 1)" fill-opacity="1" stroke="none" transform="matrix(1,0,0,1,330.1477,38.486)" dominant-baseline="central" text-anchor="end" x="0" y="0" style="font: 12px sans-serif;">12</text>
<text xml:space="preserve" fill="hsla(212, 10%, 53%, 1)" fill-opacity="1" stroke="none" transform="matrix(1,0,0,1,330.1477,20.37)" dominant-baseline="central" text-anchor="end" x="0" y="0" style="font: 12px sans-serif;">15</text>
<text xml:space="preserve" fill="hsla(212, 10%, 53%, 1)" fill-opacity="1" stroke="none" transform="matrix(1,0,0,1,53.6677,250.63)" dominant-baseline="central" text-anchor="end" x="0" y="0" style="font: 12px sans-serif;">0</text>
<text xml:space="preserve" fill="hsla(212, 10%, 53%, 1)" fill-opacity="1" stroke="none" transform="matrix(1,0,0,1,53.6677,232.514)" dominant-baseline="central" text-anchor="end" x="0" y="0" style="font: 12px sans-serif;">3</text>
<text xml:space="preserve" fill="hsla(212, 10%, 53%, 1)" fill-opacity="1" stroke="none" transform="matrix(1,0,0,1,53.6677,214.398)" dominant-baseline="central" text-anchor="end" x="0" y="0" style="font: 12px sans-serif;">6</text>
<text xml:space="preserve" fill="hsla(212, 10%, 53%, 1)" fill-opacity="1" stroke="none" transform="matrix(1,0,0,1,53.6677,196.282)" dominant-baseline="central" text-anchor="end" x="0" y="0" style="font: 12px sans-serif;">9</text>
<text xml:space="preserve" fill="hsla(212, 10%, 53%, 1)" fill-opacity="1" stroke="none" transform="matrix(1,0,0,1,53.6677,178.166)" dominant-baseline="central" text-anchor="end" x="0" y="0" style="font: 12px sans-serif;">12</text>
<text xml:space="preserve" fill="hsla(212, 10%, 53%, 1)" fill-opacity="1" stroke="none" transform="matrix(1,0,0,1,53.6677,160.05)" dominant-baseline="central" text-anchor="end" x="0" y="0" style="font: 12px sans-serif;">15</text>
<text xml:space="preserve" fill="hsla(212, 10%, 53%, 1)" fill-opacity="1" stroke="none" transform="matrix(1,0,0,1,330.1477,250.63)" dominant-baseline="central" text-anchor="end" x="0" y="0" style="font: 12px sans-serif;">0</text>
<text xml:space="preserve" fill="hsla(212, 10%, 53%, 1)" fill-opacity="1" stroke="none" transform="matrix(1,0,0,1,330.1477,232.514)" dominant-baseline="central" text-anchor="end" x="0" y="0" style="font: 12px sans-serif;">3</text>
<text xml:space="preserve" fill="hsla(212, 10%, 53%, 1)" fill-opacity="1" stroke="none" transform="matrix(1,0,0,1,330.1477,214.398)" dominant-baseline="central" text-anchor="end" x="0" y="0" style="font: 12px sans-serif;">6</text>
<text xml:space="preserve" fill="hsla(212, 10%, 53%, 1)" fill-opacity="1" stroke="none" transform="matrix(1,0,0,1,330.1477,196.282)" dominant-baseline="central" text-anchor="end" x="0" y="0" style="font: 12px sans-serif;">9</text>
<text xml:space="preserve" fill="hsla(212, 10%, 53%, 1)" fill-opacity="1" stroke="none" transform="matrix(1,0,0,1,330.1477,178.166)" dominant-baseline="central" text-anchor="end" x="0" y="0" style="font: 12px sans-serif;">12</text>
<text xml:space="preserve" fill="hsla(212, 10%, 53%, 1)" fill-opacity="1" stroke="none" transform="matrix(1,0,0,1,330.1477,160.05)" dominant-baseline="central" text-anchor="end" x="0" y="0" style="font: 12px sans-serif;">15</text>
<text xml:space="preserve" fill="hsla(212, 10%, 53%, 1)" fill-opacity="1" stroke="none" transform="matrix(1,0,0,1,61.6677,118.95)" dominant-baseline="central" text-anchor="middle" x="0" y="6" style="font: 12px sans-serif;">0</text>
<text xml:space="preserve" fill="hsla(212, 10%, 53%, 1)" fill-opacity="1" stroke="none" transform="matrix(1,0,0,1,111.0507,118.95)" dominant-baseline="central" text-anchor="middle" x="0" y="6" style="font: 12px sans-serif;">5</text>
<text xml:space="preserve" fill="hsla(212, 10%, 53%, 1)" fill-opacity="1" stroke="none" transform="matrix(1,0,0,1,160.4338,118.95)" dominant-baseline="central" text-anchor="middle" x="0" y="6" style="font: 12px sans-serif;">10</text>
<text xml:space="preserve" fill="hsla(212, 10%, 53%, 1)" fill-opacity="1" stroke="none" transform="matrix(1,0,0,1,209.8169,118.95)" dominant-baseline="central" text-anchor="middle" x="0" y="6" style="font: 12px sans-serif;">15</text>
<text xml:space="preserve" fill="hsla(212, 10%, 53%, 1)" fill-opacity="1" stroke="none" transform="matrix(1,0,0,1,259.2,118.95)" dominant-baseline="central" text-anchor="middle" x="0" y="6" style="font: 12px sans-serif;">20</text>
<text xml:space="preserve" fill="hsla(212, 10%, 53%, 1)" fill-opacity="1" stroke="none" transform="matrix(1,0,0,1,338.1477,118.95)" dominant-baseline="central" text-anchor="middle" x="0" y="6" style="font: 12px sans-serif;">0</text>
<text xml:space="preserve" fill="hsla(212, 10%, 53%, 1)" fill-opacity="1" stroke="none" transform="matrix(1,0,0,1,387.5307,118.95)" dominant-baseline="central" text-anchor="middle" x="0" y="6" style="font: 12px sans-serif;">5</text>
<text xml:space="preserve" fill="hsla(212, 10%, 53%, 1)" fill-opacity="1" stroke="none" transform="matrix(1,0,0,1,436.9138,118.95)" dominant-baseline="central" text-anchor="middle" x="0" y="6" style="font: 12px sans-serif;">10</text>
<text xml:space="preserve" fill="hsla(212, 10%, 53%, 1)" fill-opacity="1" stroke="none" transform="matrix(1,0,0,1,486.2969,118.95)" dominant-baseline="central" text-anchor="middle" x="0" y="6" style="font: 12px sans-serif;">15</text>
<text xml:space="preserve" fill="hsla(212, 10%, 53%, 1)" fill-opacity="1" stroke="none" transform="matrix(1,0,0,1,535.68,118.95)" dominant-baseline="central" text-anchor="middle" x="0" y="6" style="font: 12px sans-serif;">20</text>
<text xml:space="preserve" fill="hsla(212, 10%, 53%, 1)" fill-opacity="1" stroke="none" transform="matrix(1,0,0,1,61.6677,258.63)" dominant-baseline="central" text-anchor="middle" x="0" y="6" style="font: 12px sans-serif;">0</text>
<text xml:space="preserve" fill="hsla(212, 10%, 53%, 1)" fill-opacity="1" stroke="none" transform="matrix(1,0,0,1,111.0507,258.63)" dominant-baseline="central" text-anchor="middle" x="0" y="6" style="font: 12px sans-serif;">5</text>
<text xml:space="preserve" fill="hsla(212, 10%, 53%, 1)" fill-opacity="1" stroke="none" transform="matrix(1,0,0,1,160.4338,258.63)" dominant-baseline="central" text-anchor="middle" x="0" y="6" style="font: 12px sans-serif;">10</text>
<text xml:space="preserve" fill="hsla(212, 10%, 53%, 1)" fill-opacity="1" stroke="none" transform="matrix(1,0,0,1,209.8169,258.63)" dominant-baseline="central" text-anchor="middle" x="0" y="6" style="font: 12px sans-serif;">15</text>
<text xml:space="preserve" fill="hsla(212, 10%, 53%, 1)" fill-opacity="1" stroke="none" transform="matrix(1,0,0,1,259.2,258.63)" dominant-baseline="central" text-anchor="middle" x="0" y="6" style="font: 12px sans-serif;">20</text>
<text xml:space="preserve" fill="hsla(212, 10%, 53%, 1)" fill-opacity="1" stroke="none" transform="matrix(1,0,0,1,338.1477,258.63)" dominant-baseline="central" text-anchor="middle" x="0" y="6" style="font: 12px sans-serif;">0</text>
<text xml:space="preserve" fill="hsla(212, 10%, 53%, 1)" fill-opacity="1" stroke="none" transform="matrix(1,0,0,1,387.5307,258.63)" dominant-baseline="central" text-anchor="middle" x="0" y="6" style="font: 12px sans-serif;">5</text>
<text xml:space="preserve" fill="hsla(212, 10%, 53%, 1)" fill-opacity="1" stroke="none" transform="matrix(1,0,0,1,436.9138,258.63)" dominant-baseline="central" text-anchor="middle" x="0" y="6" style="font: 12px sans-serif;">10</text>
<text xml:space="preserve" fill="hsla(212, 10%, 53%, 1)" fill-opacity="1" stroke="none" transform="matrix(1,0,0,1,486.2969,258.63)" dominant-baseline="central" text-anchor="middle" x="0" y="6" style="font: 12px sans-serif;">15</text>
<text xml:space="preserve" fill="hsla(212, 10%, 53%, 1)" fill-opacity="1" stroke="none" transform="matrix(1,0,0,1,535.68,258.63)" dominant-baseline="central" text-anchor="middle" x="0" y="6" style="font: 12px sans-serif;">20</text>
<path d="M 1 0 A 1 1 0 1 1 1 -0.0001" fill="hsla(207, 65%, 39%, 1)" fill-opacity="0.8" stroke="#cccccc" stroke-width="0" paint-order="fill" stroke-opacity="0.8" stroke-dasharray="none" stroke-linecap="butt" stroke-miterlimit="10" transform="matrix(5,0,0,5,160.4338,62.3991)">
</path>
<path d="M 1 0 A 1 1 0 1 1 1 -0.0001" fill="hsla(207, 65%, 39%, 1)" fill-opacity="0.8" stroke="#cccccc" stroke-width="0" paint-order="fill" stroke-opacity="0.8" stroke-dasharray="none" stroke-linecap="butt" stroke-miterlimit="10" transform="matrix(5,0,0,5,140.6806,68.9813)">
</path>
<path d="M 1 0 A 1 1 0 1 1 1 -0.0001" fill="hsla(207, 65%, 39%, 1)" fill-opacity="0.8" stroke="#cccccc" stroke-width="0" paint-order="fill" stroke-opacity="0.8" stroke-dasharray="none" stroke-linecap="butt" stroke-miterlimit="10" transform="matrix(5,0,0,5,190.0637,65.1769)">
</path>
<path d="M 1 0 A 1 1 0 1 1 1 -0.0001" fill="hsla(207, 65%, 39%, 1)" fill-opacity="0.8" stroke="#cccccc" stroke-width="0" paint-order="fill" stroke-opacity="0.8" stroke-dasharray="none" stroke-linecap="butt" stroke-miterlimit="10" transform="matrix(5,0,0,5,150.5572,57.7493)">
</path>
<path d="M 1 0 A 1 1 0 1 1 1 -0.0001" fill="hsla(207, 65%, 39%, 1)" fill-opacity="0.8" stroke="#cccccc" stroke-width="0" paint-order="fill" stroke-opacity="0.8" stroke-dasharray="none" stroke-linecap="butt" stroke-miterlimit="10" transform="matrix(5,0,0,5,170.3104,60.6479)">
</path>
<path d="M 1 0 A 1 1 0 1 1 1 -0.0001" fill="hsla(207, 65%, 39%, 1)" fill-opacity="0.8" stroke="#cccccc" stroke-width="0" paint-order="fill" stroke-opacity="0.8" stroke-dasharray="none" stroke-linecap="butt" stroke-miterlimit="10" transform="matrix(5,0,0,5,199.9403,50.8049)">
</path>
<path d="M 1 0 A 1 1 0 1 1 1 -0.0001" fill="hsla(207, 65%, 39%, 1)" fill-opacity="0.8" stroke="#cccccc" stroke-width="0" paint-order="fill" stroke-opacity="0.8" stroke-dasharray="none" stroke-linecap="butt" stroke-miterlimit="10" transform="matrix(5,0,0,5,120.9274,67.2301)">
</path>
<path d="M 1 0 A 1 1 0 1 1 1 -0.0001" fill="hsla(207, 65%, 39%, 1)" fill-opacity="0.8" stroke="#cccccc" stroke-width="0" paint-order="fill" stroke-opacity="0.8" stroke-dasharray="none" stroke-linecap="butt" stroke-miterlimit="10" transform="matrix(5,0,0,5,101.1741,85.2253)">
</path>
<path d="M 1 0 A 1 1 0 1 1 1 -0.0001" fill="hsla(207, 65%, 39%, 1)" fill-opacity="0.8" stroke="#cccccc" stroke-width="0" paint-order="fill" stroke-opacity="0.8" stroke-dasharray="none" stroke-linecap="butt" stroke-miterlimit="10" transform="matrix(5,0,0,5,180.1871,45.4909)">
</path>
<path d="M 1 0 A 1 1 0 1 1 1 -0.0001" fill="hsla(207, 65%, 39%, 1)" fill-opacity="0.8" stroke="#cccccc" stroke-width="0" paint-order="fill" stroke-opacity="0.8" stroke-dasharray="none" stroke-linecap="butt" stroke-miterlimit="10" transform="matrix(5,0,0,5,130.804,81.8436)">
</path>
<path d="M 1 0 A 1 1 0 1 1 1 -0.0001" fill="hsla(207, 65%, 39%, 1)" fill-opacity="0.8" stroke="#cccccc" stroke-width="0" paint-order="fill" stroke-opacity="0.8" stroke-dasharray="none" stroke-linecap="butt" stroke-miterlimit="10" transform="matrix(5,0,0,5,111.0507,76.6504)">
</path>
<path d="M 1 0 A 1 1 0 1 1 1 -0.0001" fill="hsla(195, 49%, 51%, 1)" fill-opacity="0.8" stroke="#cccccc" stroke-width="0" paint-order="fill" stroke-opacity="0.8" stroke-dasharray="none" stroke-linecap="butt" stroke-miterlimit="10" transform="matrix(5,0,0,5,436.9138,55.7566)">
</path>
<path d="M 1 0 A 1 1 0 1 1 1 -0.0001" fill="hsla(195, 49%, 51%, 1)" fill-opacity="0.8" stroke="#cccccc" stroke-width="0" paint-order="fill" stroke-opacity="0.8" stroke-dasharray="none" stroke-linecap="butt" stroke-miterlimit="10" transform="matrix(5,0,0,5,417.1606,61.7953)">
</path>
<path d="M 1 0 A 1 1 0 1 1 1 -0.0001" fill="hsla(195, 49%, 51%, 1)" fill-opacity="0.8" stroke="#cccccc" stroke-width="0" paint-order="fill" stroke-opacity="0.8" stroke-dasharray="none" stroke-linecap="butt" stroke-miterlimit="10" transform="matrix(5,0,0,5,466.5437,58.1721)">
</path>
<path d="M 1 0 A 1 1 0 1 1 1 -0.0001" fill="hsla(195, 49%, 51%, 1)" fill-opacity="0.8" stroke="#cccccc" stroke-width="0" paint-order="fill" stroke-opacity="0.8" stroke-dasharray="none" stroke-linecap="butt" stroke-miterlimit="10" transform="matrix(5,0,0,5,427.0372,57.9909)">
</path>
<path d="M 1 0 A 1 1 0 1 1 1 -0.0001" fill="hsla(195, 49%, 51%, 1)" fill-opacity="0.8" stroke="#cccccc" stroke-width="0" paint-order="fill" stroke-opacity="0.8" stroke-dasharray="none" stroke-linecap="butt" stroke-miterlimit="10" transform="matrix(5,0,0,5,446.7904,55.0319)">
</path>
<path d="M 1 0 A 1 1 0 1 1 1 -0.0001" fill="hsla(195, 49%, 51%, 1)" fill-opacity="0.8" stroke="#cccccc" stroke-width="0" paint-order="fill" stroke-opacity="0.8" stroke-dasharray="none" stroke-linecap="butt" stroke-miterlimit="10" transform="matrix(5,0,0,5,476.4203,62.0368)">
</path>
<path d="M 1 0 A 1 1 0 1 1 1 -0.0001" fill="hsla(195, 49%, 51%, 1)" fill-opacity="0.8" stroke="#cccccc" stroke-width="0" paint-order="fill" stroke-opacity="0.8" stroke-dasharray="none" stroke-linecap="butt" stroke-miterlimit="10" transform="matrix(5,0,0,5,397.4074,73.933)">
</path>
<path d="M 1 0 A 1 1 0 1 1 1 -0.0001" fill="hsla(195, 49%, 51%, 1)" fill-opacity="0.8" stroke="#cccccc" stroke-width="0" paint-order="fill" stroke-opacity="0.8" stroke-dasharray="none" stroke-linecap="butt" stroke-miterlimit="10" transform="matrix(5,0,0,5,377.6541,92.2301)">
</path>
<path d="M 1 0 A 1 1 0 1 1 1 -0.0001" fill="hsla(195, 49%, 51%, 1)" fill-opacity="0.8" stroke="#cccccc" stroke-width="0" paint-order="fill" stroke-opacity="0.8" stroke-dasharray="none" stroke-linecap="butt" stroke-miterlimit="10" transform="matrix(5,0,0,5,456.6671,55.817)">
</path>
<path d="M 1 0 A 1 1 0 1 1 1 -0.0001" fill="hsla(195, 49%, 51%, 1)" fill-opacity="0.8" stroke="#cccccc" stroke-width="0" paint-order="fill" stroke-opacity="0.8" stroke-dasharray="none" stroke-linecap="butt" stroke-miterlimit="10" transform="matrix(5,0,0,5,407.284,67.1093)">
</path>
<path d="M 1 0 A 1 1 0 1 1 1 -0.0001" fill="hsla(195, 49%, 51%, 1)" fill-opacity="0.8" stroke="#cccccc" stroke-width="0" paint-order="fill" stroke-opacity="0.8" stroke-dasharray="none" stroke-linecap="butt" stroke-miterlimit="10" transform="matrix(5,0,0,5,387.5307,82.3267)">
</path>
<path d="M 1 0 A 1 1 0 1 1 1 -0.0001" fill="hsla(207, 69%, 79%, 1)" fill-opacity="0.8" stroke="#cccccc" stroke-width="0" paint-order="fill" stroke-opacity="0.8" stroke-dasharray="none" stroke-linecap="butt" stroke-miterlimit="10" transform="matrix(5,0,0,5,160.4338,205.5815)">
</path>
<path d="M 1 0 A 1 1 0 1 1 1 -0.0001" fill="hsla(207, 69%, 79%, 1)" fill-opacity="0.8" stroke="#cccccc" stroke-width="0" paint-order="fill" stroke-opacity="0.8" stroke-dasharray="none" stroke-linecap="butt" stroke-miterlimit="10" transform="matrix(5,0,0,5,140.6806,209.7482)">
</path>
<path d="M 1 0 A 1 1 0 1 1 1 -0.0001" fill="hsla(207, 69%, 79%, 1)" fill-opacity="0.8" stroke="#cccccc" stroke-width="0" paint-order="fill" stroke-opacity="0.8" stroke-dasharray="none" stroke-linecap="butt" stroke-miterlimit="10" transform="matrix(5,0,0,5,190.0637,173.6974)">
</path>
<path d="M 1 0 A 1 1 0 1 1 1 -0.0001" fill="hsla(207, 69%, 79%, 1)" fill-opacity="0.8" stroke="#cccccc" stroke-width="0" paint-order="fill" stroke-opacity="0.8" stroke-dasharray="none" stroke-linecap="butt" stroke-miterlimit="10" transform="matrix(5,0,0,5,150.5572,207.6951)">
</path>
<path d="M 1 0 A 1 1 0 1 1 1 -0.0001" fill="hsla(207, 69%, 79%, 1)" fill-opacity="0.8" stroke="#cccccc" stroke-width="0" paint-order="fill" stroke-opacity="0.8" stroke-dasharray="none" stroke-linecap="butt" stroke-miterlimit="10" transform="matrix(5,0,0,5,170.3104,203.468)">
</path>
<path d="M 1 0 A 1 1 0 1 1 1 -0.0001" fill="hsla(207, 69%, 79%, 1)" fill-opacity="0.8" stroke="#cccccc" stroke-width="0" paint-order="fill" stroke-opacity="0.8" stroke-dasharray="none" stroke-linecap="butt" stroke-miterlimit="10" transform="matrix(5,0,0,5,199.9403,197.2482)">
</path>
<path d="M 1 0 A 1 1 0 1 1 1 -0.0001" fill="hsla(207, 69%, 79%, 1)" fill-opacity="0.8" stroke="#cccccc" stroke-width="0" paint-order="fill" stroke-opacity="0.8" stroke-dasharray="none" stroke-linecap="butt" stroke-miterlimit="10" transform="matrix(5,0,0,5,120.9274,213.9149)">
</path>
<path d="M 1 0 A 1 1 0 1 1 1 -0.0001" fill="hsla(207, 69%, 79%, 1)" fill-opacity="0.8" stroke="#cccccc" stroke-width="0" paint-order="fill" stroke-opacity="0.8" stroke-dasharray="none" stroke-linecap="butt" stroke-miterlimit="10" transform="matrix(5,0,0,5,101.1741,218.0816)">
</path>
<path d="M 1 0 A 1 1 0 1 1 1 -0.0001" fill="hsla(207, 69%, 79%, 1)" fill-opacity="0.8" stroke="#cccccc" stroke-width="0" paint-order="fill" stroke-opacity="0.8" stroke-dasharray="none" stroke-linecap="butt" stroke-miterlimit="10" transform="matrix(5,0,0,5,180.1871,201.4149)">
</path>
<path d="M 1 0 A 1 1 0 1 1 1 -0.0001" fill="hsla(207, 69%, 79%, 1)" fill-opacity="0.8" stroke="#cccccc" stroke-width="0" paint-order="fill" stroke-opacity="0.8" stroke-dasharray="none" stroke-linecap="butt" stroke-miterlimit="10" transform="matrix(5,0,0,5,130.804,211.8618)">
</path>
<path d="M 1 0 A 1 1 0 1 1 1 -0.0001" fill="hsla(207, 69%, 79%, 1)" fill-opacity="0.8" stroke="#cccccc" stroke-width="0" paint-order="fill" stroke-opacity="0.8" stroke-dasharray="none" stroke-linecap="butt" stroke-miterlimit="10" transform="matrix(5,0,0,5,111.0507,216.0284)">
</path>
<path d="M 1 0 A 1 1 0 1 1 1 -0.0001" fill="hsla(202, 28%, 65%, 1)" fill-opacity="0.8" stroke="#cccccc" stroke-width="0" paint-order="fill" stroke-opacity="0.8" stroke-dasharray="none" stroke-linecap="butt" stroke-miterlimit="10" transform="matrix(5,0,0,5,417.1606,210.8956)">
</path>
<path d="M 1 0 A 1 1 0 1 1 1 -0.0001" fill="hsla(202, 28%, 65%, 1)" fill-opacity="0.8" stroke="#cccccc" stroke-width="0" paint-order="fill" stroke-opacity="0.8" stroke-dasharray="none" stroke-linecap="butt" stroke-miterlimit="10" transform="matrix(5,0,0,5,417.1606,215.8473)">
</path>
<path d="M 1 0 A 1 1 0 1 1 1 -0.0001" fill="hsla(202, 28%, 65%, 1)" fill-opacity="0.8" stroke="#cccccc" stroke-width="0" paint-order="fill" stroke-opacity="0.8" stroke-dasharray="none" stroke-linecap="butt" stroke-miterlimit="10" transform="matrix(5,0,0,5,417.1606,204.0719)">
</path>
<path d="M 1 0 A 1 1 0 1 1 1 -0.0001" fill="hsla(202, 28%, 65%, 1)" fill-opacity="0.8" stroke="#cccccc" stroke-width="0" paint-order="fill" stroke-opacity="0.8" stroke-dasharray="none" stroke-linecap="butt" stroke-miterlimit="10" transform="matrix(5,0,0,5,417.1606,197.2482)">
</path>
<path d="M 1 0 A 1 1 0 1 1 1 -0.0001" fill="hsla(202, 28%, 65%, 1)" fill-opacity="0.8" stroke="#cccccc" stroke-width="0" paint-order="fill" stroke-opacity="0.8" stroke-dasharray="none" stroke-linecap="butt" stroke-miterlimit="10" transform="matrix(5,0,0,5,417.1606,199.4825)">
</path>
<path d="M 1 0 A 1 1 0 1 1 1 -0.0001" fill="hsla(202, 28%, 65%, 1)" fill-opacity="0.8" stroke="#cccccc" stroke-width="0" paint-order="fill" stroke-opacity="0.8" stroke-dasharray="none" stroke-linecap="butt" stroke-miterlimit="10" transform="matrix(5,0,0,5,417.1606,208.1178)">
</path>
<path d="M 1 0 A 1 1 0 1 1 1 -0.0001" fill="hsla(202, 28%, 65%, 1)" fill-opacity="0.8" stroke="#cccccc" stroke-width="0" paint-order="fill" stroke-opacity="0.8" stroke-dasharray="none" stroke-linecap="butt" stroke-miterlimit="10" transform="matrix(5,0,0,5,417.1606,218.927)">
</path>
<path d="M 1 0 A 1 1 0 1 1 1 -0.0001" fill="hsla(202, 28%, 65%, 1)" fill-opacity="0.8" stroke="#cccccc" stroke-width="0" paint-order="fill" stroke-opacity="0.8" stroke-dasharray="none" stroke-linecap="butt" stroke-miterlimit="10" transform="matrix(5,0,0,5,525.8034,175.1467)">
</path>
<path d="M 1 0 A 1 1 0 1 1 1 -0.0001" fill="hsla(202, 28%, 65%, 1)" fill-opacity="0.8" stroke="#cccccc" stroke-width="0" paint-order="fill" stroke-opacity="0.8" stroke-dasharray="none" stroke-linecap="butt" stroke-miterlimit="10" transform="matrix(5,0,0,5,417.1606,217.055)">
</path>
<path d="M 1 0 A 1 1 0 1 1 1 -0.0001" fill="hsla(202, 28%, 65%, 1)" fill-opacity="0.8" stroke="#cccccc" stroke-width="0" paint-order="fill" stroke-opacity="0.8" stroke-dasharray="none" stroke-linecap="butt" stroke-miterlimit="10" transform="matrix(5,0,0,5,417.1606,202.8641)">
</path>
<path d="M 1 0 A 1 1 0 1 1 1 -0.0001" fill="hsla(202, 28%, 65%, 1)" fill-opacity="0.8" stroke="#cccccc" stroke-width="0" paint-order="fill" stroke-opacity="0.8" stroke-dasharray="none" stroke-linecap="butt" stroke-miterlimit="10" transform="matrix(5,0,0,5,417.1606,209.0236)">
</path>
<path d="M 61.6677 92.834 L 259.2 32.4473" fill="none" stroke="hsla(207, 65%, 39%, 1)" stroke-width="1" paint-order="fill" stroke-opacity="1" stroke-dasharray="none" stroke-linecap="butt" stroke-miterlimit="10">
</path>
<path d="M 338.1477 92.834 L 535.68 32.4473" fill="none" stroke="hsla(195, 49%, 51%, 1)" stroke-width="1" paint-order="fill" stroke-opacity="1" stroke-dasharray="none" stroke-linecap="butt" stroke-miterlimit="10">
</path>
<path d="M 61.6677 232.514 L 259.2 172.1273" fill="none" stroke="hsla(207, 69%, 79%, 1)" stroke-width="1" paint-order="fill" stroke-opacity="1" stroke-dasharray="none" stroke-linecap="butt" stroke-miterlimit="10">
</path>
<path d="M 338.1477 232.514 L 535.68 172.1273" fill="none" stroke="hsla(202, 28%, 65%, 1)" stroke-width="1" paint-order="fill" stroke-opacity="1" stroke-dasharray="none" stroke-linecap="butt" stroke-miterlimit="10">
</path>
<text xml:space="preserve" fill="#333" fill-opacity="1" stroke="rgb(255,255,255)" stroke-width="2" paint-order="stroke" stroke-opacity="1" stroke-dasharray="none" stroke-linecap="butt" stroke-miterlimit="2" transform="matrix(1,0,0,1,263.9816,30.9856)" dominant-baseline="central" text-anchor="end" x="0" y="0" style="font: 12px sans-serif;">y = 0.5 * x + 3</text>
<text xml:space="preserve" fill="#333" fill-opacity="1" stroke="rgb(255,255,255)" stroke-width="2" paint-order="stroke" stroke-opacity="1" stroke-dasharray="none" stroke-linecap="butt" stroke-miterlimit="2" transform="matrix(1,0,0,1,540.4616,30.9856)" dominant-baseline="central" text-anchor="end" x="0" y="0" style="font: 12px sans-serif;">y = 0.5 * x + 3</text>
<text xml:space="preserve" fill="#333" fill-opacity="1" stroke="rgb(255,255,255)" stroke-width="2" paint-order="stroke" stroke-opacity="1" stroke-dasharray="none" stroke-linecap="butt" stroke-miterlimit="2" transform="matrix(1,0,0,1,263.9816,170.6656)" dominant-baseline="central" text-anchor="end" x="0" y="0" style="font: 12px sans-serif;">y = 0.5 * x + 3</text>
<text xml:space="preserve" fill="#333" fill-opacity="1" stroke="rgb(255,255,255)" stroke-width="2" paint-order="stroke" stroke-opacity="1" stroke-dasharray="none" stroke-linecap="butt" stroke-miterlimit="2" transform="matrix(1,0,0,1,540.4616,170.6656)" dominant-baseline="central" text-anchor="end" x="0" y="0" style="font: 12px sans-serif;">y = 0.5 * x + 3</text>
<path d="M -67.0127 0 L 67.0127 0 L 67.0127 14 L -67.0127 14 L -67.0127 0 Z" fill="rgb(0,0,0)" fill-opacity="0" stroke="#ccc" stroke-width="0" paint-order="fill" stroke-opacity="1" stroke-dasharray="none" stroke-linecap="butt" stroke-miterlimit="10" transform="matrix(1,0,0,1,288,0)">
</path>
<text xml:space="preserve" fill="hsla(210, 14%, 37%, 1)" fill-opacity="1" stroke="none" transform="matrix(1,0,0,1,288,0)" dominant-baseline="central" text-anchor="middle" x="0" y="7" style="font: bold 14px sans-serif;">Anscombe's quartet</text>
</g>
</svg>