<svg xmlns="http://www.w3.org/2000/svg" xmlns:xlink="http://www.w3.org/1999/xlink" version="1.1" baseProfile="full" width="576" height="213" style="user-select: none; position: absolute; left: 0px; top: 0px;">
<g>
<rect width="576" height="213" x="0" y="0" id="0" fill="rgb(255,255,255)" fill-opacity="0">
</rect>
</g>
<g>
<path d="M 26.9015 187.5 L 558.72 187.5" fill="none" stroke="hsla(215, 15%, 91%, 1)" stroke-width="1" paint-order="fill" stroke-opacity="1" stroke-dasharray="none" stroke-linecap="butt" stroke-miterlimit="10">
</path>
<path d="M 26.9015 160.5 L 558.72 160.5" fill="none" stroke="hsla(215, 15%, 91%, 1)" stroke-width="1" paint-order="fill" stroke-opacity="1" stroke-dasharray="none" stroke-linecap="butt" stroke-miterlimit="10">
</path>
<path d="M 26.9015 133.5 L 558.72 133.5" fill="none" stroke="hsla(215, 15%, 91%, 1)" stroke-width="1" paint-order="fill" stroke-opacity="1" stroke-dasharray="none" stroke-linecap="butt" stroke-miterlimit="10">
</path>
<path d="M 26.9015 106.5 L 558.72 106.5" fill="none" stroke="hsla(215, 15%, 91%, 1)" stroke-width="1" paint-order="fill" stroke-opacity="1" stroke-dasharray="none" stroke-linecap="butt" stroke-miterlimit="10">
</path>
<path d="M 26.9015 79.5 L 558.72 79.5" fill="none" stroke="hsla(215, 15%, 91%, 1)" stroke-width="1" paint-order="fill" stroke-opacity="1" stroke-dasharray="none" stroke-linecap="butt" stroke-miterlimit="10">
</path>
<path d="M 26.9015 52.5 L 558.72 52.5" fill="none" stroke="hsla(215, 15%, 91%, 1)" stroke-width="1" paint-order="fill" stroke-opacity="1" stroke-dasharray="none" stroke-linecap="butt" stroke-miterlimit="10">
</path>
<path d="M 26.9015 25.5 L 558.72 25.5" fill="none" stroke="hsla(215, 15%, 91%, 1)" stroke-width="1" paint-order="fill" stroke-opacity="1" stroke-dasharray="none" stroke-linecap="butt" stroke-miterlimit="10">
</path>
<path d="M 26.9015 187.5 L 558.72 187.5" fill="none" stroke="hsla(212, 10%, 53%, 1)" stroke-width="1" paint-order="fill" stroke-opacity="1" stroke-dasharray="none" stroke-linecap="round" stroke-miterlimit="10">
</path>
<text xml:space="preserve" fill="hsla(212, 10%, 53%, 1)" fill-opacity="1" stroke="none" transform="matrix(1,0,0,1,22.9015,187)" dominant-baseline="central" text-anchor="end" x="0" y="0" style="font: 12px sans-serif;">0</text>
<text xml:space="preserve" fill="hsla(212, 10%, 53%, 1)" fill-opacity="1" stroke="none" transform="matrix(1,0,0,1,22.9015,160)" dominant-baseline="central" text-anchor="end" x="0" y="0" style="font: 12px sans-serif;">50</text>
<text xml:space="preserve" fill="hsla(212, 10%, 53%, 1)" fill-opacity="1" stroke="none" transform="matrix(1,0,0,1,22.9015,133)" dominant-baseline="central" text-anchor="end" x="0" y="0" style="font: 12px sans-serif;">100</text>
<text xml:space="preserve" fill="hsla(212, 10%, 53%, 1)" fill-opacity="1" stroke="none" transform="matrix(1,0,0,1,22.9015,106)" dominant-baseline="central" text-anchor="end" x="0" y="0" style="font: 12px sans-serif;">150</text>
<text xml:space="preserve" fill="hsla(212, 10%, 53%, 1)" fill-opacity="1" stroke="none" transform="matrix(1,0,0,1,22.9015,79)" dominant-baseline="central" text-anchor="end" x="0" y="0" style="font: 12px sans-serif;">200</text>
<text xml:space="preserve" fill="hsla(212, 10%, 53%, 1)" fill-opacity="1" stroke="none" transform="matrix(1,0,0,1,22.9015,52)" dominant-baseline="central" text-anchor="end" x="0" y="0" style="font: 12px sans-serif;">250</text>
<text xml:space="preserve" fill="hsla(212, 10%, 53%, 1)" fill-opacity="1" stroke="none" transform="matrix(1,0,0,1,22.9015,25)" dominant-baseline="central" text-anchor="end" x="0" y="0" style="font: 12px sans-serif;">300</text>
<text xml:space="preserve" fill="hsla(212, 10%, 53%, 1)" fill-opacity="1" stroke="none" transform="matrix(1,0,0,1,76.539,193)" dominant-baseline="central" text-anchor="middle" x="0" y="6" style="font: 12px sans-serif;">2009</text>
<text xml:space="preserve" fill="hsla(212, 10%, 53%, 1)" fill-opacity="1" stroke="none" transform="matrix(1,0,0,1,155.1441,193)" dominant-baseline="central" text-anchor="middle" x="0" y="6" style="font: 12px sans-serif;">2011</text>
<text xml:space="preserve" fill="hsla(212, 10%, 53%, 1)" fill-opacity="1" stroke="none" transform="matrix(1,0,0,1,233.8569,193)" dominant-baseline="central" text-anchor="middle" x="0" y="6" style="font: 12px sans-serif;">2013</text>
<text xml:space="preserve" fill="hsla(212, 10%, 53%, 1)" fill-opacity="1" stroke="none" transform="matrix(1,0,0,1,312.462,193)" dominant-baseline="central" text-anchor="middle" x="0" y="6" style="font: 12px sans-serif;">2015</text>
<text xml:space="preserve" fill="hsla(212, 10%, 53%, 1)" fill-opacity="1" stroke="none" transform="matrix(1,0,0,1,391.1748,193)" dominant-baseline="central" text-anchor="middle" x="0" y="6" style="font: 12px sans-serif;">2017</text>
<text xml:space="preserve" fill="hsla(212, 10%, 53%, 1)" fill-opacity="1" stroke="none" transform="matrix(1,0,0,1,469.7799,193)" dominant-baseline="central" text-anchor="middle" x="0" y="6" style="font: 12px sans-serif;">2019</text>
<text xml:space="preserve" fill="hsla(212, 10%, 53%, 1)" fill-opacity="1" stroke="none" transform="matrix(1,0,0,1,548.4927,193)" dominant-baseline="central" text-anchor="middle" x="0" y="6" style="font: 12px sans-serif;">2021</text>
<defs>
<clipPath id="zr7564-clip-0">
<path d="M 25 24 L 559 24 L 559 188 L 25 188 L 25 24 Z" fill="#000" fill-opacity="1" stroke="none">
</path>
</clipPath>
<clipPath id="zr7564-clip-1">
<path d="M 25 24 L 559 24 L 559 188 L 25 188 L 25 24 Z" fill="#000" fill-opacity="1" stroke="none">
</path>
</clipPath>
<clipPath id="zr7564-clip-2">
<path d="M 25 24 L 559 24 L 559 188 L 25 188 L 25 24 Z" fill="#000" fill-opacity="1" stroke="none">
</path>
</clipPath>
<clipPath id="zr7564-clip-3">
<path d="M 25 24 L 559 24 L 559 188 L 25 188 L 25 24 Z" fill="#000" fill-opacity="1" stroke="none">
</path>
</clipPath>
<clipPath id="zr7564-clip-4">
<path d="M 25 24 L 559 24 L 559 188 L 25 188 L 25 24 Z" fill="#000" fill-opacity="1" stroke="none">
</path>
</clipPath>
<clipPath id="zr7564-clip-5">
<path d="M 25 24 L 559 24 L 559 188 L 25 188 L 25 24 Z" fill="#000" fill-opacity="1" stroke="none">
</path>
</clipPath>
<clipPath id="zr7564-clip-8">
<path d="M 0 0 L 529.6657 0 L 529.6657 14 L 0 14 L 0 0 Z" fill="#000" fill-opacity="1" stroke="none">
</path>
</clipPath>
</defs>
<g clip-path="url(#zr7564-clip-0)">
<path d="M 37.1288 185.38 L 76.539 187 L 115.8416 187 L 155.1441 170.8 L 194.4467 115.72 L 233.8569 118.42 L 273.1595 98.44 L 312.462 122.74 L 351.7646 187 L 391.1748 187 L 430.4774 187 L 469.7799 187 L 509.0825 187 L 548.4927 187" fill="none" stroke="hsla(207, 65%, 39%, 1)" stroke-width="2" paint-order="fill" stroke-opacity="1" stroke-dasharray="none" stroke-linecap="butt" stroke-linejoin="round" stroke-miterlimit="10">
</path>
</g>
<g clip-path="url(#zr7564-clip-1)">
<path d="M 37.1288 187 L 76.539 187 L 115.8416 187 L 155.1441 187 L 194.4467 187 L 233.8569 185.92 L 273.1595 187 L 312.462 92.5 L 351.7646 187 L 391.1748 187 L 430.4774 186.46 L 469.7799 177.28 L 509.0825 149.74 L 548.4927 187" fill="none" stroke="hsla(195, 49%, 51%, 1)" stroke-width="2" paint-order="fill" stroke-opacity="1" stroke-dasharray="none" stroke-linecap="butt" stroke-linejoin="round" stroke-miterlimit="10">
</path>
</g>
<g clip-path="url(#zr7564-clip-2)">
<path d="M 37.1288 187 L 76.539 187 L 115.8416 187 L 155.1441 182.14 L 194.4467 40.66 L 233.8569 74.14 L 273.1595 136.24 L 312.462 168.1 L 351.7646 187 L 391.1748 187 L 430.4774 187 L 469.7799 187 L 509.0825 187 L 548.4927 187" fill="none" stroke="hsla(207, 69%, 79%, 1)" stroke-width="2" paint-order="fill" stroke-opacity="1" stroke-dasharray="none" stroke-linecap="butt" stroke-linejoin="round" stroke-miterlimit="10">
</path>
</g>
<g clip-path="url(#zr7564-clip-3)">
<path d="M 37.1288 187 L 76.539 187 L 115.8416 187 L 155.1441 187 L 194.4467 187 L 233.8569 187 L 273.1595 187 L 312.462 187 L 351.7646 186.46 L 391.1748 187 L 430.4774 172.96 L 469.7799 187 L 509.0825 187 L 548.4927 187" fill="none" stroke="hsla(202, 28%, 65%, 1)" stroke-width="2" paint-order="fill" stroke-opacity="1" stroke-dasharray="none" stroke-linecap="butt" stroke-linejoin="round" stroke-miterlimit="10">
</path>
</g>
<g clip-path="url(#zr7564-clip-4)">
<path d="M 155.1441 187 L 194.4467 180.52 L 233.8569 184.84 L 273.1595 178.36 L 312.462 184.84 L 351.7646 187 L 391.1748 187 L 430.4774 187 L 469.7799 187 L 509.0825 187 L 548.4927 187" fill="none" stroke="hsla(179, 37%, 65%, 1)" stroke-width="2" paint-order="fill" stroke-opacity="1" stroke-dasharray="none" stroke-linecap="butt" stroke-linejoin="round" stroke-miterlimit="10">
</path>
</g>
<g clip-path="url(#zr7564-clip-5)">
<path d="M 155.1441 187 L 194.4467 187 L 233.8569 187 L 273.1595 187 L 312.462 130.84 L 351.7646 187 L 391.1748 187 L 430.4774 187 L 469.7799 187 L 509.0825 187 L 548.4927 187" fill="none" stroke="hsla(40, 30%, 75%, 1)" stroke-width="2" paint-order="fill" stroke-opacity="1" stroke-dasharray="none" stroke-linecap="butt" stroke-linejoin="round" stroke-miterlimit="10">
</path>
</g>
<path d="M 0 0 L 576 0 L 576 14 L 0 14 L 0 0 Z" fill="rgb(0,0,0)" fill-opacity="0" stroke="#ccc" stroke-width="0" paint-order="fill" stroke-opacity="1" stroke-dasharray="none" stroke-linecap="butt" stroke-miterlimit="10">
</path>
<g clip-path="url(#zr7564-clip-8)">
<path d="M 19.5 7 A 7 7 0 1 1 19.5 6.9993" fill="hsla(207, 65%, 39%, 1)" fill-opacity="1" stroke="none" transform="matrix(1,0,0,1,-5.5,0)">
</path>
<text xml:space="preserve" fill="hsla(212, 10%, 53%, 1)" fill-opacity="1" stroke="none" transform="matrix(1,0,0,1,-5.5,0)" dominant-baseline="central" text-anchor="start" x="23" y="7" style="font: 12px sans-serif;">Class II - Voluntary Recalls</text>
<path d="M 19.5 7 A 7 7 0 1 1 19.5 6.9993" fill="hsla(195, 49%, 51%, 1)" fill-opacity="1" stroke="none" transform="matrix(1,0,0,1,165.3906,0)">
</path>
<text xml:space="preserve" fill="hsla(212, 10%, 53%, 1)" fill-opacity="1" stroke="none" transform="matrix(1,0,0,1,165.3906,0)" dominant-baseline="central" text-anchor="start" x="23" y="7" style="font: 12px sans-serif;">Class II - Fda Recalls</text>
<path d="M 19.5 7 A 7 7 0 1 1 19.5 6.9993" fill="hsla(207, 69%, 79%, 1)" fill-opacity="1" stroke="none" transform="matrix(1,0,0,1,306.9199,0)">
</path>
<text xml:space="preserve" fill="hsla(212, 10%, 53%, 1)" fill-opacity="1" stroke="none" transform="matrix(1,0,0,1,306.9199,0)" dominant-baseline="central" text-anchor="start" x="23" y="7" style="font: 12px sans-serif;">Class I - Voluntary Recalls</text>
<path d="M 19.5 7 A 7 7 0 1 1 19.5 6.9993" fill="hsla(202, 28%, 65%, 1)" fill-opacity="1" stroke="none" transform="matrix(1,0,0,1,474.4766,0)">
</path>
<text xml:space="preserve" fill="hsla(212, 10%, 53%, 1)" fill-opacity="1" stroke="none" transform="matrix(1,0,0,1,474.4766,0)" dominant-baseline="central" text-anchor="start" x="23" y="7" style="font: 12px sans-serif;">Class I - Fda Recalls</text>
<path d="M 19.5 7 A 7 7 0 1 1 19.5 6.9993" fill="hsla(179, 37%, 65%, 1)" fill-opacity="1" stroke="none" transform="matrix(1,0,0,1,612.6719,0)">
</path>
<text xml:space="preserve" fill="hsla(212, 10%, 53%, 1)" fill-opacity="1" stroke="none" transform="matrix(1,0,0,1,612.6719,0)" dominant-baseline="central" text-anchor="start" x="23" y="7" style="font: 12px sans-serif;">Class III - Voluntary Recalls</text>
<path d="M 19.5 7 A 7 7 0 1 1 19.5 6.9993" fill="hsla(40, 30%, 75%, 1)" fill-opacity="1" stroke="none" transform="matrix(1,0,0,1,786.8965,0)">
</path>
<text xml:space="preserve" fill="hsla(212, 10%, 53%, 1)" fill-opacity="1" stroke="none" transform="matrix(1,0,0,1,786.8965,0)" dominant-baseline="central" text-anchor="start" x="23" y="7" style="font: 12px sans-serif;">Class III - Fda Recalls</text>
</g>
<path d="M 1.7498 -6 L 2.7498 -6 C 2.9428 -6 3.1188 -5.8885 3.2018 -5.714 C 3.2848 -5.5395 3.2593 -5.333 3.1368 -5.183 L -1.1042 0 L 3.1368 5.1835 C 3.2593 5.333 3.2843 5.5395 3.2018 5.7145 C 3.1193 5.8895 2.9428 6 2.7498 6 L 1.7498 6 C 1.5998 6 1.4578 5.9325 1.3628 5.8165 L -3.1372 0.3165 C -3.2877 0.132 -3.2877 -0.1325 -3.1372 -0.317 L 1.3628 -5.817 C 1.4578 -5.9325 1.5998 -6 1.7498 -6 Z" fill="#aaa" fill-opacity="1" stroke="none" transform="matrix(1,0,0,1,542.9158,7)">
</path>
<text xml:space="preserve" fill="grey" fill-opacity="1" stroke="none" transform="matrix(1,0,0,1,557.8328,7)" dominant-baseline="central" text-anchor="middle" x="0" y="0" style="font: 12px sans-serif;">1/2</text>
<path d="M -1.7498 6 L -2.7498 6 C -2.9428 6 -3.1188 5.8885 -3.2018 5.714 C -3.2848 5.5395 -3.2593 5.333 -3.1368 5.183 L 1.1042 0 L -3.1368 -5.1835 C -3.2593 -5.333 -3.2843 -5.5395 -3.2018 -5.7145 C -3.1193 -5.8895 -2.9428 -6 -2.7498 -6 L -1.7498 -6 C -1.5998 -6 -1.4578 -5.9325 -1.3628 -5.8165 L 3.1372 -0.3165 C 3.2877 -0.132 3.2877 0.1325 3.1372 0.317 L -1.3628 5.817 C -1.4578 5.9325 -1.5998 6 -1.7498 6 Z" fill="hsla(212, 12%, 43%, 1)" fill-opacity="1" stroke="none" transform="matrix(1,0,0,1,572.7499,7)">
</path>
<path d="M 0 0 L 0 0 L 0 0 L 0 0 L 0 0 Z" fill="rgb(0,0,0)" fill-opacity="0" stroke="#ccc" stroke-width="0" paint-order="fill" stroke-opacity="1" stroke-dasharray="none" stroke-linecap="butt" stroke-miterlimit="10">
</path>
</g>
</svg>