<svg xmlns="http://www.w3.org/2000/svg" xmlns:xlink="http://www.w3.org/1999/xlink" version="1.1" baseProfile="full" width="576" height="227" style="user-select: none; position: absolute; left: 0px; top: 0px;">
<g>
<rect width="576" height="227" x="0" y="0" id="0" fill="rgb(255,255,255)" fill-opacity="0">
</rect>
</g>
<g>
<defs>
<clipPath id="zr2556-clip-0">
<path d="M 31 24 L 559 24 L 559 188 L 31 188 L 31 24 Z" fill="#000" fill-opacity="1" stroke="none">
</path>
</clipPath>
<clipPath id="zr2556-clip-1">
<path d="M 31 24 L 559 24 L 559 188 L 31 188 L 31 24 Z" fill="#000" fill-opacity="1" stroke="none">
</path>
</clipPath>
<clipPath id="zr2556-clip-2">
<path d="M 31 24 L 559 24 L 559 188 L 31 188 L 31 24 Z" fill="#000" fill-opacity="1" stroke="none">
</path>
</clipPath>
</defs>
<text xml:space="preserve" fill="#6E7079" fill-opacity="1" stroke="none" transform="matrix(1,0,0,1,558.72,210.46)" dominant-baseline="central" text-anchor="end" x="0" y="6" style="font: 12px sans-serif;">day of year →</text>
<path d="M 32.9015 187.5 L 558.72 187.5" fill="none" stroke="hsla(215, 15%, 91%, 1)" stroke-width="1" paint-order="fill" stroke-opacity="1" stroke-dasharray="none" stroke-linecap="butt" stroke-miterlimit="10">
</path>
<path d="M 32.9015 160.5 L 558.72 160.5" fill="none" stroke="hsla(215, 15%, 91%, 1)" stroke-width="1" paint-order="fill" stroke-opacity="1" stroke-dasharray="none" stroke-linecap="butt" stroke-miterlimit="10">
</path>
<path d="M 32.9015 133.5 L 558.72 133.5" fill="none" stroke="hsla(215, 15%, 91%, 1)" stroke-width="1" paint-order="fill" stroke-opacity="1" stroke-dasharray="none" stroke-linecap="butt" stroke-miterlimit="10">
</path>
<path d="M 32.9015 106.5 L 558.72 106.5" fill="none" stroke="hsla(215, 15%, 91%, 1)" stroke-width="1" paint-order="fill" stroke-opacity="1" stroke-dasharray="none" stroke-linecap="butt" stroke-miterlimit="10">
</path>
<path d="M 32.9015 79.5 L 558.72 79.5" fill="none" stroke="hsla(215, 15%, 91%, 1)" stroke-width="1" paint-order="fill" stroke-opacity="1" stroke-dasharray="none" stroke-linecap="butt" stroke-miterlimit="10">
</path>
<path d="M 32.9015 52.5 L 558.72 52.5" fill="none" stroke="hsla(215, 15%, 91%, 1)" stroke-width="1" paint-order="fill" stroke-opacity="1" stroke-dasharray="none" stroke-linecap="butt" stroke-miterlimit="10">
</path>
<path d="M 32.9015 25.5 L 558.72 25.5" fill="none" stroke="hsla(215, 15%, 91%, 1)" stroke-width="1" paint-order="fill" stroke-opacity="1" stroke-dasharray="none" stroke-linecap="butt" stroke-miterlimit="10">
</path>
<path d="M 0 0 L 89.6973 0 L 89.6973 12 L 0 12 L 0 0 Z" fill="white" fill-opacity="1" stroke="none" transform="matrix(1,0,0,1,32.9015,19)">
</path>
<text xml:space="preserve" fill="hsla(212, 10%, 53%, 1)" fill-opacity="1" stroke="none" transform="matrix(1,0,0,1,32.9015,19)" dominant-baseline="central" text-anchor="start" x="0" y="6" style="font: 12px sans-serif;">cumulative calls</text>
<path d="M 32.9015 187.5 L 558.72 187.5" fill="none" stroke="hsla(212, 10%, 53%, 1)" stroke-width="1" paint-order="fill" stroke-opacity="1" stroke-dasharray="none" stroke-linecap="round" stroke-miterlimit="10">
</path>
<text xml:space="preserve" fill="hsla(212, 10%, 53%, 1)" fill-opacity="1" stroke="none" transform="matrix(1,0,0,1,28.9015,187)" dominant-baseline="central" text-anchor="end" x="0" y="0" style="font: 12px sans-serif;">0k</text>
<text xml:space="preserve" fill="hsla(212, 10%, 53%, 1)" fill-opacity="1" stroke="none" transform="matrix(1,0,0,1,28.9015,160)" dominant-baseline="central" text-anchor="end" x="0" y="0" style="font: 12px sans-serif;">30k</text>
<text xml:space="preserve" fill="hsla(212, 10%, 53%, 1)" fill-opacity="1" stroke="none" transform="matrix(1,0,0,1,28.9015,133)" dominant-baseline="central" text-anchor="end" x="0" y="0" style="font: 12px sans-serif;">60k</text>
<text xml:space="preserve" fill="hsla(212, 10%, 53%, 1)" fill-opacity="1" stroke="none" transform="matrix(1,0,0,1,28.9015,106)" dominant-baseline="central" text-anchor="end" x="0" y="0" style="font: 12px sans-serif;">90k</text>
<text xml:space="preserve" fill="hsla(212, 10%, 53%, 1)" fill-opacity="1" stroke="none" transform="matrix(1,0,0,1,28.9015,79)" dominant-baseline="central" text-anchor="end" x="0" y="0" style="font: 12px sans-serif;">120k</text>
<text xml:space="preserve" fill="hsla(212, 10%, 53%, 1)" fill-opacity="1" stroke="none" transform="matrix(1,0,0,1,28.9015,52)" dominant-baseline="central" text-anchor="end" x="0" y="0" style="font: 12px sans-serif;">150k</text>
<text xml:space="preserve" fill="hsla(212, 10%, 53%, 1)" fill-opacity="1" stroke="none" transform="matrix(1,0,0,1,28.9015,25)" dominant-baseline="central" text-anchor="end" x="0" y="0" style="font: 12px sans-serif;">180k</text>
<text xml:space="preserve" fill="hsla(212, 10%, 53%, 1)" fill-opacity="1" stroke="none" transform="matrix(1,0,0,1,32.9015,193)" dominant-baseline="central" text-anchor="middle" x="0" y="6" style="font: 12px sans-serif;">0</text>
<text xml:space="preserve" fill="hsla(212, 10%, 53%, 1)" fill-opacity="1" stroke="none" transform="matrix(1,0,0,1,164.3561,193)" dominant-baseline="central" text-anchor="middle" x="0" y="6" style="font: 12px sans-serif;">100</text>
<text xml:space="preserve" fill="hsla(212, 10%, 53%, 1)" fill-opacity="1" stroke="none" transform="matrix(1,0,0,1,295.8107,193)" dominant-baseline="central" text-anchor="middle" x="0" y="6" style="font: 12px sans-serif;">200</text>
<text xml:space="preserve" fill="hsla(212, 10%, 53%, 1)" fill-opacity="1" stroke="none" transform="matrix(1,0,0,1,427.2654,193)" dominant-baseline="central" text-anchor="middle" x="0" y="6" style="font: 12px sans-serif;">300</text>
<text xml:space="preserve" fill="hsla(212, 10%, 53%, 1)" fill-opacity="1" stroke="none" transform="matrix(1,0,0,1,558.72,193)" dominant-baseline="central" text-anchor="middle" x="0" y="6" style="font: 12px sans-serif;">400</text>
<g clip-path="url(#zr2556-clip-0)">
<path d="M 34.216 186.8416 L 35.5306 186.4978 L 36.8451 186.1108 L 38.1597 185.7049 L 39.4742 185.4295 L 40.7888 185.2135 L 42.1033 184.7635 L 43.4179 184.3054 L 44.7324 183.8869 L 46.0469 183.4522 L 47.3615 183.0328 L 48.676 182.8213 L 49.9906 182.6404 L 51.3051 182.2561 L 52.6197 181.852 L 53.9342 181.447 L 55.2488 180.961 L 56.5633 180.6451 L 57.8779 180.3805 L 59.1924 180.2419 L 60.507 179.9476 L 61.8215 179.494 L 63.136 179.0665 L 64.4506 178.5949 L 65.7651 178.1593 L 67.0797 177.9514 L 68.3942 177.7183 L 69.7088 177.3097 L 71.0233 176.9434 L 72.3379 176.4259 L 73.6524 175.9705 L 74.967 175.5538 L 76.2815 175.336 L 77.5961 175.1191 L 78.9106 174.6331 L 80.2252 174.2038 L 81.5397 173.6314 L 82.8542 173.1148 L 84.1688 172.8187 L 85.4833 172.6315 L 86.7979 172.4074 L 88.1124 171.961 L 89.427 171.4975 L 90.7415 171.0682 L 92.0561 170.5534 L 93.3706 170.0206 L 94.6852 169.7578 L 95.9997 169.5346 L 97.3143 169.1944 L 98.6288 168.7921 L 99.9433 168.4159 L 101.2579 168.0262 L 102.5724 167.6149 L 103.887 167.3674 L 105.2015 167.1874 L 106.5161 166.7239 L 107.8306 166.2334 L 109.1452 165.7708 L 110.4597 165.3226 L 111.7743 164.9203 L 113.0888 164.6953 L 114.4034 164.5198 L 115.7179 164.095 L 117.0324 163.7269 L 118.347 163.2409 L 119.6615 162.7765 L 120.9761 162.295 L 122.2906 161.9719 L 123.6052 161.7163 L 124.9197 161.1772 L 126.2343 160.7056 L 127.5488 160.2178 L 128.8634 159.6886 L 130.1779 159.2701 L 131.4925 158.9866 L 132.807 158.7643 L 134.1216 158.3287 L 135.4361 157.7779 L 136.7506 157.3063 L 138.0652 156.8185 L 139.3797 156.4252 L 140.6943 156.1021 L 142.0088 155.8771 L 143.3234 155.3956 L 144.6379 154.9159 L 145.9525 154.4461 L 147.267 153.9358 L 148.5816 153.4669 L 149.8961 153.2383 L 151.2106 153.0268 L 152.5252 152.6281 L 153.8397 152.2258 L 155.1543 151.7686 L 156.4688 151.243 L 157.7834 150.7363 L 159.0979 150.3583 L 160.4125 149.9713 L 161.727 149.3188 L 163.0416 148.7068 L 164.3561 148.1056 L 165.6707 147.5728 L 166.9852 147.04 L 168.2998 146.5432 L 169.6143 146.248 L 170.9288 145.654 L 172.2434 145.0951 L 173.5579 144.5254 L 174.8725 143.9134 L 176.187 143.5111 L 177.5016 143.2663 L 178.8161 143.0548 L 180.1307 142.5049 L 181.4452 141.919 L 182.7598 141.3907 L 184.0743 140.8543 L 185.3889 140.3332 L 186.7034 139.9714 L 188.0179 139.7014 L 189.3325 139.1173 L 190.647 138.5404 L 191.9616 137.9698 L 193.2761 137.4253 L 194.5907 136.7044 L 195.9052 136.0672 L 197.2198 135.6523 L 198.5343 134.9728 L 199.8489 134.2942 L 201.1634 133.5121 L 202.478 132.8326 L 203.7925 132.3196 L 205.1071 132.0379 L 206.4216 131.7364 L 207.7361 131.1163 L 209.0507 130.57 L 210.3652 130.0363 L 211.6798 129.5395 L 212.9943 129.049 L 214.3089 128.7556 L 215.6234 128.5027 L 216.938 127.8844 L 218.2525 127.312 L 219.5671 126.718 L 220.8816 126.1078 L 222.1962 125.5498 L 223.5107 125.1637 L 224.8252 124.8766 L 226.1398 124.5238 L 227.4543 123.8326 L 228.7689 123.2422 L 230.0834 122.569 L 231.398 122.0011 L 232.7125 121.6114 L 234.0271 121.309 L 235.3416 120.8032 L 236.6562 120.2029 L 237.9707 119.7052 L 239.2852 118.9798 L 240.5998 118.2931 L 241.9143 117.9034 L 243.2289 117.5047 L 244.5434 116.7685 L 245.858 116.2348 L 247.1725 115.621 L 248.4871 115.009 L 249.8016 114.4888 L 251.1162 114.1783 L 252.4307 113.8966 L 253.7453 113.227 L 255.0598 112.6528 L 256.3744 112.1857 L 257.6889 111.6673 L 259.0034 111.0949 L 260.318 110.6872 L 261.6325 110.3758 L 262.9471 109.8727 L 264.2616 109.2769 L 265.5762 108.7558 L 266.8907 108.223 L 268.2053 107.6974 L 269.5198 107.3248 L 270.8344 107.0638 L 272.1489 106.4554 L 273.4635 105.8938 L 274.778 105.2125 L 276.0926 104.938 L 277.4071 104.4205 L 278.7216 104.0839 L 280.0362 103.8355 L 281.3507 103.138 L 282.6653 102.5629 L 283.9798 102.0049 L 285.2944 101.356 L 286.6089 100.852 L 287.9235 100.4848 L 289.238 100.2031 L 290.5526 99.6694 L 291.8671 99.1771 L 293.1816 98.6128 L 294.4962 98.0476 L 295.8107 97.4005 L 297.1253 97.0405 L 298.4398 96.7633 L 299.7544 96.154 L 301.0689 95.5285 L 302.3835 95.0137 L 303.698 94.5061 L 305.0126 93.9787 L 306.3271 93.5971 L 307.6417 93.3262 L 308.9562 92.8285 L 310.2708 92.2642 L 311.5853 91.7314 L 312.8998 91.2166 L 314.2144 90.6163 L 315.5289 90.2662 L 316.8435 89.9962 L 318.158 89.4679 L 319.4726 88.9324 L 320.7871 88.3987 L 322.1017 87.8479 L 323.4162 87.3052 L 324.7308 86.992 L 326.0453 86.7382 L 327.3599 86.1856 L 328.6744 85.633 L 329.989 85.0444 L 331.3035 84.4018 L 332.618 83.8321 L 333.9326 83.5252 L 335.2471 83.2642 L 336.5617 82.6783 L 337.8762 82.0861 L 339.1908 81.5713 L 340.5053 81.0367 L 341.8199 80.5318 L 343.1344 80.2258 L 344.4489 79.9558 L 345.7635 79.4068 L 347.078 78.8506 L 348.3926 78.3259 L 349.7072 77.7436 L 351.0217 77.1982 L 352.3362 76.8769 L 353.6508 76.5826 L 354.9653 76.3162 L 356.2799 75.7834 L 357.5944 75.2722 L 358.909 74.6683 L 360.2235 74.1463 L 361.5381 73.8403 L 362.8526 73.5568 L 364.1671 73.0366 L 365.4817 72.5092 L 366.7962 71.9017 L 368.1108 71.3626 L 369.4253 70.8073 L 370.7399 70.4707 L 372.0544 70.2097 L 373.369 69.6346 L 374.6835 69.0892 L 375.9981 68.5564 L 377.3126 68.0155 L 378.6272 67.4728 L 379.9417 67.1245 L 381.2563 66.868 L 382.5708 66.3514 L 383.8853 65.7727 L 385.1999 65.2606 L 386.5144 64.6873 L 387.829 64.1113 L 389.1435 63.817 L 390.4581 63.6037 L 391.7726 63.0952 L 393.0872 62.5615 L 394.4017 62.0125 L 395.7162 61.5004 L 397.0308 60.9658 L 398.3454 60.658 L 399.6599 60.4474 L 400.9745 59.8795 L 402.289 59.3341 L 403.6035 58.7365 L 404.9181 58.2775 L 406.2326 57.6646 L 407.5472 57.3586 L 408.8617 57.1381 L 410.1763 56.6413 L 411.4908 56.0509 L 412.8054 55.5352 L 414.1199 54.871 L 415.4344 54.3688 L 416.749 53.9647 L 418.0635 53.7325 L 419.3781 53.1376 L 420.6926 52.5904 L 422.0072 52.1017 L 423.3217 51.568 L 424.6363 50.9875 L 425.9508 50.6554 L 427.2654 50.3989 L 428.5799 49.8688 L 429.8945 49.4242 L 431.209 48.9985 L 432.5236 48.5188 L 433.8381 48.0643 L 435.1526 47.7952 L 436.4672 47.5639 L 437.7817 47.0815 L 439.0963 46.4677 L 440.4108 45.8512 L 441.7254 45.3571 L 443.0399 44.9773 L 444.3545 44.6668 L 445.669 44.485 L 446.9836 44.089 L 448.2981 43.6939 L 449.6127 43.2655 L 450.9272 42.8443 L 452.2418 42.4069 L 453.5563 42.1747 L 454.8708 41.9479 L 456.1854 41.4826 L 457.4999 40.984 L 458.8145 40.5484 L 460.129 39.9967 L 461.4436 39.6016 L 462.7581 39.3694 L 464.0727 39.1723 L 465.3872 38.7223 L 466.7018 38.3461 L 468.0163 38.05 L 469.3308 37.9672 L 470.6454 37.7494 L 471.9599 37.4686 L 473.2745 37.2463 L 474.5891 36.7594 L 475.9036 36.2293 L 477.2181 35.7064 L 478.5327 35.3176 L 479.8472 34.8424 L 481.1618 34.5481 L 482.4763 34.2916 L 483.7909 33.8515 L 485.1054 33.5014 L 486.42 33.1297 L 487.7345 32.7076 L 489.049 32.2558 L 490.3636 31.9642 L 491.6781 31.7374 L 492.9927 31.246 L 494.3072 30.8536 L 495.6218 30.4261 L 496.9363 29.9797 L 498.2509 29.6269 L 499.5654 29.4028 L 500.88 29.2471 L 502.1945 28.9159 L 503.5091 28.7494 L 504.8236 28.5784 L 506.1382 28.2364 L 507.4527 27.8845 L 508.7672 27.6235 L 510.0818 27.3787 L 511.3963 26.9809 L 512.7109 26.6245" fill="none" stroke="hsla(207, 65%, 39%, 1)" stroke-width="2" paint-order="fill" stroke-opacity="1" stroke-dasharray="none" stroke-linecap="butt" stroke-linejoin="round" stroke-miterlimit="10">
</path>
</g>
<g clip-path="url(#zr2556-clip-1)">
<path d="M 34.216 186.7948 L 35.5306 186.3808 L 36.8451 185.9209 L 38.1597 185.5798 L 39.4742 185.3944 L 40.7888 184.948 L 42.1033 184.5025 L 43.4179 184.0174 L 44.7324 183.5719 L 46.0469 183.1354 L 47.3615 182.8852 L 48.676 182.7178 L 49.9906 182.1778 L 51.3051 181.6657 L 52.6197 181.1509 L 53.9342 180.6955 L 55.2488 180.3076 L 56.5633 179.9512 L 57.8779 179.6947 L 59.1924 179.3599 L 60.507 178.882 L 61.8215 178.4599 L 63.136 177.9784 L 64.4506 177.4141 L 65.7651 177.1126 L 67.0797 176.8849 L 68.3942 176.3656 L 69.7088 175.9417 L 71.0233 175.4881 L 72.3379 175.0147 L 73.6524 174.6214 L 74.967 174.3154 L 76.2815 174.0643 L 77.5961 173.662 L 78.9106 173.0878 L 80.2252 172.7224 L 81.5397 172.2994 L 82.8542 171.8089 L 84.1688 171.4975 L 85.4833 171.3103 L 86.7979 170.8675 L 88.1124 170.4832 L 89.427 170.0557 L 90.7415 169.6246 L 92.0561 169.2187 L 93.3706 168.91 L 94.6852 168.6562 L 95.9997 168.2305 L 97.3143 167.866 L 98.6288 167.5159 L 99.9433 167.1694 L 101.2579 166.6969 L 102.5724 166.4206 L 103.887 166.1866 L 105.2015 165.6115 L 106.5161 165.1426 L 107.8306 164.7646 L 109.1452 164.3074 L 110.4597 163.816 L 111.7743 163.4812 L 113.0888 163.1095 L 114.4034 162.5983 L 115.7179 162.1033 L 117.0324 161.5597 L 118.347 161.0125 L 119.6615 160.5067 L 120.9761 160.1899 L 122.2906 159.8983 L 123.6052 159.4501 L 124.9197 158.9875 L 126.2343 158.461 L 127.5488 158.0011 L 128.8634 157.6114 L 130.1779 157.2613 L 131.4925 157.0426 L 132.807 156.7024 L 134.1216 156.3694 L 135.4361 155.9689 L 136.7506 155.5945 L 138.0652 155.3344 L 139.3797 155.0968 L 140.6943 154.9294 L 142.0088 154.5379 L 143.3234 154.204 L 144.6379 153.8521 L 145.9525 153.484 L 147.267 153.1195 L 148.5816 152.8837 L 149.8961 152.6848 L 151.2106 152.4247 L 152.5252 152.0818 L 153.8397 151.7308 L 155.1543 151.3987 L 156.4688 151.0513 L 157.7834 150.8578 L 159.0979 150.631 L 160.4125 150.2521 L 161.727 149.8903 L 163.0416 149.5879 L 164.3561 149.2414 L 165.6707 148.948 L 166.9852 148.6789 L 168.2998 148.4665 L 169.6143 148.0732 L 170.9288 147.7393 L 172.2434 147.3793 L 173.5579 147.0103 L 174.8725 146.7178 L 176.187 146.5108 L 177.5016 146.3542 L 178.8161 145.9888 L 180.1307 145.618 L 181.4452 145.2814 L 182.7598 144.9412 L 184.0743 144.5893 L 185.3889 144.3562 L 186.7034 144.1582 L 188.0179 143.8036 L 189.3325 143.3815 L 190.647 142.8964 L 191.9616 142.549 L 193.2761 142.2106 L 194.5907 141.9541 L 195.9052 141.7849 L 197.2198 141.3637 L 198.5343 140.9056 L 199.8489 140.4466 L 201.1634 139.975 L 202.478 139.5079 L 203.7925 139.237 L 205.1071 138.9796 L 206.4216 138.5935 L 207.7361 138.2335 L 209.0507 137.7943 L 210.3652 137.3641 L 211.6798 136.9123 L 212.9943 136.4155 L 214.3089 136.1086 L 215.6234 135.5992 L 216.938 135.1411 L 218.2525 134.719 L 219.5671 134.2834 L 220.8816 133.837 L 222.1962 133.5265 L 223.5107 133.2304 L 224.8252 132.8515 L 226.1398 132.3097 L 227.4543 131.8489 L 228.7689 131.335 L 230.0834 130.8733 L 231.398 130.5997 L 232.7125 130.3324 L 234.0271 129.8554 L 235.3416 129.3901 L 236.6562 128.9149 L 237.9707 128.5252 L 239.2852 128.1049 L 240.5998 127.8169 L 241.9143 127.5946 L 243.2289 127.1338 L 244.5434 126.664 L 245.858 126.1879 L 247.1725 125.7253 L 248.4871 125.3086 L 249.8016 125.0764 L 251.1162 124.8127 L 252.4307 124.3978 L 253.7453 123.9703 L 255.0598 123.5113 L 256.3744 123.1441 L 257.6889 122.7679 L 259.0034 122.4565 L 260.318 122.2054 L 261.6325 121.795 L 262.9471 121.2343 L 264.2616 120.7195 L 265.5762 120.1741 L 266.8907 119.7349 L 268.2053 119.4217 L 269.5198 119.1553 L 270.8344 118.6477 L 272.1489 118.1815 L 273.4635 117.6028 L 274.778 117.0844 L 276.0926 116.6371 L 277.4071 116.3572 L 278.7216 116.0629 L 280.0362 115.6201 L 281.3507 115.0342 L 282.6653 114.5509 L 283.9798 114.0775 L 285.2944 113.5915 L 286.6089 113.2324 L 287.9235 112.9633 L 289.238 112.5196 L 290.5526 112.0516 L 291.8671 111.5638 L 293.1816 111.0733 L 294.4962 110.5558 L 295.8107 110.2327 L 297.1253 109.9915 L 298.4398 109.5037 L 299.7544 109.0618 L 301.0689 108.6532 L 302.3835 108.2086 L 303.698 107.7685 L 305.0126 107.4436 L 306.3271 107.2177 L 307.6417 106.7344 L 308.9562 106.2592 L 310.2708 105.7957 L 311.5853 105.3709 L 312.8998 104.8444 L 314.2144 104.488 L 315.5289 104.2189 L 316.8435 103.7824 L 318.158 103.3 L 319.4726 102.8293 L 320.7871 102.3613 L 322.1017 101.9275 L 323.4162 101.7268 L 324.7308 101.4676 L 326.0453 100.978 L 327.3599 100.5154 L 328.6744 100.0717 L 329.989 99.6757 L 331.3035 99.2302 L 332.618 98.9233 L 333.9326 98.692 L 335.2471 98.1934 L 336.5617 97.7083 L 337.8762 97.2682 L 339.1908 96.7957 L 340.5053 96.3196 L 341.8199 95.794 L 343.1344 95.5465 L 344.4489 94.9849 L 345.7635 94.4395 L 347.078 94.0183 L 348.3926 93.589 L 349.7072 93.1255 L 351.0217 92.7862 L 352.3362 92.5666 L 353.6508 92.0599 L 354.9653 91.6108 L 356.2799 91.1725 L 357.5944 90.7648 L 358.909 90.2689 L 360.2235 89.9233 L 361.5381 89.6614 L 362.8526 89.3536 L 364.1671 88.8964 L 365.4817 88.2988 L 366.7962 87.8164 L 368.1108 87.298 L 369.4253 86.8975 L 370.7399 86.6419 L 372.0544 86.1478 L 373.369 85.6204 L 374.6835 85.1164 L 375.9981 84.6835 L 377.3126 84.2479 L 378.6272 83.8582 L 379.9417 83.5585 L 381.2563 83.1661 L 382.5708 82.7215 L 383.8853 82.2436 L 385.1999 81.7225 L 386.5144 81.259 L 387.829 80.9089 L 389.1435 80.62 L 390.4581 80.0647 L 391.7726 79.5301 L 393.0872 79.0297 L 394.4017 78.5464 L 395.7162 78.037 L 397.0308 77.7247 L 398.3454 77.4727 L 399.6599 76.9579 L 400.9745 76.4764 L 402.289 75.9589 L 403.6035 75.49 L 404.9181 74.9806 L 406.2326 74.671 L 407.5472 74.4478 L 408.8617 73.9366 L 410.1763 73.4083 L 411.4908 72.9277 L 412.8054 72.4651 L 414.1199 71.9953 L 415.4344 71.6623 L 416.749 71.4427 L 418.0635 70.9261 L 419.3781 70.5175 L 420.6926 70.0729 L 422.0072 69.5554 L 423.3217 69.1315 L 424.6363 68.7904 L 425.9508 68.5438 L 427.2654 68.1532 L 428.5799 67.7545 L 429.8945 67.3639 L 431.209 66.8698 L 432.5236 66.4432 L 433.8381 66.1534 L 435.1526 65.9293 L 436.4672 65.4496 L 437.7817 65.0563 L 439.0963 64.636 L 440.4108 64.2373 L 441.7254 63.7882 L 443.0399 63.52 L 444.3545 63.2824 L 445.669 62.8009 L 446.9836 62.2942 L 448.2981 61.8685 L 449.6127 61.4203 L 450.9272 60.9199 L 452.2418 60.5968 L 453.5563 60.3331 L 454.8708 59.8948 L 456.1854 59.4556 L 457.4999 59.0281 L 458.8145 58.6213 L 460.129 58.1479 L 461.4436 57.8059 L 462.7581 57.5458 L 464.0727 57.1633 L 465.3872 56.7781 L 466.7018 56.4487 L 468.0163 56.3227 L 469.3308 56.0761 L 470.6454 55.8763 L 471.9599 55.627 L 473.2745 55.2022 L 474.5891 54.8251 L 475.9036 54.4633 L 477.2181 54.0655 L 478.5327 53.6767 L 479.8472 53.4184 L 481.1618 53.1754 L 482.4763 52.7326 L 483.7909 52.3159 L 485.1054 51.9433 L 486.42 51.5356 L 487.7345 51.2062 L 489.049 50.9281 L 490.3636 50.7139 L 491.6781 50.3026 L 492.9927 49.9291 L 494.3072 49.5583 L 495.6218 49.1812 L 496.9363 48.6925 L 498.2509 48.4315 L 499.5654 48.1957 L 500.88 47.8231 L 502.1945 47.2651 L 503.5091 46.9015 L 504.8236 46.7017 L 506.1382 46.5793 L 507.4527 46.3309 L 508.7672 46.0969 L 510.0818 45.6136 L 511.3963 45.1645 L 512.7109 44.7667 L 514.0255 44.4571" fill="none" stroke="hsla(195, 49%, 51%, 1)" stroke-width="2" paint-order="fill" stroke-opacity="1" stroke-dasharray="none" stroke-linecap="butt" stroke-linejoin="round" stroke-miterlimit="10">
</path>
</g>
<g clip-path="url(#zr2556-clip-2)">
<path d="M 34.216 186.7633 L 35.5306 186.4258 L 36.8451 186.1819 L 38.1597 185.6779 L 39.4742 185.2081 L 40.7888 184.8184 L 42.1033 184.3675 L 43.4179 183.94 L 44.7324 183.6007 L 46.0469 183.4009 L 47.3615 182.9959 L 48.676 182.5855 L 49.9906 182.1742 L 51.3051 181.6711 L 52.6197 181.2103 L 53.9342 180.9106 L 55.2488 180.6712 L 56.5633 180.1717 L 57.8779 179.7226 L 59.1924 179.3077 L 60.507 178.8838 L 61.8215 178.3888 L 63.136 178.0936 L 64.4506 177.8506 L 65.7651 177.3475 L 67.0797 176.8651 L 68.3942 176.4349 L 69.7088 175.993 L 71.0233 175.4854 L 72.3379 175.1443 L 73.6524 174.8752 L 74.967 174.4099 L 76.2815 173.9041 L 77.5961 173.4685 L 78.9106 172.9879 L 80.2252 172.5217 L 81.5397 172.1833 L 82.8542 171.9457 L 84.1688 171.3778 L 85.4833 170.9161 L 86.7979 170.4553 L 88.1124 169.9558 L 89.427 169.5364 L 90.7415 169.2637 L 92.0561 169.0702 L 93.3706 169.009 L 94.6852 168.9271 L 95.9997 168.7102 L 97.3143 168.5446 L 98.6288 168.2764 L 99.9433 167.8273 L 101.2579 167.2531 L 102.5724 166.777 L 103.887 166.2478 L 105.2015 165.7321 L 106.5161 165.2326 L 107.8306 164.7016 L 109.1452 164.3452 L 110.4597 164.0023 L 111.7743 163.4713 L 113.0888 162.9124 L 114.4034 162.4147 L 115.7179 161.8864 L 117.0324 161.4103 L 118.347 161.0782 L 119.6615 160.8298 L 120.9761 160.3393 L 122.2906 159.766 L 123.6052 158.9911 L 124.9197 158.1847 L 126.2343 157.192 L 127.5488 156.5854 L 128.8634 156.2839 L 130.1779 155.6773 L 131.4925 154.9519 L 132.807 154.1212 L 134.1216 153.3328 L 135.4361 152.566 L 136.7506 152.1466 L 138.0652 151.8298 L 139.3797 151.2799 L 140.6943 150.6283 L 142.0088 150.0739 L 143.3234 149.4718 L 144.6379 148.8697 L 145.9525 148.4377 L 147.267 148.0957 L 148.5816 147.535 L 149.8961 146.9419 L 151.2106 146.4334 L 152.5252 145.9258 L 153.8397 145.4749 L 155.1543 145.159 L 156.4688 144.9394 L 157.7834 144.3913 L 159.0979 143.9215 L 160.4125 143.3401 L 161.727 142.8136 L 163.0416 142.2394 L 164.3561 141.7993 L 165.6707 141.4501 L 166.9852 140.8678 L 168.2998 140.326 L 169.6143 139.7032 L 170.9288 139.165 L 172.2434 138.5836 L 173.5579 138.1669 L 174.8725 137.8573 L 176.187 137.302 L 177.5016 136.7845 L 178.8161 136.2184 L 180.1307 135.691 L 181.4452 135.0646 L 182.7598 134.71 L 184.0743 134.4274 L 185.3889 133.9063 L 186.7034 133.3897 L 188.0179 132.865 L 189.3325 132.3151 L 190.647 131.7679 L 191.9616 131.2423 L 193.2761 130.8733 L 194.5907 130.2298 L 195.9052 129.6691 L 197.2198 129.0796 L 198.5343 128.5162 L 199.8489 127.9186 L 201.1634 127.5586 L 202.478 127.3264 L 203.7925 126.7441 L 205.1071 126.2167 L 206.4216 125.7271 L 207.7361 125.2132 L 209.0507 124.6354 L 210.3652 124.2394 L 211.6798 123.955 L 212.9943 123.4177 L 214.3089 122.8732 L 215.6234 122.3197 L 216.938 121.7347 L 218.2525 121.1173 L 219.5671 120.7195 L 220.8816 120.4882 L 222.1962 119.95 L 223.5107 119.3182 L 224.8252 118.6954 L 226.1398 118.1212 L 227.4543 117.4588 L 228.7689 116.6713 L 230.0834 116.2141 L 231.398 115.7587 L 232.7125 115.0072 L 234.0271 114.3601 L 235.3416 113.7139 L 236.6562 113.0119 L 237.9707 112.6024 L 239.2852 112.2658 L 240.5998 111.625 L 241.9143 110.9806 L 243.2289 110.3506 L 244.5434 109.7278 L 245.858 109.1374 L 247.1725 108.754 L 248.4871 108.4183 L 249.8016 107.8036 L 251.1162 107.2024 L 252.4307 106.5418 L 253.7453 105.955 L 255.0598 105.4321 L 256.3744 105.0685 L 257.6889 104.8048 L 259.0034 104.2351 L 260.318 103.6564 L 261.6325 103.1236 L 262.9471 102.6232 L 264.2616 102.0877 L 265.5762 101.7133 L 266.8907 101.4109 L 268.2053 100.8322 L 269.5198 100.0879 L 270.8344 99.5146 L 272.1489 98.9476 L 273.4635 98.4391 L 274.778 98.0998 L 276.0926 97.8649 L 277.4071 97.4599 L 278.7216 96.8326 L 280.0362 96.2638 L 281.3507 95.6446 L 282.6653 95.1442 L 283.9798 94.6834 L 285.2944 94.4125 L 286.6089 93.8716 L 287.9235 93.2866 L 289.238 92.6413 L 290.5526 92.1076 L 291.8671 91.5658 L 293.1816 91.2544 L 294.4962 91.0096 L 295.8107 90.4417 L 297.1253 89.8333 L 298.4398 89.2492 L 299.7544 88.6426 L 301.0689 88.0468 L 302.3835 87.7372 L 303.698 87.4312 L 305.0126 86.8777 L 306.3271 86.3062 L 307.6417 85.7383 L 308.9562 85.2181 L 310.2708 84.7159 L 311.5853 84.3838 L 312.8998 84.148 L 314.2144 83.5819 L 315.5289 82.969 L 316.8435 82.4281 L 318.158 81.8602 L 319.4726 81.2842 L 320.7871 80.9557 L 322.1017 80.6605 L 323.4162 80.0962 L 324.7308 79.5652 L 326.0453 79.018" fill="none" stroke="hsla(207, 69%, 79%, 1)" stroke-width="2" paint-order="fill" stroke-opacity="1" stroke-dasharray="none" stroke-linecap="butt" stroke-linejoin="round" stroke-miterlimit="10">
</path>
</g>
<path d="M 0 0 L 152.5859 0 L 152.5859 14 L 0 14 L 0 0 Z" fill="rgb(0,0,0)" fill-opacity="0" stroke="#ccc" stroke-width="0" paint-order="fill" stroke-opacity="1" stroke-dasharray="none" stroke-linecap="butt" stroke-miterlimit="10" transform="matrix(1,0,0,1,211.707,0)">
</path>
<path d="M 19.5 7 A 7 7 0 1 1 19.5 6.9993" fill="hsla(207, 65%, 39%, 1)" fill-opacity="1" stroke="none" transform="matrix(1,0,0,1,206.207,0)">
</path>
<text xml:space="preserve" fill="hsla(212, 10%, 53%, 1)" fill-opacity="1" stroke="none" transform="matrix(1,0,0,1,206.207,0)" dominant-baseline="central" text-anchor="start" x="23" y="7" style="font: 12px sans-serif;">2019</text>
<path d="M 19.5 7 A 7 7 0 1 1 19.5 6.9993" fill="hsla(195, 49%, 51%, 1)" fill-opacity="1" stroke="none" transform="matrix(1,0,0,1,260.4023,0)">
</path>
<text xml:space="preserve" fill="hsla(212, 10%, 53%, 1)" fill-opacity="1" stroke="none" transform="matrix(1,0,0,1,260.4023,0)" dominant-baseline="central" text-anchor="start" x="23" y="7" style="font: 12px sans-serif;">2020</text>
<path d="M 19.5 7 A 7 7 0 1 1 19.5 6.9993" fill="hsla(207, 69%, 79%, 1)" fill-opacity="1" stroke="none" transform="matrix(1,0,0,1,314.5977,0)">
</path>
<text xml:space="preserve" fill="hsla(212, 10%, 53%, 1)" fill-opacity="1" stroke="none" transform="matrix(1,0,0,1,314.5977,0)" dominant-baseline="central" text-anchor="start" x="23" y="7" style="font: 12px sans-serif;">2021</text>
<path d="M 0 0 L 0 0 L 0 0 L 0 0 L 0 0 Z" fill="rgb(0,0,0)" fill-opacity="0" stroke="#ccc" stroke-width="0" paint-order="fill" stroke-opacity="1" stroke-dasharray="none" stroke-linecap="butt" stroke-miterlimit="10">
</path>
</g>
</svg>