<svg width="741" height="162" viewBox="0 0 741 162" fill="none" xmlns="http://www.w3.org/2000/svg">
    <style>
        path {
          fill: black;
        }
        @media (prefers-color-scheme: dark) {
          path {
            fill: white;
          }
        }
      </style>
<path d="M185.098 46.91C202.378 46.91 211.423 58.655 211.423 74.315V77.15H167.008C166.198 97.805 176.593 109.55 190.228 109.55C199.678 109.55 205.618 105.365 210.478 98.075L212.233 99.02C208.993 111.575 199.408 120.35 184.693 120.35C165.253 120.35 153.373 105.365 153.373 85.52C153.373 62.975 167.143 46.91 185.098 46.91ZM183.883 51.5C174.163 51.5 168.493 60.68 167.413 72.83H197.383C197.383 60.41 193.603 51.5 183.883 51.5ZM295.764 48.26V52.175C290.769 53.39 290.094 54.335 288.879 57.17L262.824 120.215H258.909L230.424 57.17C229.209 54.335 228.399 53.39 223.539 52.175V48.26H256.614V52.175C249.729 52.985 247.299 53.525 247.299 56.63C247.299 57.71 247.569 58.79 248.109 60.41L265.254 101.45L281.589 60.275C282.264 58.52 282.534 57.71 282.534 56.63C282.534 53.525 279.969 53.12 273.084 52.175V48.26H295.764ZM332.744 46.91V108.74C332.744 113.735 334.904 114.68 341.654 115.085V119H308.714V115.085C315.464 114.68 317.624 113.735 317.624 108.74V60.545L309.119 55.82V53.93L330.584 46.91H332.744ZM324.779 37.325C319.244 37.325 315.194 33.005 315.194 27.875C315.194 22.61 319.244 18.29 324.779 18.29C330.314 18.29 334.499 22.61 334.499 27.875C334.499 33.005 330.314 37.325 324.779 37.325ZM390.83 51.635C378.545 51.635 370.85 63.38 370.85 81.065C370.85 97.535 378.005 110.225 391.37 110.225C397.04 110.225 401.63 108.335 405.14 104.69V70.13C405.14 58.52 399.47 51.635 390.83 51.635ZM405.14 26.525L396.635 21.935V19.91L418.1 13.295H420.26V105.365C420.26 109.955 420.53 111.17 426.2 111.71L429.71 111.98V115.49L407.3 120.35H404.6L405.14 107.795C399.74 115.22 392.99 120.35 383.405 120.35C366.935 120.35 356.27 106.715 356.27 87.005C356.27 62.03 370.85 47.045 389.885 47.045C396.5 47.045 401.765 48.935 405.14 52.04V26.525ZM475.627 46.91C492.907 46.91 501.952 58.655 501.952 74.315V77.15H457.537C456.727 97.805 467.122 109.55 480.757 109.55C490.207 109.55 496.147 105.365 501.007 98.075L502.762 99.02C499.522 111.575 489.937 120.35 475.222 120.35C455.782 120.35 443.902 105.365 443.902 85.52C443.902 62.975 457.672 46.91 475.627 46.91ZM474.412 51.5C464.692 51.5 459.022 60.68 457.942 72.83H487.912C487.912 60.41 484.132 51.5 474.412 51.5ZM569.663 108.74V69.32C569.663 60.275 566.018 56.225 558.323 56.225C551.978 56.225 546.038 59.465 541.313 63.245V108.74C541.313 113.735 543.473 114.68 550.088 115.085V119H517.283V115.085C524.033 114.68 526.193 113.735 526.193 108.74V60.545L517.688 55.82V53.93L539.558 46.91H541.853L541.313 59.87C547.388 52.985 555.218 46.91 566.018 46.91C578.573 46.91 584.783 54.065 584.783 68.645V108.74C584.783 113.735 586.943 114.68 593.693 115.085V119H560.753V115.085C567.503 114.68 569.663 113.735 569.663 108.74ZM621.052 79.31C621.052 97.13 629.422 109.145 643.192 109.145C651.967 109.145 658.042 105.23 662.497 98.48L664.522 99.425C660.337 113.06 651.022 120.35 638.062 120.35C620.242 120.35 607.687 106.715 607.687 86.06C607.687 63.65 620.782 46.91 641.437 46.91C654.262 46.91 662.632 52.31 662.632 61.76C662.632 65.675 660.607 68.915 657.907 70.4H648.997C649.267 68.645 649.537 66.755 649.537 64.325C649.537 57.575 647.242 51.5 639.007 51.5C627.802 51.5 621.052 63.65 621.052 79.31ZM710.432 46.91C727.712 46.91 736.757 58.655 736.757 74.315V77.15H692.342C691.532 97.805 701.927 109.55 715.562 109.55C725.012 109.55 730.952 105.365 735.812 98.075L737.567 99.02C734.327 111.575 724.742 120.35 710.027 120.35C690.587 120.35 678.707 105.365 678.707 85.52C678.707 62.975 692.477 46.91 710.432 46.91ZM709.217 51.5C699.497 51.5 693.827 60.68 692.747 72.83H722.717C722.717 60.41 718.937 51.5 709.217 51.5Z" />
<path d="M104 60.9316C84.1835 60.9316 68.5043 58.7744 52 67.5547C35.4957 76.335 19.4435 74.1777 0 74.1777V51.4701C19.4435 51.4701 35.5861 53.58 52 44.847C68.4139 36.114 84.1835 38.2239 104 38.2239V60.9316Z" />
<path d="M104 128.52C84.1835 128.52 68.5043 126.362 52 135.143C35.4957 143.923 19.4435 141.766 0 141.766V119.058C19.4435 119.058 35.5861 121.168 52 112.435C68.4139 103.702 84.1835 105.812 104 105.812V128.52Z" />
<path d="M82.1053 71.8118C71.6143 72.0272 61.9249 73.3434 52 78.6239C38.3236 85.9004 24.8356 85.6492 9.46949 85.363C6.39376 85.3057 3.24278 85.247 0 85.247V107.955C3.28165 107.955 6.46672 108.016 9.57364 108.076C24.8749 108.371 38.2813 108.63 52 101.332C61.9715 96.0267 71.6418 94.7144 82.1053 94.5066V71.8118Z" />
</svg>
