<svg width="247" height="54" viewBox="0 0 247 54" fill="none" xmlns="http://www.w3.org/2000/svg">
    <style>
        path {
          fill: black;
        }
        @media (prefers-color-scheme: dark) {
          path {
            fill: white;
          }
        }
      </style>
<path d="M61.7579 15.97C67.5179 15.97 70.5329 19.885 70.5329 25.105V26.05H55.7279C55.4579 32.935 58.9229 36.85 63.4679 36.85C66.6179 36.85 68.5979 35.455 70.2179 33.025L70.8029 33.34C69.7229 37.525 66.5279 40.45 61.6229 40.45C55.1429 40.45 51.1829 35.455 51.1829 28.84C51.1829 21.325 55.7729 15.97 61.7579 15.97ZM61.3529 17.5C58.1129 17.5 56.2229 20.56 55.8629 24.61H65.8529C65.8529 20.47 64.5929 17.5 61.3529 17.5ZM98.6467 16.42V17.725C96.9817 18.13 96.7567 18.445 96.3517 19.39L87.6667 40.405H86.3617L76.8667 19.39C76.4617 18.445 76.1917 18.13 74.5717 17.725V16.42H85.5967V17.725C83.3017 17.995 82.4917 18.175 82.4917 19.21C82.4917 19.57 82.5817 19.93 82.7617 20.47L88.4767 34.15L93.9217 20.425C94.1467 19.84 94.2367 19.57 94.2367 19.21C94.2367 18.175 93.3817 18.04 91.0867 17.725V16.42H98.6467ZM110.973 15.97V36.58C110.973 38.245 111.693 38.56 113.943 38.695V40H102.963V38.695C105.213 38.56 105.933 38.245 105.933 36.58V20.515L103.098 18.94V18.31L110.253 15.97H110.973ZM108.318 12.775C106.473 12.775 105.123 11.335 105.123 9.625C105.123 7.87 106.473 6.43 108.318 6.43C110.163 6.43 111.558 7.87 111.558 9.625C111.558 11.335 110.163 12.775 108.318 12.775ZM130.335 17.545C126.24 17.545 123.675 21.46 123.675 27.355C123.675 32.845 126.06 37.075 130.515 37.075C132.405 37.075 133.935 36.445 135.105 35.23V23.71C135.105 19.84 133.215 17.545 130.335 17.545ZM135.105 9.175L132.27 7.645V6.97L139.425 4.765H140.145V35.455C140.145 36.985 140.235 37.39 142.125 37.57L143.295 37.66V38.83L135.825 40.45H134.925L135.105 36.265C133.305 38.74 131.055 40.45 127.86 40.45C122.37 40.45 118.815 35.905 118.815 29.335C118.815 21.01 123.675 16.015 130.02 16.015C132.225 16.015 133.98 16.645 135.105 17.68V9.175ZM158.601 15.97C164.361 15.97 167.376 19.885 167.376 25.105V26.05H152.571C152.301 32.935 155.766 36.85 160.311 36.85C163.461 36.85 165.441 35.455 167.061 33.025L167.646 33.34C166.566 37.525 163.371 40.45 158.466 40.45C151.986 40.45 148.026 35.455 148.026 28.84C148.026 21.325 152.616 15.97 158.601 15.97ZM158.196 17.5C154.956 17.5 153.066 20.56 152.706 24.61H162.696C162.696 20.47 161.436 17.5 158.196 17.5ZM189.946 36.58V23.44C189.946 20.425 188.731 19.075 186.166 19.075C184.051 19.075 182.071 20.155 180.496 21.415V36.58C180.496 38.245 181.216 38.56 183.421 38.695V40H172.486V38.695C174.736 38.56 175.456 38.245 175.456 36.58V20.515L172.621 18.94V18.31L179.911 15.97H180.676L180.496 20.29C182.521 17.995 185.131 15.97 188.731 15.97C192.916 15.97 194.986 18.355 194.986 23.215V36.58C194.986 38.245 195.706 38.56 197.956 38.695V40H186.976V38.695C189.226 38.56 189.946 38.245 189.946 36.58ZM207.076 26.77C207.076 32.71 209.866 36.715 214.456 36.715C217.381 36.715 219.406 35.41 220.891 33.16L221.566 33.475C220.171 38.02 217.066 40.45 212.746 40.45C206.806 40.45 202.621 35.905 202.621 29.02C202.621 21.55 206.986 15.97 213.871 15.97C218.146 15.97 220.936 17.77 220.936 20.92C220.936 22.225 220.261 23.305 219.361 23.8H216.391C216.481 23.215 216.571 22.585 216.571 21.775C216.571 19.525 215.806 17.5 213.061 17.5C209.326 17.5 207.076 21.55 207.076 26.77ZM236.869 15.97C242.629 15.97 245.644 19.885 245.644 25.105V26.05H230.839C230.569 32.935 234.034 36.85 238.579 36.85C241.729 36.85 243.709 35.455 245.329 33.025L245.914 33.34C244.834 37.525 241.639 40.45 236.734 40.45C230.254 40.45 226.294 35.455 226.294 28.84C226.294 21.325 230.884 15.97 236.869 15.97ZM236.464 17.5C233.224 17.5 231.334 20.56 230.974 24.61H240.964C240.964 20.47 239.704 17.5 236.464 17.5Z"/>
<path d="M34.7073 20.3343C28.094 20.3343 22.8615 19.6144 17.3536 22.5446C11.8457 25.4748 6.48875 24.7549 0 24.7549V17.1768C6.48875 17.1768 11.8759 17.8809 17.3536 14.9665C22.8314 12.0521 28.094 12.7563 34.7073 12.7563V20.3343Z"/>
<path d="M34.7073 42.8901C28.094 42.8901 22.8615 42.1702 17.3536 45.1003C11.8457 48.0305 6.48875 47.3106 0 47.3106V39.7325C6.48875 39.7325 11.8759 40.4367 17.3536 37.5223C22.8314 34.6078 28.094 35.312 34.7073 35.312V42.8901Z"/>
<path d="M27.4005 23.9653C23.8994 24.0372 20.6658 24.4764 17.3536 26.2387C12.7895 28.667 8.28823 28.5832 3.1602 28.4877C2.13375 28.4685 1.08219 28.449 0 28.449V36.027C1.09517 36.027 2.1581 36.0476 3.19495 36.0676C8.30135 36.1661 12.7754 36.2524 17.3536 33.8168C20.6814 32.0464 23.9086 31.6085 27.4005 31.5391V23.9653Z"/>
</svg>
