<svg width="477" height="154" viewBox="0 0 477 154" fill="none" xmlns="http://www.w3.org/2000/svg">
<path d="M64.9342 88.2628C64.9342 90.2628 64.8009 92.0628 64.5342 93.6628H24.0342C24.3676 97.6628 25.7676 100.796 28.2342 103.063C30.7009 105.329 33.7342 106.463 37.3342 106.463C42.5342 106.463 46.2342 104.229 48.4342 99.7628H63.5342C61.9342 105.096 58.8676 109.496 54.3342 112.963C49.8009 116.363 44.2342 118.063 37.6342 118.063C32.3009 118.063 27.5009 116.896 23.2342 114.563C19.0342 112.163 15.7342 108.796 13.3342 104.463C11.0009 100.129 9.83424 95.1294 9.83424 89.4628C9.83424 83.7294 11.0009 78.6961 13.3342 74.3628C15.6676 70.0294 18.9342 66.6961 23.1342 64.3628C27.3342 62.0294 32.1676 60.8628 37.6342 60.8628C42.9009 60.8628 47.6009 61.9961 51.7342 64.2628C55.9342 66.5294 59.1676 69.7628 61.4342 73.9628C63.7676 78.0961 64.9342 82.8628 64.9342 88.2628ZM50.4342 84.2628C50.3676 80.6628 49.0676 77.7961 46.5342 75.6628C44.0009 73.4628 40.9009 72.3628 37.2342 72.3628C33.7676 72.3628 30.8342 73.4294 28.4342 75.5628C26.1009 77.6294 24.6676 80.5294 24.1342 84.2628H50.4342ZM98.253 104.263L112.253 61.7628H127.153L106.653 117.163H89.653L69.253 61.7628H84.253L98.253 104.263ZM142.116 55.1628C139.65 55.1628 137.583 54.3961 135.916 52.8628C134.316 51.2628 133.516 49.2961 133.516 46.9628C133.516 44.6294 134.316 42.6961 135.916 41.1628C137.583 39.5628 139.65 38.7628 142.116 38.7628C144.583 38.7628 146.616 39.5628 148.216 41.1628C149.883 42.6961 150.716 44.6294 150.716 46.9628C150.716 49.2961 149.883 51.2628 148.216 52.8628C146.616 54.3961 144.583 55.1628 142.116 55.1628ZM149.016 61.7628V117.163H135.016V61.7628H149.016ZM159.248 89.2628C159.248 83.6628 160.348 78.6961 162.548 74.3628C164.815 70.0294 167.882 66.6961 171.748 64.3628C175.615 62.0294 179.915 60.8628 184.648 60.8628C188.248 60.8628 191.682 61.6628 194.948 63.2628C198.215 64.7961 200.815 66.8628 202.748 69.4628V43.1628H216.948V117.163H202.748V108.963C201.015 111.696 198.582 113.896 195.448 115.563C192.315 117.229 188.682 118.063 184.548 118.063C179.882 118.063 175.615 116.863 171.748 114.463C167.882 112.063 164.815 108.696 162.548 104.363C160.348 99.9628 159.248 94.9294 159.248 89.2628ZM202.848 89.4628C202.848 86.0628 202.182 83.1628 200.848 80.7628C199.515 78.2961 197.715 76.4294 195.448 75.1628C193.182 73.8294 190.748 73.1628 188.148 73.1628C185.548 73.1628 183.148 73.7961 180.948 75.0628C178.748 76.3294 176.948 78.1961 175.548 80.6628C174.215 83.0628 173.548 85.9294 173.548 89.2628C173.548 92.5961 174.215 95.5294 175.548 98.0628C176.948 100.529 178.748 102.429 180.948 103.763C183.215 105.096 185.615 105.763 188.148 105.763C190.748 105.763 193.182 105.129 195.448 103.863C197.715 102.529 199.515 100.663 200.848 98.2628C202.182 95.7961 202.848 92.8628 202.848 89.4628ZM282.122 88.2628C282.122 90.2628 281.988 92.0628 281.722 93.6628H241.222C241.555 97.6628 242.955 100.796 245.422 103.063C247.888 105.329 250.922 106.463 254.522 106.463C259.722 106.463 263.422 104.229 265.622 99.7628H280.722C279.122 105.096 276.055 109.496 271.522 112.963C266.988 116.363 261.422 118.063 254.822 118.063C249.488 118.063 244.688 116.896 240.422 114.563C236.222 112.163 232.922 108.796 230.522 104.463C228.188 100.129 227.022 95.1294 227.022 89.4628C227.022 83.7294 228.188 78.6961 230.522 74.3628C232.855 70.0294 236.122 66.6961 240.322 64.3628C244.522 62.0294 249.355 60.8628 254.822 60.8628C260.088 60.8628 264.788 61.9961 268.922 64.2628C273.122 66.5294 276.355 69.7628 278.622 73.9628C280.955 78.0961 282.122 82.8628 282.122 88.2628ZM267.622 84.2628C267.555 80.6628 266.255 77.7961 263.722 75.6628C261.188 73.4628 258.088 72.3628 254.422 72.3628C250.955 72.3628 248.022 73.4294 245.622 75.5628C243.288 77.6294 241.855 80.5294 241.322 84.2628H267.622ZM323.04 60.9628C329.64 60.9628 334.974 63.0628 339.04 67.2628C343.107 71.3961 345.14 77.1961 345.14 84.6628V117.163H331.14V86.5628C331.14 82.1628 330.04 78.7961 327.84 76.4628C325.64 74.0628 322.64 72.8628 318.84 72.8628C314.974 72.8628 311.907 74.0628 309.64 76.4628C307.44 78.7961 306.34 82.1628 306.34 86.5628V117.163H292.34V61.7628H306.34V68.6628C308.207 66.2628 310.574 64.3961 313.44 63.0628C316.374 61.6628 319.574 60.9628 323.04 60.9628ZM354.854 89.4628C354.854 83.7294 356.02 78.7294 358.354 74.4628C360.687 70.1294 363.92 66.7961 368.054 64.4628C372.187 62.0628 376.92 60.8628 382.254 60.8628C389.12 60.8628 394.787 62.5961 399.254 66.0628C403.787 69.4628 406.82 74.2628 408.354 80.4628H393.254C392.454 78.0628 391.087 76.1961 389.154 74.8628C387.287 73.4628 384.954 72.7628 382.154 72.7628C378.154 72.7628 374.987 74.2294 372.654 77.1628C370.32 80.0294 369.154 84.1294 369.154 89.4628C369.154 94.7294 370.32 98.8294 372.654 101.763C374.987 104.629 378.154 106.063 382.154 106.063C387.82 106.063 391.52 103.529 393.254 98.4628H408.354C406.82 104.463 403.787 109.229 399.254 112.763C394.72 116.296 389.054 118.063 382.254 118.063C376.92 118.063 372.187 116.896 368.054 114.563C363.92 112.163 360.687 108.829 358.354 104.563C356.02 100.229 354.854 95.1961 354.854 89.4628ZM470.11 88.2628C470.11 90.2628 469.977 92.0628 469.71 93.6628H429.21C429.543 97.6628 430.943 100.796 433.41 103.063C435.877 105.329 438.91 106.463 442.51 106.463C447.71 106.463 451.41 104.229 453.61 99.7628H468.71C467.11 105.096 464.043 109.496 459.51 112.963C454.977 116.363 449.41 118.063 442.81 118.063C437.477 118.063 432.677 116.896 428.41 114.563C424.21 112.163 420.91 108.796 418.51 104.463C416.177 100.129 415.01 95.1294 415.01 89.4628C415.01 83.7294 416.177 78.6961 418.51 74.3628C420.843 70.0294 424.11 66.6961 428.31 64.3628C432.51 62.0294 437.343 60.8628 442.81 60.8628C448.077 60.8628 452.777 61.9961 456.91 64.2628C461.11 66.5294 464.343 69.7628 466.61 73.9628C468.943 78.0961 470.11 82.8628 470.11 88.2628ZM455.61 84.2628C455.543 80.6628 454.243 77.7961 451.71 75.6628C449.177 73.4628 446.077 72.3628 442.41 72.3628C438.943 72.3628 436.01 73.4294 433.61 75.5628C431.277 77.6294 429.843 80.5294 429.31 84.2628H455.61Z" fill="url(#paint0_linear)"/>
<defs>
<linearGradient id="paint0_linear" x1="55.2677" y1="33.3838" x2="449.331" y2="63.8009" gradientUnits="userSpaceOnUse">
<stop stop-color="#048AD6"/>
<stop offset="0.86541" stop-color="#02BB6D"/>
</linearGradient>
</defs>
</svg>
